<svg height="127.415" viewBox="0 0 197.493 127.415" width="197.493" xmlns="http://www.w3.org/2000/svg"><path d="m721.629 490.258h146.527l-50.966 127.415h-146.527z" fill="#004c2f" transform="translate(-670.663 -490.258)"/><path d="m45.869 22.935a22.935 22.935 0 1 1 -22.934-22.935 22.935 22.935 0 0 1 22.934 22.935zm-21.5-8.6a1.433 1.433 0 1 0 -2.867 0v13.74l-6.153-6.155a1.435 1.435 0 0 0 -2.03 2.03l8.6 8.6a1.433 1.433 0 0 0 2.03 0l8.6-8.6a1.435 1.435 0 1 0 -2.03-2.03l-6.152 6.155z" fill="#fff" fill-rule="evenodd" transform="matrix(0 1 -1 0 122.319 40.771)"/></svg>