<svg height="133" viewBox="0 0 395.938 133" width="395.938" xmlns="http://www.w3.org/2000/svg"><g fill="#ad1aac"><path d="m42.5 69.418h4.213v6.026h.117c2.34-4.153 4.857-6.5 9.891-6.5v4.215c-5.269.115-8.018 3.571-10.008 9.831v16.859h-4.213z" transform="translate(-4.698 32.565)"/><path d="m62.766 100.492c-8.309 0-12.466-7.022-12.466-15.8s4.157-15.8 12.466-15.8 12.466 7.022 12.466 15.8-4.155 15.8-12.466 15.8m0-27.973c-5.032 0-8.251 4.33-8.251 12.174s3.219 12.172 8.251 12.172 8.253-4.332 8.253-12.172-3.219-12.175-8.253-12.175" transform="translate(3.008 32.507)"/><path d="m75.365 80.012 6.378-10.828h4.742l-8.545 14.456 9.891 15.977h-4.859l-7.607-12.464-7.374 12.464h-4.74l9.6-15.977-8.9-14.456h4.74z" transform="translate(15.806 32.797)"/><path d="m77.048 75.327a12.461 12.461 0 0 1 11.414-6.436c5.147 0 10.531 2.457 10.531 9.13v15.332a23.543 23.543 0 0 0 .7 6.553h-4.328l-.465-4.213a13.589 13.589 0 0 1 -10.066 4.8c-4.682 0-8.66-2.809-8.66-8.368 0-6.672 5.092-10.008 18.609-12.408v-1.639c0-4.038-2.634-5.559-6.261-5.559-4.682 0-6.965 2.692-7.784 4.74zm17.732 8.135c-9.656 1.7-14.4 4.507-14.4 8.72 0 2.809 2.692 4.682 5.032 4.682 3.046 0 6.907-2.225 9.364-5.032z" transform="translate(28.573 32.508)"/><path d="m114.669 63.239v35.582a42.527 42.527 0 0 0 .235 6.67h-3.863l-.585-2.984a10.016 10.016 0 0 1 -8.018 3.571c-5.384 0-12.464-3.63-12.464-15.8 0-11.824 7.08-15.8 12.231-15.8 2.867 0 5.676 1.465 8.016 3.4l.235.117v-14.756zm-4.213 19.078c-2.282-2.517-5.149-4.213-7.666-4.213-4.915 0-8.6 3.219-8.6 12.406 0 7.724 3.336 11.937 8.6 11.937 2.692 0 4.682-1.169 7.666-4.1z" transform="translate(42.212 26.922)"/><path d="m124.482 99.616v-4.1h-.117c-2.4 2.692-5.559 4.682-9.012 4.682-4.505 0-8.778-2.34-8.778-8.9v-22.113h4.213v22c0 4.04 1.931 5.384 4.974 5.384 3.161 0 6.79-2.573 8.72-4.622v-22.762h4.218v30.431z" transform="translate(58.617 32.798)"/><path d="m123.331 92.184a10.278 10.278 0 0 0 8.72 4.68c4.565 0 6.553-2.457 6.553-5.032 0-7.726-18.023-3.628-17.673-14.748.177-5.265 4.213-8.251 10.066-8.193 3.98.06 8.368 2.225 10.418 5.326l-2.927 2.575c-2.342-2.867-4.565-4.271-7.841-4.271-3.571 0-5.5 1.813-5.5 4.505 0 6.613 17.675 3.219 17.675 14.571 0 5.911-5.149 8.9-10.651 8.9a15.174 15.174 0 0 1 -12.171-5.797z" transform="translate(71.878 32.506)"/><path d="m136.83 74.159v-10.008h4.213v10.008h7.024v3.628h-7.024v21.654c0 1.406 1 2.107 3.455 2.107a23.8 23.8 0 0 0 3.744-.292v3.451a19.358 19.358 0 0 1 -4.917.469c-4.565 0-6.5-1.171-6.5-5.032v-22.356h-4.974v-3.629z" transform="translate(83.599 27.824)"/><path d="m142.21 75.327a12.461 12.461 0 0 1 11.414-6.436c5.147 0 10.531 2.457 10.531 9.13v15.332a23.544 23.544 0 0 0 .7 6.553h-4.332l-.467-4.213a13.589 13.589 0 0 1 -10.066 4.8c-4.682 0-8.66-2.809-8.66-8.368 0-6.672 5.092-10.008 18.609-12.408v-1.639c0-4.038-2.634-5.559-6.261-5.559-4.682 0-6.965 2.692-7.784 4.74zm17.732 8.136c-9.657 1.7-14.4 4.507-14.4 8.72 0 2.809 2.692 4.682 5.032 4.682 3.046 0 6.907-2.225 9.364-5.032z" transform="translate(92.963 32.508)"/><path d="m159.286 74.159v-10.008h4.214v10.008h7.024v3.628h-7.024v21.654c0 1.406 1 2.107 3.455 2.107a23.8 23.8 0 0 0 3.744-.292v3.451a19.358 19.358 0 0 1 -4.917.469c-4.565 0-6.5-1.171-6.5-5.032v-22.356h-4.974v-3.629z" transform="translate(105.789 27.824)"/></g><path d="m185.775 47.554 38.658-16.325c7.633 5.038 12.963 11.394 14.028 17.844z" fill="#43b02a" transform="translate(136.879 -4.709)"/><path d="m185.321 23.495c-.137 0-.28-.008-.418-.008-18.055 0-13.229 9.734-7.815 20.019z" fill="#ad1aac" transform="translate(123.424 -12.359)"/><path d="m223.914 34.193a101.84 101.84 0 0 0 -21.713-8.7l-20.426 22.14z" fill="#4ec3e0" transform="translate(132.927 -10.377)"/><path d="m177.637 50.378 24.11-24.11a102.4 102.4 0 0 0 -19.371-2.75z" fill="#ad1aac" transform="translate(128.838 -12.328)"/><path d="m203.076 68.275a99.322 99.322 0 0 0 22.035-9.148l-43.336-13.958z" fill="#4ec3e0" transform="translate(132.927 9.066)"/><path d="m185.774 43.376 39.726 17.035c7.314-5.821 12.319-12.152 13.074-18.554z" fill="#43b02a" transform="translate(136.878 5.794)"/><path d="m177.545 48.345c-5.581 10.6-11.207 21.021 7.362 21.021.419 0 .849-.016 1.274-.024z" fill="#ad1aac" transform="translate(123.423 12.205)"/><path d="m182.638 72.668a103.52 103.52 0 0 0 19.9-2.954l-24.79-24.79z" fill="#ad1aac" transform="translate(128.942 8.823)"/><g fill="#007a33"><path d="m23.487 89.63v-62.669h36.113v9.2h-25.349v16.321h22.049v9.2h-22.049v18.747h26.56v9.2z" transform="translate(-23.487 -8.926)"/><path d="m72.82 35h9.9l-14.756 46.7h-9.464l-14.759-46.7h9.9l9.369 32.979h.348z" transform="translate(-3.474 -.987)"/><path d="m67.052 82.122v-46.7h9.114v4.688h.348c3.992-3.125 6.943-5.553 12.325-5.553l.869 9.806a17.609 17.609 0 0 0 -3.125-.26 19.421 19.421 0 0 0 -9.9 3.3v34.719z" transform="translate(19.562 -1.418)"/><path d="m116.262 61.465h-25.693v6.77c0 5.122 2.865 6.857 7.984 6.857 4.776 0 8.074-1.042 8.074-6.684l9.635.869c-.26 10.416-7.9 13.714-17.709 13.714-11.022 0-17.619-3.907-17.619-14.929v-18.315c0-11.024 6.6-15.188 17.619-15.188s17.709 4.163 17.709 15.188zm-9.722-7.986v-3.907c0-5.207-2.863-7.118-7.986-7.118s-7.984 2-7.984 7.118v3.907z" transform="translate(33.279 -1.418)"/><path d="m103.721 82.122v-46.7h9.114v4.6h.348c3.819-3.038 7.811-5.465 12.76-5.465 8.072 0 11.543 5.205 11.543 13.45v34.115h-9.722v-31.855c0-4.513-1.127-7.205-5.64-7.205-3.04 0-6.078 2-8.768 4.34v34.72z" transform="translate(55.797 -1.418)"/><path d="m124.844 42.98v-7.98h33.59v7.98l-22.826 30.293v.433h23.262v7.986h-34.807v-7.985l22.737-30.292v-.435z" transform="translate(75.897 -.987)"/><path d="m144.449 49.226c0-11.022 6.772-14.667 17.794-14.667s17.88 3.644 17.88 14.667v18.923c0 10.674-6.509 14.842-17.88 14.842s-17.794-4.167-17.794-14.842zm9.635 19.1c0 5.122 3.038 6.77 8.159 6.77s8.157-1.734 8.157-6.77v-19.013c0-5.122-3.036-6.857-8.157-6.857s-8.159 1.736-8.159 6.857z" transform="translate(96.042 -1.418)"/><path d="m165.157 35.84h-2.057v-1.269h5.625v1.269h-2.058v5.595h-1.511z" transform="translate(114.474 -1.406)"/><path d="m166.326 34.571h2.125l1.6 4.72h.02l1.521-4.72h2.123v6.865h-1.414v-4.865h-.02l-1.681 4.865h-1.163l-1.682-4.817h-.02v4.817h-1.414z" transform="translate(117.661 -1.406)"/></g><path d="m222.542 45.6-15.587-27.71h31.174z" transform="translate(157.809 -17.89)"/></svg>