<?xml version="1.0" encoding="UTF-8"?><svg id="a" xmlns="http://www.w3.org/2000/svg" viewBox="0 0 279.33 251.22"><g id="b" transform="translate(-103.508 -501.068)"><g id="c" transform="translate(104.508 503.068)" isolation="isolate"><g isolation="isolate"><path d="M27.72,10.97l-4.69,1.54c-1.08-3.01-3.99-4.24-8.93-4.24-3.92,0-6.76,1.08-6.76,3.19,0,1.71,2.28,2.38,4.38,2.7l7.35,1.08c5.88,.88,9.07,3.25,9.07,7.35,0,5.36-4.66,8.26-12.57,8.26S2.77,27.91,1.44,23.54l4.8-1.5c1.44,3.08,4.59,4.55,9.49,4.55,4.41,0,7.46-1.5,7.46-3.54,0-1.68-2.14-2.73-5.01-3.12l-6.34-.88c-6.44-.88-9.45-3.5-9.45-7.28,0-4.97,4.31-7.63,11.9-7.63s11.94,2.28,13.44,6.83Z" fill="#fff"/><path d="M37.38,5.93v6.13h6.55v3.71h-6.55v8.68c0,1.71,.98,2.7,3.01,2.7,1.05,0,2.94-.28,3.75-.53v3.82c-1.16,.14-2.91,.42-4.66,.42-4.73,0-6.44-1.86-6.44-5.36V15.77h-3.36v-3.71h3.36V5.93h4.34Z" fill="#fff"/><path d="M65.87,17.34v10.05c0,.88,.03,2.17,.35,2.83h-4.45c-.14-.63-.24-1.19-.24-1.89-3.08,1.82-5.6,2.52-8.19,2.52-3.54,0-7.32-1.64-7.32-5.67,0-2.59,1.51-4.41,4.59-5.71,2.52-1.05,6.09-1.65,10.92-1.89v-.8c0-1.65-1.61-2.49-4.87-2.49-2.84,0-4.62,.7-5.08,2.49h-4.52c.77-3.92,4.13-5.99,9.59-5.99,5.78,0,9.21,1.71,9.21,6.55Zm-11.94,10.15c2.49,0,4.76-.74,7.6-2.45v-4.31c-2.49,.11-5.88,.6-7.95,1.26-1.61,.52-2.8,1.33-2.8,2.97,0,1.51,1.01,2.52,3.15,2.52Z" fill="#fff"/><path d="M73.5,11.43l6.37,13.72,6.37-13.72h4.76l-9.73,20.27c-1.65,3.43-4.2,4.97-7.91,4.97-1.61,0-2.87-.28-3.75-.56v-3.71c1.61,.39,1.71,.42,2.7,.42,2.98,0,4.73-1.12,4.73-2.94,0-.84-.18-1.72-.81-3.01l-7.49-15.44h4.76Z" fill="#fff"/><path d="M126.42,20.81c0,6.44-4.24,10.05-10.54,10.05s-10.54-3.61-10.54-10.05c0-5.85,3.85-10.01,10.54-10.01s10.54,4.06,10.54,10.01Zm-10.54,6.34c3.85,0,6.13-2.49,6.13-6.41s-2.49-6.23-6.16-6.23-6.09,2.14-6.09,6.23,2.27,6.41,6.13,6.41Z" fill="#fff"/><path d="M148.54,18.01v12.22h-4.34v-10.61c0-3.5-1.12-5.11-4.06-5.11-2.52,0-4.31,.7-5.92,2.77v12.95h-4.34V11.43h4.27v2.34c2.21-2.21,4.24-2.97,7.04-2.97,4.94,0,7.35,2.66,7.35,7.21Z" fill="#fff"/><path d="M171.53,5.93v6.13h6.55v3.71h-6.55v8.68c0,1.71,.98,2.7,3.01,2.7,1.05,0,2.94-.28,3.74-.53v3.82c-1.15,.14-2.9,.42-4.65,.42-4.73,0-6.44-1.86-6.44-5.36V15.77h-3.36v-3.71h3.36V5.93h4.34Z" fill="#fff"/><path d="M201.25,20.81c0,6.44-4.24,10.05-10.54,10.05s-10.54-3.61-10.54-10.05c0-5.85,3.85-10.01,10.54-10.01s10.54,4.06,10.54,10.01Zm-10.54,6.34c3.85,0,6.13-2.49,6.13-6.41s-2.49-6.23-6.16-6.23-6.09,2.14-6.09,6.23,2.28,6.41,6.13,6.41Z" fill="#fff"/><path d="M226.52,20.7c0,6.02-4.27,10.15-9.91,10.15-2.42,0-4.17-.21-7.38-2.59v8.4h-4.34V11.43h4.27v2.42c2.1-2.1,4.45-3.04,7.28-3.04,6.16,0,10.08,4.2,10.08,9.91Zm-17.29,3.71c2.48,2.07,4.13,2.73,6.41,2.73,3.71,0,6.48-2.52,6.48-6.3s-2.87-6.34-6.65-6.34c-2.21,0-4.13,.77-6.23,2.59v7.32Z" fill="#fff"/></g><g isolation="isolate"><path d="M22.4,61.81c0,6.44-4.24,10.05-10.54,10.05s-10.54-3.61-10.54-10.05c0-5.85,3.85-10.01,10.54-10.01s10.54,4.06,10.54,10.01Zm-10.54,6.34c3.85,0,6.13-2.49,6.13-6.41s-2.49-6.23-6.16-6.23-6.09,2.14-6.09,6.23,2.27,6.41,6.13,6.41Z" fill="#fff"/><path d="M40.39,45.71v3.71c-1.92-.46-3.12-.56-4.2-.56-2.59,0-3.54,1.01-3.54,3.12v1.08h6.76v3.71h-6.76v14.46h-4.34v-14.46h-4.17v-3.71h4.17v-2.31c0-3.08,1.79-5.6,7.42-5.6,1.08,0,1.68,.04,4.66,.56Z" fill="#fff"/><path d="M61.67,46.93v6.13h6.55v3.71h-6.55v8.68c0,1.71,.98,2.7,3.01,2.7,1.05,0,2.94-.28,3.75-.53v3.82c-1.16,.14-2.91,.42-4.66,.42-4.73,0-6.44-1.86-6.44-5.36v-9.73h-3.36v-3.71h3.36v-6.13h4.34Z" fill="#fff"/><path d="M75.88,45.78v9c1.93-2.1,4.17-2.97,6.97-2.97,4.94,0,7.35,2.66,7.35,7.21v12.22h-4.34v-10.61c0-3.5-1.15-5.11-4.06-5.11-2.52,0-4.31,.7-5.92,2.77v12.95h-4.34v-25.45h4.34Z" fill="#fff"/><path d="M114.66,63.03h-16.49c.42,3.5,3.01,5.32,6.27,5.32,2.24,0,4.34-1.02,5.11-2.77h4.76c-1.02,3.54-4.73,6.27-9.8,6.27-6.58,0-10.75-4.06-10.75-10.08s4.06-9.98,10.36-9.98,10.5,3.75,10.54,11.24Zm-4.62-3.36c-.63-2.91-2.52-4.38-5.95-4.38-3.19,0-5.11,1.58-5.78,4.38h11.73Z" fill="#fff"/><path d="M135.55,45.78v25.45h-4.34v-25.45h4.34Z" fill="#fff"/><path d="M159.22,58.34v10.05c0,.88,.03,2.17,.35,2.83h-4.45c-.14-.63-.25-1.19-.25-1.89-3.08,1.82-5.6,2.52-8.19,2.52-3.54,0-7.32-1.64-7.32-5.67,0-2.59,1.51-4.41,4.59-5.71,2.52-1.05,6.09-1.65,10.92-1.89v-.8c0-1.65-1.61-2.49-4.87-2.49-2.84,0-4.62,.7-5.08,2.49h-4.52c.77-3.92,4.13-5.99,9.59-5.99,5.77,0,9.21,1.71,9.21,6.55Zm-11.94,10.15c2.49,0,4.76-.74,7.6-2.45v-4.31c-2.49,.11-5.88,.6-7.95,1.26-1.61,.52-2.8,1.33-2.8,2.97,0,1.51,1.01,2.52,3.15,2.52Z" fill="#fff"/><path d="M169.61,46.93v6.13h6.55v3.71h-6.55v8.68c0,1.71,.98,2.7,3.01,2.7,1.05,0,2.94-.28,3.75-.53v3.82c-1.16,.14-2.91,.42-4.66,.42-4.73,0-6.44-1.86-6.44-5.36v-9.73h-3.36v-3.71h3.36v-6.13h4.34Z" fill="#fff"/><path d="M199.25,63.03h-16.49c.42,3.5,3.01,5.32,6.27,5.32,2.24,0,4.34-1.02,5.11-2.77h4.76c-1.01,3.54-4.73,6.27-9.8,6.27-6.58,0-10.75-4.06-10.75-10.08s4.06-9.98,10.36-9.98,10.5,3.75,10.54,11.24Zm-4.62-3.36c-.63-2.91-2.52-4.38-5.95-4.38-3.19,0-5.11,1.58-5.78,4.38h11.73Z" fill="#fff"/><path d="M220.6,56.21l-3.61,2c-1.65-2.28-3.78-2.94-6.13-2.94-2.73,0-4.2,.95-4.2,2.28,0,1.16,1.05,1.61,3.67,1.96,6.13,.81,10.57,1.54,10.57,6.2,0,3.99-3.29,6.16-9.31,6.16-3.82,0-7.32-.7-10.19-4.58l3.67-2.14c1.29,2.14,3.64,3.22,6.86,3.22,2.62,0,4.41-.91,4.41-2.35,0-1.64-1.93-1.64-5.18-2.13-4.03-.6-9.07-1.29-9.07-6.09,0-2.77,2.42-6.02,8.82-6.02,4.03,0,7.53,1.5,9.66,4.45Z" fill="#fff"/><path d="M229.88,46.93v6.13h6.55v3.71h-6.55v8.68c0,1.71,.98,2.7,3.01,2.7,1.05,0,2.94-.28,3.75-.53v3.82c-1.16,.14-2.91,.42-4.66,.42-4.73,0-6.44-1.86-6.44-5.36v-9.73h-3.36v-3.71h3.36v-6.13h4.34Z" fill="#fff"/></g><g isolation="isolate"><path d="M22.05,99.9h-4.34c-.63-1.96-2.77-3.4-5.53-3.4-3.78,0-6.44,2.7-6.44,6.06,0,3.92,2.24,6.58,6.13,6.58,3.05,0,5.43-1.44,5.99-3.64h4.55c-1.08,4.34-4.69,7.35-10.12,7.35-6.86,0-10.96-3.71-10.96-10.5,0-5.25,4.2-9.56,10.71-9.56,5.43,0,9.45,2.73,10.01,7.11Z" fill="#fff"/><path d="M30.56,86.78v25.45h-4.34v-25.45h4.34Z" fill="#fff"/><path d="M40.29,86.14v3.85h-4.34v-3.85h4.34Zm0,7.28v18.8h-4.34v-18.8h4.34Z" fill="#fff"/><path d="M63.98,100.01v12.22h-4.34v-10.61c0-3.5-1.12-5.11-4.06-5.11-2.52,0-4.31,.7-5.92,2.77v12.95h-4.34v-18.8h4.27v2.34c2.21-2.21,4.24-2.97,7.04-2.97,4.94,0,7.35,2.66,7.35,7.21Z" fill="#fff"/><path d="M73.36,86.14v3.85h-4.34v-3.85h4.34Zm0,7.28v18.8h-4.34v-18.8h4.34Z" fill="#fff"/><path d="M97.9,99.9h-4.34c-.63-1.96-2.77-3.4-5.53-3.4-3.78,0-6.44,2.7-6.44,6.06,0,3.92,2.24,6.58,6.13,6.58,3.05,0,5.43-1.44,5.99-3.64h4.55c-1.08,4.34-4.69,7.35-10.12,7.35-6.86,0-10.96-3.71-10.96-10.5,0-5.25,4.2-9.56,10.71-9.56,5.43,0,9.45,2.73,10.01,7.11Z" fill="#fff"/><path d="M120.33,99.34v10.05c0,.88,.04,2.17,.35,2.83h-4.45c-.14-.63-.24-1.19-.24-1.89-3.08,1.82-5.6,2.52-8.19,2.52-3.54,0-7.32-1.64-7.32-5.67,0-2.59,1.51-4.41,4.59-5.71,2.52-1.05,6.09-1.65,10.92-1.89v-.8c0-1.65-1.61-2.49-4.87-2.49-2.84,0-4.62,.7-5.08,2.49h-4.52c.77-3.92,4.13-5.99,9.59-5.99,5.78,0,9.21,1.71,9.21,6.55Zm-11.94,10.15c2.49,0,4.76-.74,7.6-2.45v-4.31c-2.49,.11-5.88,.6-7.95,1.26-1.61,.52-2.8,1.33-2.8,2.97,0,1.51,1.02,2.52,3.15,2.52Z" fill="#fff"/><path d="M129.74,86.78v25.45h-4.34v-25.45h4.34Z" fill="#fff"/></g><g isolation="isolate"><path d="M15.58,127.71v3.71c-1.93-.46-3.12-.56-4.2-.56-2.38,0-3.54,.91-3.54,3.04v1.16h6.76v3.71H7.84v14.46H3.5v-14.46H0v-3.71H3.5v-2.13c0-3.22,1.68-5.78,7.42-5.78,1.3,0,2.03,.07,4.66,.56Zm7.21-.56v3.85h-4.34v-3.85h4.34Zm0,7.28v18.8h-4.34v-18.8h4.34Z" fill="#fff"/><path d="M46.48,141.01v12.22h-4.34v-10.61c0-3.5-1.12-5.11-4.06-5.11-2.52,0-4.31,.7-5.92,2.77v12.95h-4.34v-18.8h4.27v2.34c2.21-2.21,4.24-2.97,7.04-2.97,4.94,0,7.35,2.66,7.35,7.21Z" fill="#fff"/><path d="M71.58,127.78v25.45h-4.27v-2.42c-2,2-4.38,3.04-7.46,3.04-5.64,0-9.91-4.1-9.91-10.15s4.03-9.91,10.08-9.91c2.14,0,4.17,.28,7.21,2.59v-8.61h4.34Zm-10.75,22.37c2.14,0,3.85-.63,6.41-2.77v-7.28c-2.17-1.89-4.03-2.59-6.27-2.59-3.61,0-6.62,2.35-6.62,6.34,0,3.78,2.77,6.3,6.48,6.3Z" fill="#fff"/><path d="M81.13,127.14v3.85h-4.34v-3.85h4.34Zm0,7.28v18.8h-4.34v-18.8h4.34Z" fill="#fff"/><path d="M104.83,141.01v12.22h-4.34v-10.61c0-3.5-1.12-5.11-4.06-5.11-2.52,0-4.31,.7-5.92,2.77v12.95h-4.34v-18.8h4.27v2.34c2.21-2.21,4.24-2.97,7.04-2.97,4.94,0,7.35,2.66,7.35,7.21Z" fill="#fff"/><path d="M129.82,137.47c-.6-.21-1.09-.28-1.47-.28-.63,0-.98,.1-1.51,.35,.56,.88,.88,1.92,.88,3.12,0,4.45-3.57,6.93-9.52,6.93-1.75,0-3.08-.28-3.96-.59-.74,.46-1.19,.98-1.19,1.5,0,.91,1.3,1.08,3.78,1.08h5.92c4.24,0,7.11,1.19,7.11,4.31,0,3.82-4.87,5.78-12.22,5.78-6.37,0-9.8-1.5-9.8-4.17,0-1.4,.63-2.42,3.78-2.91v-.07c-1.82-.17-2.83-1.19-2.83-2.91,0-1.61,1.44-3.22,3.29-3.54v-.07c-2.14-1.19-3.12-3.01-3.12-5.39,0-4.41,3.33-6.83,9.7-6.83,2.66,0,4.66,.49,6.51,1.71,1.33-1.37,2.56-2.03,4.06-2.03h.6v3.99Zm-14.67,16c-1.54,0-2.56,.49-2.56,1.37,0,1.19,.94,1.71,5.43,1.71,4.76,0,7.07-.67,7.07-1.96,0-.91-.42-1.12-3.08-1.12h-6.86Zm3.08-9.1c2.98,0,5.22-1.37,5.22-3.71s-2-3.64-5.22-3.64c-2.91,0-5.01,1.23-5.01,3.68s1.82,3.68,5.01,3.68Z" fill="#fff"/><path d="M150.64,138.21l-3.6,2c-1.65-2.28-3.78-2.94-6.13-2.94-2.73,0-4.2,.95-4.2,2.28,0,1.16,1.05,1.61,3.68,1.96,6.13,.81,10.57,1.54,10.57,6.2,0,3.99-3.29,6.16-9.31,6.16-3.82,0-7.32-.7-10.19-4.58l3.68-2.14c1.29,2.14,3.64,3.22,6.86,3.22,2.63,0,4.41-.91,4.41-2.35,0-1.64-1.93-1.64-5.18-2.13-4.03-.6-9.07-1.29-9.07-6.09,0-2.77,2.42-6.02,8.82-6.02,4.03,0,7.53,1.5,9.66,4.45Z" fill="#fff"/></g></g><g id="d" transform="translate(104.508 503.068)" isolation="isolate"><g isolation="isolate"><path d="M17.85,195.5v8.91c0,.42,.03,.78,.27,2.31h-2.43c-.21-.93-.3-1.29-.3-1.89-2.31,1.47-4.83,2.37-7.8,2.37-4.11,0-6.42-1.68-6.42-4.77,0-3.3,2.82-5.07,9.72-5.85l4.53-.51v-.63c0-1.65-1.68-2.91-5.07-2.91-2.61,0-4.65,.6-6.39,2.64l-1.83-1.26c1.83-2.46,4.5-3.36,8.07-3.36,5.01,0,7.65,1.98,7.65,4.95Zm-10.38,9.72c2.34,0,4.77-.72,7.95-2.46v-4.71l-3.78,.42c-3.81,.42-8.16,1.17-8.16,3.96,0,1.83,1.62,2.79,3.99,2.79Z" fill="#fff"/><path d="M26.34,185.81v5.22h6.24v2.07h-6.24v9.57c0,1.68,.84,2.46,3.21,2.46,1.14,0,1.92-.18,3.45-.48v2.1c-2.22,.3-2.91,.45-3.99,.45-3.18,0-5.1-1.14-5.1-4.23v-9.87h-3.33v-2.07h3.33v-5.22h2.43Z" fill="#fff"/><path d="M50.49,185.81v5.22h6.24v2.07h-6.24v9.57c0,1.68,.84,2.46,3.21,2.46,1.14,0,1.92-.18,3.45-.48v2.1c-2.22,.3-2.91,.45-3.99,.45-3.18,0-5.1-1.14-5.1-4.23v-9.87h-3.33v-2.07h3.33v-5.22h2.43Z" fill="#fff"/><path d="M62.37,184.91v8.4c2.13-1.86,4.26-2.76,6.6-2.76,4.17,0,6.48,2.1,6.48,5.7v10.47h-2.43v-10.14c0-2.4-1.35-3.96-4.35-3.96-2.16,0-4.35,1.11-6.3,3.15v10.95h-2.43v-21.81h2.43Z" fill="#fff"/><path d="M96.51,199.13v.24h-15.42c.3,3.33,3,5.76,6.69,5.76,2.7,0,4.59-.66,6.39-3.06l1.89,1.38c-2.67,3.24-5.4,3.75-8.49,3.75-5.31,0-8.91-3.63-8.91-8.4s3.66-8.25,8.58-8.25c5.61,0,9.27,3.12,9.27,8.58Zm-2.64-1.83c-.54-2.85-3.03-4.68-6.45-4.68-3.24,0-5.46,1.53-6.24,4.68h12.69Z" fill="#fff"/><path d="M121.86,184.91l11.19,21.81h-2.97l-2.82-5.67h-14.07l-2.85,5.67h-2.94l11.22-21.81h3.24Zm-7.47,13.8h11.7l-5.85-11.73-5.85,11.73Z" fill="#fff"/><path d="M150.12,193.94l-1.65,1.5c-1.53-1.92-3.69-2.82-6.39-2.82-2.91,0-4.5,.9-4.5,2.55,0,1.44,1.74,1.95,3.84,2.22,4.38,.57,9.21,.75,9.21,4.89,0,3.12-2.79,4.92-7.56,4.92-3.84,0-6.57-1.2-8.7-3.72l1.8-1.65c1.77,2.19,4.14,3.3,7.11,3.3s4.92-1.02,4.92-2.67c0-1.83-2.34-2.34-5.52-2.67-3.87-.42-7.53-1.02-7.53-4.47,0-3.03,2.76-4.77,6.99-4.77,3.51,0,6.21,.96,7.98,3.39Z" fill="#fff"/><path d="M158.01,185.81v5.22h6.24v2.07h-6.24v9.57c0,1.68,.84,2.46,3.21,2.46,1.14,0,1.92-.18,3.45-.48v2.1c-2.22,.3-2.91,.45-3.99,.45-3.18,0-5.1-1.14-5.1-4.23v-9.87h-3.33v-2.07h3.33v-5.22h2.43Z" fill="#fff"/><path d="M184.02,199.13v.24h-15.42c.3,3.33,3,5.76,6.69,5.76,2.7,0,4.59-.66,6.39-3.06l1.89,1.38c-2.67,3.24-5.4,3.75-8.49,3.75-5.31,0-8.91-3.63-8.91-8.4s3.66-8.25,8.58-8.25c5.61,0,9.27,3.12,9.27,8.58Zm-2.64-1.83c-.54-2.85-3.03-4.68-6.45-4.68-3.24,0-5.46,1.53-6.24,4.68h12.69Z" fill="#fff"/><path d="M189.78,184.91v21.81h-2.43v-21.81h2.43Z" fill="#fff"/><path d="M196.47,184.91v21.81h-2.43v-21.81h2.43Z" fill="#fff"/><path d="M216.24,195.5v8.91c0,.42,.03,.78,.27,2.31h-2.43c-.21-.93-.3-1.29-.3-1.89-2.31,1.47-4.83,2.37-7.8,2.37-4.11,0-6.42-1.68-6.42-4.77,0-3.3,2.82-5.07,9.72-5.85l4.53-.51v-.63c0-1.65-1.68-2.91-5.07-2.91-2.61,0-4.65,.6-6.39,2.64l-1.83-1.26c1.83-2.46,4.5-3.36,8.07-3.36,5.01,0,7.65,1.98,7.65,4.95Zm-10.38,9.72c2.34,0,4.77-.72,7.95-2.46v-4.71l-3.78,.42c-3.81,.42-8.16,1.17-8.16,3.96,0,1.83,1.62,2.79,3.99,2.79Z" fill="#fff"/><path d="M235.17,193.94l-1.65,1.5c-1.53-1.92-3.69-2.82-6.39-2.82-2.91,0-4.5,.9-4.5,2.55,0,1.44,1.74,1.95,3.84,2.22,4.38,.57,9.21,.75,9.21,4.89,0,3.12-2.79,4.92-7.56,4.92-3.84,0-6.57-1.2-8.7-3.72l1.8-1.65c1.77,2.19,4.14,3.3,7.11,3.3s4.92-1.02,4.92-2.67c0-1.83-2.34-2.34-5.52-2.67-3.87-.42-7.53-1.02-7.53-4.47,0-3.03,2.76-4.77,6.99-4.77,3.51,0,6.21,.96,7.98,3.39Z" fill="#fff"/></g><g isolation="isolate"><path d="M22.5,221.91v2.34H5.7v6.96h14.04v2.34H5.7v7.83H22.86v2.34H3.06v-21.81H22.5Z" fill="#fff"/><path d="M39.18,221.91c5.34,0,8.4,2.01,8.4,6.09,0,3.57-2.7,5.7-6.87,6l7.2,9.72h-3.27l-7.02-9.66h-8.58v9.66h-2.64v-21.81h12.78Zm-.27,9.81c4.35,0,6.15-1.17,6.15-3.75s-1.53-3.72-6.45-3.72h-9.57v7.47h9.87Z" fill="#fff"/><path d="M65.19,221.91l11.19,21.81h-2.97l-2.82-5.67h-14.07l-2.85,5.67h-2.94l11.22-21.81h3.24Zm-7.47,13.8h11.7l-5.85-11.73-5.85,11.73Z" fill="#fff"/><path d="M110.64,225.84l-1.92,1.56c-2.16-2.61-4.83-3.81-8.97-3.81-4.86,0-7.44,1.38-7.44,3.9,0,3,3.87,3.39,9.18,3.81,7.32,.57,9.84,2.61,9.84,6.24,0,4.05-4.14,6.72-10.95,6.72-4.86,0-8.49-1.23-11.64-5.04l2.04-1.74c2.25,3.21,5.34,4.44,9.9,4.44s7.95-1.53,7.95-4.35-3.33-3.51-8.88-3.93c-7.68-.6-10.14-2.37-10.14-5.73,0-4.23,3.6-6.54,10.23-6.54,4.74,0,8.73,1.68,10.8,4.47Z" fill="#fff"/><path d="M116.04,228.03l6.72,12.66,6.42-12.66h2.64l-9.15,17.61c-1.26,2.46-3.06,3.6-5.52,3.6-1.02,0-2.01-.18-3-.48v-2.22c.57,.27,1.68,.48,2.82,.48,2.13,0,3.3-1.35,4.5-3.9l-8.07-15.09h2.64Z" fill="#fff"/><path d="M148.38,230.34c2.46-2.04,4.05-2.79,6.36-2.79,3.69,0,5.79,1.77,5.79,4.74v11.43h-2.43v-10.56c0-2.43-1.2-3.54-3.45-3.54-1.98,0-3.96,.99-5.76,2.76v11.34h-2.43v-10.56c0-2.4-1.17-3.54-3.39-3.54-1.98,0-4.02,.96-5.82,2.76v11.34h-2.43v-15.69h2.34v2.19c2.28-1.95,4.14-2.67,6.24-2.67,2.22,0,3.81,.57,4.98,2.79Z" fill="#fff"/><path d="M183.36,235.74c0,4.38-2.94,8.46-9,8.46-2.49,0-4.32-.54-7.02-2.64v7.68h-2.43v-21.21h2.43v2.37c2.79-2.31,4.56-2.85,7.41-2.85,5.82,0,8.61,4.29,8.61,8.19Zm-16.02,3.3c2.07,2.16,4.23,3.09,6.84,3.09,4.08,0,6.75-2.4,6.75-6.45,0-3.42-2.73-6.06-6.81-6.06-2.22,0-4.95,1.38-6.78,3.33v6.09Z" fill="#fff"/><path d="M203.37,235.59c0,5.25-3.39,8.61-9.03,8.61s-9.06-3.27-9.06-8.61c0-4.56,3.6-8.04,9.06-8.04s9.03,3.36,9.03,8.04Zm-9.03,6.54c4.08,0,6.6-2.49,6.6-6.24,0-3.51-2.4-6.27-6.63-6.27s-6.6,2.82-6.6,6.27c0,3.78,2.58,6.24,6.63,6.24Z" fill="#fff"/><path d="M220.89,230.94l-1.65,1.5c-1.53-1.92-3.69-2.82-6.39-2.82-2.91,0-4.5,.9-4.5,2.55,0,1.44,1.74,1.95,3.84,2.22,4.38,.57,9.21,.75,9.21,4.89,0,3.12-2.79,4.92-7.56,4.92-3.84,0-6.57-1.2-8.7-3.72l1.8-1.65c1.77,2.19,4.14,3.3,7.11,3.3s4.92-1.02,4.92-2.67c0-1.83-2.34-2.34-5.52-2.67-3.87-.42-7.53-1.02-7.53-4.47,0-3.03,2.76-4.77,6.99-4.77,3.51,0,6.21,.96,7.98,3.39Z" fill="#fff"/><path d="M227.4,221.91v2.79h-2.79v-2.79h2.79Zm-.15,6.12v15.69h-2.43v-15.69h2.43Z" fill="#fff"/><path d="M234.03,228.03v10.14c0,2.37,1.35,3.96,4.35,3.96,2.25,0,4.5-1.23,6.3-3.15v-10.95h2.43v15.69h-2.43v-2.28c-2.1,1.86-4.26,2.76-6.6,2.76-4.2,0-6.48-2.13-6.48-5.7v-10.47h2.43Z" fill="#fff"/><path d="M265.05,230.34c2.46-2.04,4.05-2.79,6.36-2.79,3.69,0,5.79,1.77,5.79,4.74v11.43h-2.43v-10.56c0-2.43-1.2-3.54-3.45-3.54-1.98,0-3.96,.99-5.76,2.76v11.34h-2.43v-10.56c0-2.4-1.17-3.54-3.39-3.54-1.98,0-4.02,.96-5.82,2.76v11.34h-2.43v-15.69h2.34v2.19c2.28-1.95,4.14-2.67,6.24-2.67,2.22,0,3.81,.57,4.98,2.79Z" fill="#fff"/></g></g></g></svg>