<svg id="Layer_1" data-name="Layer 1" xmlns="http://www.w3.org/2000/svg" viewBox="0 0 316.28 161.97"><g id="See_cardiovascular_safety_data_for_EVRENZOTM" data-name="See cardiovascular safety data for EVRENZOTM" style="isolation:isolate"><g style="isolation:isolate"><path d="M27.51,11l-4.69,1.54c-1.08-3-4-4.23-8.92-4.23-3.92,0-6.76,1.08-6.76,3.18,0,1.72,2.28,2.38,4.38,2.7l7.35,1.08c5.88.88,9.06,3.26,9.06,7.35,0,5.36-4.65,8.26-12.56,8.26S2.56,27.91,1.23,23.54L6,22c1.44,3.08,4.59,4.55,9.49,4.55,4.41,0,7.45-1.5,7.45-3.53,0-1.68-2.13-2.73-5-3.12l-6.34-.87c-6.44-.88-9.45-3.5-9.45-7.28,0-5,4.31-7.64,11.9-7.64C21.35,4.14,26,6.42,27.51,11Z" fill="#fff"/><path d="M51.28,22H34.79c.42,3.5,3,5.32,6.27,5.32,2.24,0,4.34-1,5.11-2.76h4.76c-1,3.53-4.73,6.26-9.8,6.26-6.58,0-10.75-4.06-10.75-10.08,0-5.84,4.06-10,10.36-10C47.22,10.8,51.24,14.54,51.28,22Zm-4.62-3.36c-.63-2.9-2.52-4.37-5.95-4.37-3.19,0-5.11,1.57-5.78,4.37Z" fill="#fff"/><path d="M74.62,22H58.14c.42,3.5,3,5.32,6.26,5.32,2.24,0,4.34-1,5.11-2.76h4.76c-1,3.53-4.72,6.26-9.8,6.26-6.58,0-10.75-4.06-10.75-10.08,0-5.84,4.07-10,10.37-10C70.56,10.8,74.59,14.54,74.62,22ZM70,18.67c-.63-2.9-2.52-4.37-6-4.37-3.18,0-5.11,1.57-5.78,4.37Z" fill="#fff"/></g><g style="isolation:isolate"><path d="M21.84,58.9H17.5c-.63-2-2.76-3.39-5.53-3.39a6.11,6.11,0,0,0-6.44,6.05c0,3.92,2.24,6.58,6.13,6.58,3,0,5.42-1.43,6-3.64h4.55c-1.08,4.34-4.69,7.35-10.11,7.35-6.86,0-11-3.71-11-10.5,0-5.25,4.2-9.55,10.71-9.55C17.26,51.8,21.28,54.53,21.84,58.9Z" fill="#fff"/><path d="M44.28,58.34v10a7.94,7.94,0,0,0,.35,2.83H40.18a8.22,8.22,0,0,1-.24-1.89,15.53,15.53,0,0,1-8.19,2.52c-3.54,0-7.32-1.64-7.32-5.67,0-2.59,1.51-4.41,4.59-5.7,2.52-1,6.09-1.65,10.92-1.89v-.81c0-1.64-1.61-2.48-4.87-2.48-2.83,0-4.62.7-5.07,2.48H25.48c.77-3.92,4.13-6,9.59-6C40.85,51.8,44.28,53.51,44.28,58.34ZM32.34,68.49A14.09,14.09,0,0,0,39.94,66v-4.3A34.44,34.44,0,0,0,32,63c-1.61.52-2.8,1.33-2.8,3S30.21,68.49,32.34,68.49Z" fill="#fff"/><path d="M61.57,51.87v4.69A7.93,7.93,0,0,0,59,56.21c-3.71,0-5.64,1.64-5.64,4.93V71.22H49V52.43h4.34v2.8h.1a7.37,7.37,0,0,1,6.69-3.43A5.46,5.46,0,0,1,61.57,51.87Z" fill="#fff"/><path d="M85,45.78V71.22H80.68V68.81a10,10,0,0,1-7.46,3c-5.64,0-9.91-4.09-9.91-10.15,0-5.84,4-9.9,10.09-9.9a10.6,10.6,0,0,1,7.21,2.59V45.78ZM74.2,68.14c2.14,0,3.85-.63,6.41-2.76V58.1a8.94,8.94,0,0,0-6.27-2.59c-3.61,0-6.62,2.34-6.62,6.33A6.13,6.13,0,0,0,74.2,68.14Z" fill="#fff"/><path d="M94.5,45.14V49H90.16V45.14Zm0,7.29V71.22H90.16V52.43Z" fill="#fff"/><path d="M119.39,61.81c0,6.44-4.24,10-10.54,10s-10.54-3.6-10.54-10c0-5.85,3.85-10,10.54-10S119.39,55.86,119.39,61.81Zm-10.54,6.33c3.85,0,6.13-2.48,6.13-6.4s-2.49-6.23-6.17-6.23-6.09,2.13-6.09,6.23C102.72,65.66,105,68.14,108.85,68.14Z" fill="#fff"/><path d="M125.86,52.43l6.33,13.93,6.3-13.93h4.76l-9,18.79H130L121.1,52.43Z" fill="#fff"/><path d="M164.81,58.34v10a8.18,8.18,0,0,0,.35,2.83h-4.44a8.21,8.21,0,0,1-.25-1.89,15.53,15.53,0,0,1-8.19,2.52c-3.53,0-7.31-1.64-7.31-5.67,0-2.59,1.5-4.41,4.58-5.7,2.52-1,6.09-1.65,10.92-1.89v-.81c0-1.64-1.61-2.48-4.86-2.48-2.84,0-4.62.7-5.08,2.48H146c.77-3.92,4.13-6,9.59-6C161.38,51.8,164.81,53.51,164.81,58.34ZM152.88,68.49A14.06,14.06,0,0,0,160.47,66v-4.3A34.35,34.35,0,0,0,152.53,63c-1.61.52-2.8,1.33-2.8,3S150.74,68.49,152.88,68.49Z" fill="#fff"/><path d="M187.32,56.21l-3.61,2a7,7,0,0,0-6.12-2.94c-2.73,0-4.2,1-4.2,2.28,0,1.15,1.05,1.61,3.67,2,6.13.8,10.57,1.54,10.57,6.19,0,4-3.29,6.16-9.31,6.16-3.81,0-7.31-.7-10.18-4.58l3.67-2.14c1.3,2.14,3.64,3.22,6.86,3.22,2.63,0,4.41-.91,4.41-2.34,0-1.65-1.92-1.65-5.18-2.14-4-.59-9.06-1.29-9.06-6.09,0-2.76,2.41-6,8.82-6C181.68,51.76,185.18,53.27,187.32,56.21Z" fill="#fff"/><path d="M210.42,58.9h-4.34c-.63-2-2.77-3.39-5.53-3.39a6.11,6.11,0,0,0-6.44,6.05c0,3.92,2.24,6.58,6.12,6.58,3.05,0,5.43-1.43,6-3.64h4.55c-1.09,4.34-4.69,7.35-10.12,7.35-6.86,0-11-3.71-11-10.5,0-5.25,4.2-9.55,10.71-9.55C205.83,51.8,209.86,54.53,210.42,58.9Z" fill="#fff"/><path d="M218.57,52.43V63c0,3.5,1.16,5.11,4.06,5.11a6.74,6.74,0,0,0,5.92-2.76V52.43h4.34V71.22h-4.27V68.88a9,9,0,0,1-7,3c-5,0-7.35-2.69-7.35-7.21V52.43Z" fill="#fff"/><path d="M242.27,45.78V71.22h-4.34V45.78Z" fill="#fff"/><path d="M265.93,58.34v10a7.94,7.94,0,0,0,.35,2.83h-4.45a8.22,8.22,0,0,1-.24-1.89,15.53,15.53,0,0,1-8.19,2.52c-3.54,0-7.32-1.64-7.32-5.67,0-2.59,1.51-4.41,4.59-5.7,2.52-1,6.09-1.65,10.92-1.89v-.81c0-1.64-1.61-2.48-4.87-2.48-2.83,0-4.62.7-5.07,2.48h-4.52c.77-3.92,4.13-6,9.59-6C262.5,51.8,265.93,53.51,265.93,58.34ZM254,68.49a14.09,14.09,0,0,0,7.6-2.45v-4.3A34.44,34.44,0,0,0,253.64,63c-1.61.52-2.8,1.33-2.8,3S251.86,68.49,254,68.49Z" fill="#fff"/><path d="M283.22,51.87v4.69a7.93,7.93,0,0,0-2.59-.35c-3.71,0-5.64,1.64-5.64,4.93V71.22h-4.34V52.43H275v2.8h.11a7.34,7.34,0,0,1,6.68-3.43A5.46,5.46,0,0,1,283.22,51.87Z" fill="#fff"/></g><g style="isolation:isolate"><path d="M20.13,97.21l-3.61,2a7,7,0,0,0-6.12-2.94c-2.73,0-4.2.95-4.2,2.28,0,1.15,1,1.61,3.67,2,6.13.8,10.57,1.54,10.57,6.19,0,4-3.29,6.16-9.31,6.16-3.81,0-7.31-.7-10.18-4.58l3.67-2.14c1.3,2.14,3.64,3.22,6.86,3.22,2.63,0,4.41-.91,4.41-2.34,0-1.65-1.92-1.65-5.18-2.14-4-.59-9.06-1.29-9.06-6.09,0-2.76,2.41-6,8.82-6C14.49,92.76,18,94.27,20.13,97.21Z" fill="#fff"/><path d="M42.35,99.34v10a8.18,8.18,0,0,0,.35,2.83H38.26a8.21,8.21,0,0,1-.25-1.89,15.53,15.53,0,0,1-8.19,2.52c-3.53,0-7.32-1.64-7.32-5.67,0-2.59,1.51-4.41,4.59-5.7,2.52-1,6.09-1.65,10.92-1.89v-.81c0-1.64-1.61-2.48-4.86-2.48-2.84,0-4.62.7-5.08,2.48H23.56c.77-3.92,4.13-6,9.59-6C38.92,92.8,42.35,94.51,42.35,99.34ZM30.42,109.49A14.06,14.06,0,0,0,38,107v-4.3A34.35,34.35,0,0,0,30.07,104c-1.61.52-2.8,1.33-2.8,3S28.28,109.49,30.42,109.49Z" fill="#fff"/><path d="M61.6,86.71v3.71a16.93,16.93,0,0,0-4.2-.56c-2.59,0-3.53,1-3.53,3.11v1.09h6.75v3.71H53.87v14.45H49.52V97.77H45.36V94.06h4.16V91.75c0-3.08,1.79-5.61,7.43-5.61A22.39,22.39,0,0,1,61.6,86.71Z" fill="#fff"/><path d="M84.35,104H67.87c.42,3.5,3,5.32,6.26,5.32,2.24,0,4.34-1,5.11-2.76H84c-1,3.53-4.72,6.26-9.8,6.26-6.58,0-10.75-4.06-10.75-10.08,0-5.84,4.07-10,10.37-10C80.29,92.8,84.32,96.54,84.35,104Zm-4.62-3.36c-.63-2.9-2.52-4.37-6-4.37-3.18,0-5.11,1.57-5.78,4.37Z" fill="#fff"/><path d="M93.59,87.93v6.13h6.55v3.71H93.59v8.68c0,1.71,1,2.69,3,2.69a17.67,17.67,0,0,0,3.75-.52v3.81a37.64,37.64,0,0,1-4.66.42c-4.73,0-6.44-1.85-6.44-5.35V97.77H85.89V94.06h3.36V87.93Z" fill="#fff"/><path d="M106.36,93.43l6.37,13.72,6.38-13.72h4.76l-9.73,20.26a8,8,0,0,1-7.92,5,12.18,12.18,0,0,1-3.74-.56v-3.71a8.33,8.33,0,0,0,2.69.42c3,0,4.73-1.12,4.73-2.94a6.58,6.58,0,0,0-.81-3L101.6,93.43Z" fill="#fff"/><path d="M159.85,86.78v25.44h-4.27v-2.41a10,10,0,0,1-7.46,3c-5.64,0-9.91-4.09-9.91-10.15,0-5.84,4-9.9,10.08-9.9a10.6,10.6,0,0,1,7.22,2.59V86.78ZM149.1,109.14c2.13,0,3.85-.63,6.41-2.76V99.1a9,9,0,0,0-6.27-2.59c-3.61,0-6.62,2.34-6.62,6.33A6.13,6.13,0,0,0,149.1,109.14Z" fill="#fff"/><path d="M183.33,99.34v10a8.18,8.18,0,0,0,.35,2.83h-4.45a8.22,8.22,0,0,1-.24-1.89,15.53,15.53,0,0,1-8.19,2.52c-3.54,0-7.32-1.64-7.32-5.67,0-2.59,1.51-4.41,4.59-5.7,2.52-1,6.09-1.65,10.92-1.89v-.81c0-1.64-1.61-2.48-4.87-2.48-2.83,0-4.62.7-5.07,2.48h-4.52c.77-3.92,4.13-6,9.59-6C179.9,92.8,183.33,94.51,183.33,99.34Zm-11.94,10.15A14.09,14.09,0,0,0,179,107v-4.3a34.44,34.44,0,0,0-8,1.26c-1.61.52-2.8,1.33-2.8,3S169.26,109.49,171.39,109.49Z" fill="#fff"/><path d="M193.72,87.93v6.13h6.55v3.71h-6.55v8.68c0,1.71,1,2.69,3,2.69a17.67,17.67,0,0,0,3.75-.52v3.81a37.64,37.64,0,0,1-4.66.42c-4.72,0-6.44-1.85-6.44-5.35V97.77H186V94.06h3.36V87.93Z" fill="#fff"/><path d="M222.21,99.34v10a8.18,8.18,0,0,0,.35,2.83h-4.44a8.21,8.21,0,0,1-.25-1.89,15.53,15.53,0,0,1-8.19,2.52c-3.53,0-7.31-1.64-7.31-5.67,0-2.59,1.5-4.41,4.58-5.7,2.52-1,6.09-1.65,10.92-1.89v-.81c0-1.64-1.61-2.48-4.86-2.48-2.84,0-4.62.7-5.08,2.48h-4.51c.77-3.92,4.13-6,9.59-6C218.78,92.8,222.21,94.51,222.21,99.34Zm-11.93,10.15a14.06,14.06,0,0,0,7.59-2.45v-4.3a34.35,34.35,0,0,0-7.94,1.26c-1.61.52-2.8,1.33-2.8,3S208.14,109.49,210.28,109.49Z" fill="#fff"/></g><g style="isolation:isolate"><path d="M16.87,127.71v3.71a16.93,16.93,0,0,0-4.2-.56c-2.59,0-3.53,1-3.53,3.11v1.09h6.75v3.71H9.14v14.45H4.8V138.77H.63v-3.71H4.8v-2.31c0-3.08,1.78-5.61,7.42-5.61A22.39,22.39,0,0,1,16.87,127.71Z" fill="#fff"/><path d="M39.69,143.81c0,6.44-4.23,10-10.53,10s-10.54-3.6-10.54-10c0-5.85,3.85-10,10.54-10S39.69,137.86,39.69,143.81Zm-10.53,6.33c3.85,0,6.12-2.48,6.12-6.4s-2.48-6.23-6.16-6.23S23,139.64,23,143.74C23,147.66,25.31,150.14,29.16,150.14Z" fill="#fff"/><path d="M55.72,133.87v4.69a7.86,7.86,0,0,0-2.59-.35c-3.71,0-5.63,1.64-5.63,4.93v10.08H43.15V134.43H47.5v2.8h.1a7.37,7.37,0,0,1,6.69-3.43A5.36,5.36,0,0,1,55.72,133.87Z" fill="#fff"/><path d="M94.82,127.78v4.27H77V138H92.33v4.27H77V149H95.24v4.27H72V127.78Z" fill="#fff"/><path d="M102.13,127.78l9.56,20.3,9.73-20.3h5.32l-12.46,25.44H109.1L96.81,127.78Z" fill="#fff"/><path d="M145.88,127.78c7.21,0,10.12,2.38,10.12,7.59a7.2,7.2,0,0,1-7.11,7.49l7.81,10.36h-6.13l-7.38-10h-7.88v10h-5V127.78Zm-.73,11.3c4.55,0,5.88-1,5.88-3.6s-1.44-3.57-5.88-3.57h-9.84v7.17Z" fill="#fff"/><path d="M184.28,127.78v4.27H166.42V138h15.37v4.27H166.42V149H184.7v4.27H161.45V127.78Z" fill="#fff"/><path d="M193.93,127.78l17,18.37V127.78h4.76v25.44h-4.55l-17.72-19v19h-4.76V127.78Z" fill="#fff"/><path d="M244.69,127.78v2.8L227.39,149h17.72v4.27H219.55v-2.45l17.78-18.72H220.46v-4.27Z" fill="#fff"/><path d="M277.62,140.69c0,7.42-5.15,13.16-15.16,13.16s-15.15-5.74-15.15-13.16c0-8.33,5.35-13.55,15.15-13.55S277.62,132.4,277.62,140.69Zm-15.19-9.27c-6.2,0-10.15,3.29-10.15,9,0,5.88,3.85,9.17,10.18,9.17s10.19-3.15,10.19-9.17C272.65,134.74,268.76,131.42,262.43,131.42Z" fill="#fff"/></g><g style="isolation:isolate"><path d="M295.46,126.71v2.5h-6.64v12.35h-2.9V129.21h-6.63v-2.5Z" fill="#fff"/><path d="M301.44,126.71l4.63,11,4.72-11h3.82v14.85H312V130.31H312l-4.75,11.25h-2.31l-4.78-11.25h0v11.25h-2.57V126.71Z" fill="#fff"/></g></g></svg>