<?xml version="1.0" encoding="UTF-8"?><svg id="a" xmlns="http://www.w3.org/2000/svg" viewBox="0 0 255.64 120.97"><g transform="translate(0 1)" isolation="isolate"><g isolation="isolate"><path d="M28.42,4.78v4.27h-11.38V30.22h-4.97V9.05H.7V4.78H28.42Z" fill="#fff"/><path d="M46.2,17.34v10.05c0,.88,.04,2.17,.35,2.83h-4.45c-.14-.63-.24-1.19-.24-1.89-3.08,1.82-5.6,2.52-8.19,2.52-3.54,0-7.32-1.64-7.32-5.67,0-2.59,1.51-4.41,4.59-5.71,2.52-1.05,6.09-1.65,10.92-1.89v-.8c0-1.65-1.61-2.49-4.87-2.49-2.84,0-4.62,.7-5.08,2.49h-4.52c.77-3.92,4.13-5.99,9.59-5.99,5.78,0,9.21,1.71,9.21,6.55Zm-11.94,10.15c2.49,0,4.76-.74,7.6-2.45v-4.31c-2.49,.11-5.88,.6-7.95,1.26-1.61,.52-2.8,1.33-2.8,2.97,0,1.51,1.02,2.52,3.15,2.52Z" fill="#fff"/><path d="M55.27,4.78v14.39l9.52-7.74h6.23l-8.02,6.37,8.51,12.43h-5.22l-6.58-9.77-4.45,3.57v6.2h-4.34V4.78h4.34Z" fill="#fff"/><path d="M94.05,22.03h-16.49c.42,3.5,3.01,5.32,6.27,5.32,2.24,0,4.34-1.02,5.11-2.77h4.76c-1.02,3.54-4.73,6.27-9.8,6.27-6.58,0-10.75-4.06-10.75-10.08s4.06-9.98,10.36-9.98,10.5,3.75,10.54,11.24Zm-4.62-3.36c-.63-2.91-2.52-4.38-5.95-4.38-3.19,0-5.11,1.58-5.78,4.38h11.73Z" fill="#fff"/><path d="M128.87,17.34v10.05c0,.88,.04,2.17,.35,2.83h-4.45c-.14-.63-.24-1.19-.24-1.89-3.08,1.82-5.6,2.52-8.19,2.52-3.54,0-7.32-1.64-7.32-5.67,0-2.59,1.51-4.41,4.59-5.71,2.52-1.05,6.09-1.65,10.92-1.89v-.8c0-1.65-1.61-2.49-4.87-2.49-2.84,0-4.62,.7-5.08,2.49h-4.52c.77-3.92,4.13-5.99,9.59-5.99,5.78,0,9.21,1.71,9.21,6.55Zm-11.94,10.15c2.49,0,4.76-.74,7.6-2.45v-4.31c-2.49,.11-5.88,.6-7.95,1.26-1.61,.52-2.8,1.33-2.8,2.97,0,1.51,1.02,2.52,3.15,2.52Z" fill="#fff"/><path d="M164.01,15.21l-3.6,2c-1.65-2.28-3.78-2.94-6.13-2.94-2.73,0-4.2,.95-4.2,2.28,0,1.16,1.05,1.61,3.67,1.96,6.13,.81,10.57,1.54,10.57,6.2,0,3.99-3.29,6.16-9.31,6.16-3.82,0-7.32-.7-10.19-4.58l3.68-2.14c1.29,2.14,3.64,3.22,6.86,3.22,2.63,0,4.41-.91,4.41-2.35,0-1.64-1.93-1.64-5.18-2.13-4.03-.6-9.07-1.29-9.07-6.09,0-2.77,2.42-6.02,8.82-6.02,4.03,0,7.53,1.5,9.66,4.45Z" fill="#fff"/><path d="M171.95,4.78V13.77c1.93-2.1,4.17-2.97,6.97-2.97,4.94,0,7.35,2.66,7.35,7.21v12.22h-4.34v-10.61c0-3.5-1.15-5.11-4.06-5.11-2.52,0-4.3,.7-5.92,2.77v12.95h-4.34V4.78h4.34Z" fill="#fff"/><path d="M210.8,20.81c0,6.44-4.23,10.05-10.54,10.05s-10.54-3.61-10.54-10.05c0-5.85,3.85-10.01,10.54-10.01s10.54,4.06,10.54,10.01Zm-10.54,6.34c3.85,0,6.12-2.49,6.12-6.41s-2.49-6.23-6.16-6.23-6.09,2.14-6.09,6.23,2.27,6.41,6.13,6.41Z" fill="#fff"/><path d="M226.83,10.87v4.69c-1.23-.31-1.58-.35-2.59-.35-3.71,0-5.64,1.65-5.64,4.94v10.08h-4.34V11.43h4.34v2.8h.11c1.44-2.27,3.68-3.43,6.69-3.43,1.02,0,1.19,0,1.44,.07Z" fill="#fff"/><path d="M235.48,5.93v6.13h6.55v3.71h-6.55v8.68c0,1.71,.98,2.7,3.01,2.7,1.05,0,2.94-.28,3.74-.53v3.82c-1.15,.14-2.9,.42-4.65,.42-4.73,0-6.44-1.86-6.44-5.36V15.77h-3.36v-3.71h3.36V5.93h4.34Z" fill="#fff"/></g><g isolation="isolate"><path d="M8.02,46.93v6.13h6.55v3.71h-6.55v8.68c0,1.71,.98,2.7,3.01,2.7,1.05,0,2.94-.28,3.75-.53v3.82c-1.16,.14-2.91,.42-4.66,.42-4.73,0-6.44-1.86-6.44-5.36v-9.73H.31v-3.71H3.68v-6.13h4.34Z" fill="#fff"/><path d="M37.73,61.81c0,6.44-4.24,10.05-10.54,10.05s-10.54-3.61-10.54-10.05c0-5.85,3.85-10.01,10.54-10.01s10.54,4.06,10.54,10.01Zm-10.54,6.34c3.85,0,6.13-2.49,6.13-6.41s-2.49-6.23-6.16-6.23-6.09,2.14-6.09,6.23,2.27,6.41,6.13,6.41Z" fill="#fff"/><path d="M45.53,52.43v10.61c0,3.5,1.16,5.11,4.06,5.11,2.52,0,4.31-.7,5.92-2.77v-12.95h4.34v18.8h-4.27v-2.35c-2.07,2.17-4.24,2.98-7.04,2.98-4.97,0-7.35-2.7-7.35-7.21v-12.22h4.34Z" fill="#fff"/><path d="M77.11,51.87v4.69c-1.23-.31-1.58-.35-2.59-.35-3.71,0-5.64,1.65-5.64,4.94v10.08h-4.34v-18.8h4.34v2.8h.1c1.44-2.27,3.68-3.43,6.69-3.43,1.02,0,1.19,0,1.44,.07Z" fill="#fff"/><path d="M112.56,61.81c0,6.44-4.24,10.05-10.54,10.05s-10.54-3.61-10.54-10.05c0-5.85,3.85-10.01,10.54-10.01s10.54,4.06,10.54,10.01Zm-10.54,6.34c3.85,0,6.13-2.49,6.13-6.41s-2.49-6.23-6.16-6.23-6.09,2.14-6.09,6.23,2.27,6.41,6.13,6.41Z" fill="#fff"/><path d="M130.55,45.71v3.71c-1.92-.46-3.12-.56-4.2-.56-2.59,0-3.54,1.01-3.54,3.12v1.08h6.76v3.71h-6.76v14.46h-4.34v-14.46h-4.17v-3.71h4.17v-2.31c0-3.08,1.79-5.6,7.42-5.6,1.08,0,1.68,.04,4.66,.56Z" fill="#fff"/></g><g isolation="isolate"><path d="M25.83,86.78v4.27H7.98v5.92h15.37v4.27H7.98v6.72H26.25v4.27H3.01v-25.45H25.83Z" fill="#fff"/><path d="M33.15,86.78l9.56,20.3,9.73-20.3h5.32l-12.46,25.45h-5.18l-12.29-25.45h5.32Z" fill="#fff"/><path d="M76.9,86.78c7.21,0,10.12,2.38,10.12,7.6,0,4.27-2.87,7.21-7.11,7.49l7.81,10.36h-6.13l-7.39-10.01h-7.88v10.01h-4.97v-25.45h15.54Zm-.73,11.31c4.55,0,5.88-1.01,5.88-3.61s-1.44-3.57-5.88-3.57h-9.84v7.18h9.84Z" fill="#fff"/><path d="M115.29,86.78v4.27h-17.85v5.92h15.37v4.27h-15.37v6.72h18.27v4.27h-23.24v-25.45h22.82Z" fill="#fff"/><path d="M124.95,86.78l17.01,18.38v-18.38h4.76v25.45h-4.55l-17.71-19.04v19.04h-4.76v-25.45h5.25Z" fill="#fff"/><path d="M175.7,86.78v2.8l-17.29,18.38h17.71v4.27h-25.55v-2.45l17.78-18.73h-16.87v-4.27h24.22Z" fill="#fff"/><path d="M208.64,99.69c0,7.42-5.14,13.16-15.16,13.16s-15.16-5.74-15.16-13.16c0-8.33,5.36-13.55,15.16-13.55s15.16,5.25,15.16,13.55Zm-15.19-9.28c-6.2,0-10.15,3.29-10.15,9s3.85,9.17,10.19,9.17,10.19-3.15,10.19-9.17c0-5.67-3.89-9-10.22-9Z" fill="#fff"/></g><g isolation="isolate"><path d="M226.84,85.71v2.49h-6.64v12.35h-2.9v-12.35h-6.64v-2.49h16.17Z" fill="#fff"/><path d="M232.82,85.71l4.63,11,4.72-11h3.82v14.84h-2.57v-11.25h-.04l-4.76,11.25h-2.31l-4.78-11.25h-.04v11.25h-2.57v-14.84h3.9Z" fill="#fff"/></g></g></svg>