<svg enable-background="new 0 0 1403 973.4" width="1403" height="973.4" viewBox="0 0 1403 973.4" xml:space="preserve" xmlns="http://www.w3.org/2000/svg"><text fill="#007a33" font-family="'TradeGothicLTStd-Bold'" font-size="52" transform="translate(438.8513 44.7715)">Astellas ERA Symposium</text><text fill="#4d4d4f" font-family="'TradeGothicLTStd-Bd2'" font-size="45" transform="translate(333.0119 137.7715)">HIF-PH inhibition: Simplicity through</text><text fill="#4d4d4f" font-family="'TradeGothicLTStd-Bd2'" font-size="45" transform="translate(268.0549 190.7715)">innovation for patients with anaemia of CKD</text><text fill="#4d4d4f" font-family="'TradeGothicLTStd'" font-size="45" transform="translate(405.0126 261.7715)">Saturday 21st May at 1.30pm</text><g transform="translate(-393.379 -4219.381)"><path d="m0 5.8h1402.5" fill="none" stroke="#000" stroke-linejoin="round" transform="translate(393.879 5186.022)"/><g clip-rule="evenodd" fill-rule="evenodd"><path d="m393.9 4627.1h976.6v-72h-976.6z" fill="#007a33"/><path d="m1370.5 4627.1h424.9v-72h-424.9z" fill="#007a33"/><path d="m393.9 4707.8h976.6v-80.7h-976.6z" fill="#4d4d4f" opacity=".174"/><path d="m1370.5 4707.8h424.9v-80.7h-424.9z" fill="#4d4d4f" opacity=".174"/><path d="m393.9 4788.5h976.6v-80.7h-976.6z" fill="#fff" opacity=".177"/><path d="m1370.5 4788.5h424.9v-80.7h-424.9z" fill="#fff" opacity=".177"/><path d="m393.9 4869.1h976.6v-80.7h-976.6z" fill="#4d4d4f" opacity=".174"/><path d="m1370.5 4869.1h424.9v-80.7h-424.9z" fill="#4d4d4f" opacity=".174"/><path d="m393.9 5030.5h976.6v-161.3h-976.6z" fill="#fff" opacity=".177"/><path d="m1370.5 4949.8h424.9v-80.7h-424.9z" fill="#fff" opacity=".177"/><path d="m1370.5 5030.5h424.9v-80.7h-424.9z" fill="#4d4d4f" opacity=".174"/><path d="m393.9 5111.1h976.6v-80.7h-976.6z" fill="#fff" opacity=".177"/><path d="m1370.5 5111.1h424.9v-80.7h-424.9z" fill="#fff" opacity=".177"/><path d="m393.9 5191.8h976.6v-80.7h-976.6z" fill="#4d4d4f" opacity=".174"/><path d="m1370.5 5191.8h424.9v-80.7h-424.9z" fill="#4d4d4f" opacity=".174"/></g><path d="m0 5.8v638.6" fill="none" stroke="#000" stroke-linejoin="round" transform="translate(393.879 4548.382)"/><path d="m0 5.8v638.6" fill="none" stroke="#000" stroke-linejoin="round" transform="translate(1370.505 4548.382)"/><path d="m0 5.8h1402.5" fill="none" stroke="#000" stroke-linejoin="round" transform="translate(393.879 4702.03)"/><path d="m0 5.8h1402.5" fill="none" stroke="#000" stroke-linejoin="round" transform="translate(393.879 4782.696)"/><path d="m0 5.8h1402.5" fill="none" stroke="#000" stroke-linejoin="round" transform="translate(393.879 4863.361)"/><path d="m0 5.8h426.8" fill="none" stroke="#000" stroke-linejoin="round" transform="translate(1369.545 4944.026)"/><path d="m0 5.8h1402.5" fill="none" stroke="#000" stroke-linejoin="round" transform="translate(393.879 5024.692)"/><path d="m0 5.8h1402.5" fill="none" stroke="#000" stroke-linejoin="round" transform="translate(393.879 5105.357)"/><path d="m0 5.8v638.6" fill="none" stroke="#000" stroke-linejoin="round" transform="translate(393.879 4548.382)"/><path d="m0 5.8v638.6" fill="none" stroke="#000" stroke-linejoin="round" transform="translate(1795.439 4548.382)"/><path d="m247.3 5.8h1402.5" fill="none" stroke="#000" stroke-linejoin="round" transform="translate(146.601 4549.342)"/><text fill="#fff" font-family="'Calibri-Bold'" font-size="16" letter-spacing="-3" transform="translate(561.097 4595.4424)">​</text><text fill="#fff" font-family="'Calibri-Bold'" font-size="16" letter-spacing="-3" transform="translate(1486.2229 4606.0054)">​</text></g><g font-family="'TradeGothicLTStd-Bold'"><text fill="#fff" font-size="27" transform="translate(34.603 380.0735)">SESSION TITLE</text><text fill="#fff" font-size="27" letter-spacing="-7" transform="translate(199.703 380.0735)">​</text><text fill="#fff" font-size="27" transform="translate(1001.6029 380.0735)">SPEAKER</text><text fill="#4d4d4f" font-size="26" transform="translate(34.603 721.0735)">HIF activation: a coordinated approach to the</text><text fill="#4d4d4f" font-size="26" transform="translate(34.603 755.0735)">management of </text><text fill="#4d4d4f" font-size="26" letter-spacing="-7" transform="translate(205.103 755.0735)">​</text><text fill="#4d4d4f" font-size="26" transform="translate(205.103 755.0735)">anaemia of CKD</text><text fill="#4d4d4f" font-size="26" letter-spacing="-7" transform="translate(374.103 755.0735)">​</text><text fill="#4d4d4f" font-size="26" transform="translate(34.603 614.0735)">The journey so far: history of treatment and current guidelines</text><text fill="#4d4d4f" font-size="26" letter-spacing="-7" transform="translate(699.1029 614.0735)">​</text><text fill="#4d4d4f" font-size="26" transform="translate(34.603 533.0735)">Living with anaemia of CKD: the patient experience</text><text fill="#4d4d4f" font-size="26" letter-spacing="-7" transform="translate(580.7029 533.0735)">​</text><text fill="#4d4d4f" font-size="26" transform="translate(34.603 452.0735)">Welcome and introductions</text><text fill="#4d4d4f" font-size="26" letter-spacing="-7" transform="translate(327.8029 452.0735)">​</text><text fill="#4d4d4f" font-size="26" transform="translate(1001.6029 452.0735)">Professor Fouque</text><text fill="#4d4d4f" font-size="26" letter-spacing="-7" transform="translate(1186.503 452.0735)">​</text><text fill="#4d4d4f" font-size="26" transform="translate(1001.6029 614.0735)">Professor Fouque</text><text fill="#4d4d4f" font-size="26" letter-spacing="-7" transform="translate(1186.503 614.0735)">​</text><text fill="#4d4d4f" font-size="26" transform="translate(1001.6029 533.0735)">Video</text><text fill="#4d4d4f" font-size="26" transform="translate(1001.6029 695.0735)">Professor Fliser</text><text fill="#4d4d4f" font-size="26" letter-spacing="-7" transform="translate(1169.1029 695.0735)">​</text><text fill="#4d4d4f" font-size="26" transform="translate(1001.6029 776.0735)">Professor Bhandari</text><text fill="#4d4d4f" font-size="26" letter-spacing="-7" transform="translate(1205.303 776.0735)">​</text><text fill="#4d4d4f" font-size="26" transform="translate(1001.6029 857.0735)">Professor Nangaku (video)</text><text fill="#4d4d4f" font-size="26" transform="translate(1001.6029 938.0735)">Professor Fouque</text><text fill="#4d4d4f" font-size="26" transform="translate(34.603 858.0735)">Real-world: patient case study experience</text><text fill="#4d4d4f" font-size="26" letter-spacing="-7" transform="translate(485.3029 858.0735)">​</text><text fill="#4d4d4f" font-size="26" transform="translate(34.603 939.0735)">Q&amp;A</text></g></svg>
