<?xml version="1.0" encoding="utf-8"?>
<!-- Generator: Adobe Illustrator 26.3.1, SVG Export Plug-In . SVG Version: 6.00 Build 0)  -->
<svg version="1.1" id="Layer_1" xmlns="http://www.w3.org/2000/svg" xmlns:xlink="http://www.w3.org/1999/xlink" x="0px" y="0px"
	 viewBox="0 0 1867 1408" style="enable-background:new 0 0 1867 1408;" xml:space="preserve">
<style type="text/css">
	.st0{fill:#4D4D4F;}
	.st1{font-family:'TradeGothicLTStd';}
	.st2{font-size:23px;}
	.st3{fill:#007A33;}
	.st4{font-family:'TradeGothicLTStd-Bold';}
	.st5{font-size:52px;}
	.st6{font-family:'TradeGothicLTStd-Bd2';}
	.st7{font-size:25px;}
	.st8{font-size:48px;}
	.st9{font-size:27.998px;}
	.st10{clip-path:url(#SVGID_00000000938167165994429220000004753898218962676382_);}
	.st11{fill:#206926;}
	.st12{fill:#792A7D;}
	.st13{fill:#103C23;}
	.st14{font-size:20px;}
	.st15{font-size:21px;}
	.st16{font-size:18px;}
	.st17{font-size:11px;}
	.st18{fill:#D9000D;}
	.st19{font-size:19px;}
	.st20{fill:#271D58;}
	.st21{clip-path:url(#SVGID_00000114047762939352401190000001061273033408525233_);}
	.st22{fill:#3D3D3F;}
	.st23{font-size:37px;}
	.st24{fill:#4D9E21;}
	.st25{fill:none;stroke:#103C23;stroke-width:5;stroke-miterlimit:10;}
	.st26{fill:none;stroke:#206926;stroke-width:5;stroke-miterlimit:10;}
	.st27{fill:none;stroke:#D9000D;stroke-width:5;stroke-miterlimit:10;}
	.st28{fill:none;stroke:#3D3D3F;stroke-width:5;stroke-miterlimit:10;}
	.st29{font-size:39px;}
	.st30{fill:#FFFFFF;stroke:#271D58;stroke-width:3;stroke-miterlimit:10;}
	.st31{fill:#A3A3A3;}
	.st32{font-size:98px;}
	.st33{fill:#FFFFFF;stroke:#792A7D;stroke-width:3;stroke-miterlimit:10;}
	.st34{fill:#FFFFFF;}
	.st35{fill:none;}
	.st36{fill:none;stroke:#707070;stroke-width:6;}
	.st37{fill:#707070;}
	.st38{font-size:45px;}
</style>
<text transform="matrix(1 0 0 1 0 1368)" class="st0 st1 st2">1. EVRENZO EU SmPC, September 2022.</text>
<text transform="matrix(1 0 0 1 0 1402)" class="st0 st1 st2">2. Li Z et al. Kidney Dis (Basel). 2020;6(2):65–73.</text>
<text transform="matrix(1 0 0 1 0 117)" class="st3 st4 st5">EVRENZO addresses the multifactorial</text>
<text transform="matrix(1 0 0 1 0 171)" class="st3 st4 st5">pathophysiology of anaemia of CKD…</text>
<g>
	<text transform="matrix(1 0 0 1 1575.75 95)" class="st0 st6 st7">EVRENZO (roxadustat)</text>
	<text transform="matrix(1 0 0 1 1537.2 125)" class="st0 st6 st7">IS NOT APPROVED FOR USE</text>
	<text transform="matrix(1 0 0 1 1562.55 155)" class="st0 st6 st7">IN THE UNITED STATES</text>
	<text transform="matrix(1 0 0 1 1545.175 19)" class="st0 st6 st7">This information is intended</text>
	<text transform="matrix(1 0 0 1 1549.35 49)" class="st0 st6 st7">for international audiences.</text>
	<text transform="matrix(1 0 0 1 3 1310)" class="st0 st1 st2">CKD, chronic kidney disease; EPO, erythropoietin; Hb, haemoglobin</text>
	<text transform="matrix(1 0 0 1 372.8713 888.111)" class="st0 st6 st8">…to generate a coordinated erythropoietic response</text>
	<text transform="matrix(1 0 0 1 1451.3757 872.1126)" class="st0 st6 st9">1,2</text>
</g>
<g transform="translate(536.973 217.013)">
	<g>
		<defs>
			<rect id="SVGID_1_" x="0" y="0" width="703" height="620.1"/>
		</defs>
		<clipPath id="SVGID_00000114065577564649750590000009520854639829871750_">
			<use xlink:href="#SVGID_1_"  style="overflow:visible;"/>
		</clipPath>
		<g style="clip-path:url(#SVGID_00000114065577564649750590000009520854639829871750_);">
			<path class="st11" d="M318.9,153.4c-0.4,0-0.7,0-0.8,0c-10.5,0-18.2-7.4-22.3-21.3c-1.8-6.6-2.8-13.4-2.9-20.2
				c0-16.4,5.2-25.9,9.6-31.1c5.2-6,12.1-9.5,19-9.5c12.2,0,22,8.1,22,18.2s-9.9,18.2-22,18.2h-4.5v-5.2h4.5c9.3,0,16.9-5.8,16.9-13
				s-7.6-13-16.9-13c-9.4,0-23.4,9.4-23.4,35.4c0,0.4,0.3,36.3,20.1,36.3l0.2,0c0.1,0,6.9,0.4,10.7-3c1.5-1.4,2.4-3.3,2.4-5.4
				c0.2-3.2-0.5-5.6-2.1-7.2c-2.2-2.3-6.3-3.4-12.5-3.4v-5.2c7.7,0,13,1.6,16.2,5c2.6,2.7,3.7,6.4,3.5,11.1c-0.1,3.5-1.6,6.7-4.2,9
				C327.9,153,321.3,153.4,318.9,153.4"/>
			<path class="st12" d="M349.6,170.7h-5.2v-41.4l-8.7-10.9l-18.8-0.1l0-5.2l21.3,0.1l11.4,14.3L349.6,170.7z"/>
			<path class="st11" d="M387.1,153.4c-2.4,0-9.1-0.4-13.5-4.3c-2.6-2.3-4.1-5.6-4.2-9c-0.2-4.7,0.9-8.4,3.5-11.1
				c3.2-3.4,8.5-5,16.2-5v5.2c-6.2,0-10.3,1.1-12.5,3.4c-1.6,1.6-2.2,4-2.1,7.2c0,2.1,0.9,4,2.4,5.4c3.8,3.4,10.6,3,10.7,3l0.2,0
				c19.9,0,20.1-35.9,20.1-36.3c0-14.2-6.2-35.4-23.4-35.4c-9.3,0-16.9,5.8-16.9,13s7.6,13,16.9,13h4.5v5.2h-4.5
				c-12.2,0-22-8.1-22-18.2s9.9-18.2,22-18.2c11.5,0,28.6,10.8,28.6,40.6c-0.1,6.8-1.1,13.6-2.9,20.2c-4.1,13.9-11.8,21.3-22.3,21.3
				C387.7,153.4,387.5,153.4,387.1,153.4"/>
			<path class="st12" d="M361.5,170.7h-5.2v-43.2l11.4-14.3l21.3-0.1l0,5.2l-18.8,0.1l-8.7,10.9V170.7z"/>
			<path class="st12" d="M333,496.2c-5.8,0.1-11.7-0.6-17.3-2l1.4-5l-0.7,2.5l0.7-2.5c10.9,2.5,22.2,2.4,33.1-0.3
				c18.8-4.8,38.6-0.2,39.5,0l-1.2,5c-0.2,0-19.4-4.5-37,0C345.4,495.4,339.2,496.2,333,496.2"/>
			<path class="st11" d="M352.8,532.5c-22.9,0-41.5-18.6-41.6-41.6c0-25.4,37.9-73.4,39.5-75.4l2-2.5l2,2.5
				c1.6,2,39.5,49.7,39.5,75.4C394.4,513.9,375.8,532.4,352.8,532.5 M352.8,421.4c-7.9,10.4-36.4,49.1-36.4,69.5
				c0.1,20.1,16.5,36.3,36.6,36.2c19.9-0.1,36.1-16.2,36.2-36.2C389.2,470.3,360.8,431.7,352.8,421.4"/>
			<g>
				<path class="st12" d="M352.7,486.7l-16.6-16.6l3.7-3.7l12.9,12.9l12.9-12.9l3.7,3.7L352.7,486.7z"/>
				<path class="st12" d="M350.1,444.2h5.2V483h-5.2V444.2z"/>
			</g>
		</g>
	</g>
	<g>
		<text transform="matrix(1 0 0 1 131.925 373.486)" class="st13 st4 st14">Increased</text>
		<text transform="matrix(1 0 0 1 137.341 397.375)" class="st13 st4 st15">hepcidin</text>
		<text transform="matrix(1 0 0 1 164.851 165.688)" class="st11 st4 st14">Reduced</text>
		<text transform="matrix(1 0 0 1 158.828 189.494)" class="st11 st4 st14">clearance</text>
		<text transform="matrix(1 0 0 1 469.452 165.772)" class="st11 st4 st15">Disrupted</text>
		<text transform="matrix(1 0 0 1 464.728 188.494)" class="st11 st4 st16">0</text>
		<text transform="matrix(1 0 0 1 474.777 191.462)" class="st11 st4 st17">2</text>
		<text transform="matrix(1 0 0 1 483.796 189.586)" class="st11 st4 st15"> sensing</text>
	</g>
	<path class="st11" d="M288.3,563.7V548h3v15.6L288.3,563.7z M294.1,563.7v-11.8h2.7v1.6h0c0.5-1.1,1.6-1.8,2.8-1.8v2.9
		c-0.5-0.2-1-0.3-1.5-0.3c-0.7,0-1.3,0.5-1.3,1.2c0,0,0,0,0,0.1v8.1L294.1,563.7z M301.1,556.1c0-3.1,1.6-4.5,4.3-4.5
		s4.3,1.3,4.3,4.5v3.3c0,3.1-1.6,4.5-4.3,4.5s-4.3-1.3-4.3-4.5V556.1z M303.8,560.1c0,0.9,0.7,1.4,1.6,1.4s1.6-0.5,1.6-1.4v-4.7
		c0-0.9-0.6-1.4-1.6-1.4c-1,0-1.6,0.5-1.6,1.4V560.1z M312.1,563.7v-11.8h2.6v1.3c0.8-0.9,1.9-1.4,3.1-1.6c1.7,0,2.5,0.8,2.5,3v9
		h-2.7V555c0-0.8-0.3-1.3-1-1.3c-0.7,0.2-1.3,0.5-1.8,1.1v8.9L312.1,563.7z M334.7,563.7v-1.4h0c-0.7,1-1.7,1.6-2.9,1.6
		c-2.1,0-3-1.6-3-4.7v-2.9c0-3,0.9-4.7,3-4.7c0.7,0,1.4,0.3,2.7,1.3V548h2.7v15.6H334.7z M334.5,554.5c-0.4-0.5-1-0.8-1.6-0.8
		c-0.7,0-1.3,0.5-1.3,2.8v2.5c0,2.3,0.6,2.8,1.3,2.8c0.6,0,1.3-0.3,1.6-0.8V554.5z M342.3,558.4v1.6c-0.1,0.8,0.5,1.6,1.3,1.7
		c0.1,0,0.2,0,0.3,0c0.8,0.1,1.5-0.5,1.6-1.3c0-0.1,0-0.2,0-0.3h2.7c-0.1,2.4-1.6,3.9-4.3,3.9c-2.2,0.2-4.1-1.4-4.3-3.6
		c0-0.2,0-0.4,0-0.6v-3.9c-0.1-2.2,1.6-4.1,3.8-4.2c0.2,0,0.4,0,0.6,0c2.5,0,4.3,1.6,4.3,4v2.8H342.3z M345.5,556.2v-0.7
		c0-0.9-0.6-1.6-1.5-1.7s-1.6,0.6-1.7,1.5c0,0.1,0,0.1,0,0.2v0.7H345.5z M355.2,550.2h-0.8c-0.5,0-0.9,0.3-0.9,0.8
		c0,0.1,0,0.1,0,0.2v1.2h1.6v2.2h-1.6v9.1h-2.7v-9.1h-1.2v-2.2h1.2v-1.1c0-2.7,1.1-3.5,3.1-3.5c0.4,0,0.9,0.1,1.3,0.1V550.2z
		 M356.3,550.4v-2.5h2.7v2.5H356.3z M359,552.4v11.3h-2.7v-11.3H359z M367.2,556v-0.5c0-0.9-0.6-1.4-1.6-1.4c-1,0-1.6,0.5-1.6,1.4
		v4.7c0,0.9,0.6,1.4,1.6,1.4c1,0,1.6-0.5,1.6-1.4v-0.7h2.7v0c0,3.1-1.6,4.5-4.3,4.5s-4.3-1.3-4.3-4.5v-3.3c0-3.1,1.6-4.5,4.3-4.5
		c2.7,0,4.3,1.3,4.3,4.3L367.2,556z M372.6,549.8v-2.5h2.7v2.5H372.6z M375.4,551.9v11.8h-2.7v-11.8H375.4z M380.8,558.4v1.6
		c-0.1,0.8,0.5,1.6,1.3,1.7c0.1,0,0.2,0,0.3,0c0.8,0.1,1.5-0.5,1.6-1.3c0-0.1,0-0.2,0-0.3h2.7c-0.1,2.4-1.6,3.9-4.3,3.9
		c-2.2,0.2-4.1-1.4-4.3-3.6c0-0.2,0-0.4,0-0.6v-3.9c-0.1-2.2,1.6-4.1,3.8-4.2c0.2,0,0.4,0,0.6,0c2.5,0,4.3,1.6,4.3,4v2.8
		L380.8,558.4z M384,556.2v-0.7c0-0.9-0.7-1.6-1.6-1.6c-0.9,0-1.6,0.7-1.6,1.6v0.7H384z M389.2,563.7v-11.8h2.6v1.3
		c0.8-0.9,1.9-1.4,3.1-1.6c1.7,0,2.5,0.8,2.5,3v9h-2.7V555c0-0.8-0.3-1.3-1-1.3c-0.7,0.2-1.3,0.5-1.8,1.1v8.9L389.2,563.7z
		 M405.7,556v-0.5c0-0.9-0.6-1.4-1.6-1.4s-1.6,0.5-1.6,1.4v4.7c0,0.9,0.6,1.4,1.6,1.4s1.6-0.5,1.6-1.4v-0.7h2.7v0
		c0,3.1-1.6,4.5-4.3,4.5s-4.3-1.3-4.3-4.5v-3.3c0-3.1,1.6-4.5,4.3-4.5c2.7,0,4.3,1.3,4.3,4.3L405.7,556z M410.2,565.4
		c0.3,0,0.5,0,0.8,0c0.9,0,1.8-0.6,2-1.6c-0.1-0.8-0.2-1.7-0.5-2.5l-2.7-9.5h2.8l1.8,7.8h0l1.7-7.8h2.8l-3.1,11.7
		c-0.8,3.2-2,4.2-4.7,4.2c-0.3,0-0.6,0-0.9,0L410.2,565.4z"/>
	<path class="st18" d="M297.3,341.7v-15.6h3v15.6L297.3,341.7z M303.1,341.7v-11.8h2.6v1.3c0.8-0.9,1.9-1.4,3.1-1.6
		c1.7,0,2.5,0.8,2.5,3v9h-2.7v-8.7c0-0.8-0.3-1.3-1-1.3c-0.7,0.2-1.3,0.5-1.8,1.1v8.9H303.1z M318.5,328.2h-0.8
		c-0.5,0-0.9,0.3-0.9,0.8c0,0.1,0,0.1,0,0.2v1.2h1.6v2.2h-1.6v9.1h-2.7v-9.1h-1.2v-2.2h1.2v-1.1c0-2.7,1.1-3.5,3.1-3.5
		c0.4,0,0.9,0.1,1.3,0.1L318.5,328.2z M319.6,326.1h2.7v15.6h-2.7V326.1z M324.5,333.4c0-1.1,0.6-2.1,1.5-2.8
		c0.9-0.6,1.9-0.9,2.9-0.8c2.9,0,4,1.5,4,3.6v7.5c0,0.3,0.1,0.6,0.2,1h-2.7c-0.1-0.3-0.1-0.7-0.2-1.1c-0.9,0.9-2,1.4-3.2,1.4
		c-1.4,0.1-2.6-0.9-2.7-2.3c0-0.2,0-0.4,0-0.6c0-2.7,2.6-3.9,6-4.9v-0.9c0.1-0.7-0.4-1.3-1.1-1.4c-0.1,0-0.2,0-0.3,0
		c-0.8,0-1.5,0.6-1.5,1.4c0,0,0,0,0,0H324.5z M330.2,336c-1.6,0.6-3.3,1.5-3.3,2.7c-0.1,0.6,0.4,1.2,1,1.2c0.1,0,0.1,0,0.2,0
		c0.8-0.1,1.6-0.4,2.1-1.1L330.2,336z M335.6,329.9h2.6v1.3c0.7-0.9,1.8-1.4,2.9-1.6c1,0,1.9,0.8,2.1,1.8c0.8-0.9,1.7-1.8,2.9-1.8
		c1.6,0,2.5,1,2.5,3.1v8.9h-2.7v-9c0-0.8-0.3-1-0.7-1c-0.7,0.1-1.3,0.5-1.7,1.1v8.9h-2.7v-9c0-0.8-0.3-1-0.7-1
		c-0.7,0.1-1.3,0.5-1.7,1.1v8.9h-2.7L335.6,329.9z M351.3,329.9h2.6v1.3c0.7-0.9,1.8-1.4,2.9-1.6c1,0,1.9,0.8,2.1,1.8
		c0.8-0.9,1.7-1.8,2.9-1.8c1.6,0,2.5,1,2.5,3.1v8.9h-2.7v-9c0-0.8-0.3-1-0.7-1c-0.7,0.1-1.3,0.5-1.7,1.1v8.9h-2.7v-9
		c0-0.8-0.3-1-0.7-1c-0.7,0.1-1.3,0.5-1.7,1.1v8.9h-2.7L351.3,329.9z M366.6,333.4c0-1.1,0.6-2.1,1.5-2.8c0.9-0.6,1.9-0.9,2.9-0.8
		c2.9,0,4,1.5,4,3.6v7.5c0,0.3,0.1,0.6,0.2,1h-2.7c-0.1-0.3-0.1-0.7-0.2-1.1c-0.9,0.9-2,1.4-3.2,1.4c-1.4,0.1-2.6-0.9-2.7-2.3
		c0-0.2,0-0.4,0-0.6c0-2.7,2.6-3.9,6-4.9v-0.9c0.1-0.7-0.4-1.3-1.1-1.4c-0.1,0-0.2,0-0.3,0c-0.8,0-1.5,0.6-1.5,1.4c0,0,0,0,0,0
		H366.6z M372.3,336c-1.6,0.6-3.3,1.5-3.3,2.7c-0.1,0.6,0.4,1.2,1,1.2c0.1,0,0.1,0,0.2,0c0.8-0.1,1.6-0.4,2.1-1.1L372.3,336z
		 M376.6,332.7v-2.2h1.1v-3.2h2.7v3.2h1.8v2.2h-1.8v6c0,0.6,0.5,0.9,1.2,0.9c0.2,0,0.4,0,0.5,0v2.3c-0.5,0.1-1,0.1-1.6,0.1
		c-1.8,0-2.9-0.6-2.9-2.3v-6.9L376.6,332.7z M384.1,327.9v-2.5h2.7v2.5H384.1z M386.8,329.9v11.8h-2.7v-11.8L386.8,329.9z
		 M389.5,334.2c0-3.1,1.6-4.5,4.3-4.5c2.7,0,4.3,1.3,4.3,4.5v3.3c0,3.1-1.6,4.5-4.3,4.5s-4.3-1.3-4.3-4.5L389.5,334.2z M392.3,338.2
		c0,0.9,0.6,1.4,1.6,1.4c1,0,1.6-0.5,1.6-1.4v-4.7c0-0.9-0.6-1.4-1.6-1.4c-1,0-1.6,0.5-1.6,1.4V338.2z M400.6,341.7v-11.8h2.6v1.3
		c0.8-0.9,1.9-1.4,3.1-1.6c1.7,0,2.5,0.8,2.5,3v9h-2.7v-8.7c0-0.8-0.3-1.3-1-1.3c-0.7,0.2-1.3,0.5-1.8,1.1v8.9L400.6,341.7z"/>
	<text transform="matrix(1 0 0 1 334.897 194.203)" class="st11 st4 st19">CKD</text>
	<text transform="matrix(1 0 0 1 498.656 373.493)" class="st20 st4 st14">Reduced</text>
	<text transform="matrix(1 0 0 1 519.7111 397.298)" class="st20 st4 st19">EPO</text>
	<g>
		<defs>
			<rect id="SVGID_00000170257283063857767940000002089361582846344593_" x="-273" y="-3" width="1135" height="623.1"/>
		</defs>
		<clipPath id="SVGID_00000095316546564164234740000010784583930198366380_">
			<use xlink:href="#SVGID_00000170257283063857767940000002089361582846344593_"  style="overflow:visible;"/>
		</clipPath>
		<g style="clip-path:url(#SVGID_00000095316546564164234740000010784583930198366380_);">
			<g>
				<text transform="matrix(1 0 0 1 673.024 336.36)" class="st22 st4 st23">EPO</text>
				<text transform="matrix(1 0 0 1 64.295 572.356)" class="st22 st4 st23">Iron</text>
				<text transform="matrix(1 0 0 1 -121.992 295.605)" class="st22 st4 st23">Hepcidin</text>
			</g>
			<path class="st24" d="M193.4,317.2l-3.7-3.7c14.1-14,6.3-43.2,6.2-43.5l5-1.4c1.5,5.9,2.3,11.9,2.4,17.9
				C203.6,299.9,200.2,310.5,193.4,317.2"/>
			<path class="st13" d="M152.1,343.8c-2.1,0.1-4.2-0.5-6-1.6c-6.2-3.8-6.5-13.1-6.8-23c0-4.3-0.3-8.7-0.9-13
				c-2.1-13.1-3.6-31.9,7.6-43.8c7.9-8.4,20.8-11.9,38.4-10.4c6.1,0.6,12.2,1.7,18.2,3.3c4.9,1.2,9.9,2.4,16.1,3.3
				c3.9,0.6,8.9,0.8,13.7,1c12.9,0.6,24,1.1,26.8,7.3c1.4,3,0.5,6.5-2.8,10.7c-3.6,4.6-5.6,5.5-21.5,12.4c-3.9,1.7-8.5,3.7-14.3,6.2
				c-14.7,6.4-21.1,13.9-27.9,21.9c-6.4,7.4-13,15.1-26.5,21.6C160.5,342.4,155.9,343.8,152.1,343.8 M176.6,256.9
				c-12.2,0-21.2,3.1-26.8,9.1c-9.6,10.3-8.1,27.5-6.2,39.5c0.6,4.5,0.9,9.1,1,13.6c0.2,8.1,0.5,16.4,4.3,18.7
				c2.7,1.7,7.8,0.7,15-2.8c12.5-6,18.5-13,24.8-20.3c6.9-8,14-16.3,29.8-23.3c5.8-2.5,10.5-4.6,14.3-6.2
				c15.5-6.7,16.7-7.2,19.5-10.8c1.9-2.4,2.7-4.3,2.2-5.3c-1.5-3.3-13.6-3.8-22.4-4.3c-4.9-0.2-10-0.5-14.2-1.1
				c-6.5-1-11.6-2.2-16.6-3.4c-5.7-1.5-11.5-2.6-17.4-3.2C181.4,257,179,256.9,176.6,256.9"/>
			<path class="st12" d="M169.4,271.7l16.6,16.6l-3.7,3.7L169.4,279L156.5,292l-3.7-3.7L169.4,271.7z"/>
			<path class="st12" d="M166.8,275.4h5.2v38.8h-5.2V275.4z"/>
			<path class="st20" d="M501.7,297.7c-15.6,0-28.2-12.6-28.2-28.2c0-15.6,12.6-28.2,28.2-28.2c15.6,0,28.2,12.6,28.2,28.2
				c0,0,0,0,0,0C529.8,285.1,517.2,297.7,501.7,297.7 M501.7,246.5c-12.7,0-23,10.3-23,23c0,12.7,10.3,23,23,23
				c12.7,0,23-10.3,23-23C524.7,256.8,514.4,246.5,501.7,246.5"/>
			<path class="st18" d="M353,317.2c-19.5,0-35.4-15.8-35.4-35.4c0-19.5,15.8-35.4,35.4-35.4c19.5,0,35.4,15.8,35.4,35.4
				C388.3,301.4,372.5,317.2,353,317.2 M353,252.9c-16,0-28.9,12.9-28.9,28.9s12.9,28.9,28.9,28.9s28.9-12.9,28.9-28.9
				C381.8,265.9,368.9,253,353,252.9"/>
			<path class="st18" d="M353,304.4c-12.5,0-22.6-10.1-22.6-22.6c0-12.5,10.1-22.6,22.6-22.6c12.5,0,22.6,10.1,22.6,22.6
				c0,0,0,0,0,0C375.5,294.3,365.4,304.4,353,304.4 M353,263.4c-10.2,0-18.4,8.2-18.4,18.4s8.2,18.4,18.4,18.4
				c10.2,0,18.4-8.2,18.4-18.4C371.4,271.7,363.1,263.4,353,263.4"/>
			<path class="st18" d="M353,294.9c-7.2,0-13-5.8-13-13c0-7.2,5.8-13,13-13c7.2,0,13,5.8,13,13l0,0C366,289,360.1,294.8,353,294.9
				 M353,271.2c-5.9,0-10.6,4.8-10.6,10.6c0,5.9,4.8,10.6,10.6,10.6c5.9,0,10.6-4.8,10.6-10.6l0,0C363.6,276,358.8,271.2,353,271.2"
				/>
			<path class="st12" d="M491.1,280.6c-6-5.9-6.1-15.6-0.1-21.6s15.6-6.1,21.6-0.1c0,0,0.1,0.1,0.1,0.1l-3.7,3.7
				c-4-3.9-10.3-3.9-14.2,0.1c-3.9,3.9-3.9,10.2,0,14.1L491.1,280.6z"/>
			<path class="st20" d="M567.5,297.7c-15.6,0-28.2-12.6-28.2-28.2s12.6-28.2,28.2-28.2c15.6,0,28.2,12.6,28.2,28.2c0,0,0,0,0,0
				C595.7,285.1,583.1,297.7,567.5,297.7 M567.5,246.5c-12.7,0-23,10.3-23,23c0,12.7,10.3,23,23,23c12.7,0,23-10.3,23-23
				C590.5,256.8,580.2,246.5,567.5,246.5"/>
			<path class="st12" d="M567.3,284.5c-4,0-7.9-1.6-10.8-4.5l3.7-3.7c3.9,3.9,10.3,3.9,14.2,0c3.9-3.9,3.9-10.3,0-14.2l0,0l3.7-3.7
				c6,5.9,6,15.6,0,21.6C575.2,282.9,571.4,284.5,567.3,284.5"/>
			<path class="st20" d="M535.2,354.1c-15.6,0-28.2-12.6-28.2-28.2c0-15.6,12.6-28.2,28.2-28.2c15.6,0,28.2,12.6,28.2,28.2
				c0,0,0,0,0,0C563.3,341.5,550.7,354.1,535.2,354.1 M535.2,302.9c-12.7,0-23,10.3-23,23c0,12.7,10.3,23,23,23
				c12.7,0,23-10.3,23-23C558.1,313.2,547.9,302.9,535.2,302.9"/>
			<path class="st12" d="M534.9,340.9c-4,0-7.9-1.6-10.8-4.5l3.7-3.7c3.9,3.9,10.3,3.9,14.2,0c3.9-3.9,3.9-10.3,0-14.2l3.7-3.7
				c6,5.9,6,15.6,0,21.6C542.9,339.3,539,340.9,534.9,340.9"/>
			<path class="st12" d="M590.5,345.4l-16.6-16.6l3.7-3.7l12.9,12.9l12.9-12.9l3.7,3.7L590.5,345.4z"/>
			<path class="st12" d="M587.9,302.9h5.2v38.8h-5.2V302.9z"/>
			<path class="st25" d="M238.5,374.8h212.7"/>
			<path class="st13" d="M445.6,393.9l33.1-19.1l-33.1-19.1V393.9z"/>
			<path class="st26" d="M292.7,153.4l-59.5,66.3"/>
			<path class="st11" d="M222.7,202.8l-7.9,37.4l36.3-11.9L222.7,202.8z"/>
			<path class="st26" d="M413.2,153.4l52.2,58.2"/>
			<path class="st11" d="M447.5,220.1l36.3,11.9l-7.9-37.4L447.5,220.1z"/>
			<path class="st26" d="M407.3,479.4l63-63"/>
			<path class="st11" d="M479.9,433.9l9.9-36.9l-36.9,9.9L479.9,433.9z"/>
			<path class="st26" d="M224.6,400.8l52.2,58.2"/>
			<path class="st11" d="M258.8,467.6l36.3,11.9l-7.9-37.4L258.8,467.6z"/>
			<path class="st27" d="M394.4,281.8h40.5"/>
			<path class="st18" d="M429.3,300.9l33.1-19.1l-33.1-19.1V300.9z"/>
			<path class="st27" d="M311.3,281.8h-20.1"/>
			<path class="st18" d="M296.8,262.7l-33.1,19.1l33.1,19.1V262.7z"/>
			<path class="st28" d="M615.4,196c67.6,145,4.9,317.3-140.1,384.9c-22.1,10.3-42.6,17.2-64.9,21.5"/>
			<path class="st22" d="M412.9,582.4l-29.7,24l35.6,13.7L412.9,582.4z"/>
			<path class="st28" d="M115.7,152.2C207.4,21.2,388-10.6,519,81.1c20,14,36.2,28.3,51.1,45.5"/>
			<path class="st22" d="M551.6,134.4l35.6,13.7l-5.9-37.7L551.6,134.4z"/>
			<path class="st28" d="M327.7,606.8C168.4,592.9,50.5,452.4,64.4,293.1c2.1-24.3,6.4-45.5,13.8-67"/>
			<path class="st22" d="M94.3,238.3l-5.9-37.7l-29.7,24L94.3,238.3z"/>
		</g>
	</g>
</g>
<text transform="matrix(1 0 0 1 92.333 1124)" class="st20 st4 st29">Increases endogenous</text>
<text transform="matrix(1 0 0 1 155.123 1168)" class="st20 st4 st29">EPO production</text>
<text transform="matrix(1 0 0 1 647.642 1124)" class="st12 st4 st29">Reduces</text>
<text transform="matrix(1 0 0 1 598.892 1168)" class="st12 st4 st29">hepcidin levels</text>
<text transform="matrix(1 0 0 1 1054.2019 1122.84)" class="st20 st4 st29">Improves iron</text>
<text transform="matrix(1 0 0 1 1055.2549 1166.84)" class="st20 st4 st29">bioavailability</text>
<text transform="matrix(1 0 0 1 1421.8101 1124)" class="st20 st4 st29">Increases Hb and red</text>
<text transform="matrix(1 0 0 1 1427.192 1168)" class="st20 st4 st29">blood cell production</text>
<g transform="translate(-136 -97.988)">
	<circle class="st30" cx="406.6" cy="1145.8" r="22.1"/>
	<circle class="st30" cx="466.5" cy="1145.5" r="20.1"/>
	<text transform="matrix(1 0 0 1 611.9708 1123.984)" class="st31 st4 st32">+</text>
	<text transform="matrix(1 0 0 1 1056.3807 1123.984)" class="st31 st4 st32">+</text>
	<text transform="matrix(1 0 0 1 1478.6837 1123.984)" class="st31 st4 st32">=</text>
	<path class="st20" d="M331.9,1066l34.2,34.2l-7.6,7.6l-26.7-26.7l-26.7,26.7l-7.6-7.6L331.9,1066z"/>
	<path class="st20" d="M326.6,1073.6h10.7v80h-10.7V1073.6z"/>
	<g>
		<circle class="st30" cx="422.2" cy="1072.5" r="22.1"/>
		<circle class="st30" cx="393.2" cy="1094.5" r="15.2"/>
		<circle class="st30" cx="416.8" cy="1095.7" r="27.6"/>
		<circle class="st30" cx="444.3" cy="1087.6" r="22.1"/>
		<circle class="st30" cx="394.7" cy="1123.3" r="22.1"/>
		<circle class="st30" cx="425.4" cy="1135.2" r="18.9"/>
		<circle class="st30" cx="455.3" cy="1123.3" r="22.1"/>
		<circle class="st30" cx="453.6" cy="1066.9" r="16.5"/>
		<circle class="st30" cx="473.3" cy="1087.6" r="22.1"/>
		<circle class="st30" cx="444.3" cy="1154.1" r="22.1"/>
		<circle class="st30" cx="472.9" cy="1114.9" r="13.7"/>
	</g>
	<path class="st12" d="M769.6,1153.6l-34.2-34.2l7.6-7.6l26.7,26.7l26.7-26.7l7.6,7.6L769.6,1153.6z"/>
	<path class="st12" d="M764.2,1066h10.7v80h-10.7V1066z"/>
	<path class="st24" d="M1215.6,1066l34.2,34.2l-7.6,7.6l-26.7-26.7l-26.7,26.7l-7.6-7.6L1215.6,1066z"/>
	<path class="st24" d="M1210.3,1073.6h10.7v80h-10.7V1073.6z"/>
	<path class="st18" d="M1652.1,1066l34.2,34.2l-7.6,7.6l-26.7-26.7l-26.7,26.7l-7.6-7.6L1652.1,1066z"/>
	<path class="st18" d="M1646.8,1073.6h10.7v80h-10.7V1073.6z"/>
	<path class="st33" d="M823.7,1121.5c-1.9,4.4-3,10.6,2.1,12.8c3.3,1.3,7.5-0.1,9.6-2.6c2.1-2.4,2.7-5.6,2.9-8.6
		c1.2-15.2-3.5-30.8,1.7-45.4c0.5-1.7,1.5-3.2,2.9-4.3c3.4-2.3,8.6-0.6,11.9,1.8c4.3,3,7.5,7.4,9,12.5c0.4,1.4,0.7,2.9,1.8,4
		c2,1.9,5.7,1.8,8.6,0.9c7.4-2.3,6.7-11.4,5.8-17.8s8.3-8,0.5-9c-3.9-0.5-12.2-2.7-16-1.8c-3.7,0.9-0.6,7.3-3.4,9.5
		c-4.6,3.7-10.3,9.8-9.9,15.1s-5.8,5.8-4.1,10.9c0.9,2.8,1.7,5.6,1.2,8.4c-0.3,1.7-1,3.3-1.3,4.9c-1.2,7.2,5.6,13.6,11.9,18.8"/>
	<path class="st33" d="M860.8,1153.6c-1.9,4.4,0.6,17.6,5.8,19.8c3.3,1.3,7.5-0.1,9.6-2.6c2.1-2.4,2.7-5.6,2.9-8.6
		c1.2-15.2-3.5-30.8,1.7-45.4c0.5-1.7,1.5-3.2,2.9-4.3c3.4-2.3,8.6-0.6,11.8,1.8c4.3,3,7.5,7.4,9,12.5c0.4,1.4,0.7,2.9,1.8,4
		c2,1.9,5.7,1.8,8.6,0.9c7.4-2.3,12.3-9,11.5-15.4c-0.8-6.4-7.4-12.1-15.2-13.1c-3.9-0.4-7.9-0.1-11.7,1c-3.7,0.7-7.1,2.3-10.1,4.5
		c-4.6,3.7-6.1,9.3-5.6,14.6s2.6,10.3,4.3,15.4c0.9,2.8,1.7,5.6,1.2,8.4c-0.3,1.7,14.2,8.2,13.9,9.9c-1.2,7.2-9.6,8.6-3.3,13.8"/>
	<path class="st33" d="M942.2,1076.6c1.8,4.5-1.1,17.6-6.4,19.6c-3.3,1.3-7.5-0.3-9.5-2.8c-2.1-2.5-2.5-5.6-2.7-8.6
		c-0.8-15.2,4.4-30.7-0.4-45.4c-0.4-1.7-1.4-3.2-2.8-4.3c-3.3-2.3-8.6-0.7-11.9,1.6c-4.4,2.9-7.7,7.3-9.3,12.3
		c-0.4,1.4-0.7,2.9-1.9,4c-2,1.9-5.8,1.7-8.6,0.7c-7.3-2.5-12-9.2-11-15.6c1-6.4,7.7-11.9,15.6-12.8c3.9-0.3,7.9,0.1,11.7,1.2
		c3.6,0.8,7,2.4,10,4.7c4.5,3.8,0.4,5.4-0.2,10.7c-0.6,5.2-2.9,8.4-4.7,13.5c-1,2.7-6.3,9.3-5.9,12.2c0.2,1.7,5.7,13.7,5.9,15.4
		c1,7.3-10.4,8.9-16.9,13.9"/>
	
		<ellipse transform="matrix(0.9416 -0.3367 0.3367 0.9416 -260.1756 653.1231)" class="st18" cx="1753.3" cy="1076.8" rx="38.3" ry="22.5"/>
	<path class="st34" d="M1757.1,1088.2c-4.8,1.8-9.9,2.4-15,1.6l3.7-4.4c6.1,1.2,14.2-1.8,18.2-6.5c4-4.7,2.2-9.5-3.8-10.7l3.7-4.4
		c4.5,0.8,7.5,3,8.6,6.1c1.1,3.1,0.1,6.7-2.8,10.1C1766.3,1083.7,1761.9,1086.5,1757.1,1088.2L1757.1,1088.2z"/>
	
		<ellipse transform="matrix(0.9416 -0.3367 0.3367 0.9416 -278.1103 648.2632)" class="st18" cx="1730.4" cy="1126.1" rx="38.3" ry="22.5"/>
	<path class="st34" d="M1734.1,1137.5c-4.8,1.8-9.9,2.4-15,1.6l3.7-4.4c6.1,1.2,14.2-1.8,18.2-6.5c4-4.7,2.2-9.5-3.8-10.7l3.7-4.4
		c4.5,0.8,7.5,3,8.6,6.1s0.1,6.7-2.8,10.1C1743.3,1133,1738.9,1135.8,1734.1,1137.5L1734.1,1137.5z"/>
	
		<ellipse transform="matrix(0.9416 -0.3367 0.3367 0.9416 -274.6959 673.3497)" class="st18" cx="1804.4" cy="1128.8" rx="38.3" ry="22.5"/>
	<path class="st34" d="M1808.1,1140.2c-4.8,1.8-9.9,2.4-15,1.6l3.7-4.4c6.1,1.2,14.2-1.8,18.2-6.5s2.2-9.5-3.8-10.7l3.7-4.4
		c4.5,0.8,7.5,3,8.6,6.1c1.1,3.1,0.1,6.7-2.8,10.1C1817.3,1135.7,1813,1138.5,1808.1,1140.2L1808.1,1140.2z"/>
	<g>
		<path class="st35" d="M1268.3,1064h96v96h-96V1064z"/>
		<path class="st36" d="M1271.3,1067h90v90h-90V1067z"/>
	</g>
	<text transform="matrix(1 0 0 1 1295.0978 1126.75)" class="st37 st4 st38">Fe</text>
</g>
</svg>
