<?xml version="1.0" encoding="utf-8"?>
<!-- Generator: Adobe Illustrator 26.3.1, SVG Export Plug-In . SVG Version: 6.00 Build 0)  -->
<svg version="1.1" id="Layer_1" xmlns="http://www.w3.org/2000/svg" xmlns:xlink="http://www.w3.org/1999/xlink" x="0px" y="0px"
	 viewBox="0 0 1869 1361" style="enable-background:new 0 0 1869 1361;" xml:space="preserve">
<style type="text/css">
	.st0{fill:#4D4D4F;}
	.st1{font-family:'TradeGothicLTStd';}
	.st2{font-size:23px;}
	.st3{fill:#007A33;}
	.st4{font-family:'TradeGothicLTStd-Bold';}
	.st5{font-size:52px;}
	.st6{font-size:30.332px;}
	.st7{font-size:32px;}
	.st8{font-size:18.666px;}
	.st9{font-family:'TradeGothicLTStd-Bd2';}
	.st10{opacity:0.612;fill:#FFFFFF;enable-background:new    ;}
	.st11{font-size:13.416px;}
	.st12{fill:#006345;}
	.st13{font-size:24px;}
	.st14{fill:#E29A40;}
	.st15{fill:none;}
	.st16{fill:#DEDEE1;}
	.st17{fill:none;stroke:#4A4A49;stroke-width:0.5;}
	.st18{fill:#6A6D71;}
	.st19{font-family:'ArialMT';}
	.st20{font-size:22px;}
	.st21{font-size:15px;}
	.st22{font-size:12px;}
	.st23{font-size:18px;}
	.st24{fill:none;stroke:#4D4D4F;stroke-width:4;stroke-miterlimit:10;}
	.st25{fill:none;stroke:#007A33;stroke-width:4;stroke-miterlimit:10;}
	.st26{font-size:20px;}
	.st27{letter-spacing:-1;}
	.st28{fill:none;stroke:#007A33;stroke-width:4;}
	.st29{fill:none;stroke:#4D4D4F;stroke-width:4;}
	.st30{font-size:25px;}
</style>
<text transform="matrix(1 0 0 1 0 1321)" class="st0 st1 st2">1. EVRENZO EU SmPC, September 2022.</text>
<text transform="matrix(1 0 0 1 0 1355)" class="st0 st1 st2">2. Barratt J et al. Nephrol Dial Transplant. 2021;36(9):1616–1628.</text>
<text transform="matrix(1 0 0 1 0 1250)" class="st0 st1 st2">CI, confidence interval; ESA, erythropoiesis-stimulating agent; haemoglobin; NDD, non-dialysis-dependent; PPS, per protocol set</text>
<text transform="matrix(1 0 0 1 0 117)" class="st3 st4 st5">Patients treated with EVRENZO achieved and</text>
<text transform="matrix(1 0 0 1 0 171)" class="st3 st4 st5">maintained Hb levels comparable to ESA</text>
<text transform="matrix(1 0 0 1 869.644 153.6684)" class="st3 st4 st6">1,2</text>
<text transform="matrix(1 0 0 1 1267 835)" class="st0 st1 st7">EVRENZO was non-inferior to ESA</text>
<text transform="matrix(1 0 0 1 1745.1709 824.3344)" class="st0 st1 st8">1</text>
<text transform="matrix(1 0 0 1 1241 791)" class="st0 st9 st7">In patients on dialysis:</text>
<circle class="st3" cx="1246.5" cy="820.5" r="5.5"/>
<text transform="matrix(1 0 0 1 1267 629)" class="st0 st1 st7">EVRENZO was superior to</text>
<text transform="matrix(1 0 0 1 1267 670)" class="st0 st1 st7">placebo (p&lt;0.0001)</text>
<text transform="matrix(1 0 0 1 1551.0615 659.3344)" class="st0 st1 st8">1</text>
<text transform="matrix(1 0 0 1 1267 711)" class="st0 st1 st7">EVRENZO was non-inferior to ESA</text>
<text transform="matrix(1 0 0 1 1745.1709 700.3344)" class="st0 st1 st8">1,2</text>
<text transform="matrix(1 0 0 1 1241 585)" class="st0 st9 st7">In patients not on dialysis:</text>
<circle class="st3" cx="1246.5" cy="617.5" r="5.5"/>
<circle class="st3" cx="1246.5" cy="697.5" r="5.5"/>
<path class="st10" d="M43,310h1100c23.7,0,43,19.3,43,43v749c0,23.7-19.3,43-43,43H43c-23.7,0-43-19.3-43-43V353
	C0,329.3,19.3,310,43,310z"/>
<text transform="matrix(1 0 0 1 58 415)" class="st0 st9 st7">Mean (95% CI) Hb (g/dL) from baseline (PPS)</text>
<text transform="matrix(1 0 0 1 704.041 404.3344)" class="st0 st9 st8">2</text>
<text transform="matrix(1 0 0 1 948 732.5)" class="st0 st1 st2">89.5% of</text>
<text transform="matrix(1 0 0 1 948 760.5)" class="st0 st1 st2">EVRENZO-treated</text>
<text transform="matrix(1 0 0 1 948 788.5)" class="st0 st1 st2">patients achieved</text>
<text transform="matrix(1 0 0 1 948 816.5)" class="st0 st1 st2">a Hb response vs.</text>
<text transform="matrix(1 0 0 1 948 844.5)" class="st0 st1 st2">78.0% of patients</text>
<text transform="matrix(1 0 0 1 948 872.5)" class="st0 st1 st2">receiving ESA</text>
<text transform="matrix(1 0 0 1 1086.6198 864.8341)" class="st0 st1 st11">2</text>
<text transform="matrix(1 0 0 1 948 629.746)" class="st12 st9 st13">NDD vs. active</text>
<text transform="matrix(1 0 0 1 948 655.756)" class="st12 st9 st13">comparator:</text>
<text transform="matrix(1 0 0 1 948 681.766)" class="st14 st9 st13">DOLOMITES</text>
<path class="st14" d="M1057,536.6l38.3,66.3h-76.5L1057,536.6z M1083.1,595.8l-26.1-45.2l-26.1,45.2H1083.1z"/>
<path class="st12" d="M1007.1,502.5l57.9,100.4H949.1L1007.1,502.5z M1052.8,595.8l-45.8-79.3l-45.8,79.3H1052.8z"/>
<path class="st15" d="M124.5,640.4h714.2V840H124.5V640.4z"/>
<path class="st16" d="M145.6,634.1h767.2v63H145.6V634.1z"/>
<path class="st17" d="M146,601.5v415.2"/>
<path class="st17" d="M146,1016.7h-9"/>
<path class="st17" d="M146,984.8h-9"/>
<path class="st17" d="M146,953h-9"/>
<path class="st17" d="M146,921.1h-9"/>
<path class="st17" d="M146,889.2h-9"/>
<path class="st17" d="M146,857.3h-9"/>
<path class="st17" d="M146,825.5h-9"/>
<path class="st17" d="M146,793.6h-9"/>
<path class="st17" d="M146,761.7h-9"/>
<path class="st17" d="M146,729.8h-9"/>
<path class="st17" d="M146,697.9h-9"/>
<path class="st17" d="M146,666.1h-9"/>
<path class="st17" d="M146,634.2h-9"/>
<path class="st17" d="M146,602.3h-9"/>
<path class="st17" d="M146,1016.7h763"/>
<g>
	<text transform="matrix(0 -1 1 0 72 892.9102)" class="st18 st19 st20">Haemoglobin (g/dL)</text>
	<text transform="matrix(1 0 0 1 478.543 1067.556)" class="st18 st19 st20">Visit (</text>
	<text transform="matrix(1 0 0 1 533.1456 1067.556)" class="st18 st19 st20">W</text>
	<text transform="matrix(1 0 0 1 553.0962 1067.556)" class="st18 st19 st20">eek)</text>
	<text transform="matrix(1 0 0 1 93.826 605.513)" class="st18 st19 st21">13.0</text>
	<text transform="matrix(1 0 0 1 93.826 637.391)" class="st18 st19 st21">12.0</text>
	<text transform="matrix(1 0 0 1 93.826 669.27)" class="st18 st19 st21">11.0</text>
	<text transform="matrix(1 0 0 1 93.826 701.147)" class="st18 st19 st21">10.0</text>
	<text transform="matrix(1 0 0 1 103.566 733.026)" class="st18 st19 st21">9.0</text>
	<text transform="matrix(1 0 0 1 103.566 764.904)" class="st18 st19 st21">8.0</text>
	<text transform="matrix(1 0 0 1 103.566 796.783)" class="st18 st19 st21">7.0</text>
	<text transform="matrix(1 0 0 1 103.566 828.661)" class="st18 st19 st21">6.0</text>
	<text transform="matrix(1 0 0 1 103.566 860.539)" class="st18 st19 st21">5.0</text>
	<text transform="matrix(1 0 0 1 103.566 892.418)" class="st18 st19 st21">4.0</text>
	<text transform="matrix(1 0 0 1 103.566 924.297)" class="st18 st19 st21">3.0</text>
	<text transform="matrix(1 0 0 1 103.566 956.175)" class="st18 st19 st21">2.0</text>
	<text transform="matrix(1 0 0 1 103.566 988.053)" class="st18 st19 st21">1.0</text>
	<text transform="matrix(1 0 0 1 118.166 1019.648)" class="st18 st1 st22">0</text>
	<text transform="matrix(1 0 0 1 897.969 1031.8361)" class="st18 st19 st21">1</text>
	<text transform="matrix(1 0 0 1 906.1763 1031.8361)" class="st18 st19 st21">0</text>
	<text transform="matrix(1 0 0 1 914.3686 1031.8361)" class="st18 st19 st21">4</text>
	<text transform="matrix(1 0 0 1 874.832 1031.8361)" class="st18 st19 st21">1</text>
	<text transform="matrix(1 0 0 1 883.0392 1031.8361)" class="st18 st19 st21">0</text>
	<text transform="matrix(1 0 0 1 891.2316 1031.8361)" class="st18 st19 st21">0</text>
	<text transform="matrix(1 0 0 1 854.895 1031.8361)" class="st18 st19 st21">96</text>
	<text transform="matrix(1 0 0 1 831.762 1031.8361)" class="st18 st19 st21">92</text>
	<text transform="matrix(1 0 0 1 808.631 1031.8361)" class="st18 st19 st21">88</text>
	<text transform="matrix(1 0 0 1 785.5 1031.8361)" class="st18 st19 st21">84</text>
	<text transform="matrix(1 0 0 1 762.369 1031.8361)" class="st18 st19 st21">80</text>
	<text transform="matrix(1 0 0 1 739.238 1031.8361)" class="st18 st19 st21">76</text>
	<text transform="matrix(1 0 0 1 716.109 1031.8361)" class="st18 st19 st21">72</text>
	<text transform="matrix(1 0 0 1 692.975 1031.8361)" class="st18 st19 st21">68</text>
	<text transform="matrix(1 0 0 1 669.844 1031.8361)" class="st18 st19 st21">64</text>
	<text transform="matrix(1 0 0 1 646.715 1031.8361)" class="st18 st19 st21">60</text>
	<text transform="matrix(1 0 0 1 623.584 1031.8361)" class="st18 st19 st21">56</text>
	<text transform="matrix(1 0 0 1 600.453 1031.8361)" class="st18 st19 st21">52</text>
	<text transform="matrix(1 0 0 1 577.322 1031.8361)" class="st18 st19 st21">48</text>
	<text transform="matrix(1 0 0 1 554.191 1031.8361)" class="st18 st19 st21">44</text>
	<text transform="matrix(1 0 0 1 531.061 1031.8361)" class="st18 st19 st21">40</text>
	<text transform="matrix(1 0 0 1 507.93 1031.8361)" class="st18 st19 st21">36</text>
	<text transform="matrix(1 0 0 1 484.797 1031.8361)" class="st18 st19 st21">32</text>
	<text transform="matrix(1 0 0 1 461.666 1031.8361)" class="st18 st19 st21">28</text>
	<text transform="matrix(1 0 0 1 438.537 1031.8361)" class="st18 st19 st21">24</text>
	<text transform="matrix(1 0 0 1 415.406 1031.8361)" class="st18 st19 st21">22</text>
	<text transform="matrix(1 0 0 1 392.273 1031.8361)" class="st18 st19 st21">20</text>
	<text transform="matrix(1 0 0 1 369.143 1031.8361)" class="st18 st19 st21">18</text>
	<text transform="matrix(1 0 0 1 346.012 1031.8361)" class="st18 st19 st21">16</text>
	<text transform="matrix(1 0 0 1 322.881 1031.8361)" class="st18 st19 st21">14</text>
	<text transform="matrix(1 0 0 1 299.75 1031.8361)" class="st18 st19 st21">12</text>
	<text transform="matrix(1 0 0 1 276.619 1031.8361)" class="st18 st19 st21">10</text>
	<text transform="matrix(1 0 0 1 257.377 1030.8361)" class="st18 st19 st21">8</text>
	<text transform="matrix(1 0 0 1 234.246 1030.8361)" class="st18 st19 st21">6</text>
	<text transform="matrix(1 0 0 1 211.117 1030.8361)" class="st18 st19 st21">4</text>
	<text transform="matrix(1 0 0 1 187.984 1030.8361)" class="st18 st19 st21">2</text>
	<text transform="matrix(1 0 0 1 164.854 1030.8361)" class="st18 st19 st21">0</text>
	<text transform="matrix(1 0 0 1 137.82 1031.8361)" class="st18 st19 st21">BL</text>
</g>
<text transform="matrix(1 0 0 1 155.135 619.881)" class="st18 st19 st23">T</text>
<g>
	<g>
		<g transform="translate(145.697 627.607)">
			<path class="st24" d="M-0.8,94.8L29.6,84l22.1-10.9l23.8-17.5l18.6-10.1L122,33.3l22.6,2.6l23.2-15.4l23.2,9.3l25-9l22.6,14.8
				L263,25.2l20.9,9.8l25,3.2l24.4-11.9l20.9,7.7l24.4-6.1l22.6,14l23.8-7.7l22.6,6.9l24.4-9.5l23.2,9.5l21.5-8.7l24.4,5.8l25.5-8.5
				l20.3,7.2l22.6-8l24.4,7.2l24.4-4.2l24.4,11.9l24.4-11.7l20.3,9.8l23.8-7.9l15.4,3.3"/>
			<path class="st25" d="M768.2,37.3l-47,1.5l-23.8-7.6l-22.6,7.9L651,28.2L626.5,35l-22.6-8.2L580.7,35l-23.2-9l-23.2,12.2
				l-24.4-7.7L487.8,43l-23.2-10.3l-4.6,1.6l-19.2,8.2l-24.4-8.2l-23.2,0.3L371,25.2L348.9,32l-24.3-3.1l-23.8,11.9l-23.2-5
				l-23.8-15.9l-22.1,9.8l-23.8-15.9l-23.2,14L161.4,8.7l-22.1,14L115,20.1l-23.2,6.1L67.9,41.6L45.3,63.1L18,83L-1.4,95.5"/>
		</g>
	</g>
</g>
<text transform="matrix(1 0 0 1 164.4921 619.881)" class="st18 st19 st23">arget Hb range*</text>
<text transform="matrix(1 0 0 1 948 956.675)" class="st18 st19 st23">*Target Hb range</text>
<text transform="matrix(1 0 0 1 948 979.675)" class="st18 st19 st23">between 10.0 and</text>
<text transform="matrix(1 0 0 1 948 1002.675)" class="st18 st19 st23">12.0 g/dL.</text>
<text transform="matrix(1 0 0 1 537.559 557.607)" class="st3 st4 st26">EVRENZO (n=286)</text>
<text transform="matrix(1 0 0 1 537.559 591)" class="st0 st4 st26">ESA (n=273)</text>
<text transform="matrix(1 0 0 1 493.164 519.888)" class="st0 st4 st20 st27">T</text>
<text transform="matrix(1 0 0 1 502.14 519.888)" class="st0 st4 st20">reatment</text>
<path class="st28" d="M493.2,552.5h33.1"/>
<path class="st29" d="M493.2,583.5h33.1"/>
<text transform="matrix(1 0 0 1 1581.75 95)" class="st0 st9 st30">EVRENZO (roxadustat)</text>
<text transform="matrix(1 0 0 1 1543.2 125)" class="st0 st9 st30">IS NOT APPROVED FOR USE</text>
<text transform="matrix(1 0 0 1 1568.55 155)" class="st0 st9 st30">IN THE UNITED STATES</text>
<text transform="matrix(1 0 0 1 1551.175 19)" class="st0 st9 st30">This information is intended</text>
<text transform="matrix(1 0 0 1 1555.35 49)" class="st0 st9 st30">for international audiences.</text>
</svg>
