<svg version="1.1" id="Layer_1" xmlns="http://www.w3.org/2000/svg" xmlns:xlink="http://www.w3.org/1999/xlink" x="0" y="0" viewBox="0 0 1162.5 1051.2" width="1162.5" height="1051.2" xml:space="preserve" enable-background="new 0 0 1162.5 1051.2"><style type="text/css">.st0{fill:#007a33}.st1{font-family:&apos;TradeGothicLTStd-Bold&apos;}.st2{font-size:33px}.st3{enable-background:new}.st4{fill:#4d4d4f}.st5{letter-spacing:-9}.st6{font-family:&apos;TradeGothicLTStd&apos;}.st7{letter-spacing:-10}.st8{font-size:52px}</style><text transform="matrix(1 0 0 1 417.0855 149.7715)" class="st0 st1 st2">20th May, 10:15–10:30</text><text transform="matrix(1 0 0 1 1.831055e-04 198.7715)" class="st3"><tspan x="0" y="0" class="st4 st1 st2">HIF-PH inhibition: a new coordinated approach to the management of anaemia of CKD</tspan><tspan x="1162.5" y="0" class="st4 st1 st2 st5">​</tspan></text><text transform="matrix(1 0 0 1 447.8586 247.7715)" class="st4 st6 st2">Gabriel Choukroun</text><text transform="matrix(1 0 0 1 417.0855 308.7715)" class="st3"><tspan x="0" y="0" class="st0 st1 st2">20th May, 11:30–11:45</tspan><tspan x="328.3" y="0" class="st0 st1 st2 st5">​</tspan></text><text transform="matrix(1 0 0 1 142.1147 357.7715)" class="st3"><tspan x="0" y="0" class="st4 st1 st2">Addressing the unmet needs of our patients with anaemia of CKD</tspan><tspan x="878.3" y="0" class="st4 st1 st2 st5">​</tspan></text><text transform="matrix(1 0 0 1 447.8586 406.7715)" class="st4 st6 st2">Gabriel Choukroun</text><text transform="matrix(1 0 0 1 417.0853 467.7715)" class="st3"><tspan x="0" y="0" class="st0 st1 st2">20th May, 16:40–16:55</tspan><tspan x="328.3" y="0" class="st0 st1 st2 st5">​</tspan></text><text transform="matrix(1 0 0 1 63.2282 516.7715)" class="st3"><tspan x="0" y="0" class="st4 st1 st2">Keeping patients with CKD out of hospital: lessons from the COVID pandemic</tspan><tspan x="1036.1" y="0" class="st4 st1 st2 st5">​</tspan></text><text transform="matrix(1 0 0 1 473.5158 565.7715)" class="st3"><tspan x="0" y="0" class="st4 st6 st2">Sunil Bhandari</tspan><tspan x="215.5" y="0" class="st4 st6 st2 st7">​</tspan></text><text transform="matrix(1 0 0 1 417.0853 627.7715)" class="st0 st1 st2">20th May, 17:00–17:15</text><text transform="matrix(1 0 0 1 172.3421 676.7715)" class="st3"><tspan x="0" y="0" class="st4 st1 st2">Initiating treatment with EVRENZO: Practical considerations</tspan><tspan x="817.8" y="0" class="st4 st1 st2 st5">​</tspan></text><text transform="matrix(1 0 0 1 461.653 725.7715)" class="st3"><tspan x="0" y="0" class="st4 st6 st2">Jonathan Barratt</tspan><tspan x="239.2" y="0" class="st4 st6 st2 st7">​</tspan></text><text transform="matrix(1 0 0 1 418.0097 786.7715)" class="st3"><tspan x="0" y="0" class="st0 st1 st2">21st May, 10:15–10:30</tspan><tspan x="326.5" y="0" class="st0 st1 st2 st5">​</tspan></text><text transform="matrix(1 0 0 1 293.3521 835.7715)" class="st3"><tspan x="0" y="0" class="st4 st1 st2">EVRENZO: Clinical benefits of a novel MoA</tspan><tspan x="575.8" y="0" class="st4 st1 st2 st5">​</tspan></text><text transform="matrix(1 0 0 1 457.049 884.7715)" class="st3"><tspan x="0" y="0" class="st4 st6 st2">Roberto Minutolo</tspan><tspan x="248.4" y="0" class="st4 st6 st2 st7">​</tspan></text><text transform="matrix(1 0 0 1 418.0099 945.7715)" class="st0 st1 st2">21st May, 16:45–17:00</text><text transform="matrix(1 0 0 1 79.778 994.7715)" class="st3"><tspan x="0" y="0" class="st4 st1 st2">EVRENZO: Clinical data from the phase 3 ALPINE development programme</tspan><tspan x="1003" y="0" class="st4 st1 st2 st5">​</tspan></text><text transform="matrix(1 0 0 1 490.9563 1043.7715)" class="st3"><tspan x="0" y="0" class="st4 st6 st2">Danilo Fliser</tspan><tspan x="180.6" y="0" class="st4 st6 st2 st7">​</tspan></text><text transform="matrix(1 0 0 1 217.2629 44.7715)" class="st0 st1 st8">Experts on Stand – seminar topics</text></svg>
