<?xml version="1.0" encoding="UTF-8"?><svg id="a" xmlns="http://www.w3.org/2000/svg" viewBox="0 0 825.81 57.9"><g transform="translate(0 2)" isolation="isolate"><g isolation="isolate"><path d="M40.87,16.3l-6.97,2.29c-1.61-4.47-5.93-6.29-13.26-6.29-5.82,0-10.04,1.61-10.04,4.73,0,2.55,3.38,3.54,6.5,4l10.92,1.61c8.74,1.3,13.47,4.84,13.47,10.92,0,7.96-6.92,12.27-18.67,12.27S3.8,41.47,1.82,34.97l7.12-2.24c2.13,4.58,6.81,6.76,14.09,6.76,6.55,0,11.08-2.24,11.08-5.25,0-2.5-3.17-4.06-7.44-4.63l-9.41-1.3c-9.57-1.3-14.04-5.2-14.04-10.82,0-7.38,6.4-11.34,17.68-11.34s17.73,3.38,19.97,10.14Z" fill="#007a33"/><path d="M76.18,32.73h-24.49c.62,5.2,4.47,7.9,9.31,7.9,3.33,0,6.45-1.51,7.59-4.11h7.07c-1.51,5.25-7.02,9.31-14.56,9.31-9.78,0-15.96-6.03-15.96-14.98s6.03-14.82,15.39-14.82,15.6,5.56,15.65,16.69Zm-6.86-4.99c-.94-4.32-3.74-6.5-8.84-6.5-4.73,0-7.59,2.34-8.58,6.5h17.42Z" fill="#007a33"/><path d="M110.86,32.73h-24.49c.62,5.2,4.47,7.9,9.31,7.9,3.33,0,6.45-1.51,7.59-4.11h7.07c-1.51,5.25-7.02,9.31-14.56,9.31-9.78,0-15.96-6.03-15.96-14.98s6.03-14.82,15.39-14.82,15.6,5.56,15.65,16.69Zm-6.86-4.99c-.94-4.32-3.74-6.5-8.84-6.5-4.73,0-7.59,2.34-8.58,6.5h17.42Z" fill="#007a33"/><path d="M141.39,7.1v13.36c2.86-3.12,6.19-4.42,10.35-4.42,7.33,0,10.92,3.95,10.92,10.71v18.15h-6.45v-15.76c0-5.2-1.72-7.59-6.03-7.59-3.74,0-6.4,1.04-8.79,4.11v19.24h-6.45V7.1h6.45Z" fill="#007a33"/><path d="M199.11,30.91c0,9.57-6.29,14.92-15.65,14.92s-15.65-5.36-15.65-14.92c0-8.68,5.72-14.87,15.65-14.87s15.65,6.03,15.65,14.87Zm-15.65,9.41c5.72,0,9.1-3.69,9.1-9.52s-3.69-9.26-9.15-9.26-9.05,3.17-9.05,9.26,3.38,9.52,9.1,9.52Z" fill="#007a33"/><path d="M207.84,16.98l7.33,19.6,7.28-19.6h5.72l7.38,19.6,7.44-19.6h6.55l-10.92,27.92h-6.19l-7.12-19.5-7.12,19.5h-6.08l-11.02-27.92h6.76Z" fill="#007a33"/><path d="M307.01,7.1v6.34h-26.52v8.79h22.83v6.34h-22.83v9.98h27.15v6.34h-34.53V7.1h33.91Z" fill="#007a33"/><path d="M317.87,7.1l14.2,30.16,14.46-30.16h7.9l-18.51,37.81h-7.7l-18.25-37.81h7.9Z" fill="#007a33"/><path d="M382.87,7.1c10.71,0,15.03,3.54,15.03,11.28,0,6.34-4.26,10.71-10.56,11.13l11.6,15.39h-9.1l-10.97-14.87h-11.7v14.87h-7.38V7.1h23.09Zm-1.09,16.8c6.76,0,8.74-1.51,8.74-5.36s-2.13-5.3-8.74-5.3h-14.61v10.66h14.61Z" fill="#007a33"/><path d="M439.92,7.1v6.34h-26.52v8.79h22.83v6.34h-22.83v9.98h27.15v6.34h-34.53V7.1h33.91Z" fill="#007a33"/><path d="M454.27,7.1l25.27,27.3V7.1h7.07V44.9h-6.76l-26.31-28.29v28.29h-7.07V7.1h7.8Z" fill="#007a33"/><path d="M529.67,7.1v4.16l-25.69,27.3h26.31v6.34h-37.96v-3.64l26.42-27.82h-25.07V7.1h35.99Z" fill="#007a33"/><path d="M578.6,26.28c0,11.03-7.64,19.55-22.52,19.55s-22.52-8.53-22.52-19.55c0-12.38,7.96-20.12,22.52-20.12s22.52,7.8,22.52,20.12Zm-22.57-13.78c-9.2,0-15.08,4.89-15.08,13.36s5.72,13.62,15.13,13.62,15.13-4.68,15.13-13.62c0-8.42-5.77-13.36-15.18-13.36Z" fill="#007a33"/></g><g isolation="isolate"><path d="M605.65,5.52v3.7h-9.86V27.57h-4.31V9.22h-9.86v-3.7h24.03Z" fill="#007a33"/><path d="M614.53,5.52l6.89,16.35,7.01-16.35h5.67V27.57h-3.82V10.86h-.06l-7.07,16.71h-3.43l-7.1-16.71h-.06V27.57h-3.82V5.52h5.79Z" fill="#007a33"/></g><g isolation="isolate"><path d="M659.62,16.98l7.33,19.6,7.28-19.6h5.72l7.38,19.6,7.44-19.6h6.55l-10.92,27.92h-6.19l-7.12-19.5-7.12,19.5h-6.08l-11.02-27.92h6.76Z" fill="#007a33"/><path d="M734.61,30.91c0,9.57-6.29,14.92-15.65,14.92s-15.65-5.36-15.65-14.92c0-8.68,5.72-14.87,15.65-14.87s15.65,6.03,15.65,14.87Zm-15.65,9.41c5.72,0,9.1-3.69,9.1-9.52s-3.69-9.26-9.15-9.26-9.05,3.17-9.05,9.26,3.38,9.52,9.1,9.52Z" fill="#007a33"/><path d="M758.42,16.14v6.97c-1.82-.47-2.34-.52-3.85-.52-5.51,0-8.37,2.44-8.37,7.33v14.98h-6.45V16.98h6.45v4.16h.16c2.13-3.38,5.46-5.1,9.93-5.1,1.51,0,1.77,0,2.13,.1Z" fill="#007a33"/><path d="M769.29,7.1V28.47l14.14-11.49h9.26l-11.91,9.46,12.64,18.46h-7.75l-9.78-14.51-6.6,5.3v9.2h-6.45V7.1h6.45Z" fill="#007a33"/><path d="M823.94,22.59l-5.36,2.96c-2.44-3.38-5.62-4.37-9.1-4.37-4.06,0-6.24,1.4-6.24,3.38,0,1.72,1.56,2.39,5.46,2.91,9.1,1.2,15.7,2.29,15.7,9.2,0,5.93-4.89,9.15-13.83,9.15-5.67,0-10.87-1.04-15.13-6.81l5.46-3.17c1.92,3.17,5.41,4.79,10.19,4.79,3.9,0,6.55-1.35,6.55-3.48,0-2.44-2.86-2.44-7.7-3.17-5.98-.88-13.47-1.92-13.47-9.05,0-4.11,3.59-8.94,13.1-8.94,5.98,0,11.18,2.24,14.35,6.6Z" fill="#007a33"/></g></g></svg>