<?xml version="1.0" encoding="utf-8"?>
<!-- Generator: Adobe Illustrator 26.3.1, SVG Export Plug-In . SVG Version: 6.00 Build 0)  -->
<svg version="1.1" id="Layer_1" xmlns="http://www.w3.org/2000/svg" xmlns:xlink="http://www.w3.org/1999/xlink" x="0px" y="0px"
	 viewBox="0 0 1867 1355" style="enable-background:new 0 0 1867 1355;" xml:space="preserve">
<style type="text/css">
	.st0{opacity:0.612;fill:#FFFFFF;enable-background:new    ;}
	.st1{fill:#4D4D4F;}
	.st2{font-family:'TradeGothicLTStd-Bd2';}
	.st3{font-size:32px;}
	.st4{font-size:18.666px;}
	.st5{fill:#6A6D71;}
	.st6{font-family:'TradeGothicLTStd-Bold';}
	.st7{font-size:12px;}
	.st8{font-size:20px;}
	.st9{fill:none;stroke:#545454;stroke-width:0.923;stroke-miterlimit:10;}
	.st10{fill:none;stroke:#626567;stroke-width:2;stroke-miterlimit:10;}
	.st11{fill:#626567;}
	.st12{fill:none;stroke:#007A33;stroke-width:2;stroke-miterlimit:10;}
	.st13{fill:#007A33;stroke:#007A33;}
	.st14{fill:#007A33;}
	.st15{font-size:23px;}
	.st16{letter-spacing:-2;}
	.st17{fill:none;stroke:#007A33;stroke-width:4;}
	.st18{fill:none;stroke:#4D4D4F;stroke-width:4;}
	.st19{fill:#006345;}
	.st20{font-size:24px;}
	.st21{fill:#E29A40;}
	.st22{font-family:'TradeGothicLTStd';}
	.st23{font-size:52px;}
	.st24{font-size:30.332px;}
	.st25{font-size:25px;}
</style>
<path class="st0" d="M192,273h1393c23.7,0,43,19.3,43,43v777c0,23.7-19.3,43-43,43H192c-23.7,0-43-19.3-43-43V316
	C149,292.3,168.3,273,192,273z"/>
<text transform="matrix(1 0 0 1 218 380)" class="st1 st2 st3">Mean (95% CI) levels of serum iron (full analysis set)</text>
<text transform="matrix(1 0 0 1 963.4946 369.3344)" class="st1 st2 st4">1</text>
<text transform="matrix(1 0 0 1 268.253 554.159)" class="st5 st6 st7">15</text>
<text transform="matrix(1 0 0 1 268.253 613.159)" class="st5 st6 st7">14</text>
<text transform="matrix(1 0 0 1 268.253 672.159)" class="st5 st6 st7">13</text>
<text transform="matrix(1 0 0 1 268.253 731.159)" class="st5 st6 st7">12</text>
<text transform="matrix(1 0 0 1 268.253 790.159)" class="st5 st6 st7">11</text>
<text transform="matrix(1 0 0 1 268.253 849.159)" class="st5 st6 st7">10</text>
<text transform="matrix(1 0 0 1 276.917 908.159)" class="st5 st6 st7">9</text>
<text transform="matrix(0 -1 1 0 235.256 853.9805)" class="st5 st6 st8">Iron (µmol/L)</text>
<text transform="matrix(1 0 0 1 709.939 1044.972)" class="st5 st6 st8">Visit (Weeks)</text>
<path class="st9" d="M305.1,996.5v-470"/>
<path class="st9" d="M1332.4,995.1h-1030"/>
<path class="st9" d="M358.6,994.7v-5.9"/>
<path class="st9" d="M380.2,994.7v-5.9"/>
<path class="st9" d="M416.4,994.7v-5.9"/>
<path class="st9" d="M490.4,994.7v-5.9"/>
<path class="st9" d="M566.1,994.7v-5.9"/>
<path class="st9" d="M640.1,994.7v-5.9"/>
<path class="st9" d="M717.5,994.7v-5.9"/>
<path class="st9" d="M789.8,994.7v-5.9"/>
<path class="st9" d="M863.8,994.7v-5.9"/>
<path class="st9" d="M937.8,994.7v-5.9"/>
<path class="st9" d="M1013.6,994.7v-5.9"/>
<path class="st9" d="M1089.3,994.7v-5.9"/>
<path class="st9" d="M1163.3,994.7v-5.9"/>
<path class="st9" d="M1313,994.7v-5.9"/>
<path class="st9" d="M1271.7,994.7v-5.9"/>
<path class="st9" d="M1230.4,994.7v-5.9"/>
<g>
	<path class="st5" d="M301.2,1002.9c2.6,0,3.9,0.9,3.9,2.6c0.1,0.9-0.4,1.7-1.2,2.1c1,0.5,1.6,1.4,1.6,2.5c0,1.9-1.6,3-3.9,3H295
		v-10.2L301.2,1002.9z M301.3,1007c1.2,0,1.8-0.3,1.8-1.2c0-0.9-0.6-1.2-1.8-1.2H297v2.4H301.3z M301.4,1011.5
		c1.5,0,2.1-0.4,2.1-1.5c0-1-0.7-1.4-2.1-1.4H297v2.9L301.4,1011.5z"/>
	<path class="st5" d="M309.5,1002.9v8.4h7.4v1.8h-9.4v-10.2L309.5,1002.9z"/>
	<path class="st5" d="M358.9,1002.9v6.5h1.3v1.5h-1.3v2.2h-1.8v-2.2h-6.4v-1.5l6.2-6.5H358.9z M352.7,1009.4h4.4v-4.6L352.7,1009.4z
		"/>
	<path class="st5" d="M384.5,1005.5c0,1-0.6,1.9-1.6,2.2v0c1.1,0.4,1.8,1.4,1.8,2.6c0,2-1.7,3.1-4.6,3.1c-2.9,0-4.6-1.1-4.6-3.1
		c0-1.2,0.7-2.2,1.8-2.6v0c-1-0.3-1.6-1.2-1.6-2.2c0-1.8,1.6-2.8,4.3-2.8C382.9,1002.7,384.5,1003.8,384.5,1005.5z M380.2,1011.8
		c1.9,0,2.7-0.6,2.7-1.6c0-1-0.8-1.6-2.7-1.6c-1.8,0-2.7,0.5-2.7,1.6S378.3,1011.8,380.2,1011.8L380.2,1011.8z M380.2,1007.1
		c1.7,0,2.5-0.5,2.5-1.4c0-0.9-0.8-1.4-2.6-1.4c-1.6,0-2.5,0.5-2.5,1.4C377.7,1006.6,378.5,1007.1,380.2,1007.1L380.2,1007.1z"/>
	<path class="st5" d="M409.6,1002.7v10.5h-1.8v-7.8h-2.1v-1.1c1.1-0.1,2.1-0.6,2.8-1.5H409.6z"/>
	<path class="st5" d="M422.9,1006.1c0,1.4-0.8,2.5-2.5,3.5l-3.2,1.8v0h5.6v1.7h-9.1v-1.4l5.2-3.1c0.9-0.6,2.1-1.3,2.1-2.5
		c0-1.2-0.8-1.8-2.6-1.8c-1.3-0.1-2.5,0.7-2.7,2h-1.9c0.1-1.9,1.7-3.6,4.6-3.6C421.3,1002.7,422.9,1003.9,422.9,1006.1L422.9,1006.1
		z"/>
	<path class="st5" d="M488.1,1006.1c0,1.4-0.8,2.5-2.5,3.5l-3.2,1.8v0h5.6v1.7h-9.1v-1.4l5.2-3.1c0.9-0.6,2.1-1.3,2.1-2.5
		c0-1.2-0.8-1.8-2.6-1.8c-1.3-0.1-2.4,0.7-2.7,2h-1.9c0.1-1.9,1.7-3.6,4.6-3.6C486.5,1002.7,488.1,1003.9,488.1,1006.1L488.1,1006.1
		z"/>
	<path class="st5" d="M498.4,1008c0,3.4-1.7,5.3-4.6,5.3c-2.9,0-4.6-1.9-4.6-5.3c0-3.4,1.6-5.4,4.6-5.4
		C496.8,1002.7,498.4,1004.7,498.4,1008z M493.8,1011.8c1.7,0,2.7-1.4,2.7-3.7c0-2.4-0.9-3.8-2.7-3.8c-1.8,0-2.7,1.3-2.7,3.8
		C491.1,1010.4,492.2,1011.8,493.8,1011.8L493.8,1011.8z"/>
	<path class="st5" d="M872.9,1008c0,3.4-1.7,5.3-4.6,5.3c-2.9,0-4.6-1.9-4.6-5.3c0-3.4,1.6-5.4,4.6-5.4
		C871.3,1002.7,872.9,1004.7,872.9,1008z M868.3,1011.8c1.7,0,2.7-1.4,2.7-3.7c0-2.4-0.9-3.8-2.7-3.8c-1.8,0-2.7,1.3-2.7,3.8
		C865.5,1010.4,866.6,1011.8,868.3,1011.8L868.3,1011.8z"/>
	<path class="st5" d="M563.7,1006.1c0,1.4-0.8,2.5-2.5,3.5l-3.2,1.8v0h5.6v1.7h-9.1v-1.4l5.2-3.1c0.9-0.6,2.1-1.3,2.1-2.5
		c0-1.2-0.8-1.8-2.6-1.8c-1.3-0.1-2.5,0.7-2.7,2h-1.9c0.1-1.9,1.7-3.6,4.6-3.6C562,1002.7,563.7,1003.9,563.7,1006.1L563.7,1006.1z"
		/>
	<path class="st5" d="M573.7,1005.5c0,1-0.6,1.9-1.6,2.2v0c1.1,0.4,1.8,1.4,1.8,2.6c0,2-1.7,3.1-4.6,3.1s-4.6-1.1-4.6-3.1
		c0-1.2,0.7-2.2,1.8-2.6v0c-1-0.3-1.6-1.2-1.6-2.2c0-1.8,1.6-2.8,4.3-2.8C572.1,1002.7,573.7,1003.8,573.7,1005.5z M569.4,1011.8
		c1.9,0,2.7-0.6,2.7-1.6c0-1-0.8-1.6-2.7-1.6c-1.8,0-2.7,0.5-2.7,1.6S567.5,1011.8,569.4,1011.8L569.4,1011.8z M569.4,1007.1
		c1.7,0,2.5-0.5,2.5-1.4c0-0.9-0.8-1.4-2.6-1.4c-1.6,0-2.5,0.5-2.5,1.4C566.8,1006.6,567.6,1007.1,569.4,1007.1L569.4,1007.1z"/>
	<path class="st5" d="M638.9,1005.6c0,0.9-0.6,1.8-1.4,2.1c1,0.4,1.7,1.4,1.7,2.5c0,1.9-1.7,3.2-4.5,3.2c-3,0-4.5-1.3-4.6-3.2h1.9
		c0.2,1,1.2,1.6,2.6,1.6c1.8,0,2.8-0.7,2.8-1.9c0-0.8-0.8-1.4-2.2-1.4h-2v-1.6h1.6c1.6,0,2.4-0.4,2.4-1.3c0-0.9-0.8-1.3-2.4-1.3
		s-2.6,0.6-2.6,1.3h-1.8c0.1-1.5,1.4-2.9,4.4-2.9C637.2,1002.7,638.9,1003.8,638.9,1005.6L638.9,1005.6z"/>
	<path class="st5" d="M649.2,1005.5h-1.9c-0.4-0.8-1.2-1.4-2.2-1.3c-1.6,0-3,1.2-3.1,2.9c0,0.1,0,0.3,0,0.4c0.9-0.7,2-1.1,3.1-1
		c2.6,0,4.2,1.4,4.2,3.3c0,2.1-1.7,3.5-4.3,3.5c-2.9,0-4.9-1.9-4.9-5.2c0-3,1.6-5.5,5-5.5C647.6,1002.7,649,1004,649.2,1005.5z
		 M645,1011.8c1.5,0,2.5-0.7,2.5-1.9c0-1.1-0.9-1.9-2.5-1.9c-1.1,0-2.1,0.5-2.9,1.3C642.3,1010.8,643.6,1011.8,645,1011.8
		L645,1011.8z"/>
	<path class="st5" d="M713.6,1002.9v6.5h1.3v1.5h-1.3v2.2h-1.8v-2.2h-6.4v-1.5l6.2-6.5H713.6z M707.4,1009.4h4.4v-4.6L707.4,1009.4z
		"/>
	<path class="st5" d="M723.7,1002.9v6.5h1.3v1.5h-1.3v2.2h-1.8v-2.2h-6.4v-1.5l6.2-6.5H723.7z M717.6,1009.4h4.4v-4.6L717.6,1009.4z
		"/>
	<path class="st5" d="M789.7,1002.9v1.6h-6.5l-0.1,2.2c0.9-0.5,1.8-0.8,2.8-0.7c2.6,0,4.3,1.3,4.3,3.6c0,2.3-1.6,3.8-4.6,3.8
		c-3,0-4.4-1.4-4.5-3.1h1.9c0.1,0.8,1.1,1.5,2.7,1.5c1.7,0,2.7-0.9,2.7-2.2c0-1.2-1.1-2.1-2.7-2.1c-0.9-0.1-1.9,0.3-2.5,1h-1.7
		l0.2-5.6L789.7,1002.9z"/>
	<path class="st5" d="M800.2,1006.1c0,1.4-0.8,2.5-2.5,3.5l-3.2,1.8v0h5.6v1.7H791v-1.4l5.2-3.1c0.9-0.6,2.1-1.3,2.1-2.5
		c0-1.2-0.8-1.8-2.6-1.8c-1.3-0.1-2.4,0.7-2.7,2h-1.9c0.1-1.9,1.7-3.6,4.6-3.6C798.6,1002.7,800.2,1003.9,800.2,1006.1L800.2,1006.1
		z"/>
	<path class="st5" d="M862.1,1005.5h-1.9c-0.4-0.8-1.2-1.4-2.2-1.3c-1.6,0-3,1.2-3.1,2.9c0,0.1,0,0.3,0,0.4c0.9-0.7,2-1.1,3.1-1
		c2.6,0,4.2,1.4,4.2,3.3c0,2.1-1.7,3.5-4.3,3.5c-2.9,0-4.9-1.9-4.9-5.2c0-3,1.6-5.5,5-5.5C860.4,1002.7,861.9,1004,862.1,1005.5
		L862.1,1005.5z M857.9,1011.8c1.5,0,2.5-0.7,2.5-1.9c0-1.1-0.9-1.9-2.5-1.9c-1.1,0-2.1,0.5-2.9,1.3
		C855.2,1010.8,856.4,1011.8,857.9,1011.8L857.9,1011.8z"/>
	<path class="st5" d="M937.3,1005.5h-1.9c-0.4-0.8-1.2-1.4-2.2-1.3c-1.6,0-3,1.2-3.1,2.9c0,0.1,0,0.3,0,0.4c0.9-0.7,2-1.1,3.1-1
		c2.6,0,4.2,1.4,4.2,3.3c0,2.1-1.7,3.5-4.3,3.5c-2.9,0-4.9-1.9-4.9-5.2c0-3,1.6-5.5,5-5.5C935.6,1002.7,937.1,1004,937.3,1005.5z
		 M933.1,1011.8c1.5,0,2.5-0.7,2.5-1.9c0-1.1-0.9-1.9-2.5-1.9c-1.1,0-2.1,0.5-2.9,1.3C930.4,1010.8,931.7,1011.8,933.1,1011.8
		L933.1,1011.8z"/>
	<path class="st5" d="M1012.8,1002.9v0.9l-5.1,9.3h-2.2l5-8.6h-6.5v-1.6L1012.8,1002.9z"/>
	<path class="st5" d="M1023,1005.5h-1.9c-0.4-0.8-1.2-1.4-2.2-1.3c-1.6,0-3,1.2-3.1,2.9c0,0.1,0,0.2,0,0.4c0.9-0.7,2-1.1,3.1-1
		c2.6,0,4.2,1.4,4.2,3.3c0,2.1-1.7,3.5-4.3,3.5c-2.9,0-4.9-1.9-4.9-5.2c0-3,1.6-5.5,5-5.5C1021.3,1002.7,1022.8,1004,1023,1005.5z
		 M1018.8,1011.8c1.5,0,2.5-0.7,2.5-1.9c0-1.1-0.9-1.9-2.5-1.9c-1.1,0-2.1,0.5-2.9,1.3C1016.1,1010.8,1017.3,1011.8,1018.8,1011.8
		L1018.8,1011.8z"/>
	<path class="st5" d="M947.2,1005.5c0,1-0.6,1.9-1.6,2.2v0c1.1,0.4,1.8,1.4,1.8,2.6c0,2-1.7,3.1-4.6,3.1c-2.9,0-4.6-1.1-4.6-3.1
		c0-1.2,0.7-2.2,1.8-2.6v0c-1-0.3-1.6-1.2-1.6-2.2c0-1.8,1.6-2.8,4.3-2.8C945.5,1002.7,947.2,1003.8,947.2,1005.5L947.2,1005.5z
		 M942.8,1011.8c1.9,0,2.7-0.6,2.7-1.6c0-1-0.8-1.6-2.7-1.6c-1.8,0-2.7,0.5-2.7,1.6S941,1011.8,942.8,1011.8L942.8,1011.8z
		 M942.8,1007.1c1.7,0,2.5-0.5,2.5-1.4c0-0.9-0.8-1.4-2.6-1.4c-1.6,0-2.5,0.5-2.5,1.4C940.3,1006.6,941.1,1007.1,942.8,1007.1
		L942.8,1007.1z"/>
	<path class="st5" d="M1086,1005.5c0,1-0.6,1.9-1.6,2.2v0c1.1,0.4,1.8,1.4,1.8,2.6c0,2-1.7,3.1-4.6,3.1c-2.9,0-4.6-1.1-4.6-3.1
		c0-1.2,0.7-2.2,1.8-2.6v0c-1-0.3-1.6-1.2-1.6-2.2c0-1.8,1.6-2.8,4.3-2.8C1084.3,1002.7,1086,1003.8,1086,1005.5z M1081.6,1011.8
		c1.9,0,2.7-0.6,2.7-1.6c0-1-0.8-1.6-2.7-1.6c-1.8,0-2.7,0.5-2.7,1.6S1079.8,1011.8,1081.6,1011.8L1081.6,1011.8z M1081.6,1007.1
		c1.7,0,2.5-0.5,2.5-1.4c0-0.9-0.8-1.4-2.6-1.4c-1.6,0-2.5,0.5-2.5,1.4C1079.1,1006.6,1079.9,1007.1,1081.6,1007.1L1081.6,1007.1z"
		/>
	<path class="st5" d="M1095.1,1002.9v6.5h1.3v1.5h-1.3v2.2h-1.8v-2.2h-6.4v-1.5l6.2-6.5H1095.1z M1088.9,1009.4h4.4v-4.6
		L1088.9,1009.4z"/>
	<path class="st5" d="M1172.6,1006.1c0,1.4-0.8,2.5-2.5,3.5l-3.2,1.8v0h5.6v1.7h-9.1v-1.4l5.2-3.1c0.9-0.6,2.1-1.3,2.1-2.5
		c0-1.2-0.8-1.8-2.6-1.8c-1.3-0.1-2.5,0.7-2.7,2h-1.9c0.1-1.9,1.7-3.6,4.6-3.6C1170.9,1002.7,1172.6,1003.9,1172.6,1006.1
		L1172.6,1006.1z"/>
	<path class="st5" d="M1162.2,1007.9c0,3.1-1.7,5.5-5,5.5c-2.4,0-3.9-1.3-4-2.8h1.9c0.1,0.6,1,1.2,2.2,1.2c1.8,0,3-1.2,3.1-3.3
		c-0.9,0.7-2,1.1-3.1,1c-3.1,0-4.2-1.9-4.2-3.3c0-2.2,1.7-3.5,4.3-3.5C1160.3,1002.7,1162.2,1004.6,1162.2,1007.9L1162.2,1007.9z
		 M1157.3,1008c1.1,0,2.2-0.5,2.9-1.3c-0.2-1.5-1.4-2.5-2.9-2.5c-1.4,0-2.5,0.7-2.5,1.9C1154.9,1007.3,1155.9,1008,1157.3,1008z"/>
	<path class="st5" d="M1300.6,1002.9v1.7h-7.2v2.4h6.2v1.7h-6.2v2.7h7.3v1.7h-9.3v-10.2L1300.6,1002.9z"/>
	<path class="st5" d="M1313.8,1008.1c0,3-2.1,5.3-6.1,5.3c-4,0-6.1-2.3-6.1-5.3c0-3.3,2.1-5.4,6.1-5.4
		C1311.7,1002.7,1313.8,1004.8,1313.8,1008.1z M1307.8,1004.4c-2.5,0-4.1,1.3-4.1,3.6c0,2.4,1.5,3.7,4.1,3.7c2.5,0,4.1-1.3,4.1-3.7
		C1311.9,1005.7,1310.3,1004.4,1307.8,1004.4L1307.8,1004.4z"/>
	<path class="st5" d="M1325.4,1005.4l-1.9,0.6c-0.4-1.2-1.6-1.7-3.6-1.7c-1.6,0-2.7,0.4-2.7,1.3c0,0.7,0.9,1,1.8,1.1l2.9,0.4
		c2.4,0.4,3.6,1.3,3.6,2.9c0,2.1-1.9,3.3-5,3.3c-3.1,0-5.1-1.2-5.7-2.9l1.9-0.6c0.6,1.2,1.8,1.8,3.8,1.8c1.8,0,3-0.6,3-1.4
		c0-0.7-0.9-1.1-2-1.2l-2.5-0.4c-2.6-0.4-3.8-1.4-3.8-2.9c0-2,1.7-3.1,4.8-3.1C1323,1002.7,1324.8,1003.6,1325.4,1005.4
		L1325.4,1005.4z"/>
	<path class="st5" d="M1219.3,1002.6v10.5h-1.8v-7.8h-2.1v-1.2c1.1-0.1,2.1-0.6,2.8-1.5L1219.3,1002.6z"/>
	<path class="st5" d="M1232.8,1008c0,3.4-1.7,5.3-4.6,5.3c-2.9,0-4.6-2-4.6-5.3c0-3.4,1.6-5.4,4.6-5.4S1232.8,1004.6,1232.8,1008z
		 M1228.2,1011.7c1.7,0,2.7-1.4,2.7-3.7c0-2.4-0.9-3.8-2.7-3.8c-1.8,0-2.7,1.3-2.7,3.8C1225.5,1010.4,1226.5,1011.7,1228.2,1011.7
		L1228.2,1011.7z"/>
	<path class="st5" d="M1242.9,1008c0,3.4-1.7,5.3-4.6,5.3c-2.9,0-4.6-2-4.6-5.3c0-3.4,1.6-5.4,4.6-5.4
		C1241.3,1002.6,1242.9,1004.6,1242.9,1008z M1238.3,1011.7c1.7,0,2.7-1.4,2.7-3.7c0-2.4-0.9-3.8-2.7-3.8c-1.8,0-2.7,1.3-2.7,3.8
		C1235.6,1010.4,1236.7,1011.7,1238.3,1011.7z"/>
	<path class="st5" d="M1256.5,1002.6v10.5h-1.8v-7.8h-2.1v-1.2c1.1-0.1,2.1-0.6,2.8-1.5L1256.5,1002.6z"/>
	<path class="st5" d="M1270,1008c0,3.4-1.7,5.3-4.6,5.3c-2.9,0-4.6-2-4.6-5.3c0-3.4,1.6-5.4,4.6-5.4
		C1268.4,1002.6,1270,1004.6,1270,1008z M1265.4,1011.7c1.7,0,2.7-1.4,2.7-3.7c0-2.4-0.9-3.8-2.7-3.8c-1.8,0-2.7,1.3-2.7,3.8
		C1262.7,1010.4,1263.7,1011.7,1265.4,1011.7L1265.4,1011.7z"/>
	<path class="st5" d="M1278.8,1002.9v6.5h1.3v1.5h-1.3v2.2h-1.8v-2.2h-6.4v-1.5l6.2-6.5L1278.8,1002.9z M1272.7,1009.4h4.4v-4.6
		L1272.7,1009.4z"/>
</g>
<path class="st10" d="M1319.6,700.6v104.8"/>
<ellipse class="st11" cx="1319.6" cy="753.9" rx="8.6" ry="6.3"/>
<path class="st10" d="M1161.6,677.5v104.8"/>
<ellipse class="st11" cx="1161.6" cy="730.8" rx="8.6" ry="6.3"/>
<path class="st10" d="M1087.8,616.7v117.4"/>
<ellipse class="st11" cx="1087.8" cy="674.2" rx="8.6" ry="6.3"/>
<path class="st10" d="M1012.2,650.3v94.3"/>
<ellipse class="st11" cx="1012.2" cy="697.3" rx="8.6" ry="6.3"/>
<path class="st10" d="M940.1,639.8v106.9"/>
<ellipse class="st11" cx="940.1" cy="693.1" rx="8.6" ry="6.3"/>
<path class="st10" d="M866.2,685.9v102.7"/>
<ellipse class="st11" cx="866.2" cy="737.1" rx="8.6" ry="6.3"/>
<path class="st10" d="M792.4,646.1v113.2"/>
<ellipse class="st11" cx="792.4" cy="701.5" rx="8.6" ry="6.3"/>
<path class="st10" d="M646.4,696.4v92.2"/>
<ellipse class="st11" cx="646.4" cy="743.4" rx="8.6" ry="6.3"/>
<path class="st10" d="M572.5,677.5V776"/>
<ellipse class="st11" cx="572.5" cy="724.5" rx="8.6" ry="6.3"/>
<path class="st10" d="M426.5,784.4v102.7"/>
<ellipse class="st11" cx="426.5" cy="831.5" rx="8.6" ry="6.3"/>
<path class="st10" d="M385.3,862v102.7"/>
<ellipse class="st11" cx="385.3" cy="909" rx="8.6" ry="6.3"/>
<path class="st10" d="M352.7,859.9v102.7"/>
<ellipse class="st11" cx="352.7" cy="906.9" rx="8.6" ry="6.3"/>
<path class="st10" d="M316.6,828.5V906"/>
<ellipse class="st11" cx="316.6" cy="869.2" rx="8.6" ry="6.3"/>
<path class="st10" d="M498.7,662.8v130"/>
<ellipse class="st11" cx="498.7" cy="728.7" rx="8.6" ry="6.3"/>
<path class="st10" d="M720.2,604.1v163.5"/>
<ellipse class="st11" cx="720.2" cy="691" rx="8.6" ry="6.3"/>
<path class="st10" d="M1271.6,704.8v104.8"/>
<ellipse class="st11" cx="1271.6" cy="758.1" rx="8.6" ry="6.3"/>
<path class="st10" d="M1235.5,662.8v115.3"/>
<ellipse class="st11" cx="1235.5" cy="720.4" rx="8.6" ry="6.3"/>
<path class="st10" d="M303.4,821.9l11.2,50.3l38.6,38.8h36.6l33.9-80.5l75.6-100.6l74.5-6.3l71.5,18.9l71.7-51.6l72.7,7.8l76.1,38.6
	l74.8-46.3l71.7,7.8l75.6-23.5l73.9,53.3l74.3-9.2l33.9,38.9"/>
<path class="st12" d="M1258.5,740.4l-34.2,1.8l-74,0.3l-72.1-58.7l-77.4,70.8l-72-31l-72.1,4.2l-74.8-10.4l-71.2,25.1l-78.9-58.6
	l-70.6,25l-70.9-25l-73.9,112.9l-36.1,114.2l-38.3,11.4l-38.6-100.6"/>
<path class="st13" d="M296.7,815.9H313v12.6h-16.3V815.9z"/>
<path class="st12" d="M304.8,784.4V862"/>
<path class="st13" d="M334.4,910.2h16.3v12.6h-16.3V910.2z"/>
<path class="st12" d="M342.6,872.5v92.2"/>
<path class="st13" d="M372.2,903.9h16.3v12.6h-16.3V903.9z"/>
<path class="st12" d="M380.4,866.2v92.2"/>
<path class="st13" d="M408.3,790.7h16.3v12.6h-16.3V790.7z"/>
<path class="st12" d="M416.5,742.5v111.1"/>
<path class="st13" d="M480.4,679.6h16.3v12.6h-16.3V679.6z"/>
<path class="st12" d="M488.6,631.4v111.1"/>
<path class="st13" d="M556,700.6h16.3v12.6H556V700.6z"/>
<path class="st12" d="M564.2,658.6V753"/>
<path class="st13" d="M702,738.3h16.3v12.6H702V738.3z"/>
<path class="st12" d="M710.2,696.4v94.3"/>
<path class="st13" d="M774.1,711.1h16.3v12.6h-16.3V711.1z"/>
<path class="st12" d="M782.3,662.8v104.8"/>
<path class="st13" d="M921.8,717.3h16.3v12.6h-16.3V717.3z"/>
<path class="st12" d="M930,669.1v104.8"/>
<path class="st13" d="M995.7,750.9h16.3v12.6h-16.3V750.9z"/>
<path class="st12" d="M1003.8,702.7v104.8"/>
<path class="st13" d="M1069.5,679.6h16.3v12.6h-16.3V679.6z"/>
<path class="st12" d="M1077.7,616.7v138.4"/>
<path class="st13" d="M848,721.5h16.3v12.6H848V721.5z"/>
<path class="st12" d="M856.1,667v121.6"/>
<path class="st13" d="M626.4,677.5h16.3v12.6h-16.3V677.5z"/>
<path class="st12" d="M634.6,620.9v125.8"/>
<path class="st13" d="M1141.7,736.2h16.3v12.6h-16.3V736.2z"/>
<path class="st12" d="M1149.8,681.7v121.6"/>
<path class="st13" d="M1217.2,734.1h16.3v12.6h-16.3V734.1z"/>
<path class="st12" d="M1225.4,679.6v121.6"/>
<path class="st13" d="M1251.6,734.1h16.3v12.6h-16.3V734.1z"/>
<path class="st12" d="M1259.8,685.9V797"/>
<path class="st13" d="M1299.7,646.1h16.3v12.6h-16.3V646.1z"/>
<path class="st12" d="M1307.8,597.9V709"/>
<text transform="matrix(1 0 0 1 969.242 474.086)" class="st14 st6 st8">EVRENZO (n=286)</text>
<text transform="matrix(1 0 0 1 969.242 510.407)" class="st1 st6 st8">ESA (n=273)</text>
<text transform="matrix(1 0 0 1 920.953 443)" class="st1 st6 st15 st16">T</text>
<text transform="matrix(1 0 0 1 930.337 443)" class="st1 st6 st15">reatment</text>
<path class="st17" d="M920.9,469.9h36"/>
<path class="st18" d="M920.9,503.6h36"/>
<text transform="matrix(1 0 0 1 1383 712.842)" class="st19 st2 st20">NDD vs. active</text>
<text transform="matrix(1 0 0 1 1383 738.852)" class="st19 st2 st20">comparator:</text>
<text transform="matrix(1 0 0 1 1383 764.862)" class="st21 st2 st20">DOLOMITES</text>
<path class="st21" d="M1501.6,613l41.6,72.1H1460L1501.6,613z M1530,677.4l-28.4-49.1l-28.4,49.2L1530,677.4z"/>
<path class="st19" d="M1447.3,575.9l63,109.2h-126.1L1447.3,575.9z M1497,677.4l-49.8-86.2l-49.8,86.2H1497z"/>
<text transform="matrix(1 0 0 1 0 1349)" class="st1 st22 st15">1. Barratt J et al. Nephrol Dial Transplant. 2021;36(9):1616–1628 (Supplement).</text>
<text transform="matrix(1 0 0 1 0 117)" class="st14 st6 st23">EVRENZO achieved serum iron levels</text>
<text transform="matrix(1 0 0 1 0 171)" class="st14 st6 st23">comparable to ESA in NDD patients…</text>
<text transform="matrix(1 0 0 1 800.3815 153.6684)" class="st14 st6 st24">1</text>
<text transform="matrix(1 0 0 1 0 1250)" class="st1 st22 st15">BL, baseline; CI, confidence interval; ESA, erythropoiesis-stimulating agent; NDD, non-dialysis-dependent</text>
<text transform="matrix(1 0 0 1 1578.75 95)" class="st1 st2 st25">EVRENZO (roxadustat)</text>
<text transform="matrix(1 0 0 1 1540.2 125)" class="st1 st2 st25">IS NOT APPROVED FOR USE</text>
<text transform="matrix(1 0 0 1 1565.55 155)" class="st1 st2 st25">IN THE UNITED STATES</text>
<text transform="matrix(1 0 0 1 1548.175 19)" class="st1 st2 st25">This information is intended</text>
<text transform="matrix(1 0 0 1 1552.35 49)" class="st1 st2 st25">for international audiences.</text>
</svg>
