<svg id="Layer_1" data-name="Layer 1" xmlns="http://www.w3.org/2000/svg" viewBox="0 0 810.81 57.9"><g style="isolation:isolate"><g style="isolation:isolate"><path d="M40.87,16.3l-7,2.29C32.29,14.12,28,12.3,20.64,12.3c-5.82,0-10,1.61-10,4.73,0,2.55,3.38,3.53,6.5,4L28,22.64c8.74,1.3,13.47,4.84,13.47,10.93,0,8-6.92,12.27-18.67,12.27-11.6,0-19-4.37-21-10.87l7.12-2.24c2.14,4.58,6.82,6.76,14.1,6.76,6.55,0,11.07-2.23,11.07-5.25,0-2.49-3.17-4.06-7.43-4.63l-9.42-1.3c-9.56-1.3-14-5.2-14-10.81,0-7.39,6.4-11.34,17.68-11.34C31.72,6.16,38.64,9.54,40.87,16.3Z" fill="#007a33"/><path d="M76.18,32.73H51.69c.62,5.2,4.47,7.91,9.31,7.91,3.32,0,6.44-1.51,7.59-4.11h7.07c-1.51,5.25-7,9.31-14.56,9.31-9.78,0-16-6-16-15,0-8.68,6-14.82,15.39-14.82C70.15,16,76.13,21.6,76.18,32.73Zm-6.86-5c-.94-4.32-3.75-6.5-8.84-6.5-4.74,0-7.6,2.34-8.58,6.5Z" fill="#007a33"/><path d="M110.86,32.73H86.37c.63,5.2,4.47,7.91,9.31,7.91,3.33,0,6.45-1.51,7.59-4.11h7.07c-1.5,5.25-7,9.31-14.56,9.31-9.77,0-16-6-16-15,0-8.68,6-14.82,15.39-14.82C104.83,16,110.81,21.6,110.86,32.73Zm-6.86-5c-.94-4.32-3.74-6.5-8.84-6.5-4.73,0-7.59,2.34-8.58,6.5Z" fill="#007a33"/><path d="M141.39,7.1V20.46A13.13,13.13,0,0,1,151.74,16c7.33,0,10.92,3.95,10.92,10.71V44.9h-6.45V29.14c0-5.2-1.72-7.59-6-7.59-3.75,0-6.4,1-8.79,4.11V44.9h-6.45V7.1Z" fill="#007a33"/><path d="M199.11,30.91c0,9.57-6.29,14.93-15.65,14.93S167.8,40.48,167.8,30.91c0-8.68,5.72-14.87,15.66-14.87S199.11,22.07,199.11,30.91Zm-15.65,9.42c5.71,0,9.1-3.7,9.1-9.52,0-6-3.7-9.26-9.16-9.26-5.3,0-9.05,3.17-9.05,9.26C174.35,36.63,177.73,40.33,183.46,40.33Z" fill="#007a33"/><path d="M207.84,17l7.33,19.6L222.45,17h5.72l7.39,19.6L243,17h6.56L238.63,44.9h-6.19l-7.13-19.5-7.12,19.5h-6.08L201.08,17Z" fill="#007a33"/><path d="M307,7.1v6.34H280.48v8.79h22.83v6.34H280.48v10h27.15V44.9H273.1V7.1Z" fill="#007a33"/><path d="M317.87,7.1l14.2,30.16L346.53,7.1h7.9L335.92,44.9h-7.7L310,7.1Z" fill="#007a33"/><path d="M382.87,7.1c10.71,0,15,3.53,15,11.28,0,6.34-4.26,10.71-10.56,11.13l11.6,15.39h-9.1L378.87,30h-11.7V44.9h-7.39V7.1Zm-1.09,16.79c6.76,0,8.74-1.51,8.74-5.35s-2.14-5.31-8.74-5.31H367.17V23.89Z" fill="#007a33"/><path d="M439.92,7.1v6.34H413.4v8.79h22.82v6.34H413.4v10h27.14V44.9H406V7.1Z" fill="#007a33"/><path d="M454.27,7.1l25.27,27.3V7.1h7.07V44.9h-6.76L453.54,16.61V44.9h-7.07V7.1Z" fill="#007a33"/><path d="M529.67,7.1v4.16L504,38.56h26.31V44.9h-38V41.26l26.42-27.82H493.68V7.1Z" fill="#007a33"/><path d="M578.6,26.28c0,11-7.64,19.56-22.52,19.56s-22.51-8.53-22.51-19.56c0-12.37,7.95-20.12,22.51-20.12S578.6,14,578.6,26.28ZM556,12.5c-9.2,0-15.08,4.89-15.08,13.37,0,8.73,5.72,13.62,15.13,13.62s15.14-4.68,15.14-13.62C571.22,17.44,565.44,12.5,556,12.5Z" fill="#007a33"/></g><g style="isolation:isolate"><path d="M604.65,5.52v3.7h-9.86V27.57h-4.31V9.22h-9.86V5.52Z" fill="#007a33"/><path d="M613.53,5.52l6.89,16.35,7-16.35h5.67V27.57h-3.82V10.86h-.06l-7.07,16.71h-3.43l-7.1-16.71h-.06V27.57h-3.82v-22Z" fill="#007a33"/></g><g style="isolation:isolate"><path d="M644.62,17,652,36.58,659.24,17H665l7.38,19.6L679.78,17h6.55L675.41,44.9h-6.19L662.1,25.4,655,44.9h-6.08L637.86,17Z" fill="#007a33"/><path d="M719.61,30.91c0,9.57-6.29,14.93-15.66,14.93S688.3,40.48,688.3,30.91C688.3,22.23,694,16,704,16S719.61,22.07,719.61,30.91ZM704,40.33c5.73,0,9.11-3.7,9.11-9.52,0-6-3.7-9.26-9.16-9.26-5.3,0-9,3.17-9,9.26C694.85,36.63,698.23,40.33,704,40.33Z" fill="#007a33"/><path d="M743.42,16.14v7a11.88,11.88,0,0,0-3.85-.52c-5.51,0-8.37,2.45-8.37,7.33v15h-6.45V17h6.45v4.16h.16c2.13-3.38,5.46-5.1,9.93-5.1A8.3,8.3,0,0,1,743.42,16.14Z" fill="#007a33"/><path d="M754.29,7.1V28.47L768.43,17h9.26l-11.91,9.46L778.42,44.9h-7.75l-9.78-14.51-6.6,5.31v9.2h-6.45V7.1Z" fill="#007a33"/><path d="M808.94,22.59l-5.35,3c-2.45-3.38-5.62-4.37-9.11-4.37-4.05,0-6.24,1.4-6.24,3.38,0,1.71,1.56,2.39,5.46,2.91,9.1,1.2,15.71,2.29,15.71,9.2,0,5.93-4.89,9.16-13.83,9.16-5.67,0-10.87-1-15.14-6.81l5.46-3.18c1.93,3.18,5.41,4.79,10.2,4.79,3.9,0,6.55-1.35,6.55-3.49,0-2.44-2.86-2.44-7.7-3.17-6-.88-13.47-1.92-13.47-9,0-4.11,3.59-8.94,13.11-8.94C800.57,16,805.77,18.22,808.94,22.59Z" fill="#007a33"/></g></g></svg>