<?xml version="1.0" encoding="utf-8"?>
<!-- Generator: Adobe Illustrator 26.3.1, SVG Export Plug-In . SVG Version: 6.00 Build 0)  -->
<svg version="1.1" id="Layer_1" xmlns="http://www.w3.org/2000/svg" xmlns:xlink="http://www.w3.org/1999/xlink" x="0px" y="0px"
	 viewBox="0 0 1867 1352" style="enable-background:new 0 0 1867 1352;" xml:space="preserve">
<style type="text/css">
	.st0{fill:#007A33;}
	.st1{font-family:'TradeGothicLTStd-Bold';}
	.st2{font-size:52px;}
	.st3{font-size:30.332px;}
	.st4{opacity:0.612;fill:#FFFFFF;enable-background:new    ;}
	.st5{fill:#4D4D4F;}
	.st6{font-family:'TradeGothicLTStd-Bd2';}
	.st7{font-size:32px;}
	.st8{font-size:18.666px;}
	.st9{fill:#006345;}
	.st10{font-size:24px;}
	.st11{fill:#E29A40;}
	.st12{font-family:'TradeGothicLTStd';}
	.st13{font-size:23px;}
	.st14{fill:#666666;}
	.st15{font-size:16px;}
	.st16{font-size:15px;}
	.st17{font-size:20px;}
	.st18{fill:none;stroke:#666666;stroke-width:2;stroke-miterlimit:10;}
	.st19{font-size:17px;}
	.st20{fill:#2A4934;}
	.st21{fill:none;stroke:#707070;}
	.st22{fill:#75777A;}
	.st23{font-size:25px;}
</style>
<g id="Group_16559" transform="translate(-136 -55)">
	<text transform="matrix(1 0 0 1 136 172)" class="st0 st1 st2">…but with less use of IV iron compared with ESA</text>
	<text transform="matrix(1 0 0 1 1187.7471 154.6684)" class="st0 st1 st3">1,2</text>
	<path id="Rectangle_17570" class="st4" d="M230,346h1589c23.7,0,43,19.3,43,43v717c0,23.7-19.3,43-43,43H230c-23.7,0-43-19.3-43-43
		V389C187,365.3,206.3,346,230,346z"/>
	<text transform="matrix(1 0 0 1 479 446)" class="st5 st6 st7">Number of patients treated with IV iron (%)*</text>
	<text transform="matrix(1 0 0 1 1101.9697 435.3344)" class="st5 st6 st8">1,2</text>
	<g id="Group_13741" transform="translate(268.414)">
		<g id="Group_13581" transform="translate(392.801 509.657)">
			<text transform="matrix(1 0 0 1 647.785 175.089)" class="st9 st6 st10">NDD vs. active </text>
			<text transform="matrix(1 0 0 1 647.785 201.099)" class="st9 st6 st10">comparator:</text>
			<text transform="matrix(1 0 0 1 647.785 227.109)" class="st11 st6 st10">DOLOMITES</text>
			<g id="Group_13331" transform="translate(648.925 47.843)">
				<path id="Path_74539" class="st11" d="M107.9,34.1l38.3,66.3H69.6L107.9,34.1z M134,93.3l-26.1-45.2L81.8,93.3L134,93.3z"/>
				<path id="Path_74540" class="st9" d="M57.9,0l57.9,100.4H0L57.9,0z M103.7,93.3L57.9,14.1L12.2,93.3H103.7z"/>
			</g>
		</g>
	</g>
	<text transform="matrix(1 0 0 1 136 1279)" class="st5 st12 st13">ESA, erythropiesis-stimulating agent; IV, intravenous</text>
	<text transform="matrix(1 0 0 1 136 1226)" class="st5 st12 st13">*Secondary endpoint.</text>
	<text transform="matrix(1 0 0 1 136 1367)" class="st5 st12 st13">1. EVRENZO EU SmPC, September 2022.</text>
	<text transform="matrix(1 0 0 1 136 1401)" class="st5 st12 st13">2. Barratt J et al. Nephrol Dial Transplant. 2021;36(9):1616–1628.</text>
	<g id="Group_14549" transform="translate(-105.244 -41)">
		<g id="Group_13591" transform="translate(584.244 541.965)">
			<text transform="matrix(1 0 0 1 65.611 318.38)" class="st14 st1 st15">20</text>
			<text transform="matrix(1 0 0 1 65.611 418.866)" class="st14 st1 st15">10</text>
			<text transform="matrix(1 0 0 1 65.611 117.71)" class="st14 st1 st15">40</text>
			<text transform="matrix(1 0 0 1 65.611 217.897)" class="st14 st1 st15">30</text>
			<text transform="matrix(1 0 0 1 65.182 14.351)" class="st14 st1 st15">50</text>
			<text transform="matrix(1 0 0 1 78.069 518.954)" class="st14 st1 st16">0</text>
			<text transform="matrix(6.123234e-17 -1 1 6.123234e-17 15 380.7889)" class="st14 st1 st17">Number of patients (%)</text>
			<text transform="matrix(1 0 0 1 270.06 557.905)" class="st14 st1 st17">EVRENZO</text>
			<text transform="matrix(1 0 0 1 289.07 581.905)" class="st14 st1 st17">(n=322)</text>
			<text transform="matrix(1 0 0 1 573.114 557.905)" class="st14 st1 st17">ESA</text>
			<text transform="matrix(1 0 0 1 557.124 581.905)" class="st14 st1 st17">(n=292)</text>
			<line id="Line_92" class="st18" x1="103.2" y1="515" x2="103.2" y2="8.9"/>
			<line id="Line_93" class="st18" x1="853.9" y1="515" x2="102.2" y2="515"/>
			<text transform="matrix(1 0 0 1 344.992 12)" class="st12 st19">p=0.004</text>
		</g>
		<g id="Group_13622" transform="translate(847.43 572.337)">
			<text transform="matrix(1 0 0 1 26.796 273.797)" class="st20 st1 st17">20 (6.2)</text>
			<rect id="Rectangle_17585" x="0" y="285.2" class="st20" width="149.4" height="199.5"/>
			<path id="Path_75383" class="st21" d="M74.7,235.5V0h261.9v59.9"/>
		</g>
		<g id="Group_13623" transform="translate(1110.057 646.764)">
			<text transform="matrix(1 0 0 1 18.486 15)" class="st22 st1 st17">37 (12.7)</text>
			<rect id="Rectangle_17586" x="0" y="29" class="st22" width="149.4" height="381.2"/>
		</g>
	</g>
	<g id="Group_16551">
		<text transform="matrix(1 0 0 1 1713.75 150)" class="st5 st6 st23">EVRENZO (roxadustat)</text>
		<text transform="matrix(1 0 0 1 1675.2 180)" class="st5 st6 st23">IS NOT APPROVED FOR USE </text>
		<text transform="matrix(1 0 0 1 1700.55 210)" class="st5 st6 st23">IN THE UNITED STATES</text>
		<text transform="matrix(1 0 0 1 1683.175 74)" class="st5 st6 st23">This information is intended </text>
		<text transform="matrix(1 0 0 1 1687.35 104)" class="st5 st6 st23">for international audiences.</text>
	</g>
</g>
</svg>
