<svg id="Layer_1" data-name="Layer 1" xmlns="http://www.w3.org/2000/svg" viewBox="0 0 1272.84 57.9"><g style="isolation:isolate"><g style="isolation:isolate"><path d="M43.63,19.16H36.25c-1.62-4.11-6.45-6.66-12.17-6.66-9.47,0-14.82,5-14.82,13.73,0,8.22,5.82,13.26,14.4,13.26,6.71,0,11.91-3.53,13.16-8.06H44.2c-1.66,9.31-9,14.41-21.11,14.41-12.9,0-21.37-7.59-21.37-20.44,0-12,8.11-19.24,21.94-19.24C34.32,6.16,41.29,10.37,43.63,19.16Z" fill="#007a33"/><path d="M77.38,25.76V40.69a12,12,0,0,0,.52,4.21H71.29a12.07,12.07,0,0,1-.36-2.81c-4.58,2.71-8.32,3.75-12.17,3.75-5.25,0-10.87-2.45-10.87-8.43,0-3.84,2.24-6.55,6.81-8.47,3.75-1.56,9-2.45,16.23-2.81v-1.2c0-2.44-2.39-3.69-7.23-3.69-4.21,0-6.86,1-7.54,3.69H49.45C50.6,19.11,55.59,16,63.7,16,72.28,16,77.38,18.59,77.38,25.76ZM59.64,40.84c3.7,0,7.08-1.09,11.29-3.63v-6.4a51.56,51.56,0,0,0-11.81,1.87c-2.39.78-4.16,2-4.16,4.42C55,39.34,56.47,40.84,59.64,40.84Z" fill="#007a33"/><path d="M103.06,16.14v7a11.85,11.85,0,0,0-3.84-.52c-5.52,0-8.38,2.45-8.38,7.33v15H84.4V17h6.44v4.16H91c2.13-3.38,5.46-5.1,9.93-5.1A8.3,8.3,0,0,1,103.06,16.14Z" fill="#007a33"/><path d="M137.8,7.1V44.9h-6.34V41.31a14.84,14.84,0,0,1-11.08,4.53c-8.37,0-14.72-6.09-14.72-15.08,0-8.69,6-14.72,15-14.72,3.17,0,6.19.42,10.71,3.85V7.1Zm-16,33.23c3.18,0,5.73-.94,9.52-4.11V25.4c-3.22-2.81-6-3.85-9.31-3.85-5.35,0-9.83,3.49-9.83,9.41C112.21,36.58,116.32,40.33,121.83,40.33Z" fill="#007a33"/><path d="M152,6.16v5.72h-6.44V6.16ZM152,17V44.9h-6.44V17Z" fill="#007a33"/><path d="M189,30.91c0,9.57-6.3,14.93-15.66,14.93s-15.65-5.36-15.65-14.93c0-8.68,5.72-14.87,15.65-14.87S189,22.07,189,30.91Zm-15.66,9.42c5.72,0,9.11-3.7,9.11-9.52,0-6-3.7-9.26-9.16-9.26-5.3,0-9,3.17-9,9.26C164.21,36.63,167.59,40.33,173.31,40.33Z" fill="#007a33"/><path d="M198.58,17,208,37.67,217.36,17h7.07L211.12,44.9h-6.45L191.51,17Z" fill="#007a33"/><path d="M256.46,25.76V40.69A12,12,0,0,0,257,44.9h-6.6a12.07,12.07,0,0,1-.37-2.81c-4.57,2.71-8.32,3.75-12.17,3.75-5.25,0-10.86-2.45-10.86-8.43,0-3.84,2.23-6.55,6.81-8.47,3.74-1.56,9.05-2.45,16.22-2.81v-1.2c0-2.44-2.39-3.69-7.22-3.69-4.22,0-6.87,1-7.54,3.69h-6.71c1.14-5.82,6.13-8.89,14.25-8.89C251.37,16,256.46,18.59,256.46,25.76ZM238.73,40.84c3.69,0,7.07-1.09,11.28-3.63v-6.4a51.47,51.47,0,0,0-11.8,1.87c-2.39.78-4.16,2-4.16,4.42C234.05,39.34,235.56,40.84,238.73,40.84Z" fill="#007a33"/><path d="M289.9,22.59l-5.36,3c-2.44-3.38-5.62-4.37-9.1-4.37-4.06,0-6.24,1.4-6.24,3.38,0,1.71,1.56,2.39,5.46,2.91,9.1,1.2,15.71,2.29,15.71,9.2,0,5.93-4.89,9.16-13.84,9.16-5.67,0-10.87-1-15.13-6.81l5.46-3.18c1.92,3.18,5.41,4.79,10.19,4.79,3.9,0,6.56-1.35,6.56-3.49,0-2.44-2.86-2.44-7.7-3.17-6-.88-13.47-1.92-13.47-9,0-4.11,3.59-8.94,13.1-8.94C281.53,16,286.73,18.22,289.9,22.59Z" fill="#007a33"/><path d="M324.22,26.6h-6.45c-.94-2.92-4.11-5.05-8.22-5.05-5.61,0-9.57,4-9.57,9,0,5.82,3.33,9.78,9.1,9.78,4.53,0,8.06-2.14,8.9-5.41h6.76c-1.62,6.45-7,10.92-15,10.92-10.19,0-16.28-5.51-16.28-15.6,0-7.8,6.24-14.2,15.91-14.2C317.4,16,323.38,20.1,324.22,26.6Z" fill="#007a33"/><path d="M336.33,17V32.73c0,5.2,1.72,7.6,6,7.6,3.75,0,6.4-1,8.79-4.11V17h6.45V44.9h-6.34V41.42a13.31,13.31,0,0,1-10.46,4.42c-7.38,0-10.92-4-10.92-10.72V17Z" fill="#007a33"/><path d="M371.54,7.1V44.9h-6.45V7.1Z" fill="#007a33"/><path d="M406.69,25.76V40.69a12,12,0,0,0,.52,4.21H400.6a12.63,12.63,0,0,1-.36-2.81c-4.58,2.71-8.32,3.75-12.17,3.75-5.25,0-10.87-2.45-10.87-8.43,0-3.84,2.24-6.55,6.81-8.47,3.75-1.56,9.05-2.45,16.23-2.81v-1.2c0-2.44-2.39-3.69-7.23-3.69-4.21,0-6.86,1-7.54,3.69h-6.71C379.91,19.11,384.9,16,393,16,401.59,16,406.69,18.59,406.69,25.76ZM389,40.84c3.69,0,7.07-1.09,11.28-3.63v-6.4a51.38,51.38,0,0,0-11.8,1.87c-2.4.78-4.16,2-4.16,4.42C384.28,39.34,385.78,40.84,389,40.84Z" fill="#007a33"/><path d="M432.38,16.14v7a11.91,11.91,0,0,0-3.85-.52c-5.52,0-8.38,2.45-8.38,7.33v15h-6.44V17h6.44v4.16h.16c2.13-3.38,5.46-5.1,9.93-5.1A8.46,8.46,0,0,1,432.38,16.14Z" fill="#007a33"/><path d="M482,22.59l-5.35,3c-2.45-3.38-5.62-4.37-9.1-4.37-4.06,0-6.24,1.4-6.24,3.38,0,1.71,1.56,2.39,5.46,2.91,9.1,1.2,15.7,2.29,15.7,9.2,0,5.93-4.89,9.16-13.83,9.16-5.67,0-10.87-1-15.13-6.81L459,35.85c1.92,3.18,5.4,4.79,10.19,4.79,3.9,0,6.55-1.35,6.55-3.49,0-2.44-2.86-2.44-7.7-3.17-6-.88-13.46-1.92-13.46-9,0-4.11,3.58-8.94,13.1-8.94C473.61,16,478.81,18.22,482,22.59Z" fill="#007a33"/><path d="M515,25.76V40.69a12,12,0,0,0,.52,4.21h-6.6a12.07,12.07,0,0,1-.37-2.81c-4.57,2.71-8.32,3.75-12.17,3.75-5.25,0-10.86-2.45-10.86-8.43,0-3.84,2.23-6.55,6.81-8.47,3.74-1.56,9.05-2.45,16.22-2.81v-1.2c0-2.44-2.39-3.69-7.22-3.69-4.22,0-6.87,1-7.54,3.69h-6.71c1.14-5.82,6.13-8.89,14.25-8.89C509.91,16,515,18.59,515,25.76ZM497.27,40.84c3.69,0,7.07-1.09,11.28-3.63v-6.4a51.47,51.47,0,0,0-11.8,1.87c-2.39.78-4.16,2-4.16,4.42C492.59,39.34,494.1,40.84,497.27,40.84Z" fill="#007a33"/><path d="M543.6,7V12.5a25.89,25.89,0,0,0-6.24-.83c-3.85,0-5.25,1.51-5.25,4.63v1.61h10v5.51h-10V44.9h-6.45V23.42h-6.19V17.91h6.19V14.48c0-4.58,2.65-8.32,11-8.32A33.31,33.31,0,0,1,543.6,7Z" fill="#007a33"/><path d="M577.4,32.73H552.91c.62,5.2,4.47,7.91,9.31,7.91,3.32,0,6.45-1.51,7.59-4.11h7.07c-1.51,5.25-7,9.31-14.56,9.31-9.78,0-16-6-16-15,0-8.68,6-14.82,15.39-14.82C571.37,16,577.35,21.6,577.4,32.73Zm-6.86-5c-.94-4.32-3.75-6.5-8.84-6.5-4.74,0-7.6,2.34-8.58,6.5Z" fill="#007a33"/><path d="M591.13,8.81v9.1h9.72v5.51h-9.72v12.9c0,2.55,1.45,4,4.47,4a25.34,25.34,0,0,0,5.57-.79v5.67a55.28,55.28,0,0,1-6.92.63c-7,0-9.57-2.76-9.57-8V23.42h-5V17.91h5V8.81Z" fill="#007a33"/><path d="M610.11,17l9.46,20.38L629,17h7.07l-14.46,30.1c-2.44,5.1-6.24,7.39-11.75,7.39a18.44,18.44,0,0,1-5.57-.83V48.13a12.7,12.7,0,0,0,4,.62c4.42,0,7-1.67,7-4.37a9.67,9.67,0,0,0-1.2-4.47L603,17Z" fill="#007a33"/><path d="M689.56,7.1V44.9h-6.34V41.31a14.84,14.84,0,0,1-11.08,4.53c-8.37,0-14.71-6.09-14.71-15.08,0-8.69,6-14.72,15-14.72,3.18,0,6.19.42,10.72,3.85V7.1Zm-16,33.23c3.17,0,5.72-.94,9.52-4.11V25.4c-3.23-2.81-6-3.85-9.31-3.85C668.45,21.55,664,25,664,31,664,36.58,668.09,40.33,673.6,40.33Z" fill="#007a33"/><path d="M724.45,25.76V40.69A12.2,12.2,0,0,0,725,44.9h-6.6a12.07,12.07,0,0,1-.36-2.81c-4.58,2.71-8.32,3.75-12.17,3.75-5.25,0-10.87-2.45-10.87-8.43,0-3.84,2.24-6.55,6.81-8.47,3.75-1.56,9.05-2.45,16.23-2.81v-1.2c0-2.44-2.4-3.69-7.23-3.69-4.21,0-6.87,1-7.54,3.69h-6.71c1.14-5.82,6.14-8.89,14.25-8.89C719.36,16,724.45,18.59,724.45,25.76ZM706.72,40.84c3.69,0,7.07-1.09,11.29-3.63v-6.4a51.47,51.47,0,0,0-11.81,1.87c-2.39.78-4.16,2-4.16,4.42C702,39.34,703.55,40.84,706.72,40.84Z" fill="#007a33"/><path d="M739.9,8.81v9.1h9.72v5.51H739.9v12.9c0,2.55,1.45,4,4.47,4a25.16,25.16,0,0,0,5.56-.79v5.67a54.92,54.92,0,0,1-6.91.63c-7,0-9.57-2.76-9.57-8V23.42h-5V17.91h5V8.81Z" fill="#007a33"/><path d="M782.23,25.76V40.69a12,12,0,0,0,.52,4.21h-6.61a12.07,12.07,0,0,1-.36-2.81c-4.58,2.71-8.32,3.75-12.17,3.75-5.25,0-10.87-2.45-10.87-8.43,0-3.84,2.24-6.55,6.81-8.47,3.75-1.56,9.05-2.45,16.23-2.81v-1.2c0-2.44-2.4-3.69-7.23-3.69-4.21,0-6.87,1-7.54,3.69H754.3c1.14-5.82,6.14-8.89,14.25-8.89C777.13,16,782.23,18.59,782.23,25.76ZM764.49,40.84c3.69,0,7.08-1.09,11.29-3.63v-6.4A51.47,51.47,0,0,0,764,32.68c-2.39.78-4.16,2-4.16,4.42C759.81,39.34,761.32,40.84,764.49,40.84Z" fill="#007a33"/><path d="M829.6,7V12.5a25.89,25.89,0,0,0-6.24-.83c-3.85,0-5.26,1.51-5.26,4.63v1.61h10v5.51h-10V44.9h-6.44V23.42h-6.19V17.91h6.19V14.48c0-4.58,2.65-8.32,11-8.32A33.37,33.37,0,0,1,829.6,7Z" fill="#007a33"/><path d="M863.5,30.91c0,9.57-6.29,14.93-15.65,14.93S832.2,40.48,832.2,30.91c0-8.68,5.72-14.87,15.65-14.87S863.5,22.07,863.5,30.91Zm-15.65,9.42c5.72,0,9.1-3.7,9.1-9.52,0-6-3.69-9.26-9.15-9.26-5.31,0-9,3.17-9,9.26C838.75,36.63,842.13,40.33,847.85,40.33Z" fill="#007a33"/><path d="M887.32,16.14v7a11.88,11.88,0,0,0-3.85-.52c-5.51,0-8.38,2.45-8.38,7.33v15h-6.44V17h6.44v4.16h.16c2.13-3.38,5.46-5.1,9.93-5.1A8.46,8.46,0,0,1,887.32,16.14Z" fill="#007a33"/><path d="M945.4,7.1v6.34H918.88v8.79h22.83v6.34H918.88v10H946V44.9H911.49V7.1Z" fill="#007a33"/><path d="M956.27,7.1l14.19,30.16L984.92,7.1h7.9L974.31,44.9h-7.7L948.36,7.1Z" fill="#007a33"/><path d="M1021.27,7.1c10.71,0,15,3.53,15,11.28,0,6.34-4.26,10.71-10.55,11.13l11.59,15.39h-9.1l-11-14.87h-11.7V44.9h-7.38V7.1Zm-1.1,16.79c6.76,0,8.74-1.51,8.74-5.35s-2.13-5.31-8.74-5.31h-14.61V23.89Z" fill="#007a33"/><path d="M1078.31,7.1v6.34h-26.52v8.79h22.83v6.34h-22.83v10h27.14V44.9H1044.4V7.1Z" fill="#007a33"/><path d="M1092.66,7.1l25.27,27.3V7.1H1125V44.9h-6.76l-26.32-28.29V44.9h-7.07V7.1Z" fill="#007a33"/><path d="M1168.06,7.1v4.16l-25.69,27.3h26.32V44.9h-38V41.26l26.42-27.82h-25.06V7.1Z" fill="#007a33"/><path d="M1217,26.28c0,11-7.64,19.56-22.51,19.56S1172,37.31,1172,26.28c0-12.37,8-20.12,22.52-20.12S1217,14,1217,26.28ZM1194.42,12.5c-9.2,0-15.08,4.89-15.08,13.37,0,8.73,5.72,13.62,15.14,13.62s15.13-4.68,15.13-13.62C1209.61,17.44,1203.84,12.5,1194.42,12.5Z" fill="#007a33"/></g><g style="isolation:isolate"><path d="M1241.91,5.52v3.7h-9.86V27.57h-4.31V9.22h-9.86V5.52Z" fill="#007a33"/><path d="M1250.79,5.52l6.89,16.35,7-16.35h5.67V27.57h-3.82V10.86h-.06l-7.07,16.71H1256l-7.1-16.71h-.06V27.57H1245v-22Z" fill="#007a33"/></g></g></svg>