<svg id="Layer_1" data-name="Layer 1" xmlns="http://www.w3.org/2000/svg" viewBox="0 0 534.45 57.9"><g style="isolation:isolate"><g style="isolation:isolate"><path d="M38.38,7.1v6.34H11.86v8.79H34.69v6.34H11.86v10H39V44.9H4.47V7.1Z" fill="#007a33"/><path d="M49.24,7.1l14.2,30.16L77.9,7.1h7.9L67.29,44.9h-7.7L41.34,7.1Z" fill="#007a33"/><path d="M114.24,7.1c10.72,0,15,3.53,15,11.28,0,6.34-4.26,10.71-10.55,11.13L130.31,44.9h-9.1L110.24,30H98.54V44.9H91.16V7.1Zm-1.09,16.79c6.76,0,8.74-1.51,8.74-5.35s-2.13-5.31-8.74-5.31H98.54V23.89Z" fill="#007a33"/><path d="M171.29,7.1v6.34H144.77v8.79H167.6v6.34H144.77v10h27.14V44.9H137.38V7.1Z" fill="#007a33"/><path d="M185.64,7.1l25.27,27.3V7.1H218V44.9h-6.76L184.91,16.61V44.9h-7.07V7.1Z" fill="#007a33"/><path d="M261,7.1v4.16l-25.69,27.3h26.31V44.9h-38V41.26l26.42-27.82H225.05V7.1Z" fill="#007a33"/><path d="M310,26.28c0,11-7.64,19.56-22.51,19.56s-22.52-8.53-22.52-19.56c0-12.37,8-20.12,22.52-20.12S310,14,310,26.28ZM287.4,12.5c-9.2,0-15.08,4.89-15.08,13.37,0,8.73,5.72,13.62,15.14,13.62s15.13-4.68,15.13-13.62C302.59,17.44,296.81,12.5,287.4,12.5Z" fill="#007a33"/><path d="M341.22,6.16v5.72h-6.45V6.16Zm0,10.82V44.9h-6.45V17Z" fill="#007a33"/><path d="M376.43,26.75V44.9H370V29.14c0-5.2-1.67-7.59-6-7.59-3.75,0-6.4,1-8.79,4.11V44.9h-6.45V17h6.34v3.48A13.4,13.4,0,0,1,365.51,16C372.84,16,376.43,20,376.43,26.75Z" fill="#007a33"/><path d="M408.87,7.1V19.89c4.48-3.43,7.7-3.85,10.72-3.85,9,0,15,6.14,15,14.72,0,9.15-6.5,15.08-14.71,15.08a14.75,14.75,0,0,1-11.08-4.53V44.9h-6.35V7.1Zm0,29.17c3.69,3.07,6.35,4.06,9.52,4.06,5.51,0,9.62-3.65,9.62-9.37s-4.26-9.41-9.88-9.41c-3.28,0-6.14,1.15-9.26,3.85Z" fill="#007a33"/><path d="M458.38,16.14v7a11.88,11.88,0,0,0-3.85-.52c-5.51,0-8.37,2.45-8.37,7.33v15h-6.45V17h6.45v4.16h.15c2.13-3.38,5.46-5.1,9.93-5.1A8.46,8.46,0,0,1,458.38,16.14Z" fill="#007a33"/><path d="M469.76,6.16v5.72h-6.45V6.16Zm0,10.82V44.9h-6.45V17Z" fill="#007a33"/><path d="M506.63,32.73H482.14c.62,5.2,4.47,7.91,9.31,7.91,3.33,0,6.45-1.51,7.59-4.11h7.07c-1.51,5.25-7,9.31-14.56,9.31-9.78,0-16-6-16-15,0-8.68,6-14.82,15.39-14.82C500.6,16,506.58,21.6,506.63,32.73Zm-6.86-5c-.94-4.32-3.75-6.5-8.84-6.5-4.73,0-7.6,2.34-8.58,6.5Z" fill="#007a33"/><path d="M533.52,7V12.5a26,26,0,0,0-6.25-.83c-3.84,0-5.25,1.51-5.25,4.63v1.61h10v5.51H522V44.9h-6.45V23.42h-6.18V17.91h6.18V14.48c0-4.58,2.66-8.32,11-8.32A33.44,33.44,0,0,1,533.52,7Z" fill="#007a33"/></g></g></svg>