<?xml version="1.0" encoding="UTF-8"?><svg id="a" xmlns="http://www.w3.org/2000/svg" viewBox="0 0 588.72 58.9"><g id="b" transform="translate(0 2)" isolation="isolate"><g isolation="isolate"><path d="M38.38,7.1v6.34H11.86v8.79h22.83v6.34H11.86v9.98h27.15v6.34H4.47V7.1H38.38Z" fill="#007a33"/><path d="M49.24,7.1l14.2,30.16,14.46-30.16h7.9l-18.51,37.81h-7.7L41.34,7.1h7.9Z" fill="#007a33"/><path d="M114.25,7.1c10.71,0,15.03,3.54,15.03,11.28,0,6.34-4.26,10.71-10.56,11.13l11.6,15.39h-9.1l-10.97-14.87h-11.7v14.87h-7.38V7.1h23.09Zm-1.09,16.8c6.76,0,8.74-1.51,8.74-5.36s-2.13-5.3-8.74-5.3h-14.61v10.66h14.61Z" fill="#007a33"/><path d="M171.29,7.1v6.34h-26.52v8.79h22.83v6.34h-22.83v9.98h27.15v6.34h-34.53V7.1h33.91Z" fill="#007a33"/><path d="M185.64,7.1l25.27,27.3V7.1h7.07V44.9h-6.76l-26.31-28.29v28.29h-7.07V7.1h7.8Z" fill="#007a33"/><path d="M261.04,7.1v4.16l-25.69,27.3h26.31v6.34h-37.96v-3.64l26.42-27.82h-25.07V7.1h35.99Z" fill="#007a33"/><path d="M309.97,26.28c0,11.03-7.64,19.55-22.52,19.55s-22.52-8.53-22.52-19.55c0-12.38,7.96-20.12,22.52-20.12s22.52,7.8,22.52,20.12Zm-22.57-13.78c-9.2,0-15.08,4.89-15.08,13.36s5.72,13.62,15.13,13.62,15.13-4.68,15.13-13.62c0-8.42-5.77-13.36-15.18-13.36Z" fill="#007a33"/></g><g isolation="isolate"><path d="M335.14,5.52v3.7h-9.86V27.57h-4.31V9.22h-9.86v-3.7h24.03Z" fill="#007a33"/><path d="M344.02,5.52l6.89,16.35,7.01-16.35h5.67V27.57h-3.82V10.86h-.06l-7.07,16.71h-3.43l-7.1-16.71h-.06V27.57h-3.82V5.52h5.79Z" fill="#007a33"/></g><g isolation="isolate"><path d="M395.5,7.16v5.72h-6.45V7.16h6.45Zm0,10.82v27.92h-6.45V17.98h6.45Z" fill="#007a33"/><path d="M430.7,27.75v18.15h-6.45v-15.76c0-5.2-1.66-7.59-6.03-7.59-3.74,0-6.4,1.04-8.79,4.11v19.24h-6.45V17.98h6.34v3.48c3.28-3.28,6.29-4.42,10.45-4.42,7.33,0,10.92,3.95,10.92,10.71Z" fill="#007a33"/><path d="M463.15,8.1v12.79c4.47-3.43,7.7-3.85,10.71-3.85,9.05,0,14.98,6.14,14.98,14.72,0,9.15-6.5,15.08-14.72,15.08-4.52,0-8.22-1.56-11.08-4.52v3.59h-6.34V8.1h6.45Zm0,29.17c3.69,3.07,6.34,4.06,9.52,4.06,5.51,0,9.62-3.64,9.62-9.36s-4.26-9.41-9.88-9.41c-3.28,0-6.14,1.14-9.26,3.85v10.87Z" fill="#007a33"/><path d="M512.65,17.14v6.97c-1.82-.47-2.34-.52-3.85-.52-5.51,0-8.37,2.44-8.37,7.33v14.98h-6.45V17.98h6.45v4.16h.16c2.13-3.38,5.46-5.1,9.93-5.1,1.51,0,1.77,0,2.13,.1Z" fill="#007a33"/><path d="M524.04,7.16v5.72h-6.45V7.16h6.45Zm0,10.82v27.92h-6.45V17.98h6.45Z" fill="#007a33"/><path d="M560.91,33.73h-24.49c.62,5.2,4.47,7.9,9.31,7.9,3.33,0,6.45-1.51,7.59-4.11h7.07c-1.51,5.25-7.02,9.31-14.56,9.31-9.78,0-15.96-6.03-15.96-14.98s6.03-14.82,15.39-14.82,15.6,5.56,15.65,16.69Zm-6.86-4.99c-.94-4.32-3.74-6.5-8.84-6.5-4.73,0-7.59,2.34-8.58,6.5h17.42Z" fill="#007a33"/><path d="M587.79,7.99v5.51c-2.86-.68-4.63-.83-6.24-.83-3.85,0-5.25,1.51-5.25,4.63v1.61h10.04v5.51h-10.04v21.48h-6.45V24.42h-6.19v-5.51h6.19v-3.43c0-4.58,2.65-8.32,11.02-8.32,1.61,0,2.5,.05,6.92,.83Z" fill="#007a33"/></g></g></svg>