<svg enable-background="new 0 0 153.1 146.1" height="146.1" viewBox="0 0 153.1 146.1" width="153.1" xmlns="http://www.w3.org/2000/svg"><g fill="#4d4d4f" transform="translate(-874 -1116.484)"><text font-family="'TradeGothicLTStd-Bold'" font-size="29" transform="translate(874.0002 1255.9901)">Tap to select</text><path d="m970.5 1154.1c-1.3 0-2.6.6-3.4 1.7 0-.3 0-.6 0-.8 0-4.5-2.5-7.5-6.4-7.5-1.4 0-2.8.4-4 1.2-.2-.8-.6-1.5-1.1-2.2 6.1-8.5 4.2-20.3-4.3-26.4s-20.3-4.2-26.4 4.3-4.2 20.3 4.3 26.4c1.4 1 2.9 1.8 4.5 2.4l-.2 7.5c-1.5-2.8-3.6-5.5-5.2-6.3-1.9-1-5-.3-6.9 1.4-1.7 1.6-2.2 4.1-1.2 6.2.8 2.1 1.3 4.3 1.7 6.6.8 4.1 1.9 8.2 3.3 12.2 2.9 7.9 11.8 16.2 14.3 18.4v5.9c0 5.9 4.8 10.6 10.7 10.6h11.7c5.9 0 10.7-4.8 10.7-10.7v-7.1c3-4.1 4.8-11.5 4.9-11.8 0-.1 0-.3 0-.4v-24.7c-.3-4.2-3-6.9-7-6.9zm-45.6-18.7c0-8.5 6.8-15.3 15.3-15.3s15.3 6.8 15.3 15.3c0 3.3-1.1 6.5-3 9.2-.5-.1-.9-.2-1.4-.2-1.5 0-3 .4-4.2 1.2 0-5.3-.1-10.6-.1-11-.4-3.2-3.1-5.5-6.3-5.5-3.5 0-5.5 3.3-6.1 5.3 0 .2-.1.3-.1.5l-.5 14.4c-5.4-2.6-8.9-8-8.9-13.9zm48.7 50c-.6 2.3-2.3 8-4.5 10.7-.3.3-.4.7-.4 1.1v7.7c0 3.9-3.2 7-7.1 7h-11.7c-3.9 0-7-3.1-7.1-7v-6.7c0-.5-.2-1-.6-1.4-.1-.1-10.9-9.4-13.9-17.5-1.3-3.8-2.4-7.7-3.1-11.7-.4-2.5-1.1-4.9-1.9-7.2-.4-.7-.3-1.5.3-2.1.7-.6 1.6-1 2.5-1 .1 0 .3 0 .4.1 1.2.6 4.2 4.8 4.9 7.8.3 1.1.5 2.3.6 3.4.3 2 .5 3.5 1.7 4.5.8.6 1.9.5 2.5-.3.2-.3.4-.7.4-1.1l1.2-36.6c.2-.6 1.1-2.5 2.6-2.5 1.2 0 2.3.8 2.7 1.9 0 .8.2 21.8.2 21.8 0 1 .8 1.7 1.7 1.8 1 .1 1.8-.6 1.9-1.6l.8-6.8c.8-1.1 2-1.8 3.4-1.7 1.2 0 2.2.9 2.2 2.2v.1l1.1 7.3c.1 1 1 1.7 2 1.6.9-.1 1.6-.9 1.6-1.9l-.1-4.7c.5-1 1.6-1.6 2.8-1.5 2.3 0 2.8 2.1 2.8 3.9.2 2.8.6 5.7 1.2 8.5.2 1 1.1 1.6 2.1 1.5.8-.1 1.4-.8 1.5-1.6.3-2.5 1.3-5.6 2.3-5.6 2.6 0 3.1 1.8 3.1 3.3z"/></g></svg>