<svg id="Layer_1" data-name="Layer 1" xmlns="http://www.w3.org/2000/svg" viewBox="0 0 153.09 146.12"><g style="isolation:isolate"><g style="isolation:isolate"><path d="M13.92,118.56v3.54H9.25v17.41h-4V122.1H.58v-3.54Z" fill="#4d4d4f"/><path d="M25.52,128.11v10.15a4.59,4.59,0,0,0,.21,1.25H22.07L21.81,138a6,6,0,0,1-4.35,1.83c-2.21,0-3.63-1.22-3.63-3.77,0-3.86,3.86-5.31,8-6.59v-1.16A1.7,1.7,0,0,0,20,126.39a2,2,0,0,0-2,2H14.3c.26-3.28,2.64-4.9,5.86-4.9C23.73,123.44,25.52,125.15,25.52,128.11Zm-6.41,9a3.91,3.91,0,0,0,2.76-1.45v-3.83c-1.63.58-4.38,1.74-4.38,3.63A1.5,1.5,0,0,0,19.11,137.07Z" fill="#4d4d4f"/><path d="M40.46,129.56v4.06c0,4.06-1.22,6.18-4,6.18a6.66,6.66,0,0,1-3.68-1.74v7H29.15V123.73h3.36v1.91h.06a5.09,5.09,0,0,1,3.91-2.2C39.18,123.44,40.46,125.55,40.46,129.56Zm-7.66,6.38a2.86,2.86,0,0,0,2.2,1.13c1.34,0,1.8-1.36,1.8-3.63v-3.62c0-2.29-.43-3.66-1.82-3.66a2.9,2.9,0,0,0-2.18,1.13Z" fill="#4d4d4f"/><path d="M55.25,120.13v4.29H57.6v3H55.25v8.07c0,.69.46,1.16,1.82,1.16a3.7,3.7,0,0,0,.55,0v3.07a12.69,12.69,0,0,1-2,.15c-2.85,0-4-1.22-4-3.08v-9.34H50.14v-3h1.45v-4.29Z" fill="#4d4d4f"/><path d="M71.08,129.27V134c0,3.72-1.94,5.81-5.8,5.81s-5.8-2.15-5.8-5.83v-4.7c0-3.75,1.91-5.83,5.8-5.83S71.08,125.52,71.08,129.27Zm-7.95,5.54c0,1.07.82,1.8,2.15,1.8s2.15-.73,2.15-1.8v-6.36c0-1.07-.79-1.82-2.15-1.82s-2.15.69-2.15,1.82Z" fill="#4d4d4f"/><path d="M92.31,127.38l-3,1.16c-.52-1.51-1.42-2.15-2.52-2.15a1.41,1.41,0,0,0-1.48,1.43c0,1,.93,1.45,2.84,2.37,2.76,1.34,4.3,2.53,4.3,4.85,0,3.1-2.24,4.76-5.25,4.76-3.31,0-4.59-1.63-6-4.5l3.28-.9a2.68,2.68,0,0,0,2.67,2.44c1.1,0,1.76-.5,1.76-1.39,0-1.25-1.21-1.92-3.16-2.76s-4-2-4-4.85,2.23-4.4,5-4.4A5.66,5.66,0,0,1,92.31,127.38Z" fill="#4d4d4f"/><path d="M106.52,128.74v3.75h-8v2.14a2,2,0,0,0,2.15,2.21,2,2,0,0,0,2.14-2.21h3.66c-.17,3.28-2.15,5.17-5.8,5.17-3.45,0-5.8-2.18-5.8-5.57v-5.31c0-3.34,2.38-5.48,5.8-5.48S106.52,125.55,106.52,128.74Zm-3.66.79v-.9a2,2,0,0,0-2.14-2.24,2,2,0,0,0-2.15,2.12v1Z" fill="#4d4d4f"/><path d="M113.83,118.56v20.95h-3.66V118.56Z" fill="#4d4d4f"/><path d="M129.08,128.74v3.75h-8v2.14a2,2,0,0,0,2.15,2.21,2,2,0,0,0,2.15-2.21h3.65c-.17,3.28-2.14,5.17-5.8,5.17-3.45,0-5.8-2.18-5.8-5.57v-5.31c0-3.34,2.38-5.48,5.8-5.48S129.08,125.55,129.08,128.74Zm-3.65.79v-.9a2,2,0,0,0-2.15-2.24,2,2,0,0,0-2.15,2.12v1Z" fill="#4d4d4f"/><path d="M143.55,129.18h-3.62v-.76c0-1-.76-1.79-2.15-1.79s-2.15.75-2.15,1.82v6.33c0,1.07.79,1.83,2.15,1.83s2.15-.64,2.15-1.83v-1h3.65c0,4-1.94,6-5.8,6s-5.8-2.18-5.8-5.86v-4.65c0-3.65,1.8-5.85,5.8-5.85C141.52,123.44,143.49,125.35,143.55,129.18Z" fill="#4d4d4f"/><path d="M150.31,120.13v4.29h2.35v3h-2.35v8.07c0,.69.46,1.16,1.83,1.16a3.84,3.84,0,0,0,.55,0v3.07a12.81,12.81,0,0,1-2.06.15c-2.85,0-4-1.22-4-3.08v-9.34H145.2v-3h1.45v-4.29Z" fill="#4d4d4f"/></g></g><path d="M98.69,37.59a4.31,4.31,0,0,0-3.39,1.67c0-.31,0-.58,0-.79,0-4.53-2.5-7.46-6.38-7.46a6.85,6.85,0,0,0-4,1.16A6.3,6.3,0,0,0,83.77,30a18.92,18.92,0,1,0-21.94,6.65l-.25,7.48c-1.5-2.82-3.64-5.52-5.25-6.34-1.86-1-5-.31-6.9,1.4a5.31,5.31,0,0,0-1.24,6.19A40.33,40.33,0,0,1,49.92,52a82.69,82.69,0,0,0,3.3,12.18C56.07,72,65,80.35,67.48,82.57V88.5A10.67,10.67,0,0,0,78.15,99.14H89.82a10.67,10.67,0,0,0,10.67-10.65V81.37c3-4.11,4.79-11.52,4.87-11.84a2,2,0,0,0,0-.42V44.48C105.41,40.36,102.71,37.59,98.69,37.59ZM53.12,18.92a15.33,15.33,0,1,1,27.6,9.15,6.15,6.15,0,0,0-1.43-.17,7.44,7.44,0,0,0-4.24,1.23c0-5.29-.08-10.62-.08-11a6.37,6.37,0,0,0-6.34-5.5c-3.53,0-5.5,3.31-6.1,5.26a1.61,1.61,0,0,0-.08.48L62,32.8A15.44,15.44,0,0,1,53.12,18.92Zm48.68,50c-.56,2.26-2.32,8-4.51,10.72a1.83,1.83,0,0,0-.41,1.14v7.74a7.05,7.05,0,0,1-7,7.05H78.15a7.06,7.06,0,0,1-7.06-7V81.75a1.79,1.79,0,0,0-.63-1.37c-.11-.09-10.92-9.37-13.85-17.47a78.55,78.55,0,0,1-3.15-11.67A42.21,42.21,0,0,0,51.54,44a1.72,1.72,0,0,1,.26-2.11,3.91,3.91,0,0,1,2.52-1,1,1,0,0,1,.38,0c1.21.62,4.17,4.81,4.93,7.84a30.79,30.79,0,0,1,.61,3.43c.26,2,.47,3.53,1.65,4.47a1.8,1.8,0,0,0,2.53-.28,1.88,1.88,0,0,0,.4-1.07L66,18.76c.24-.62,1.12-2.54,2.59-2.54a3,3,0,0,1,2.73,1.89c0,.85.17,21.76.17,21.76a1.8,1.8,0,0,0,1.71,1.78,1.77,1.77,0,0,0,1.89-1.59l.8-6.82a3.9,3.9,0,0,1,3.36-1.73,2.2,2.2,0,0,1,2.24,2.16v.12l1.13,7.32a1.8,1.8,0,0,0,3.58-.32l-.11-4.68a2.66,2.66,0,0,1,2.75-1.48c2.29,0,2.77,2.09,2.77,3.85a70.65,70.65,0,0,0,1.17,8.45,1.8,1.8,0,0,0,3.56-.15c.25-2.53,1.34-5.58,2.3-5.58,2.58,0,3.12,1.78,3.12,3.28V68.89Z" fill="#4d4d4f"/></svg>