<?xml version="1.0" encoding="UTF-8"?><svg id="a" xmlns="http://www.w3.org/2000/svg" viewBox="0 0 578 100"><g><path d="M40,0H578l-40,100H0L40,0Z" fill="#007a33"/><g isolation="isolate"><path d="M270.1,41.5l-4.02,1.32c-.93-2.58-3.42-3.63-7.65-3.63-3.36,0-5.79,.93-5.79,2.73,0,1.47,1.95,2.04,3.75,2.31l6.3,.93c5.04,.75,7.77,2.79,7.77,6.3,0,4.59-3.99,7.08-10.77,7.08s-10.98-2.52-12.12-6.27l4.11-1.29c1.23,2.64,3.93,3.9,8.13,3.9,3.78,0,6.39-1.29,6.39-3.03,0-1.44-1.83-2.34-4.29-2.67l-5.43-.75c-5.52-.75-8.1-3-8.1-6.24,0-4.26,3.69-6.54,10.2-6.54s10.23,1.95,11.52,5.85Z" fill="#fff"/><path d="M278.38,37.18v5.25h5.61v3.18h-5.61v7.44c0,1.47,.84,2.31,2.58,2.31,.9,0,2.52-.24,3.21-.45v3.27c-.99,.12-2.49,.36-3.99,.36-4.05,0-5.52-1.59-5.52-4.59v-8.34h-2.88v-3.18h2.88v-5.25h3.72Z" fill="#fff"/><path d="M302.8,46.96v8.61c0,.75,.03,1.86,.3,2.43h-3.81c-.12-.54-.21-1.02-.21-1.62-2.64,1.56-4.8,2.16-7.02,2.16-3.03,0-6.27-1.41-6.27-4.86,0-2.22,1.29-3.78,3.93-4.89,2.16-.9,5.22-1.41,9.36-1.62v-.69c0-1.41-1.38-2.13-4.17-2.13-2.43,0-3.96,.6-4.35,2.13h-3.87c.66-3.36,3.54-5.13,8.22-5.13,4.95,0,7.89,1.47,7.89,5.61Zm-10.23,8.7c2.13,0,4.08-.63,6.51-2.1v-3.69c-2.13,.09-5.04,.51-6.81,1.08-1.38,.45-2.4,1.14-2.4,2.55,0,1.29,.87,2.16,2.7,2.16Z" fill="#fff"/><path d="M317.62,41.41v4.02c-1.05-.27-1.35-.3-2.22-.3-3.18,0-4.83,1.41-4.83,4.23v8.64h-3.72v-16.11h3.72v2.4h.09c1.23-1.95,3.15-2.94,5.73-2.94,.87,0,1.02,0,1.23,.06Z" fill="#fff"/><path d="M325.03,37.18v5.25h5.61v3.18h-5.61v7.44c0,1.47,.84,2.31,2.58,2.31,.9,0,2.52-.24,3.21-.45v3.27c-.99,.12-2.49,.36-3.99,.36-4.05,0-5.52-1.59-5.52-4.59v-8.34h-2.88v-3.18h2.88v-5.25h3.72Z" fill="#fff"/></g></g></svg>