<?xml version="1.0" encoding="utf-8"?>
<!-- Generator: Adobe Illustrator 26.3.1, SVG Export Plug-In . SVG Version: 6.00 Build 0)  -->
<svg version="1.1" id="Layer_1" xmlns="http://www.w3.org/2000/svg" xmlns:xlink="http://www.w3.org/1999/xlink" x="0px" y="0px"
	 viewBox="0 0 1413 189" style="enable-background:new 0 0 1413 189;" xml:space="preserve">
<style type="text/css">
	.st0{enable-background:new    ;}
	.st1{fill:#4D4D4F;}
</style>
<g class="st0">
	<path class="st1" d="M68.1,2.2v7.7H36v10.6h27.7v7.7H36v12.1h32.9V48H27V2.2H68.1z"/>
	<path class="st1" d="M81.3,2.2l17.2,36.5L116,2.2h9.6L103.2,48h-9.3L71.7,2.2H81.3z"/>
	<path class="st1" d="M160,2.2c13,0,18.2,4.3,18.2,13.7c0,7.7-5.2,13-12.8,13.5l14,18.6h-11l-13.3-18H141v18h-8.9V2.2H160z
		 M158.7,22.5c8.2,0,10.6-1.8,10.6-6.5c0-4.6-2.6-6.4-10.6-6.4H141v12.9H158.7z"/>
	<path class="st1" d="M229.2,2.2v7.7H197v10.6h27.7v7.7H197v12.1h32.9V48h-41.8V2.2H229.2z"/>
	<path class="st1" d="M246.5,2.2l30.6,33.1V2.2h8.6V48h-8.2l-31.9-34.3V48h-8.6V2.2H246.5z"/>
	<path class="st1" d="M337.9,2.2v5l-31.1,33.1h31.9V48h-46v-4.4l32-33.7h-30.4V2.2H337.9z"/>
	<path class="st1" d="M397.2,25.4c0,13.4-9.3,23.7-27.3,23.7c-17.9,0-27.3-10.3-27.3-23.7c0-15,9.6-24.4,27.3-24.4
		C387.6,1.1,397.2,10.5,397.2,25.4z M369.8,8.7c-11.2,0-18.3,5.9-18.3,16.2c0,10.6,6.9,16.5,18.3,16.5c11.3,0,18.3-5.7,18.3-16.5
		C388.2,14.7,381.2,8.7,369.8,8.7z"/>
</g>
<g class="st0">
	<path class="st1" d="M422.5,0.3v4.5h-11.9V27h-5.2V4.8h-11.9V0.3H422.5z"/>
	<path class="st1" d="M433.3,0.3l8.3,19.8l8.5-19.8h6.9V27h-4.6V6.8h-0.1L443.7,27h-4.2L431,6.8h-0.1V27h-4.6V0.3H433.3z"/>
</g>
<g class="st0">
	<path class="st1" d="M488.3,1.1V8h-7.8V1.1H488.3z M488.3,14.2V48h-7.8V14.2H488.3z"/>
	<path class="st1" d="M529.4,21l-6.5,3.6c-3-4.1-6.8-5.3-11-5.3c-4.9,0-7.6,1.7-7.6,4.1c0,2.1,1.9,2.9,6.6,3.5
		c11,1.4,19,2.8,19,11.2c0,7.2-5.9,11.1-16.8,11.1c-6.9,0-13.2-1.3-18.3-8.3l6.6-3.8c2.3,3.8,6.6,5.8,12.3,5.8
		c4.7,0,7.9-1.6,7.9-4.2c0-3-3.5-3-9.3-3.8c-7.2-1.1-16.3-2.3-16.3-11c0-5,4.3-10.8,15.9-10.8C519.3,13,525.6,15.7,529.4,21z"/>
	<path class="st1" d="M592.2,24.8v18.1c0,1.6,0.1,3.9,0.6,5.1h-8c-0.3-1.1-0.4-2.1-0.4-3.4c-5.5,3.3-10.1,4.5-14.7,4.5
		c-6.4,0-13.2-3-13.2-10.2c0-4.7,2.7-7.9,8.3-10.3c4.5-1.9,11-3,19.7-3.4v-1.4c0-3-2.9-4.5-8.8-4.5c-5.1,0-8.3,1.3-9.1,4.5h-8.1
		c1.4-7.1,7.4-10.8,17.3-10.8C586,13,592.2,16.1,592.2,24.8z M570.7,43.1c4.5,0,8.6-1.3,13.7-4.4v-7.8c-4.5,0.2-10.6,1.1-14.3,2.3
		c-2.9,0.9-5,2.4-5,5.4C565,41.3,566.8,43.1,570.7,43.1z"/>
	<path class="st1" d="M646.8,2.1v6.7c-3.5-0.8-5.6-1-7.6-1c-4.3,0-6.4,1.6-6.4,5.5v2.1h12.2V22h-12.2v26h-7.8V22h-6.3v-6.7h6.3v-3.8
		c0-5.8,3-10.4,13.4-10.4C640.8,1.1,642.1,1.2,646.8,2.1z M659.8,1.1V8H652V1.1H659.8z M659.8,14.2V48H652V14.2H659.8z"/>
	<path class="st1" d="M691.5,13.2v8.4c-2.2-0.6-2.8-0.6-4.7-0.6c-6.7,0-10.1,3-10.1,8.9V48h-7.8V14.2h7.8v5h0.2
		c2.6-4.1,6.6-6.2,12-6.2C690.7,13,691.1,13,691.5,13.2z"/>
	<path class="st1" d="M728.9,21l-6.5,3.6c-3-4.1-6.8-5.3-11-5.3c-4.9,0-7.6,1.7-7.6,4.1c0,2.1,1.9,2.9,6.6,3.5
		c11,1.4,19,2.8,19,11.2c0,7.2-5.9,11.1-16.8,11.1c-6.9,0-13.2-1.3-18.3-8.3L701,37c2.3,3.8,6.6,5.8,12.3,5.8c4.7,0,7.9-1.6,7.9-4.2
		c0-3-3.5-3-9.3-3.8c-7.2-1.1-16.3-2.3-16.3-11c0-5,4.3-10.8,15.9-10.8C718.7,13,725,15.7,728.9,21z"/>
	<path class="st1" d="M745.6,4.3v11h11.8V22h-11.8v15.6c0,3.1,1.8,4.9,5.4,4.9c1.9,0,5.3-0.5,6.7-0.9v6.9c-2.1,0.3-5.2,0.8-8.4,0.8
		c-8.5,0-11.6-3.3-11.6-9.6V22h-6v-6.7h6v-11H745.6z"/>
	<path class="st1" d="M777.3,26.8v6.7h-15.4v-6.7H777.3z"/>
	<path class="st1" d="M792.7,1.1V8h-7.8V1.1H792.7z M792.7,14.2V48h-7.8V14.2H792.7z"/>
	<path class="st1" d="M835.4,26v22h-7.8V28.9c0-6.3-2-9.2-7.3-9.2c-4.5,0-7.8,1.3-10.6,5V48h-7.8V14.2h7.7v4.2c4-4,7.6-5.4,12.7-5.4
		C831,13,835.4,17.8,835.4,26z"/>
	<path class="st1" d="M857.8,26.8v6.7h-15.4v-6.7H857.8z"/>
	<path class="st1" d="M899.9,25.8h-7.8c-1.1-3.5-5-6.1-10-6.1c-6.8,0-11.6,4.9-11.6,10.9c0,7.1,4,11.8,11,11.8
		c5.5,0,9.8-2.6,10.8-6.6h8.2c-2,7.8-8.4,13.2-18.2,13.2c-12.3,0-19.7-6.7-19.7-18.9c0-9.5,7.6-17.2,19.3-17.2
		C891.7,13,898.9,17.9,899.9,25.8z"/>
	<path class="st1" d="M915.2,2.2V48h-7.8V2.2H915.2z"/>
	<path class="st1" d="M957.8,24.8v18.1c0,1.6,0.1,3.9,0.6,5.1h-8c-0.3-1.1-0.4-2.1-0.4-3.4c-5.5,3.3-10.1,4.5-14.7,4.5
		c-6.4,0-13.2-3-13.2-10.2c0-4.7,2.7-7.9,8.3-10.3c4.5-1.9,11-3,19.7-3.4v-1.4c0-3-2.9-4.5-8.8-4.5c-5.1,0-8.3,1.3-9.1,4.5H924
		c1.4-7.1,7.4-10.8,17.3-10.8C951.6,13,957.8,16.1,957.8,24.8z M936.3,43.1c4.5,0,8.6-1.3,13.7-4.4v-7.8c-4.5,0.2-10.6,1.1-14.3,2.3
		c-2.9,0.9-5,2.4-5,5.4C930.6,41.3,932.5,43.1,936.3,43.1z"/>
	<path class="st1" d="M998.3,21l-6.5,3.6c-3-4.1-6.8-5.3-11-5.3c-4.9,0-7.6,1.7-7.6,4.1c0,2.1,1.9,2.9,6.6,3.5
		c11,1.4,19,2.8,19,11.2c0,7.2-5.9,11.1-16.8,11.1c-6.9,0-13.2-1.3-18.3-8.3l6.6-3.8c2.3,3.8,6.6,5.8,12.3,5.8
		c4.7,0,7.9-1.6,7.9-4.2c0-3-3.5-3-9.3-3.8c-7.2-1.1-16.3-2.3-16.3-11c0-5,4.3-10.8,15.9-10.8C988.2,13,994.5,15.7,998.3,21z"/>
	<path class="st1" d="M1036.8,21l-6.5,3.6c-3-4.1-6.8-5.3-11-5.3c-4.9,0-7.6,1.7-7.6,4.1c0,2.1,1.9,2.9,6.6,3.5
		c11,1.4,19,2.8,19,11.2c0,7.2-5.9,11.1-16.8,11.1c-6.9,0-13.2-1.3-18.3-8.3l6.6-3.8c2.3,3.8,6.6,5.8,12.3,5.8
		c4.7,0,7.9-1.6,7.9-4.2c0-3-3.5-3-9.3-3.8c-7.2-1.1-16.3-2.3-16.3-11c0-5,4.3-10.8,15.9-10.8C1026.7,13,1033,15.7,1036.8,21z"/>
	<path class="st1" d="M1076.2,4.3v11h11.8V22h-11.8v15.6c0,3.1,1.8,4.9,5.4,4.9c1.9,0,5.3-0.5,6.7-0.9v6.9c-2.1,0.3-5.2,0.8-8.4,0.8
		c-8.5,0-11.6-3.3-11.6-9.6V22h-6v-6.7h6v-11H1076.2z"/>
	<path class="st1" d="M1116.6,13.2v8.4c-2.2-0.6-2.8-0.6-4.7-0.6c-6.7,0-10.1,3-10.1,8.9V48h-7.8V14.2h7.8v5h0.2
		c2.6-4.1,6.6-6.2,12-6.2C1115.9,13,1116.2,13,1116.6,13.2z"/>
	<path class="st1" d="M1157.6,33.3h-29.7c0.8,6.3,5.4,9.6,11.3,9.6c4,0,7.8-1.8,9.2-5h8.6c-1.8,6.4-8.5,11.3-17.6,11.3
		c-11.8,0-19.3-7.3-19.3-18.1c0-10.5,7.3-18,18.6-18C1150.3,13,1157.5,19.8,1157.6,33.3z M1149.3,27.2c-1.1-5.2-4.5-7.9-10.7-7.9
		c-5.7,0-9.2,2.8-10.4,7.9H1149.3z"/>
	<path class="st1" d="M1197.5,24.8v18.1c0,1.6,0.1,3.9,0.6,5.1h-8c-0.3-1.1-0.4-2.1-0.4-3.4c-5.5,3.3-10.1,4.5-14.7,4.5
		c-6.4,0-13.2-3-13.2-10.2c0-4.7,2.7-7.9,8.3-10.3c4.5-1.9,11-3,19.7-3.4v-1.4c0-3-2.9-4.5-8.8-4.5c-5.1,0-8.3,1.3-9.1,4.5h-8.1
		c1.4-7.1,7.4-10.8,17.3-10.8C1191.3,13,1197.5,16.1,1197.5,24.8z M1176,43.1c4.5,0,8.6-1.3,13.7-4.4v-7.8
		c-4.5,0.2-10.6,1.1-14.3,2.3c-2.9,0.9-5,2.4-5,5.4C1170.4,41.3,1172.2,43.1,1176,43.1z"/>
	<path class="st1" d="M1216.2,4.3v11h11.8V22h-11.8v15.6c0,3.1,1.8,4.9,5.4,4.9c1.9,0,5.3-0.5,6.7-0.9v6.9c-2.1,0.3-5.2,0.8-8.4,0.8
		c-8.5,0-11.6-3.3-11.6-9.6V22h-6v-6.7h6v-11H1216.2z"/>
	<path class="st1" d="M1263.9,18.5c2.8-3.5,7-5.4,11.9-5.4c8.6,0,13,4.1,13,10.8V48h-7.8V27.3c0-5.2-2-7.6-6.7-7.6
		c-3.1,0-6.2,1.5-9.1,4.3v24h-7.8V27.3c0-5.2-2-7.6-6.7-7.6c-3.1,0-6.2,1.5-9.1,4.3v24h-7.8V14.2h7.7V18c4.3-4.2,7.8-5,11.5-5
		C1257.9,13,1261.3,14.7,1263.9,18.5z"/>
	<path class="st1" d="M1332.6,33.3h-29.7c0.8,6.3,5.4,9.6,11.3,9.6c4,0,7.8-1.8,9.2-5h8.6c-1.8,6.4-8.5,11.3-17.6,11.3
		c-11.8,0-19.3-7.3-19.3-18.1c0-10.5,7.3-18,18.6-18C1325.3,13,1332.5,19.8,1332.6,33.3z M1324.3,27.2c-1.1-5.2-4.5-7.9-10.7-7.9
		c-5.7,0-9.2,2.8-10.4,7.9H1324.3z"/>
	<path class="st1" d="M1372.6,26v22h-7.8V28.9c0-6.3-2-9.2-7.3-9.2c-4.5,0-7.8,1.3-10.6,5V48h-7.8V14.2h7.7v4.2
		c4-4,7.6-5.4,12.7-5.4C1368.2,13,1372.6,17.8,1372.6,26z"/>
	<path class="st1" d="M1391.2,4.3v11h11.8V22h-11.8v15.6c0,3.1,1.8,4.9,5.4,4.9c1.9,0,5.3-0.5,6.7-0.9v6.9c-2.1,0.3-5.2,0.8-8.4,0.8
		c-8.5,0-11.6-3.3-11.6-9.6V22h-6v-6.7h6v-11H1391.2z"/>
</g>
<g class="st0">
	<path class="st1" d="M110.6,64.1v6.7c-3.5-0.8-5.6-1-7.6-1c-4.7,0-6.4,1.8-6.4,5.6v2h12.2V84H96.7v26h-7.8V84h-7.5v-6.7h7.5v-4.2
		c0-5.5,3.2-10.1,13.4-10.1C104.2,63.1,105.2,63.1,110.6,64.1z"/>
	<path class="st1" d="M151.7,93.1c0,11.6-7.6,18.1-19,18.1c-11.3,0-19-6.5-19-18.1c0-10.5,6.9-18,19-18
		C144.6,75,151.7,82.3,151.7,93.1z M132.7,104.5c6.9,0,11-4.5,11-11.5c0-7.2-4.5-11.2-11.1-11.2c-6.4,0-11,3.8-11,11.2
		C121.7,100,125.8,104.5,132.7,104.5z"/>
	<path class="st1" d="M180.5,75.2v8.4c-2.2-0.6-2.8-0.6-4.7-0.6c-6.7,0-10.1,3-10.1,8.9V110h-7.8V76.2h7.8v5h0.2
		c2.6-4.1,6.6-6.2,12-6.2C179.8,75,180.1,75,180.5,75.2z"/>
	<path class="st1" d="M242.1,86.8v18.1c0,1.6,0.1,3.9,0.6,5.1h-8c-0.3-1.1-0.4-2.1-0.4-3.4c-5.5,3.3-10.1,4.5-14.7,4.5
		c-6.4,0-13.2-3-13.2-10.2c0-4.7,2.7-7.9,8.3-10.3c4.5-1.9,11-3,19.7-3.4v-1.4c0-3-2.9-4.5-8.8-4.5c-5.1,0-8.3,1.3-9.1,4.5h-8.1
		c1.4-7.1,7.4-10.8,17.3-10.8C236,75,242.1,78.1,242.1,86.8z M220.6,105.1c4.5,0,8.6-1.3,13.7-4.4v-7.8c-4.5,0.2-10.6,1.1-14.3,2.3
		c-2.9,0.9-5,2.4-5,5.4C215,103.3,216.8,105.1,220.6,105.1z"/>
	<path class="st1" d="M284.2,88v22h-7.8V90.9c0-6.3-2-9.2-7.3-9.2c-4.5,0-7.8,1.3-10.6,5V110h-7.8V76.2h7.7v4.2
		c4-4,7.6-5.4,12.7-5.4C279.9,75,284.2,79.8,284.2,88z"/>
	<path class="st1" d="M326.2,86.8v18.1c0,1.6,0.1,3.9,0.6,5.1h-8c-0.3-1.1-0.4-2.1-0.4-3.4c-5.5,3.3-10.1,4.5-14.7,4.5
		c-6.4,0-13.2-3-13.2-10.2c0-4.7,2.7-7.9,8.3-10.3c4.5-1.9,11-3,19.7-3.4v-1.4c0-3-2.9-4.5-8.8-4.5c-5.1,0-8.3,1.3-9.1,4.5h-8.1
		c1.4-7.1,7.4-10.8,17.3-10.8C320,75,326.2,78.1,326.2,86.8z M304.7,105.1c4.5,0,8.6-1.3,13.7-4.4v-7.8c-4.5,0.2-10.6,1.1-14.3,2.3
		c-2.9,0.9-5,2.4-5,5.4C299,103.3,300.8,105.1,304.7,105.1z"/>
	<path class="st1" d="M370.3,95.3h-29.7c0.8,6.3,5.4,9.6,11.3,9.6c4,0,7.8-1.8,9.2-5h8.6c-1.8,6.4-8.5,11.3-17.6,11.3
		c-11.8,0-19.3-7.3-19.3-18.1c0-10.5,7.3-18,18.6-18C363,75,370.2,81.8,370.3,95.3z M362,89.2c-1.1-5.2-4.5-7.9-10.7-7.9
		c-5.7,0-9.2,2.8-10.4,7.9H362z"/>
	<path class="st1" d="M406.6,80.5c2.8-3.5,7-5.4,11.9-5.4c8.6,0,13,4.1,13,10.8V110h-7.8V89.3c0-5.2-2-7.6-6.7-7.6
		c-3.1,0-6.2,1.5-9.1,4.3v24h-7.8V89.3c0-5.2-2-7.6-6.7-7.6c-3.1,0-6.2,1.5-9.1,4.3v24h-7.8V76.2h7.7V80c4.3-4.2,7.8-5,11.5-5
		C400.6,75,404,76.7,406.6,80.5z"/>
	<path class="st1" d="M448.1,63.1V70h-7.8v-6.9H448.1z M448.1,76.2V110h-7.8V76.2H448.1z"/>
	<path class="st1" d="M490.7,86.8v18.1c0,1.6,0.1,3.9,0.6,5.1h-8c-0.3-1.1-0.4-2.1-0.4-3.4c-5.5,3.3-10.1,4.5-14.7,4.5
		c-6.4,0-13.2-3-13.2-10.2c0-4.7,2.7-7.9,8.3-10.3c4.5-1.9,11-3,19.7-3.4v-1.4c0-3-2.9-4.5-8.8-4.5c-5.1,0-8.3,1.3-9.1,4.5h-8.1
		c1.4-7.1,7.4-10.8,17.3-10.8C484.6,75,490.7,78.1,490.7,86.8z M469.2,105.1c4.5,0,8.6-1.3,13.7-4.4v-7.8
		c-4.5,0.2-10.6,1.1-14.3,2.3c-2.9,0.9-5,2.4-5,5.4C463.6,103.3,465.4,105.1,469.2,105.1z"/>
	<path class="st1" d="M557.7,93.1c0,11.6-7.6,18.1-19,18.1c-11.3,0-19-6.5-19-18.1c0-10.5,6.9-18,19-18
		C550.6,75,557.7,82.3,557.7,93.1z M538.7,104.5c6.9,0,11-4.5,11-11.5c0-7.2-4.5-11.2-11.1-11.2c-6.4,0-11,3.8-11,11.2
		C527.7,100,531.8,104.5,538.7,104.5z"/>
	<path class="st1" d="M590.1,64.1v6.7c-3.5-0.8-5.6-1-7.6-1c-4.7,0-6.4,1.8-6.4,5.6v2h12.2V84h-12.2v26h-7.8V84h-7.5v-6.7h7.5v-4.2
		c0-5.5,3.2-10.1,13.4-10.1C583.7,63.1,584.7,63.1,590.1,64.1z"/>
	<path class="st1" d="M666.8,78.8h-8.9c-2-5-7.8-8.1-14.7-8.1c-11.5,0-18,6-18,16.6c0,10,7.1,16.1,17.5,16.1
		c8.1,0,14.4-4.3,15.9-9.8h8.9c-2,11.3-10.9,17.5-25.6,17.5c-15.6,0-25.9-9.2-25.9-24.8c0-14.6,9.8-23.3,26.6-23.3
		C655.5,63.1,664,68.2,666.8,78.8z"/>
	<path class="st1" d="M684.3,64.2v21.4l25.4-21.4h12.7l-21.9,18.1l24.1,27.7h-11.7l-18.8-22.4l-9.8,8.1V110h-8.9V64.2H684.3z"/>
	<path class="st1" d="M753.6,64.2c16.1,0,26,7.6,26,22.6c0,14.9-10,23.2-25.3,23.2h-22.8V64.2H753.6z M749.6,102.3
		c14.6,0,21-4.5,21-15.4s-5.7-15.1-20.7-15.1h-9.6v30.4H749.6z"/>
</g>
<g class="st0">
	<path class="st1" d="M796.9,61.6V89h-4.6V68.5h-5.5v-3c3.4-0.4,5.6-1.6,7.4-3.8H796.9z"/>
</g>
<g class="st0">
	<path class="st1" d="M831.2,66.3v11H843V84h-11.8v15.6c0,3.1,1.8,4.9,5.4,4.9c1.9,0,5.3-0.5,6.7-0.9v6.9c-2.1,0.3-5.2,0.8-8.4,0.8
		c-8.5,0-11.6-3.3-11.6-9.6V84h-6v-6.7h6v-11H831.2z"/>
	<path class="st1" d="M856.8,64.2v16.2c3.5-3.8,7.5-5.4,12.5-5.4c8.9,0,13.2,4.8,13.2,13v22h-7.8V90.9c0-6.3-2.1-9.2-7.3-9.2
		c-4.5,0-7.7,1.3-10.6,5V110H849V64.2H856.8z"/>
	<path class="st1" d="M924.5,86.8v18.1c0,1.6,0.1,3.9,0.6,5.1h-8c-0.3-1.1-0.4-2.1-0.4-3.4c-5.5,3.3-10.1,4.5-14.7,4.5
		c-6.4,0-13.2-3-13.2-10.2c0-4.7,2.7-7.9,8.3-10.3c4.5-1.9,11-3,19.7-3.4v-1.4c0-3-2.9-4.5-8.8-4.5c-5.1,0-8.3,1.3-9.1,4.5h-8.1
		c1.4-7.1,7.4-10.8,17.3-10.8C918.3,75,924.5,78.1,924.5,86.8z M903,105.1c4.5,0,8.6-1.3,13.7-4.4v-7.8c-4.5,0.2-10.6,1.1-14.3,2.3
		c-2.9,0.9-5,2.4-5,5.4C897.4,103.3,899.2,105.1,903,105.1z"/>
	<path class="st1" d="M943.2,66.3v11H955V84h-11.8v15.6c0,3.1,1.8,4.9,5.4,4.9c1.9,0,5.3-0.5,6.7-0.9v6.9c-2.1,0.3-5.2,0.8-8.4,0.8
		c-8.5,0-11.6-3.3-11.6-9.6V84h-6v-6.7h6v-11H943.2z"/>
	<path class="st1" d="M1013.7,80.5c2.8-3.5,7-5.4,11.9-5.4c8.6,0,13,4.1,13,10.8V110h-7.8V89.3c0-5.2-2-7.6-6.7-7.6
		c-3.1,0-6.2,1.5-9.1,4.3v24h-7.8V89.3c0-5.2-2-7.6-6.7-7.6c-3.1,0-6.2,1.5-9.1,4.3v24h-7.8V76.2h7.7V80c4.3-4.2,7.8-5,11.5-5
		C1007.6,75,1011,76.7,1013.7,80.5z"/>
	<path class="st1" d="M1055.2,63.1V70h-7.8v-6.9H1055.2z M1055.2,76.2V110h-7.8V76.2H1055.2z"/>
	<path class="st1" d="M1094.2,80.5c2.8-3.5,7-5.4,11.9-5.4c8.6,0,13,4.1,13,10.8V110h-7.8V89.3c0-5.2-2-7.6-6.7-7.6
		c-3.1,0-6.2,1.5-9.1,4.3v24h-7.8V89.3c0-5.2-2-7.6-6.7-7.6c-3.1,0-6.2,1.5-9.1,4.3v24h-7.8V76.2h7.7V80c4.3-4.2,7.8-5,11.5-5
		C1088.1,75,1091.5,76.7,1094.2,80.5z"/>
	<path class="st1" d="M1135.7,63.1V70h-7.8v-6.9H1135.7z M1135.7,76.2V110h-7.8V76.2H1135.7z"/>
	<path class="st1" d="M1179.9,87.8h-7.8c-1.1-3.5-5-6.1-10-6.1c-6.8,0-11.6,4.9-11.6,10.9c0,7.1,4,11.8,11,11.8
		c5.5,0,9.8-2.6,10.8-6.6h8.2c-2,7.8-8.4,13.2-18.2,13.2c-12.3,0-19.7-6.7-19.7-18.9c0-9.5,7.6-17.2,19.3-17.2
		C1171.6,75,1178.8,79.9,1179.9,87.8z"/>
	<path class="st1" d="M1218.7,83l-6.5,3.6c-3-4.1-6.8-5.3-11-5.3c-4.9,0-7.6,1.7-7.6,4.1c0,2.1,1.9,2.9,6.6,3.5
		c11,1.4,19,2.8,19,11.2c0,7.2-5.9,11.1-16.8,11.1c-6.9,0-13.2-1.3-18.3-8.3l6.6-3.8c2.3,3.8,6.6,5.8,12.3,5.8
		c4.7,0,7.9-1.6,7.9-4.2c0-3-3.5-3-9.3-3.8c-7.2-1.1-16.3-2.3-16.3-11c0-5,4.3-10.8,15.9-10.8C1208.6,75,1214.9,77.7,1218.7,83z"/>
	<path class="st1" d="M1258.2,66.3v11h11.8V84h-11.8v15.6c0,3.1,1.8,4.9,5.4,4.9c1.9,0,5.3-0.5,6.7-0.9v6.9
		c-2.1,0.3-5.2,0.8-8.4,0.8c-8.5,0-11.6-3.3-11.6-9.6V84h-6v-6.7h6v-11H1258.2z"/>
	<path class="st1" d="M1283.7,64.2v16.2c3.5-3.8,7.5-5.4,12.5-5.4c8.9,0,13.2,4.8,13.2,13v22h-7.8V90.9c0-6.3-2.1-9.2-7.3-9.2
		c-4.5,0-7.8,1.3-10.6,5V110h-7.8V64.2H1283.7z"/>
	<path class="st1" d="M1353.5,95.3h-29.7c0.8,6.3,5.4,9.6,11.3,9.6c4,0,7.8-1.8,9.2-5h8.6c-1.8,6.4-8.5,11.3-17.6,11.3
		c-11.8,0-19.3-7.3-19.3-18.1c0-10.5,7.3-18,18.6-18C1346.2,75,1353.5,81.8,1353.5,95.3z M1345.2,89.2c-1.1-5.2-4.5-7.9-10.7-7.9
		c-5.7,0-9.2,2.8-10.4,7.9H1345.2z"/>
</g>
<g class="st0">
	<path class="st1" d="M108.9,126.2v15.5c5.4-4.2,9.3-4.7,13-4.7c11,0,18.1,7.4,18.1,17.8c0,11.1-7.9,18.3-17.8,18.3
		c-5.5,0-10-1.9-13.4-5.5v4.3h-7.7v-45.8H108.9z M108.9,161.5c4.5,3.7,7.7,4.9,11.5,4.9c6.7,0,11.7-4.4,11.7-11.3
		c0-7-5.2-11.4-12-11.4c-4,0-7.4,1.4-11.2,4.7V161.5z"/>
	<path class="st1" d="M182,155.1c0,11.6-7.6,18.1-19,18.1c-11.3,0-19-6.5-19-18.1c0-10.5,6.9-18,19-18
		C174.9,137,182,144.3,182,155.1z M163,166.5c6.9,0,11-4.5,11-11.5c0-7.2-4.5-11.2-11.1-11.2c-6.4,0-11,3.8-11,11.2
		C152,162,156.1,166.5,163,166.5z"/>
	<path class="st1" d="M224.9,126.2V172h-7.7v-4.3c-3.6,3.6-7.9,5.5-13.4,5.5c-10.1,0-17.8-7.4-17.8-18.3c0-10.5,7.2-17.8,18.1-17.8
		c3.8,0,7.5,0.5,13,4.7v-15.5H224.9z M205.6,166.5c3.8,0,6.9-1.1,11.5-5v-13.1c-3.9-3.4-7.2-4.7-11.3-4.7c-6.5,0-11.9,4.2-11.9,11.4
		C193.9,161.9,198.9,166.5,205.6,166.5z"/>
	<path class="st1" d="M238.9,138.2l11.5,24.7l11.5-24.7h8.6l-17.5,36.5c-3,6.2-7.6,8.9-14.2,8.9c-2.9,0-5.2-0.5-6.7-1v-6.7
		c2.9,0.7,3.1,0.8,4.9,0.8c5.4,0,8.5-2,8.5-5.3c0-1.5-0.3-3.1-1.4-5.4l-13.5-27.8H238.9z"/>
	<path class="st1" d="M284.4,126.2v9.3l-4,9.4h-4.2l3.4-9.7H276v-8.9H284.4z"/>
	<path class="st1" d="M322.9,145l-6.5,3.6c-3-4.1-6.8-5.3-11-5.3c-4.9,0-7.6,1.7-7.6,4.1c0,2.1,1.9,2.9,6.6,3.5
		c11,1.4,19,2.8,19,11.2c0,7.2-5.9,11.1-16.8,11.1c-6.9,0-13.2-1.3-18.3-8.3l6.6-3.8c2.3,3.8,6.6,5.8,12.3,5.8
		c4.7,0,7.9-1.6,7.9-4.2c0-3-3.5-3-9.3-3.8c-7.2-1.1-16.3-2.3-16.3-11c0-5,4.3-10.8,15.9-10.8C312.8,137,319.1,139.7,322.9,145z"/>
	<path class="st1" d="M385.7,150v22h-7.8v-19.1c0-6.3-2-9.2-7.3-9.2c-4.5,0-7.8,1.3-10.6,5V172h-7.8v-33.8h7.7v4.2
		c4-4,7.6-5.4,12.7-5.4C381.4,137,385.7,141.8,385.7,150z"/>
	<path class="st1" d="M427.7,148.8v18.1c0,1.6,0.1,3.9,0.6,5.1h-8c-0.3-1.1-0.4-2.1-0.4-3.4c-5.5,3.3-10.1,4.5-14.7,4.5
		c-6.4,0-13.2-3-13.2-10.2c0-4.7,2.7-7.9,8.3-10.3c4.5-1.9,11-3,19.7-3.4v-1.4c0-3-2.9-4.5-8.8-4.5c-5.1,0-8.3,1.3-9.1,4.5h-8.1
		c1.4-7.1,7.4-10.8,17.3-10.8C421.5,137,427.7,140.1,427.7,148.8z M406.2,167.1c4.5,0,8.6-1.3,13.7-4.4v-7.8
		c-4.5,0.2-10.6,1.1-14.3,2.3c-2.9,0.9-5,2.4-5,5.4C400.5,165.3,402.3,167.1,406.2,167.1z"/>
	<path class="st1" d="M446.4,128.3v11h11.8v6.7h-11.8v15.6c0,3.1,1.8,4.9,5.4,4.9c1.9,0,5.3-0.5,6.7-0.9v6.9
		c-2.1,0.3-5.2,0.8-8.4,0.8c-8.5,0-11.6-3.3-11.6-9.6V146h-6v-6.7h6v-11H446.4z"/>
	<path class="st1" d="M472,138.2v19.1c0,6.3,2.1,9.2,7.3,9.2c4.5,0,7.8-1.3,10.6-5v-23.3h7.8V172H490v-4.2
		c-3.7,3.9-7.6,5.4-12.7,5.4c-8.9,0-13.2-4.9-13.2-13v-22H472z"/>
	<path class="st1" d="M528.8,137.2v8.4c-2.2-0.6-2.8-0.6-4.7-0.6c-6.7,0-10.1,3-10.1,8.9V172h-7.8v-33.8h7.8v5h0.2
		c2.6-4.1,6.6-6.2,12-6.2C528,137,528.3,137,528.8,137.2z"/>
	<path class="st1" d="M567.7,148.8v18.1c0,1.6,0.1,3.9,0.6,5.1h-8c-0.3-1.1-0.4-2.1-0.4-3.4c-5.5,3.3-10.1,4.5-14.7,4.5
		c-6.4,0-13.2-3-13.2-10.2c0-4.7,2.7-7.9,8.3-10.3c4.5-1.9,11-3,19.7-3.4v-1.4c0-3-2.9-4.5-8.8-4.5c-5.1,0-8.3,1.3-9.1,4.5h-8.1
		c1.4-7.1,7.4-10.8,17.3-10.8C561.5,137,567.7,140.1,567.7,148.8z M546.2,167.1c4.5,0,8.6-1.3,13.7-4.4v-7.8
		c-4.5,0.2-10.6,1.1-14.3,2.3c-2.9,0.9-5,2.4-5,5.4C540.5,165.3,542.3,167.1,546.2,167.1z"/>
	<path class="st1" d="M584.6,126.2V172h-7.8v-45.8H584.6z"/>
	<path class="st1" d="M639,137.2v8.4c-2.2-0.6-2.8-0.6-4.7-0.6c-6.7,0-10.1,3-10.1,8.9V172h-7.8v-33.8h7.8v5h0.2
		c2.6-4.1,6.6-6.2,12-6.2C638.3,137,638.6,137,639,137.2z"/>
	<path class="st1" d="M680,157.3h-29.7c0.8,6.3,5.4,9.6,11.3,9.6c4,0,7.8-1.8,9.2-5h8.6c-1.8,6.4-8.5,11.3-17.6,11.3
		c-11.8,0-19.3-7.3-19.3-18.1c0-10.5,7.3-18,18.6-18C672.7,137,679.9,143.8,680,157.3z M671.7,151.2c-1.1-5.2-4.5-7.9-10.7-7.9
		c-5.7,0-9.2,2.8-10.4,7.9H671.7z"/>
	<path class="st1" d="M718.4,145l-6.5,3.6c-3-4.1-6.8-5.3-11-5.3c-4.9,0-7.6,1.7-7.6,4.1c0,2.1,1.9,2.9,6.6,3.5
		c11,1.4,19,2.8,19,11.2c0,7.2-5.9,11.1-16.8,11.1c-6.9,0-13.2-1.3-18.3-8.3l6.6-3.8c2.3,3.8,6.6,5.8,12.3,5.8
		c4.7,0,7.9-1.6,7.9-4.2c0-3-3.5-3-9.3-3.8c-7.2-1.1-16.3-2.3-16.3-11c0-5,4.3-10.8,15.9-10.8C708.3,137,714.6,139.7,718.4,145z"/>
	<path class="st1" d="M764.1,154.9c0,10.8-7.7,18.3-17.8,18.3c-4.3,0-7.5-0.4-13.3-4.7v15.1h-7.8v-45.4h7.7v4.3
		c3.8-3.8,8-5.5,13.1-5.5C757.1,137,764.1,144.6,764.1,154.9z M733,161.5c4.5,3.7,7.4,4.9,11.5,4.9c6.7,0,11.7-4.5,11.7-11.3
		c0-6.9-5.2-11.4-12-11.4c-4,0-7.4,1.4-11.2,4.7V161.5z"/>
	<path class="st1" d="M806.1,155.1c0,11.6-7.6,18.1-19,18.1c-11.3,0-19-6.5-19-18.1c0-10.5,6.9-18,19-18
		C799,137,806.1,144.3,806.1,155.1z M787.1,166.5c6.9,0,11-4.5,11-11.5c0-7.2-4.5-11.2-11.1-11.2c-6.4,0-11,3.8-11,11.2
		C776.1,162,780.2,166.5,787.1,166.5z"/>
	<path class="st1" d="M845.9,150v22h-7.8v-19.1c0-6.3-2-9.2-7.3-9.2c-4.5,0-7.8,1.3-10.6,5V172h-7.8v-33.8h7.7v4.2
		c4-4,7.6-5.4,12.7-5.4C841.6,137,845.9,141.8,845.9,150z"/>
	<path class="st1" d="M886.4,145l-6.5,3.6c-3-4.1-6.8-5.3-11-5.3c-4.9,0-7.6,1.7-7.6,4.1c0,2.1,1.9,2.9,6.6,3.5
		c11,1.4,19,2.8,19,11.2c0,7.2-5.9,11.1-16.8,11.1c-6.9,0-13.2-1.3-18.3-8.3l6.6-3.8c2.3,3.8,6.6,5.8,12.3,5.8
		c4.7,0,7.9-1.6,7.9-4.2c0-3-3.5-3-9.3-3.8c-7.2-1.1-16.3-2.3-16.3-11c0-5,4.3-10.8,15.9-10.8C876.2,137,882.5,139.7,886.4,145z"/>
	<path class="st1" d="M928.4,157.3h-29.7c0.8,6.3,5.4,9.6,11.3,9.6c4,0,7.8-1.8,9.2-5h8.6c-1.8,6.4-8.5,11.3-17.6,11.3
		c-11.8,0-19.3-7.3-19.3-18.1c0-10.5,7.3-18,18.6-18C921.1,137,928.4,143.8,928.4,157.3z M920.1,151.2c-1.1-5.2-4.5-7.9-10.7-7.9
		c-5.7,0-9.2,2.8-10.4,7.9H920.1z"/>
	<path class="st1" d="M967.8,128.3v11h11.8v6.7h-11.8v15.6c0,3.1,1.8,4.9,5.4,4.9c1.9,0,5.3-0.5,6.7-0.9v6.9
		c-2.1,0.3-5.2,0.8-8.4,0.8c-8.5,0-11.6-3.3-11.6-9.6V146h-6v-6.7h6v-11H967.8z"/>
	<path class="st1" d="M1021.3,155.1c0,11.6-7.6,18.1-19,18.1c-11.3,0-19-6.5-19-18.1c0-10.5,6.9-18,19-18
		C1014.3,137,1021.3,144.3,1021.3,155.1z M1002.3,166.5c6.9,0,11-4.5,11-11.5c0-7.2-4.5-11.2-11.1-11.2c-6.4,0-11,3.8-11,11.2
		C991.3,162,995.4,166.5,1002.3,166.5z"/>
	<path class="st1" d="M1058.1,126.2v16.2c3.5-3.8,7.5-5.4,12.5-5.4c8.9,0,13.2,4.8,13.2,13v22h-7.8v-19.1c0-6.3-2.1-9.2-7.3-9.2
		c-4.5,0-7.8,1.3-10.6,5V172h-7.8v-45.8H1058.1z"/>
	<path class="st1" d="M1097.5,138.2l11.5,24.7l11.5-24.7h8.6l-17.5,36.5c-3,6.2-7.6,8.9-14.2,8.9c-2.9,0-5.2-0.5-6.7-1v-6.7
		c2.9,0.7,3.1,0.8,4.9,0.8c5.4,0,8.5-2,8.5-5.3c0-1.5-0.3-3.1-1.4-5.4l-13.5-27.8H1097.5z"/>
	<path class="st1" d="M1173.6,154.9c0,10.8-7.7,18.3-17.8,18.3c-4.3,0-7.5-0.4-13.3-4.7v15.1h-7.8v-45.4h7.7v4.3
		c3.8-3.8,8-5.5,13.1-5.5C1166.5,137,1173.6,144.6,1173.6,154.9z M1142.5,161.5c4.5,3.7,7.4,4.9,11.5,4.9c6.7,0,11.7-4.5,11.7-11.3
		c0-6.9-5.2-11.4-12-11.4c-4,0-7.4,1.4-11.2,4.7V161.5z"/>
	<path class="st1" d="M1215.5,155.1c0,11.6-7.6,18.1-19,18.1c-11.3,0-19-6.5-19-18.1c0-10.5,6.9-18,19-18
		C1208.5,137,1215.5,144.3,1215.5,155.1z M1196.6,166.5c6.9,0,11-4.5,11-11.5c0-7.2-4.5-11.2-11.1-11.2c-6.4,0-11,3.8-11,11.2
		C1185.5,162,1189.6,166.5,1196.6,166.5z"/>
	<path class="st1" d="M1228.1,138.2l8.6,11l8.6-11h9.9l-13.7,16.5L1256,172h-9.8l-9.5-11.7l-9.3,11.7h-9.8l14.4-17.3l-13.8-16.5
		H1228.1z"/>
	<path class="st1" d="M1268.7,125.1v6.9h-7.8v-6.9H1268.7z M1268.7,138.2V172h-7.8v-33.8H1268.7z"/>
	<path class="st1" d="M1311.3,148.8v18.1c0,1.6,0.1,3.9,0.6,5.1h-8c-0.3-1.1-0.4-2.1-0.4-3.4c-5.5,3.3-10.1,4.5-14.7,4.5
		c-6.4,0-13.2-3-13.2-10.2c0-4.7,2.7-7.9,8.3-10.3c4.5-1.9,11-3,19.7-3.4v-1.4c0-3-2.9-4.5-8.8-4.5c-5.1,0-8.3,1.3-9.1,4.5h-8.1
		c1.4-7.1,7.4-10.8,17.3-10.8C1305.1,137,1311.3,140.1,1311.3,148.8z M1289.8,167.1c4.5,0,8.6-1.3,13.7-4.4v-7.8
		c-4.5,0.2-10.6,1.1-14.3,2.3c-2.9,0.9-5,2.4-5,5.4C1284.1,165.3,1286,167.1,1289.8,167.1z"/>
</g>
<g class="st0">
	<path class="st1" d="M1342.8,132.7c0,3.7-2.1,6.6-6.5,9.1l-8.4,4.8v0.1h14.6v4.3h-23.7v-3.7l13.6-8.2c2.4-1.5,5.6-3.3,5.6-6.5
		c0-3-2.2-4.8-6.9-4.8c-3.8,0-6.2,1.7-7.1,5.2h-4.9c0.1-5.1,4.6-9.4,11.9-9.4C1338.6,123.6,1342.8,126.8,1342.8,132.7z"/>
</g>
</svg>
