<?xml version="1.0" encoding="utf-8"?>
<!-- Generator: Adobe Illustrator 26.3.1, SVG Export Plug-In . SVG Version: 6.00 Build 0)  -->
<svg version="1.1" id="Layer_1" xmlns="http://www.w3.org/2000/svg" xmlns:xlink="http://www.w3.org/1999/xlink" x="0px" y="0px"
	 viewBox="0 0 799 232" style="enable-background:new 0 0 799 232;" xml:space="preserve">
<style type="text/css">
	.st0{enable-background:new    ;}
	.st1{fill:#4D4D4F;}
</style>
<g id="Group_16739" transform="translate(-645 -206)">
	<g class="st0">
		<path class="st1" d="M753.9,254.1v3.4h-9.9v5h7.2v3.4h-7.2v5.9h10.2v3.4H740v-20.9H753.9z"/>
		<path class="st1" d="M759.6,254.1l3.7,15.4h0.1l3.9-15.4h3.9l-5.5,20.9h-4.5l-5.5-20.9H759.6z"/>
		<path class="st1" d="M782.2,254.1c4,0,6.6,2.2,6.6,6.3c0,2.6-1.4,4.6-3.8,5.3l4.6,9.3h-4.4l-3.9-8.5h-3.5v8.5h-4v-20.9H782.2z
			 M780.8,263.2c2.6,0,3.9-0.7,3.9-3c0-2.1-1.3-3-3.4-3h-3.7v5.9H780.8z"/>
		<path class="st1" d="M807.1,254.1v3.4h-9.9v5h7.2v3.4h-7.2v5.9h10.2v3.4h-14.2v-20.9H807.1z"/>
		<path class="st1" d="M815,254.1l8.2,14.3h0.1v-14.3h3.8V275h-3.9l-8.6-14.9h-0.1V275h-3.8v-20.9H815z"/>
		<path class="st1" d="M844.7,254.1v3.2l-10.1,14.4h10.2v3.4h-14.9v-3.4l9.8-14.2h-9.1v-3.4H844.7z"/>
		<path class="st1" d="M864,264.5c0,6.9-3.1,10.8-8.8,10.8s-8.8-3.9-8.8-10.8c0-6.9,3.1-10.8,8.8-10.8S864,257.7,864,264.5z
			 M855.2,271.9c3.2,0,4.8-2.4,4.8-7.4c0-4.9-1.5-7.4-4.8-7.4c-3.1,0-4.8,2.3-4.8,7.6C850.5,269.6,852,271.9,855.2,271.9z"/>
		<path class="st1" d="M882.7,253.8c-2.8,3.6-4.2,7.5-4.2,11.8c0,4.4,1.4,8.2,4.2,11.8h-3.5c-3.1-4.8-3.9-7.9-3.9-11.8
			c0-4,0.8-7,3.9-11.8H882.7z"/>
		<path class="st1" d="M892.6,263.4c-0.1,0-0.2,0-0.7,0c-1.7,0-3.3,1.9-3.3,2.5v9.1H885v-15.1h3.3v2.6h0.1c0.9-1.8,2.1-2.8,4.2-2.9
			V263.4z"/>
		<path class="st1" d="M906.9,267.5c0,4.8-2.5,7.8-6.6,7.8c-4.1,0-6.6-3-6.6-7.8c0-4.9,2.5-7.8,6.6-7.8S906.9,262.6,906.9,267.5z
			 M900.3,272.4c2,0,3-1.5,3-4.9c0-3.3-1-4.9-3-4.9c-2.1,0-3,1.7-3,4.9C897.4,270.9,898.4,272.4,900.3,272.4z"/>
		<path class="st1" d="M911.8,259.9l2.1,4.2l2.1-4.2h3.9l-4.2,7.3l4.6,7.8h-3.8l-2.5-4.7l-2.4,4.7h-3.9l4.4-7.8l-4.3-7.3H911.8z"/>
		<path class="st1" d="M933.2,265.6v7.4c0,0.5,0,1.4,0.3,2.1H930l-0.2-1.3c-1.5,1.1-3,1.6-4.7,1.6c-2.6,0-4.1-1.7-4.1-4
			c0-3.4,2.8-5.2,8.6-5.9v-1.3c0-1.2-0.9-1.8-2.2-1.8c-1.2,0-2.3,0.6-3.3,1.9l-2.3-1.8c1-1.6,3.2-2.8,5.5-2.8
			C931.6,259.6,933.2,261.4,933.2,265.6z M926.3,272.6c0.9,0,2.3-0.7,3.3-1.6v-3.2c-4.1,0.7-5,1.7-5,3.1
			C924.6,272,925.3,272.6,926.3,272.6z"/>
		<path class="st1" d="M949.2,254.1V275h-3l-0.2-1.6c-1.3,1.2-2.5,1.9-4.1,1.9c-3.9,0-6-3.3-6-8.2c0-3.9,2.3-7.5,6-7.5
			c1.3,0,2.9,0.7,3.7,1.7h0.1v-7.3H949.2z M942.8,272.4c1.3,0,2.2-0.7,2.8-1.3v-7.3c-0.8-0.7-1.6-1.3-2.8-1.3
			c-2.1,0-3.3,1.7-3.3,4.9S940.7,272.4,942.8,272.4z"/>
		<path class="st1" d="M956.5,259.9v9.9c0,1.7,0.4,2.6,1.9,2.6c1.2,0,2.4-0.6,3.4-1.6v-10.9h3.6V275H962v-1.6
			c-1.8,1.3-3.3,1.9-4.7,1.9c-2.9,0-4.4-1.9-4.4-4.9v-10.4H956.5z"/>
		<path class="st1" d="M978.7,261.9l-2.3,2c-1-1.1-1.9-1.6-2.8-1.6c-1.4,0-2,0.6-2,1.5c0,0.8,0.8,1.4,2.7,2c3.7,1.2,4.8,2.7,4.8,5
			c0,2.9-2.1,4.5-5.5,4.5c-2.4,0-4.4-1-5.7-3l2.4-1.8c1.1,1.5,2.2,2.2,3.5,2.2s2.1-0.7,2.1-1.7c0-0.9-0.9-1.4-2.8-2.1
			c-3.6-1.2-4.8-2.7-4.8-4.8c0-2.7,2.3-4.4,5-4.4C975.4,259.6,977.4,260.4,978.7,261.9z"/>
		<path class="st1" d="M986.1,254.9v5h3v2.9h-3v8.6c0,0.7,0.3,1,1.3,1c0.6,0,1.2-0.2,1.7-0.3v3c-1,0.1-1.8,0.2-2.8,0.2
			c-2.6,0-3.7-1.2-3.7-3.5v-9h-2.1v-2.9h2.1v-5H986.1z"/>
		<path class="st1" d="M1002.5,265.6v7.4c0,0.5,0,1.4,0.3,2.1h-3.5l-0.2-1.3c-1.5,1.1-3,1.6-4.7,1.6c-2.6,0-4.1-1.7-4.1-4
			c0-3.4,2.8-5.2,8.6-5.9v-1.3c0-1.2-0.9-1.8-2.2-1.8c-1.2,0-2.3,0.6-3.3,1.9l-2.3-1.8c1-1.6,3.2-2.8,5.5-2.8
			C1000.8,259.6,1002.5,261.4,1002.5,265.6z M995.6,272.6c0.9,0,2.3-0.7,3.3-1.6v-3.2c-4.1,0.7-5,1.7-5,3.1
			C993.9,272,994.6,272.6,995.6,272.6z"/>
		<path class="st1" d="M1010.3,254.9v5h3v2.9h-3v8.6c0,0.7,0.3,1,1.3,1c0.6,0,1.2-0.2,1.7-0.3v3c-1,0.1-1.8,0.2-2.8,0.2
			c-2.6,0-3.7-1.2-3.7-3.5v-9h-2.1v-2.9h2.1v-5H1010.3z"/>
		<path class="st1" d="M1018.2,253.8c3.1,4.8,3.9,7.8,3.9,11.8c0,4-0.8,7-3.9,11.8h-3.5c2.8-3.6,4.2-7.4,4.2-11.8
			c0-4.4-1.4-8.2-4.2-11.8H1018.2z"/>
		<path class="st1" d="M1039.2,254.1V275h-4v-20.9H1039.2z"/>
		<path class="st1" d="M1057.9,258.5l-3.7,1.1c-0.7-1.8-2-2.7-3.7-2.7c-1.9,0-3,0.8-3,2.3c0,1.5,2,2.3,4.4,3.2
			c5.2,1.9,6.4,3.9,6.4,6.4c0,4.2-2.6,6.4-7.3,6.4c-3.5,0-6.7-2-7.9-5l3.3-1.5c1.1,2.3,2.5,3.3,4.6,3.3c2.3,0,3.5-1,3.5-2.8
			s-1.8-2.6-5.2-3.9c-3.2-1.2-5.6-2.8-5.6-5.8c0-3.5,2.9-5.9,6.8-5.9C1053.9,253.8,1056.6,255.5,1057.9,258.5z"/>
		<path class="st1" d="M1075.1,254.1l8.2,14.3h0.1v-14.3h3.8V275h-3.9l-8.6-14.9h-0.1V275h-3.8v-20.9H1075.1z"/>
		<path class="st1" d="M1108,264.5c0,6.9-3.1,10.8-8.8,10.8s-8.8-3.9-8.8-10.8c0-6.9,3.1-10.8,8.8-10.8S1108,257.7,1108,264.5z
			 M1099.2,271.9c3.2,0,4.8-2.4,4.8-7.4c0-4.9-1.5-7.4-4.8-7.4c-3.1,0-4.8,2.3-4.8,7.6C1094.4,269.6,1095.9,271.9,1099.2,271.9z"/>
		<path class="st1" d="M1124.4,254v3.4h-5.5V275h-4v-17.6h-5.5V254H1124.4z"/>
		<path class="st1" d="M1145.3,254l5.9,21h-4l-1.2-4.5h-6.6l-1.2,4.5h-4l6-21H1145.3z M1142.8,258.1l-2.5,9.1h4.9L1142.8,258.1
			L1142.8,258.1z"/>
		<path class="st1" d="M1161.3,254.1c4.6,0,7.3,2.1,7.3,6.2c0,4.1-2.6,6.2-7.3,6.2h-3.8v8.5h-4v-20.9H1161.3z M1160.9,263.3
			c2.4,0,3.7-0.8,3.7-3c0-2.2-1.3-3-3.7-3h-3.3v6H1160.9z"/>
		<path class="st1" d="M1179,254.1c4.6,0,7.3,2.1,7.3,6.2c0,4.1-2.6,6.2-7.3,6.2h-3.8v8.5h-4v-20.9H1179z M1178.6,263.3
			c2.4,0,3.7-0.8,3.7-3c0-2.2-1.3-3-3.7-3h-3.3v6H1178.6z"/>
		<path class="st1" d="M1197.8,254.1c4,0,6.6,2.2,6.6,6.3c0,2.6-1.4,4.6-3.8,5.3l4.6,9.3h-4.4l-3.9-8.5h-3.5v8.5h-4v-20.9H1197.8z
			 M1196.4,263.2c2.6,0,3.9-0.7,3.9-3c0-2.1-1.3-3-3.4-3h-3.7v5.9H1196.4z"/>
		<path class="st1" d="M1224.8,264.5c0,6.9-3.1,10.8-8.8,10.8s-8.8-3.9-8.8-10.8c0-6.9,3.1-10.8,8.8-10.8S1224.8,257.7,1224.8,264.5
			z M1216,271.9c3.2,0,4.8-2.4,4.8-7.4c0-4.9-1.5-7.4-4.8-7.4c-3.1,0-4.8,2.3-4.8,7.6C1211.2,269.6,1212.7,271.9,1216,271.9z"/>
		<path class="st1" d="M1229.9,254.1l3.7,15.4h0.1l3.9-15.4h3.9L1236,275h-4.5l-5.5-20.9H1229.9z"/>
		<path class="st1" d="M1258.1,254.1v3.4h-9.9v5h7.2v3.4h-7.2v5.9h10.2v3.4h-14.2v-20.9H1258.1z"/>
		<path class="st1" d="M1268.8,254.1c5.9,0,9.3,3.6,9.3,10.5c0,6.8-3.4,10.5-9.3,10.5h-7v-20.9H1268.8z M1268.6,271.6
			c3.5,0,5.6-2.1,5.6-7.1c0-5-2-7.1-5.6-7.1h-2.7v14.2H1268.6z"/>
		<path class="st1" d="M1303.3,254.1v3.4h-9.3v5h7v3.4h-7v9.2h-4v-20.9H1303.3z"/>
		<path class="st1" d="M1322.3,264.5c0,6.9-3.1,10.8-8.8,10.8s-8.8-3.9-8.8-10.8c0-6.9,3.1-10.8,8.8-10.8S1322.3,257.7,1322.3,264.5
			z M1313.5,271.9c3.2,0,4.8-2.4,4.8-7.4c0-4.9-1.5-7.4-4.8-7.4c-3.1,0-4.8,2.3-4.8,7.6C1308.7,269.6,1310.2,271.9,1313.5,271.9z"/>
		<path class="st1" d="M1333.9,254.1c4,0,6.6,2.2,6.6,6.3c0,2.6-1.4,4.6-3.8,5.3l4.6,9.3h-4.4l-3.9-8.5h-3.5v8.5h-4v-20.9H1333.9z
			 M1332.6,263.2c2.6,0,3.9-0.7,3.9-3c0-2.1-1.3-3-3.4-3h-3.7v5.9H1332.6z"/>
	</g>
	<g class="st0">
		<path class="st1" d="M855.6,284.1v13.4c0,3,1.1,4.5,4,4.5c3,0,4-1.5,4-4.5v-13.3h4v13.3c0,5.1-2.9,8-8,8c-5.3,0-8-3-8-8v-13.2
			H855.6z"/>
		<path class="st1" d="M885.9,288.5l-3.7,1.1c-0.7-1.8-2-2.7-3.7-2.7c-1.9,0-3,0.8-3,2.3c0,1.5,2,2.3,4.4,3.2
			c5.2,1.9,6.4,3.9,6.4,6.4c0,4.2-2.6,6.4-7.3,6.4c-3.5,0-6.7-2-7.9-5l3.3-1.5c1.1,2.3,2.5,3.3,4.6,3.3c2.3,0,3.5-1,3.5-2.8
			s-1.8-2.6-5.2-3.9c-3.2-1.2-5.6-2.8-5.6-5.8c0-3.5,2.9-5.9,6.8-5.9C881.9,283.8,884.7,285.5,885.9,288.5z"/>
		<path class="st1" d="M904.1,284.1v3.4h-9.9v5h7.2v3.4h-7.2v5.9h10.2v3.4h-14.2v-20.9H904.1z"/>
		<path class="st1" d="M921.2,284.1V305h-4v-20.9H921.2z"/>
		<path class="st1" d="M930.6,284.1l8.2,14.3h0.1v-14.3h3.8V305h-3.9l-8.6-14.9h-0.1V305h-3.8v-20.9H930.6z"/>
		<path class="st1" d="M969.4,284v3.4h-5.5V305h-4v-17.6h-5.5V284H969.4z"/>
		<path class="st1" d="M976.4,284.1v8.4h8.1v-8.4h4V305h-4v-9h-8.1v9h-4v-20.9H976.4z"/>
		<path class="st1" d="M1007.2,284.1v3.4h-9.9v5h7.2v3.4h-7.2v5.9h10.2v3.4h-14.2v-20.9H1007.2z"/>
		<path class="st1" d="M1023.9,284.1v13.4c0,3,1.1,4.5,4,4.5c3,0,4-1.5,4-4.5v-13.3h4v13.3c0,5.1-2.9,8-8,8c-5.2,0-8-3-8-8v-13.2
			H1023.9z"/>
		<path class="st1" d="M1044.9,284.1l8.2,14.3h0.1v-14.3h3.8V305h-3.9l-8.6-14.9h-0.1V305h-3.8v-20.9H1044.9z"/>
		<path class="st1" d="M1066.2,284.1V305h-4v-20.9H1066.2z"/>
		<path class="st1" d="M1084.6,284v3.4h-5.5V305h-4v-17.6h-5.5V284H1084.6z"/>
		<path class="st1" d="M1101.4,284.1v3.4h-9.9v5h7.2v3.4h-7.2v5.9h10.2v3.4h-14.2v-20.9H1101.4z"/>
		<path class="st1" d="M1112.1,284.1c5.9,0,9.3,3.6,9.3,10.5c0,6.8-3.4,10.5-9.3,10.5h-7v-20.9H1112.1z M1111.9,301.6
			c3.5,0,5.6-2.1,5.6-7.1c0-5-2-7.1-5.6-7.1h-2.7v14.2H1111.9z"/>
		<path class="st1" d="M1146.8,288.5l-3.7,1.1c-0.7-1.8-2-2.7-3.7-2.7c-1.9,0-3,0.8-3,2.3c0,1.5,2,2.3,4.4,3.2
			c5.2,1.9,6.4,3.9,6.4,6.4c0,4.2-2.6,6.4-7.3,6.4c-3.5,0-6.7-2-7.9-5l3.3-1.5c1.1,2.3,2.5,3.3,4.6,3.3c2.3,0,3.5-1,3.5-2.8
			s-1.8-2.6-5.2-3.9c-3.2-1.2-5.6-2.8-5.6-5.8c0-3.5,2.9-5.9,6.8-5.9C1142.8,283.8,1145.6,285.5,1146.8,288.5z"/>
		<path class="st1" d="M1164.3,284v3.4h-5.5V305h-4v-17.6h-5.5V284H1164.3z"/>
		<path class="st1" d="M1174.7,284l5.9,21h-4l-1.2-4.5h-6.6l-1.2,4.5h-4l6-21H1174.7z M1172.2,288.1l-2.5,9.1h4.9L1172.2,288.1
			L1172.2,288.1z"/>
		<path class="st1" d="M1195,284v3.4h-5.5V305h-4v-17.6h-5.5V284H1195z"/>
		<path class="st1" d="M1211.8,284.1v3.4h-9.9v5h7.2v3.4h-7.2v5.9h10.2v3.4H1198v-20.9H1211.8z"/>
		<path class="st1" d="M1229.1,288.5l-3.7,1.1c-0.7-1.8-2-2.7-3.7-2.7c-1.9,0-3,0.8-3,2.3c0,1.5,2,2.3,4.4,3.2
			c5.2,1.9,6.4,3.9,6.4,6.4c0,4.2-2.6,6.4-7.3,6.4c-3.5,0-6.7-2-7.9-5l3.3-1.5c1.1,2.3,2.5,3.3,4.6,3.3c2.3,0,3.5-1,3.5-2.8
			s-1.8-2.6-5.2-3.9c-3.2-1.2-5.6-2.8-5.6-5.8c0-3.5,2.9-5.9,6.8-5.9C1225.1,283.8,1227.8,285.5,1229.1,288.5z"/>
	</g>
	<g class="st0">
		<path class="st1" d="M703.6,207v3.4h-5.5V228h-4v-17.6h-5.5V207H703.6z"/>
		<path class="st1" d="M709.6,207.1v7.5c1.5-1.3,2.9-1.9,4.4-1.9c2.9,0,4.5,1.9,4.5,4.9V228h-3.6v-9.9c0-1.7-0.5-2.6-1.9-2.6
			c-1.2,0-2.5,0.6-3.4,1.6V228H706v-20.9H709.6z"/>
		<path class="st1" d="M726.1,206.8v3.4h-3.6v-3.4H726.1z M726.1,212.9V228h-3.6v-15.1H726.1z"/>
		<path class="st1" d="M739.8,214.9l-2.3,2c-1-1.1-1.9-1.6-2.8-1.6c-1.4,0-2,0.6-2,1.5c0,0.8,0.8,1.4,2.7,2c3.7,1.2,4.8,2.7,4.8,5
			c0,2.9-2.1,4.5-5.5,4.5c-2.4,0-4.4-1-5.7-3l2.4-1.8c1.1,1.5,2.2,2.2,3.5,2.2s2.1-0.7,2.1-1.7c0-0.9-0.9-1.4-2.8-2.1
			c-3.6-1.2-4.8-2.7-4.8-4.8c0-2.7,2.3-4.4,5-4.4C736.6,212.6,738.5,213.4,739.8,214.9z"/>
		<path class="st1" d="M755.9,206.8v3.4h-3.6v-3.4H755.9z M755.9,212.9V228h-3.6v-15.1H755.9z"/>
		<path class="st1" d="M772.4,217.6V228h-3.6v-9.9c0-1.7-0.5-2.6-1.9-2.6c-1.2,0-2.5,0.6-3.4,1.6V228H760v-15.1h3.3v1.6
			c1.8-1.3,3.2-1.9,4.6-1.9C770.9,212.6,772.4,214.6,772.4,217.6z"/>
		<path class="st1" d="M783.3,206.8v2.9h-0.9c-2,0-2.1,0.7-2.1,1.8v1.5h3v2.9h-3V228h-3.6v-12.2h-2.1v-2.9h2.1v-2
			c0-3,1.2-4.2,4.1-4.2H783.3z"/>
		<path class="st1" d="M797.7,220.5c0,4.8-2.5,7.8-6.6,7.8c-4.1,0-6.6-3-6.6-7.8c0-4.9,2.5-7.8,6.6-7.8S797.7,215.6,797.7,220.5z
			 M791.2,225.4c2,0,3-1.5,3-4.9c0-3.3-1-4.9-3-4.9c-2.1,0-3,1.7-3,4.9C788.2,223.9,789.2,225.4,791.2,225.4z"/>
		<path class="st1" d="M807.6,216.4c-0.1,0-0.2,0-0.7,0c-1.7,0-3.3,1.9-3.3,2.5v9.1H800v-15.1h3.3v2.6h0.1c0.9-1.8,2.1-2.8,4.2-2.9
			V216.4z"/>
		<path class="st1" d="M821.5,214.8c1.6-1.6,3.2-2.2,5.2-2.2c2.3,0,3.7,1.7,3.7,4.4v11h-3.6v-10.6c0-1.2-0.7-1.9-1.8-1.9
			c-0.8,0-1.9,0.7-3,1.6V228h-3.6v-10.6c0-1.2-0.7-1.9-1.8-1.9c-0.8,0-1.9,0.7-3,1.6V228h-3.6v-15.1h3.3v1.6
			c1.5-1.4,2.6-1.9,4.5-1.9C819.4,212.6,820.8,213.4,821.5,214.8z"/>
		<path class="st1" d="M845,218.6v7.4c0,0.5,0,1.4,0.3,2.1h-3.5l-0.2-1.3c-1.5,1.1-3,1.6-4.7,1.6c-2.6,0-4.1-1.7-4.1-4
			c0-3.4,2.8-5.2,8.6-5.9v-1.3c0-1.2-0.9-1.8-2.2-1.8c-1.2,0-2.3,0.6-3.3,1.9l-2.3-1.8c1-1.6,3.2-2.8,5.5-2.8
			C843.3,212.6,845,214.4,845,218.6z M838.1,225.6c0.9,0,2.3-0.7,3.3-1.6v-3.2c-4.1,0.7-5,1.7-5,3.1
			C836.4,225,837.1,225.6,838.1,225.6z"/>
		<path class="st1" d="M852.8,207.9v5h3v2.9h-3v8.6c0,0.7,0.3,1,1.3,1c0.6,0,1.2-0.2,1.7-0.3v3c-1,0.1-1.8,0.2-2.8,0.2
			c-2.6,0-3.7-1.2-3.7-3.5v-9h-2.1v-2.9h2.1v-5H852.8z"/>
		<path class="st1" d="M862.2,206.8v3.4h-3.6v-3.4H862.2z M862.2,212.9V228h-3.6v-15.1H862.2z"/>
		<path class="st1" d="M878.3,220.5c0,4.8-2.5,7.8-6.6,7.8c-4.1,0-6.6-3-6.6-7.8c0-4.9,2.5-7.8,6.6-7.8S878.3,215.6,878.3,220.5z
			 M871.7,225.4c2,0,3-1.5,3-4.9c0-3.3-1-4.9-3-4.9c-2.1,0-3,1.7-3,4.9C868.7,223.9,869.7,225.4,871.7,225.4z"/>
		<path class="st1" d="M893.2,217.6V228h-3.6v-9.9c0-1.7-0.5-2.6-1.9-2.6c-1.2,0-2.5,0.6-3.4,1.6V228h-3.6v-15.1h3.3v1.6
			c1.8-1.3,3.2-1.9,4.6-1.9C891.7,212.6,893.2,214.6,893.2,217.6z"/>
		<path class="st1" d="M909.8,206.8v3.4h-3.6v-3.4H909.8z M909.8,212.9V228h-3.6v-15.1H909.8z"/>
		<path class="st1" d="M923.4,214.9l-2.3,2c-1-1.1-1.9-1.6-2.8-1.6c-1.4,0-2,0.6-2,1.5c0,0.8,0.8,1.4,2.7,2c3.7,1.2,4.8,2.7,4.8,5
			c0,2.9-2.1,4.5-5.5,4.5c-2.4,0-4.4-1-5.7-3l2.4-1.8c1.1,1.5,2.2,2.2,3.5,2.2s2.1-0.7,2.1-1.7c0-0.9-0.9-1.4-2.8-2.1
			c-3.6-1.2-4.8-2.7-4.8-4.8c0-2.7,2.3-4.4,5-4.4C920.2,212.6,922.1,213.4,923.4,214.9z"/>
		<path class="st1" d="M939.5,206.8v3.4h-3.6v-3.4H939.5z M939.5,212.9V228h-3.6v-15.1H939.5z"/>
		<path class="st1" d="M956,217.6V228h-3.6v-9.9c0-1.7-0.5-2.6-1.9-2.6c-1.2,0-2.5,0.6-3.4,1.6V228h-3.6v-15.1h3.3v1.6
			c1.8-1.3,3.2-1.9,4.6-1.9C954.5,212.6,956,214.6,956,217.6z"/>
		<path class="st1" d="M963.9,207.9v5h3v2.9h-3v8.6c0,0.7,0.3,1,1.3,1c0.6,0,1.2-0.2,1.7-0.3v3c-1,0.1-1.8,0.2-2.8,0.2
			c-2.6,0-3.7-1.2-3.7-3.5v-9h-2.1v-2.9h2.1v-5H963.9z"/>
		<path class="st1" d="M980.9,219.5v1.6h-9.1c0,2.8,1.2,4.4,3.1,4.4c1.3,0,2.2-0.4,3.4-1.8l2.6,1.6c-1.4,2.1-3.4,3.1-6.3,3.1
			c-3.9,0-6.4-3-6.4-7.8s2.5-7.8,6.6-7.8C979,212.6,980.9,216.3,980.9,219.5z M977.6,218.6c0-2.1-1.2-3.3-2.9-3.3
			c-1.7,0-2.8,1.1-2.9,3.3H977.6z"/>
		<path class="st1" d="M996.3,217.6V228h-3.6v-9.9c0-1.7-0.5-2.6-1.9-2.6c-1.2,0-2.5,0.6-3.4,1.6V228h-3.6v-15.1h3.3v1.6
			c1.8-1.3,3.2-1.9,4.6-1.9C994.8,212.6,996.3,214.6,996.3,217.6z"/>
		<path class="st1" d="M1012.4,207.1V228h-3l-0.2-1.6c-1.3,1.2-2.5,1.9-4.1,1.9c-3.9,0-6-3.3-6-8.2c0-3.9,2.3-7.5,6-7.5
			c1.3,0,2.9,0.7,3.7,1.7h0.1v-7.3H1012.4z M1006.1,225.4c1.3,0,2.2-0.7,2.8-1.3v-7.3c-0.8-0.7-1.6-1.3-2.8-1.3
			c-2.1,0-3.3,1.7-3.3,4.9S1003.9,225.4,1006.1,225.4z"/>
		<path class="st1" d="M1027.7,219.5v1.6h-9.1c0,2.8,1.2,4.4,3.1,4.4c1.3,0,2.2-0.4,3.4-1.8l2.6,1.6c-1.4,2.1-3.4,3.1-6.3,3.1
			c-3.9,0-6.4-3-6.4-7.8s2.5-7.8,6.6-7.8C1025.8,212.6,1027.7,216.3,1027.7,219.5z M1024.4,218.6c0-2.1-1.2-3.3-2.9-3.3
			c-1.7,0-2.8,1.1-2.9,3.3H1024.4z"/>
		<path class="st1" d="M1043.1,207.1V228h-3l-0.2-1.6c-1.3,1.2-2.5,1.9-4.1,1.9c-3.9,0-6-3.3-6-8.2c0-3.9,2.3-7.5,6-7.5
			c1.3,0,2.9,0.7,3.7,1.7h0.1v-7.3H1043.1z M1036.7,225.4c1.3,0,2.2-0.7,2.8-1.3v-7.3c-0.8-0.7-1.6-1.3-2.8-1.3
			c-2.1,0-3.3,1.7-3.3,4.9S1034.6,225.4,1036.7,225.4z"/>
		<path class="st1" d="M1062.8,206.8v2.9h-0.9c-2,0-2.1,0.7-2.1,1.8v1.5h3v2.9h-3V228h-3.6v-12.2h-2.1v-2.9h2.1v-2
			c0-3,1.2-4.2,4.1-4.2H1062.8z"/>
		<path class="st1" d="M1077.2,220.5c0,4.8-2.5,7.8-6.6,7.8c-4.1,0-6.6-3-6.6-7.8c0-4.9,2.5-7.8,6.6-7.8S1077.2,215.6,1077.2,220.5z
			 M1070.7,225.4c2,0,3-1.5,3-4.9c0-3.3-1-4.9-3-4.9c-2.1,0-3,1.7-3,4.9C1067.7,223.9,1068.7,225.4,1070.7,225.4z"/>
		<path class="st1" d="M1087.1,216.4c-0.1,0-0.2,0-0.7,0c-1.7,0-3.3,1.9-3.3,2.5v9.1h-3.6v-15.1h3.3v2.6h0.1
			c0.9-1.8,2.1-2.8,4.2-2.9V216.4z"/>
		<path class="st1" d="M1102.3,206.8v3.4h-3.6v-3.4H1102.3z M1102.3,212.9V228h-3.6v-15.1H1102.3z"/>
		<path class="st1" d="M1118.8,217.6V228h-3.6v-9.9c0-1.7-0.5-2.6-1.9-2.6c-1.2,0-2.5,0.6-3.4,1.6V228h-3.6v-15.1h3.3v1.6
			c1.8-1.3,3.2-1.9,4.6-1.9C1117.2,212.6,1118.8,214.6,1118.8,217.6z"/>
		<path class="st1" d="M1126.6,207.9v5h3v2.9h-3v8.6c0,0.7,0.3,1,1.3,1c0.6,0,1.2-0.2,1.7-0.3v3c-1,0.1-1.8,0.2-2.8,0.2
			c-2.6,0-3.7-1.2-3.7-3.5v-9h-2.1v-2.9h2.1v-5H1126.6z"/>
		<path class="st1" d="M1143.7,219.5v1.6h-9.1c0,2.8,1.2,4.4,3.1,4.4c1.3,0,2.2-0.4,3.4-1.8l2.6,1.6c-1.4,2.1-3.4,3.1-6.3,3.1
			c-3.9,0-6.4-3-6.4-7.8s2.5-7.8,6.6-7.8C1141.8,212.6,1143.7,216.3,1143.7,219.5z M1140.4,218.6c0-2.1-1.2-3.3-2.9-3.3
			c-1.7,0-2.8,1.1-2.9,3.3H1140.4z"/>
		<path class="st1" d="M1154,216.4c-0.1,0-0.2,0-0.7,0c-1.7,0-3.3,1.9-3.3,2.5v9.1h-3.6v-15.1h3.3v2.6h0.1c0.9-1.8,2.1-2.8,4.2-2.9
			V216.4z"/>
		<path class="st1" d="M1168.7,217.6V228h-3.6v-9.9c0-1.7-0.5-2.6-1.9-2.6c-1.2,0-2.5,0.6-3.4,1.6V228h-3.6v-15.1h3.3v1.6
			c1.8-1.3,3.2-1.9,4.6-1.9C1167.2,212.6,1168.7,214.6,1168.7,217.6z"/>
		<path class="st1" d="M1183.3,218.6v7.4c0,0.5,0,1.4,0.3,2.1h-3.5l-0.2-1.3c-1.5,1.1-3,1.6-4.7,1.6c-2.6,0-4.1-1.7-4.1-4
			c0-3.4,2.8-5.2,8.6-5.9v-1.3c0-1.2-0.9-1.8-2.2-1.8c-1.2,0-2.3,0.6-3.3,1.9l-2.3-1.8c1-1.6,3.2-2.8,5.5-2.8
			C1181.7,212.6,1183.3,214.4,1183.3,218.6z M1176.4,225.6c0.9,0,2.3-0.7,3.3-1.6v-3.2c-4.1,0.7-5,1.7-5,3.1
			C1174.7,225,1175.4,225.6,1176.4,225.6z"/>
		<path class="st1" d="M1191.1,207.9v5h3v2.9h-3v8.6c0,0.7,0.3,1,1.3,1c0.6,0,1.2-0.2,1.7-0.3v3c-1,0.1-1.8,0.2-2.8,0.2
			c-2.6,0-3.7-1.2-3.7-3.5v-9h-2.1v-2.9h2.1v-5H1191.1z"/>
		<path class="st1" d="M1200.5,206.8v3.4h-3.6v-3.4H1200.5z M1200.5,212.9V228h-3.6v-15.1H1200.5z"/>
		<path class="st1" d="M1216.6,220.5c0,4.8-2.5,7.8-6.6,7.8c-4.1,0-6.6-3-6.6-7.8c0-4.9,2.5-7.8,6.6-7.8S1216.6,215.6,1216.6,220.5z
			 M1210,225.4c2,0,3-1.5,3-4.9c0-3.3-1-4.9-3-4.9c-2.1,0-3,1.7-3,4.9C1207.1,223.9,1208,225.4,1210,225.4z"/>
		<path class="st1" d="M1231.5,217.6V228h-3.6v-9.9c0-1.7-0.5-2.6-1.9-2.6c-1.2,0-2.5,0.6-3.4,1.6V228h-3.6v-15.1h3.3v1.6
			c1.8-1.3,3.2-1.9,4.6-1.9C1230,212.6,1231.5,214.6,1231.5,217.6z"/>
		<path class="st1" d="M1246.2,218.6v7.4c0,0.5,0,1.4,0.3,2.1h-3.5l-0.2-1.3c-1.5,1.1-3,1.6-4.7,1.6c-2.6,0-4.1-1.7-4.1-4
			c0-3.4,2.8-5.2,8.6-5.9v-1.3c0-1.2-0.9-1.8-2.2-1.8c-1.2,0-2.3,0.6-3.3,1.9l-2.3-1.8c1-1.6,3.2-2.8,5.5-2.8
			C1244.5,212.6,1246.2,214.4,1246.2,218.6z M1239.2,225.6c0.9,0,2.3-0.7,3.3-1.6v-3.2c-4.1,0.7-5,1.7-5,3.1
			C1237.5,225,1238.2,225.6,1239.2,225.6z"/>
		<path class="st1" d="M1253.7,207.1V228h-3.6v-20.9H1253.7z"/>
		<path class="st1" d="M1277.6,218.6v7.4c0,0.5,0,1.4,0.3,2.1h-3.5l-0.2-1.3c-1.5,1.1-3,1.6-4.7,1.6c-2.6,0-4.1-1.7-4.1-4
			c0-3.4,2.8-5.2,8.6-5.9v-1.3c0-1.2-0.9-1.8-2.2-1.8c-1.2,0-2.3,0.6-3.3,1.9l-2.3-1.8c1-1.6,3.2-2.8,5.5-2.8
			C1275.9,212.6,1277.6,214.4,1277.6,218.6z M1270.7,225.6c0.9,0,2.3-0.7,3.3-1.6v-3.2c-4.1,0.7-5,1.7-5,3.1
			C1268.9,225,1269.6,225.6,1270.7,225.6z"/>
		<path class="st1" d="M1284.8,212.9v9.9c0,1.7,0.4,2.6,1.9,2.6c1.2,0,2.4-0.6,3.4-1.6v-10.9h3.6V228h-3.3v-1.6
			c-1.8,1.3-3.3,1.9-4.7,1.9c-2.9,0-4.4-1.9-4.4-4.9v-10.4H1284.8z"/>
		<path class="st1" d="M1309.7,207.1V228h-3l-0.2-1.6c-1.3,1.2-2.5,1.9-4.1,1.9c-3.9,0-6-3.3-6-8.2c0-3.9,2.3-7.5,6-7.5
			c1.3,0,2.9,0.7,3.7,1.7h0.1v-7.3H1309.7z M1303.3,225.4c1.3,0,2.2-0.7,2.8-1.3v-7.3c-0.8-0.7-1.6-1.3-2.8-1.3
			c-2.1,0-3.3,1.7-3.3,4.9S1301.2,225.4,1303.3,225.4z"/>
		<path class="st1" d="M1317.4,206.8v3.4h-3.6v-3.4H1317.4z M1317.4,212.9V228h-3.6v-15.1H1317.4z"/>
		<path class="st1" d="M1333,219.5v1.6h-9.1c0,2.8,1.2,4.4,3.1,4.4c1.3,0,2.2-0.4,3.4-1.8l2.6,1.6c-1.4,2.1-3.4,3.1-6.3,3.1
			c-3.9,0-6.4-3-6.4-7.8s2.5-7.8,6.6-7.8C1331.1,212.6,1333,216.3,1333,219.5z M1329.7,218.6c0-2.1-1.2-3.3-2.9-3.3
			c-1.7,0-2.8,1.1-2.9,3.3H1329.7z"/>
		<path class="st1" d="M1348.4,217.6V228h-3.6v-9.9c0-1.7-0.5-2.6-1.9-2.6c-1.2,0-2.5,0.6-3.4,1.6V228h-3.6v-15.1h3.3v1.6
			c1.8-1.3,3.2-1.9,4.6-1.9C1346.8,212.6,1348.4,214.6,1348.4,217.6z"/>
		<path class="st1" d="M1363.4,216.7l-3,1.2c-0.7-1.7-1.6-2.3-3-2.3c-2,0-3,1.6-3,4.9c0,3.4,1,4.9,3.1,4.9c1.3,0,2.3-0.7,3.2-2.4
			l2.7,1.5c-1.4,2.6-3.1,3.8-6,3.8c-4.2,0-6.6-3.1-6.6-7.8c0-4.8,2.5-7.8,6.6-7.8C1360.3,212.6,1362.6,214.1,1363.4,216.7z"/>
		<path class="st1" d="M1378.1,219.5v1.6h-9.1c0,2.8,1.2,4.4,3.1,4.4c1.3,0,2.2-0.4,3.4-1.8l2.6,1.6c-1.4,2.1-3.4,3.1-6.3,3.1
			c-3.9,0-6.4-3-6.4-7.8s2.5-7.8,6.6-7.8C1376.2,212.6,1378.1,216.3,1378.1,219.5z M1374.8,218.6c0-2.1-1.2-3.3-2.9-3.3
			c-1.7,0-2.8,1.1-2.9,3.3H1374.8z"/>
		<path class="st1" d="M1390.7,214.9l-2.3,2c-1-1.1-1.9-1.6-2.8-1.6c-1.4,0-2,0.6-2,1.5c0,0.8,0.8,1.4,2.7,2c3.7,1.2,4.8,2.7,4.8,5
			c0,2.9-2.1,4.5-5.5,4.5c-2.4,0-4.4-1-5.7-3l2.4-1.8c1.1,1.5,2.2,2.2,3.5,2.2s2.1-0.7,2.1-1.7c0-0.9-0.9-1.4-2.8-2.1
			c-3.6-1.2-4.8-2.7-4.8-4.8c0-2.7,2.3-4.4,5-4.4C1387.4,212.6,1389.4,213.4,1390.7,214.9z"/>
		<path class="st1" d="M1398.5,223.9v4.1h-4v-4.1H1398.5z"/>
	</g>
	<g class="st0">
		<path class="st1" d="M760.3,353v2.9h-8.5v4.3h6.2v2.9h-6.2v5h8.8v2.9h-12.2v-18H760.3z"/>
		<path class="st1" d="M765.2,353l3.2,13.3h0.1l3.3-13.3h3.4l-4.8,18h-3.8l-4.8-18H765.2z"/>
		<path class="st1" d="M784.7,353c3.5,0,5.7,1.9,5.7,5.4c0,2.3-1.2,3.9-3.3,4.5l4,8h-3.8l-3.4-7.3h-3v7.3h-3.4v-18H784.7z
			 M783.5,360.9c2.2,0,3.4-0.6,3.4-2.5c0-1.8-1.1-2.5-2.9-2.5h-3.2v5.1H783.5z"/>
		<path class="st1" d="M806.2,353v2.9h-8.5v4.3h6.2v2.9h-6.2v5h8.8v2.9h-12.2v-18H806.2z"/>
		<path class="st1" d="M813,353l7.1,12.3h0.1V353h3.2v18h-3.3l-7.4-12.8h0V371h-3.2v-18H813z"/>
		<path class="st1" d="M838.6,353v2.8l-8.7,12.4h8.8v2.9h-12.8v-2.9l8.4-12.2h-7.8V353H838.6z"/>
		<path class="st1" d="M855.2,362c0,5.9-2.7,9.3-7.6,9.3s-7.6-3.3-7.6-9.3c0-5.9,2.7-9.3,7.6-9.3S855.2,356.1,855.2,362z
			 M847.7,368.4c2.8,0,4.1-2.1,4.1-6.4c0-4.2-1.3-6.4-4.1-6.4c-2.7,0-4.1,2-4.1,6.5C843.6,366.3,844.9,368.4,847.7,368.4z"/>
		<path class="st1" d="M871.3,352.7c-2.4,3.1-3.6,6.4-3.6,10.2c0,3.8,1.2,7.1,3.6,10.2h-3c-2.7-4.1-3.4-6.8-3.4-10.2
			c0-3.4,0.7-6,3.4-10.2H871.3z"/>
		<path class="st1" d="M879.9,361c-0.1,0-0.2,0-0.6,0c-1.4,0-2.9,1.7-2.9,2.2v7.8h-3.1v-13h2.8v2.2h0c0.8-1.6,1.8-2.4,3.6-2.5V361z"
			/>
		<path class="st1" d="M892.2,364.5c0,4.1-2.1,6.7-5.6,6.7c-3.5,0-5.6-2.6-5.6-6.7c0-4.2,2.2-6.7,5.6-6.7
			C890,357.8,892.2,360.3,892.2,364.5z M886.5,368.8c1.7,0,2.5-1.3,2.5-4.2c0-2.9-0.8-4.2-2.5-4.2c-1.8,0-2.5,1.5-2.5,4.2
			C884,367.5,884.9,368.8,886.5,368.8z"/>
		<path class="st1" d="M896.5,358l1.8,3.6l1.8-3.6h3.3l-3.6,6.2l3.9,6.7h-3.3l-2.2-4l-2.1,4h-3.3l3.8-6.7l-3.7-6.2H896.5z"/>
		<path class="st1" d="M914.9,362.9v6.3c0,0.4,0,1.2,0.2,1.8h-3l-0.2-1.1c-1.3,0.9-2.6,1.4-4,1.4c-2.2,0-3.5-1.5-3.5-3.4
			c0-2.9,2.4-4.5,7.4-5.1v-1.1c0-1-0.8-1.5-1.9-1.5c-1.1,0-2,0.5-2.8,1.6l-2-1.5c0.9-1.3,2.8-2.4,4.7-2.4
			C913.5,357.8,914.9,359.3,914.9,362.9z M908.9,369c0.8,0,1.9-0.6,2.8-1.4v-2.8c-3.6,0.6-4.3,1.5-4.3,2.6
			C907.4,368.4,908.1,369,908.9,369z"/>
		<path class="st1" d="M928.7,353v18h-2.6l-0.2-1.4c-1.1,1.1-2.1,1.6-3.5,1.6c-3.3,0-5.2-2.9-5.2-7.1c0-3.4,2-6.4,5.2-6.4
			c1.1,0,2.5,0.6,3.1,1.5h0V353H928.7z M923.2,368.8c1.1,0,1.9-0.6,2.4-1.2v-6.2c-0.6-0.6-1.4-1.1-2.4-1.1c-1.8,0-2.9,1.4-2.9,4.2
			C920.3,367.3,921.4,368.8,923.2,368.8z"/>
		<path class="st1" d="M935,358v8.5c0,1.4,0.4,2.2,1.6,2.2c1,0,2.1-0.5,2.9-1.4V358h3.1v13h-2.8v-1.4c-1.6,1.1-2.8,1.6-4,1.6
			c-2.5,0-3.8-1.7-3.8-4.2v-9H935z"/>
		<path class="st1" d="M954.1,359.7l-2,1.7c-0.8-0.9-1.6-1.4-2.4-1.4c-1.2,0-1.8,0.5-1.8,1.3c0,0.7,0.7,1.2,2.3,1.7
			c3.2,1,4.2,2.3,4.2,4.3c0,2.5-1.8,3.9-4.8,3.9c-2.1,0-3.7-0.9-4.9-2.6l2.1-1.5c0.9,1.3,1.9,1.9,3,1.9s1.8-0.6,1.8-1.5
			c0-0.8-0.8-1.2-2.4-1.8c-3.1-1-4.1-2.3-4.1-4.1c0-2.3,1.9-3.8,4.3-3.8C951.3,357.8,952.9,358.4,954.1,359.7z"/>
		<path class="st1" d="M960.5,353.7v4.3h2.5v2.5h-2.5v7.4c0,0.6,0.3,0.9,1.1,0.9c0.5,0,1-0.2,1.4-0.2v2.5c-0.8,0.1-1.6,0.2-2.4,0.2
			c-2.2,0-3.2-1.1-3.2-3v-7.8h-1.8V358h1.8v-4.3H960.5z"/>
		<path class="st1" d="M974.6,362.9v6.3c0,0.4,0,1.2,0.2,1.8h-3l-0.2-1.1c-1.3,0.9-2.6,1.4-4,1.4c-2.2,0-3.5-1.5-3.5-3.4
			c0-2.9,2.4-4.5,7.4-5.1v-1.1c0-1-0.8-1.5-1.9-1.5c-1.1,0-2,0.5-2.8,1.6l-2-1.5c0.9-1.3,2.8-2.4,4.7-2.4
			C973.2,357.8,974.6,359.3,974.6,362.9z M968.7,369c0.8,0,1.9-0.6,2.8-1.4v-2.8c-3.6,0.6-4.3,1.5-4.3,2.6
			C967.2,368.4,967.8,369,968.7,369z"/>
		<path class="st1" d="M981.3,353.7v4.3h2.5v2.5h-2.5v7.4c0,0.6,0.3,0.9,1.1,0.9c0.5,0,1-0.2,1.4-0.2v2.5c-0.8,0.1-1.6,0.2-2.4,0.2
			c-2.2,0-3.2-1.1-3.2-3v-7.8h-1.8V358h1.8v-4.3H981.3z"/>
		<path class="st1" d="M988.1,352.7c2.7,4.2,3.4,6.7,3.4,10.2c0,3.4-0.7,6.1-3.4,10.2h-3c2.4-3.1,3.6-6.4,3.6-10.2
			c0-3.8-1.2-7.1-3.6-10.2H988.1z"/>
		<path class="st1" d="M1005.1,353v6.4c1.3-1.1,2.5-1.6,3.7-1.6c2.5,0,3.8,1.7,3.8,4.2v9h-3.1v-8.5c0-1.4-0.4-2.2-1.6-2.2
			c-1.1,0-2.1,0.5-2.9,1.4v9.4h-3.1v-18H1005.1z"/>
		<path class="st1" d="M1025.3,362.9v6.3c0,0.4,0,1.2,0.2,1.8h-3l-0.2-1.1c-1.3,0.9-2.6,1.4-4,1.4c-2.2,0-3.5-1.5-3.5-3.4
			c0-2.9,2.4-4.5,7.4-5.1v-1.1c0-1-0.8-1.5-1.9-1.5c-1.1,0-2,0.5-2.8,1.6l-2-1.5c0.9-1.3,2.8-2.4,4.7-2.4
			C1023.9,357.8,1025.3,359.3,1025.3,362.9z M1019.3,369c0.8,0,1.9-0.6,2.8-1.4v-2.8c-3.6,0.6-4.3,1.5-4.3,2.6
			C1017.8,368.4,1018.5,369,1019.3,369z"/>
		<path class="st1" d="M1036.7,359.7l-2,1.7c-0.8-0.9-1.6-1.4-2.4-1.4c-1.2,0-1.8,0.5-1.8,1.3c0,0.7,0.7,1.2,2.3,1.7
			c3.2,1,4.2,2.3,4.2,4.3c0,2.5-1.8,3.9-4.8,3.9c-2.1,0-3.7-0.9-4.9-2.6l2.1-1.5c0.9,1.3,1.9,1.9,3,1.9s1.8-0.6,1.8-1.5
			c0-0.8-0.8-1.2-2.4-1.8c-3.1-1-4.1-2.3-4.1-4.1c0-2.3,1.9-3.8,4.3-3.8C1033.9,357.8,1035.5,358.4,1036.7,359.7z"/>
		<path class="st1" d="M1057,359.7c1.4-1.4,2.7-1.9,4.4-1.9c2,0,3.2,1.5,3.2,3.8v9.4h-3.1v-9.1c0-1-0.6-1.6-1.6-1.6
			c-0.7,0-1.7,0.6-2.6,1.4v9.3h-3.1v-9.1c0-1.1-0.6-1.6-1.6-1.6c-0.7,0-1.7,0.6-2.6,1.4v9.3h-3.1v-13h2.8v1.4
			c1.3-1.2,2.3-1.6,3.9-1.6C1055.3,357.8,1056.5,358.5,1057,359.7z"/>
		<path class="st1" d="M1077.3,362.9v6.3c0,0.4,0,1.2,0.2,1.8h-3l-0.2-1.1c-1.3,0.9-2.6,1.4-4,1.4c-2.2,0-3.5-1.5-3.5-3.4
			c0-2.9,2.4-4.5,7.4-5.1v-1.1c0-1-0.8-1.5-1.9-1.5c-1.1,0-2,0.5-2.8,1.6l-2-1.5c0.8-1.3,2.8-2.4,4.7-2.4
			C1075.9,357.8,1077.3,359.3,1077.3,362.9z M1071.4,369c0.8,0,1.9-0.6,2.8-1.4v-2.8c-3.6,0.6-4.3,1.5-4.3,2.6
			C1069.9,368.4,1070.5,369,1071.4,369z"/>
		<path class="st1" d="M1086.8,361c-0.1,0-0.2,0-0.6,0c-1.4,0-2.9,1.7-2.9,2.2v7.8h-3.1v-13h2.8v2.2h0c0.8-1.6,1.8-2.4,3.6-2.5V361z
			"/>
		<path class="st1" d="M1091.9,353V363h0.1l3.8-5h3.5l-3.8,4.8l4.1,8.1h-3.3l-2.9-5.8l-1.6,1.8v4h-3.1v-18H1091.9z"/>
		<path class="st1" d="M1111.2,363.7v1.4h-7.8c0,2.4,1,3.7,2.7,3.7c1.1,0,1.9-0.3,2.9-1.5l2.2,1.4c-1.2,1.8-2.9,2.6-5.4,2.6
			c-3.4,0-5.5-2.6-5.5-6.7s2.1-6.7,5.7-6.7C1109.6,357.8,1111.2,361,1111.2,363.7z M1108.4,362.9c0-1.8-1-2.8-2.5-2.8
			c-1.5,0-2.4,1-2.5,2.8H1108.4z"/>
		<path class="st1" d="M1117.4,353.7v4.3h2.5v2.5h-2.5v7.4c0,0.6,0.3,0.9,1.1,0.9c0.5,0,1-0.2,1.4-0.2v2.5c-0.8,0.1-1.6,0.2-2.4,0.2
			c-2.2,0-3.2-1.1-3.2-3v-7.8h-1.8V358h1.8v-4.3H1117.4z"/>
		<path class="st1" d="M1125.5,352.7v2.9h-3.1v-2.9H1125.5z M1125.5,358v13h-3.1v-13H1125.5z"/>
		<path class="st1" d="M1139.7,362v9h-3.1v-8.5c0-1.4-0.4-2.2-1.6-2.2c-1.1,0-2.1,0.5-2.9,1.4v9.4h-3.1v-13h2.8v1.4
			c1.6-1.1,2.8-1.6,4-1.6C1138.4,357.8,1139.7,359.4,1139.7,362z"/>
		<path class="st1" d="M1153.5,357.8v2.1c-0.8,0-1.5,0-2,0.3c0.4,0.6,0.7,1.3,0.7,2.3c0,2.7-1.9,4.2-5,4.2c-2.2,0-2.3,0.4-2.3,0.8
			c0,0.6,0.6,0.9,2.8,1c2.2,0.1,3.6,0.4,4.5,1s1.2,1.4,1.2,2.5c0,2.2-2.3,3.8-6,3.8c-3.7,0-5.8-1.2-5.8-3.1c0-1.4,1-2.4,2.3-2.4v0
			c-1.5-0.6-1.9-1.2-1.9-2.1c0-1,1-2,2-2.4c-1.4-1.1-1.9-2.1-1.9-3.5c0-2.5,2-4.5,5.1-4.5c1.1,0,2.4,0.5,3.2,1.1
			c0.6-0.7,1.4-1.1,2.8-1.1H1153.5z M1147.9,373.7c1.8,0,2.7-0.8,2.7-1.5c0-0.8-1.3-1.5-3.9-1.5c-1.4,0-2.2,0.7-2.2,1.5
			C1144.5,373.3,1145.5,373.7,1147.9,373.7z M1147.3,364.4c1.2,0,2.1-1,2.1-2.1c0-1.2-0.9-2.1-2.1-2.1c-1.2,0-2.2,0.9-2.2,2.1
			C1145,363.4,1145.9,364.4,1147.3,364.4z"/>
		<path class="st1" d="M1172.5,362.9v6.3c0,0.4,0,1.2,0.2,1.8h-3l-0.2-1.1c-1.3,0.9-2.6,1.4-4,1.4c-2.2,0-3.5-1.5-3.5-3.4
			c0-2.9,2.4-4.5,7.4-5.1v-1.1c0-1-0.8-1.5-1.9-1.5c-1.1,0-2,0.5-2.8,1.6l-2-1.5c0.9-1.3,2.8-2.4,4.7-2.4
			C1171,357.8,1172.5,359.3,1172.5,362.9z M1166.5,369c0.8,0,1.9-0.6,2.8-1.4v-2.8c-3.6,0.6-4.3,1.5-4.3,2.6
			C1165,368.4,1165.6,369,1166.5,369z"/>
		<path class="st1" d="M1178.7,358v8.5c0,1.4,0.4,2.2,1.6,2.2c1,0,2.1-0.5,2.9-1.4V358h3.1v13h-2.8v-1.4c-1.6,1.1-2.8,1.6-4,1.6
			c-2.5,0-3.8-1.7-3.8-4.2v-9H1178.7z"/>
		<path class="st1" d="M1193.1,353.7v4.3h2.5v2.5h-2.5v7.4c0,0.6,0.3,0.9,1.1,0.9c0.5,0,1-0.2,1.4-0.2v2.5c-0.8,0.1-1.6,0.2-2.4,0.2
			c-2.2,0-3.2-1.1-3.2-3v-7.8h-1.8V358h1.8v-4.3H1193.1z"/>
		<path class="st1" d="M1200.9,353v6.4c1.3-1.1,2.5-1.6,3.7-1.6c2.5,0,3.8,1.7,3.8,4.2v9h-3.1v-8.5c0-1.4-0.4-2.2-1.6-2.2
			c-1.1,0-2.1,0.5-2.9,1.4v9.4h-3.1v-18H1200.9z"/>
		<path class="st1" d="M1222,364.5c0,4.1-2.1,6.7-5.6,6.7c-3.5,0-5.6-2.6-5.6-6.7c0-4.2,2.2-6.7,5.6-6.7
			C1219.8,357.8,1222,360.3,1222,364.5z M1216.3,368.8c1.7,0,2.5-1.3,2.5-4.2c0-2.9-0.8-4.2-2.5-4.2c-1.8,0-2.5,1.5-2.5,4.2
			C1213.8,367.5,1214.6,368.8,1216.3,368.8z"/>
		<path class="st1" d="M1230.5,361c-0.1,0-0.2,0-0.6,0c-1.4,0-2.9,1.7-2.9,2.2v7.8h-3.1v-13h2.8v2.2h0c0.8-1.6,1.8-2.4,3.6-2.5V361z
			"/>
		<path class="st1" d="M1235.9,352.7v2.9h-3.1v-2.9H1235.9z M1235.9,358v13h-3.1v-13H1235.9z"/>
		<path class="st1" d="M1247.7,359.7l-2,1.7c-0.8-0.9-1.6-1.4-2.4-1.4c-1.2,0-1.8,0.5-1.8,1.3c0,0.7,0.7,1.2,2.3,1.7
			c3.2,1,4.2,2.3,4.2,4.3c0,2.5-1.8,3.9-4.8,3.9c-2.1,0-3.7-0.9-4.9-2.6l2.1-1.5c0.9,1.3,1.9,1.9,3,1.9s1.8-0.6,1.8-1.5
			c0-0.8-0.8-1.2-2.4-1.8c-3.1-1-4.1-2.3-4.1-4.1c0-2.3,1.9-3.8,4.3-3.8C1244.9,357.8,1246.6,358.4,1247.7,359.7z"/>
		<path class="st1" d="M1260,362.9v6.3c0,0.4,0,1.2,0.2,1.8h-3l-0.2-1.1c-1.3,0.9-2.6,1.4-4,1.4c-2.2,0-3.5-1.5-3.5-3.4
			c0-2.9,2.4-4.5,7.4-5.1v-1.1c0-1-0.8-1.5-1.9-1.5c-1.1,0-2,0.5-2.8,1.6l-2-1.5c0.8-1.3,2.8-2.4,4.7-2.4
			C1258.5,357.8,1260,359.3,1260,362.9z M1254,369c0.8,0,1.9-0.6,2.8-1.4v-2.8c-3.6,0.6-4.3,1.5-4.3,2.6
			C1252.5,368.4,1253.1,369,1254,369z"/>
		<path class="st1" d="M1266.7,353.7v4.3h2.5v2.5h-2.5v7.4c0,0.6,0.3,0.9,1.1,0.9c0.5,0,1-0.2,1.4-0.2v2.5c-0.8,0.1-1.6,0.2-2.4,0.2
			c-2.2,0-3.2-1.1-3.2-3v-7.8h-1.8V358h1.8v-4.3H1266.7z"/>
		<path class="st1" d="M1274.8,352.7v2.9h-3.1v-2.9H1274.8z M1274.8,358v13h-3.1v-13H1274.8z"/>
		<path class="st1" d="M1288.6,364.5c0,4.1-2.1,6.7-5.6,6.7c-3.5,0-5.6-2.6-5.6-6.7c0-4.2,2.2-6.7,5.6-6.7
			C1286.5,357.8,1288.6,360.3,1288.6,364.5z M1283,368.8c1.7,0,2.5-1.3,2.5-4.2c0-2.9-0.8-4.2-2.5-4.2c-1.8,0-2.5,1.5-2.5,4.2
			C1280.4,367.5,1281.3,368.8,1283,368.8z"/>
		<path class="st1" d="M1301.5,362v9h-3.1v-8.5c0-1.4-0.4-2.2-1.6-2.2c-1.1,0-2.1,0.5-2.9,1.4v9.4h-3.1v-13h2.8v1.4
			c1.6-1.1,2.8-1.6,4-1.6C1300.2,357.8,1301.5,359.4,1301.5,362z"/>
		<path class="st1" d="M1313,359.7l-2,1.7c-0.8-0.9-1.6-1.4-2.4-1.4c-1.2,0-1.8,0.5-1.8,1.3c0,0.7,0.7,1.2,2.3,1.7
			c3.2,1,4.2,2.3,4.2,4.3c0,2.5-1.8,3.9-4.8,3.9c-2.1,0-3.7-0.9-4.9-2.6l2.1-1.5c0.9,1.3,1.9,1.9,3,1.9s1.8-0.6,1.8-1.5
			c0-0.8-0.8-1.2-2.4-1.8c-3.1-1-4.1-2.3-4.1-4.1c0-2.3,1.9-3.8,4.3-3.8C1310.2,357.8,1311.9,358.4,1313,359.7z"/>
		<path class="st1" d="M1326.9,352.7v2.9h-3.1v-2.9H1326.9z M1326.9,358v13h-3.1v-13H1326.9z"/>
		<path class="st1" d="M1341.1,362v9h-3.1v-8.5c0-1.4-0.4-2.2-1.6-2.2c-1.1,0-2.1,0.5-2.9,1.4v9.4h-3.1v-13h2.8v1.4
			c1.6-1.1,2.8-1.6,4-1.6C1339.8,357.8,1341.1,359.4,1341.1,362z"/>
	</g>
	<g class="st0">
		<path class="st1" d="M737.9,383v13.2c0,3.2-1.6,5-4.8,5c-2,0-3.3-0.9-4.3-2.4l2.4-1.8c0.5,0.8,1,1.3,1.9,1.3c1,0,1.4-0.8,1.4-2
			V383H737.9z"/>
		<path class="st1" d="M751,392.9v6.3c0,0.4,0,1.2,0.2,1.8h-3l-0.2-1.1c-1.3,0.9-2.6,1.4-4,1.4c-2.2,0-3.5-1.5-3.5-3.4
			c0-2.9,2.4-4.5,7.4-5.1v-1.1c0-1-0.8-1.5-1.9-1.5c-1.1,0-2,0.5-2.8,1.6l-2-1.5c0.8-1.3,2.7-2.4,4.7-2.4
			C749.6,387.8,751,389.3,751,392.9z M745,399c0.8,0,1.9-0.6,2.8-1.4v-2.8c-3.6,0.6-4.3,1.5-4.3,2.6C743.5,398.4,744.2,399,745,399z
			"/>
		<path class="st1" d="M765.6,394.8c0,3.5-2,6.4-5.2,6.4c-1.1,0-2.5-0.7-3.1-1.4h0v5.9h-3.1V388h3v1.2c0.9-0.9,1.9-1.5,3.3-1.5
			C763.7,387.8,765.6,390.6,765.6,394.8z M757.2,397.7c0.7,0.7,1.6,1.1,2.4,1.1c1.8,0,2.9-1.5,2.9-4.2c0-2.8-1-4.2-2.9-4.2
			c-1.1,0-2.1,0.9-2.4,1.1V397.7z"/>
		<path class="st1" d="M777.4,392.9v6.3c0,0.4,0,1.2,0.2,1.8h-3l-0.2-1.1c-1.3,0.9-2.6,1.4-4,1.4c-2.2,0-3.5-1.5-3.5-3.4
			c0-2.9,2.5-4.5,7.4-5.1v-1.1c0-1-0.8-1.5-1.9-1.5c-1.1,0-2,0.5-2.8,1.6l-2-1.5c0.8-1.3,2.7-2.4,4.7-2.4
			C776,387.8,777.4,389.3,777.4,392.9z M771.4,399c0.8,0,1.9-0.6,2.8-1.4v-2.8c-3.6,0.6-4.3,1.5-4.3,2.6
			C769.9,398.4,770.6,399,771.4,399z"/>
		<path class="st1" d="M791.2,392v9h-3.1v-8.5c0-1.4-0.4-2.2-1.6-2.2c-1.1,0-2.1,0.5-2.9,1.4v9.4h-3.1v-13h2.8v1.4
			c1.6-1.1,2.8-1.6,4-1.6C789.9,387.8,791.2,389.4,791.2,392z"/>
		<path class="st1" d="M798.3,397.5v3.5l-1.6,3.7h-1.6l1.3-3.7h-1.5v-3.5H798.3z"/>
		<path class="st1" d="M813.2,383.7v4.3h2.5v2.5h-2.5v7.4c0,0.6,0.3,0.9,1.1,0.9c0.5,0,1-0.2,1.4-0.2v2.5c-0.8,0.1-1.6,0.2-2.4,0.2
			c-2.2,0-3.2-1.1-3.2-3v-7.8h-1.8V388h1.8v-4.3H813.2z"/>
		<path class="st1" d="M821.1,383v6.4c1.3-1.1,2.5-1.6,3.7-1.6c2.5,0,3.8,1.7,3.8,4.2v9h-3.1v-8.5c0-1.4-0.4-2.2-1.6-2.2
			c-1.1,0-2.1,0.5-2.9,1.4v9.4H818v-18H821.1z"/>
		<path class="st1" d="M841.8,393.7v1.4H834c0,2.4,1,3.7,2.7,3.7c1.1,0,1.9-0.3,2.9-1.5l2.2,1.4c-1.2,1.8-2.9,2.6-5.4,2.6
			c-3.4,0-5.5-2.6-5.5-6.7s2.1-6.7,5.7-6.7C840.2,387.8,841.8,391,841.8,393.7z M839,392.9c0-1.8-1-2.8-2.5-2.8
			c-1.5,0-2.4,1-2.5,2.8H839z"/>
		<path class="st1" d="M864.4,383v2.9h-8.5v4.3h6.2v2.9h-6.2v5h8.8v2.9h-12.2v-18H864.4z"/>
		<path class="st1" d="M870.4,388v8.5c0,1.4,0.4,2.2,1.6,2.2c1,0,2.1-0.5,2.9-1.4V388h3.1v13h-2.8v-1.4c-1.6,1.1-2.8,1.6-4,1.6
			c-2.5,0-3.8-1.7-3.8-4.2v-9H870.4z"/>
		<path class="st1" d="M887.5,391c-0.1,0-0.2,0-0.6,0c-1.4,0-2.9,1.7-2.9,2.2v7.8H881v-13h2.8v2.2h0c0.8-1.6,1.8-2.4,3.6-2.5V391z"
			/>
		<path class="st1" d="M899.8,394.5c0,4.1-2.1,6.7-5.6,6.7c-3.5,0-5.6-2.6-5.6-6.7c0-4.2,2.2-6.7,5.6-6.7
			C897.6,387.8,899.8,390.3,899.8,394.5z M894.1,398.8c1.7,0,2.5-1.3,2.5-4.2c0-2.9-0.8-4.2-2.5-4.2c-1.8,0-2.5,1.5-2.5,4.2
			C891.6,397.5,892.4,398.8,894.1,398.8z"/>
		<path class="st1" d="M913.5,394.8c0,3.5-2,6.4-5.2,6.4c-1.1,0-2.5-0.7-3.1-1.4h0v5.9H902V388h3v1.2c0.9-0.9,1.9-1.5,3.3-1.5
			C911.6,387.8,913.5,390.6,913.5,394.8z M905.1,397.7c0.7,0.7,1.6,1.1,2.4,1.1c1.8,0,2.9-1.5,2.9-4.2c0-2.8-1-4.2-2.9-4.2
			c-1.1,0-2.1,0.9-2.4,1.1V397.7z"/>
		<path class="st1" d="M925.8,393.7v1.4H918c0,2.4,1,3.7,2.7,3.7c1.1,0,1.9-0.3,2.9-1.5l2.2,1.4c-1.2,1.8-2.9,2.6-5.4,2.6
			c-3.4,0-5.5-2.6-5.5-6.7s2.1-6.7,5.7-6.7C924.2,387.8,925.8,391,925.8,393.7z M923,392.9c0-1.8-1-2.8-2.5-2.8
			c-1.5,0-2.4,1-2.5,2.8H923z"/>
		<path class="st1" d="M937.8,392.9v6.3c0,0.4,0,1.2,0.2,1.8h-3l-0.2-1.1c-1.3,0.9-2.6,1.4-4,1.4c-2.2,0-3.5-1.5-3.5-3.4
			c0-2.9,2.4-4.5,7.4-5.1v-1.1c0-1-0.8-1.5-1.9-1.5c-1.1,0-2,0.5-2.8,1.6l-2-1.5c0.9-1.3,2.8-2.4,4.7-2.4
			C936.4,387.8,937.8,389.3,937.8,392.9z M931.8,399c0.8,0,1.9-0.6,2.8-1.4v-2.8c-3.6,0.6-4.3,1.5-4.3,2.6
			C930.3,398.4,931,399,931.8,399z"/>
		<path class="st1" d="M951.6,392v9h-3.1v-8.5c0-1.4-0.4-2.2-1.6-2.2c-1.1,0-2.1,0.5-2.9,1.4v9.4h-3.1v-13h2.8v1.4
			c1.6-1.1,2.8-1.6,4-1.6C950.3,387.8,951.6,389.4,951.6,392z"/>
		<path class="st1" d="M966.4,383v11.5c0,2.6,0.9,3.9,3.5,3.9c2.6,0,3.5-1.3,3.5-3.9V383h3.4v11.4c0,4.4-2.5,6.9-6.9,6.9
			c-4.5,0-6.9-2.6-6.9-6.9V383H966.4z"/>
		<path class="st1" d="M991.2,392v9h-3.1v-8.5c0-1.4-0.4-2.2-1.6-2.2c-1.1,0-2.1,0.5-2.9,1.4v9.4h-3.1v-13h2.8v1.4
			c1.6-1.1,2.8-1.6,4-1.6C989.8,387.8,991.2,389.4,991.2,392z"/>
		<path class="st1" d="M997.8,382.7v2.9h-3.1v-2.9H997.8z M997.8,388v13h-3.1v-13H997.8z"/>
		<path class="st1" d="M1011.6,394.5c0,4.1-2.1,6.7-5.6,6.7c-3.5,0-5.6-2.6-5.6-6.7c0-4.2,2.2-6.7,5.6-6.7
			C1009.4,387.8,1011.6,390.3,1011.6,394.5z M1006,398.8c1.7,0,2.5-1.3,2.5-4.2c0-2.9-0.8-4.2-2.5-4.2c-1.8,0-2.5,1.5-2.5,4.2
			C1003.4,397.5,1004.3,398.8,1006,398.8z"/>
		<path class="st1" d="M1024.5,392v9h-3.1v-8.5c0-1.4-0.4-2.2-1.6-2.2c-1.1,0-2.1,0.5-2.9,1.4v9.4h-3.1v-13h2.8v1.4
			c1.6-1.1,2.8-1.6,4-1.6C1023.2,387.8,1024.5,389.4,1024.5,392z"/>
		<path class="st1" d="M1041.4,382.7c-2.4,3.1-3.6,6.4-3.6,10.2c0,3.8,1.2,7.1,3.6,10.2h-3c-2.7-4.1-3.4-6.8-3.4-10.2
			c0-3.4,0.7-6,3.4-10.2H1041.4z"/>
		<path class="st1" d="M1056.1,383v2.9h-8.5v4.3h6.2v2.9h-6.2v5h8.8v2.9h-12.2v-18H1056.1z"/>
		<path class="st1" d="M1062.9,383v11.5c0,2.6,0.9,3.9,3.5,3.9c2.6,0,3.5-1.3,3.5-3.9V383h3.4v11.4c0,4.4-2.5,6.9-6.9,6.9
			c-4.5,0-6.9-2.6-6.9-6.9V383H1062.9z"/>
		<path class="st1" d="M1079.1,382.7c2.7,4.2,3.4,6.7,3.4,10.2c0,3.4-0.7,6.1-3.4,10.2h-3c2.4-3.1,3.6-6.4,3.6-10.2
			c0-3.8-1.2-7.1-3.6-10.2H1079.1z"/>
		<path class="st1" d="M1102.3,392.9v6.3c0,0.4,0,1.2,0.2,1.8h-3l-0.2-1.1c-1.3,0.9-2.6,1.4-4,1.4c-2.2,0-3.5-1.5-3.5-3.4
			c0-2.9,2.4-4.5,7.4-5.1v-1.1c0-1-0.8-1.5-1.9-1.5c-1.1,0-2,0.5-2.8,1.6l-2-1.5c0.8-1.3,2.8-2.4,4.7-2.4
			C1100.9,387.8,1102.3,389.3,1102.3,392.9z M1096.4,399c0.8,0,1.9-0.6,2.8-1.4v-2.8c-3.6,0.6-4.3,1.5-4.3,2.6
			C1094.9,398.4,1095.5,399,1096.4,399z"/>
		<path class="st1" d="M1116.1,392v9h-3.1v-8.5c0-1.4-0.4-2.2-1.6-2.2c-1.1,0-2.1,0.5-2.9,1.4v9.4h-3.1v-13h2.8v1.4
			c1.6-1.1,2.8-1.6,4-1.6C1114.8,387.8,1116.1,389.4,1116.1,392z"/>
		<path class="st1" d="M1130,383v18h-2.6l-0.2-1.4c-1.1,1.1-2.1,1.6-3.5,1.6c-3.3,0-5.2-2.9-5.2-7.1c0-3.4,2-6.4,5.2-6.4
			c1.1,0,2.5,0.6,3.1,1.5h0.1V383H1130z M1124.5,398.8c1.2,0,1.9-0.6,2.4-1.2v-6.2c-0.7-0.6-1.4-1.1-2.4-1.1c-1.8,0-2.9,1.4-2.9,4.2
			C1121.6,397.3,1122.7,398.8,1124.5,398.8z"/>
		<path class="st1" d="M1144.5,383.7v4.3h2.5v2.5h-2.5v7.4c0,0.6,0.3,0.9,1.1,0.9c0.5,0,1-0.2,1.4-0.2v2.5c-0.8,0.1-1.6,0.2-2.4,0.2
			c-2.2,0-3.2-1.1-3.2-3v-7.8h-1.8V388h1.8v-4.3H1144.5z"/>
		<path class="st1" d="M1152.3,383v6.4c1.3-1.1,2.5-1.6,3.7-1.6c2.5,0,3.8,1.7,3.8,4.2v9h-3.1v-8.5c0-1.4-0.4-2.2-1.6-2.2
			c-1.1,0-2.1,0.5-2.9,1.4v9.4h-3.1v-18H1152.3z"/>
		<path class="st1" d="M1173,393.7v1.4h-7.8c0,2.4,1,3.7,2.7,3.7c1.1,0,1.9-0.3,2.9-1.5l2.2,1.4c-1.2,1.8-2.9,2.6-5.4,2.6
			c-3.4,0-5.5-2.6-5.5-6.7s2.1-6.7,5.7-6.7C1171.4,387.8,1173,391,1173,393.7z M1170.2,392.9c0-1.8-1-2.8-2.5-2.8
			c-1.5,0-2.4,1-2.5,2.8H1170.2z"/>
		<path class="st1" d="M1187.2,383v11.5c0,2.6,0.9,3.9,3.5,3.9c2.6,0,3.5-1.3,3.5-3.9V383h3.4v11.4c0,4.4-2.5,6.9-6.9,6.9
			c-4.5,0-6.9-2.6-6.9-6.9V383H1187.2z"/>
		<path class="st1" d="M1212,392v9h-3.1v-8.5c0-1.4-0.4-2.2-1.6-2.2c-1.1,0-2.1,0.5-2.9,1.4v9.4h-3.1v-13h2.8v1.4
			c1.6-1.1,2.8-1.6,4-1.6C1210.6,387.8,1212,389.4,1212,392z"/>
		<path class="st1" d="M1218.6,382.7v2.9h-3.1v-2.9H1218.6z M1218.6,388v13h-3.1v-13H1218.6z"/>
		<path class="st1" d="M1225.7,383.7v4.3h2.5v2.5h-2.5v7.4c0,0.6,0.3,0.9,1.1,0.9c0.5,0,1-0.2,1.4-0.2v2.5c-0.8,0.1-1.6,0.2-2.4,0.2
			c-2.2,0-3.2-1.1-3.2-3v-7.8h-1.8V388h1.8v-4.3H1225.7z"/>
		<path class="st1" d="M1240.4,393.7v1.4h-7.8c0,2.4,1,3.7,2.7,3.7c1.1,0,1.9-0.3,2.9-1.5l2.2,1.4c-1.2,1.8-2.9,2.6-5.4,2.6
			c-3.4,0-5.5-2.6-5.5-6.7s2.1-6.7,5.7-6.7C1238.7,387.8,1240.4,391,1240.4,393.7z M1237.5,392.9c0-1.8-1-2.8-2.5-2.8
			c-1.5,0-2.4,1-2.5,2.8H1237.5z"/>
		<path class="st1" d="M1253.6,383v18h-2.6l-0.2-1.4c-1.1,1.1-2.1,1.6-3.5,1.6c-3.3,0-5.2-2.9-5.2-7.1c0-3.4,2-6.4,5.2-6.4
			c1.1,0,2.5,0.6,3.1,1.5h0V383H1253.6z M1248.1,398.8c1.1,0,1.9-0.6,2.4-1.2v-6.2c-0.6-0.6-1.4-1.1-2.4-1.1c-1.8,0-2.9,1.4-2.9,4.2
			C1245.2,397.3,1246.3,398.8,1248.1,398.8z"/>
		<path class="st1" d="M1268.3,383v8l6-8h4l-5.1,6.8l5.9,11.3h-3.8l-4.5-8.6l-2.5,3.1v5.4h-3.4v-18H1268.3z"/>
		<path class="st1" d="M1284.6,382.7v2.9h-3.1v-2.9H1284.6z M1284.6,388v13h-3.1v-13H1284.6z"/>
		<path class="st1" d="M1298.8,392v9h-3.1v-8.5c0-1.4-0.4-2.2-1.6-2.2c-1.1,0-2.1,0.5-2.9,1.4v9.4h-3.1v-13h2.8v1.4
			c1.6-1.1,2.8-1.6,4-1.6C1297.5,387.8,1298.8,389.4,1298.8,392z"/>
		<path class="st1" d="M1312.6,387.8v2.1c-0.8,0-1.5,0-2,0.3c0.4,0.6,0.7,1.3,0.7,2.3c0,2.7-1.9,4.2-5,4.2c-2.2,0-2.3,0.4-2.3,0.8
			c0,0.6,0.6,0.9,2.8,1c2.2,0.1,3.6,0.4,4.5,1s1.2,1.4,1.2,2.5c0,2.2-2.3,3.8-6,3.8c-3.7,0-5.8-1.2-5.8-3.1c0-1.4,1-2.4,2.3-2.4v0
			c-1.5-0.6-1.9-1.2-1.9-2.1c0-1,1-2,2-2.4c-1.4-1.1-1.9-2.1-1.9-3.5c0-2.5,2-4.5,5.1-4.5c1.1,0,2.4,0.5,3.2,1.1
			c0.6-0.7,1.4-1.1,2.8-1.1H1312.6z M1307,403.7c1.8,0,2.7-0.8,2.7-1.5c0-0.8-1.3-1.5-3.9-1.5c-1.4,0-2.2,0.7-2.2,1.5
			C1303.5,403.3,1304.5,403.7,1307,403.7z M1306.3,394.4c1.2,0,2.1-1,2.1-2.1c0-1.2-0.9-2.1-2.1-2.1c-1.2,0-2.2,0.9-2.2,2.1
			C1304.1,393.4,1305,394.4,1306.3,394.4z"/>
		<path class="st1" d="M1325.2,383v18h-2.6l-0.2-1.4c-1.1,1.1-2.1,1.6-3.5,1.6c-3.3,0-5.2-2.9-5.2-7.1c0-3.4,2-6.4,5.2-6.4
			c1.1,0,2.5,0.6,3.1,1.5h0.1V383H1325.2z M1319.7,398.8c1.2,0,1.9-0.6,2.4-1.2v-6.2c-0.7-0.6-1.4-1.1-2.4-1.1
			c-1.8,0-2.9,1.4-2.9,4.2C1316.8,397.3,1317.9,398.8,1319.7,398.8z"/>
		<path class="st1" d="M1338.7,394.5c0,4.1-2.1,6.7-5.6,6.7c-3.5,0-5.6-2.6-5.6-6.7c0-4.2,2.2-6.7,5.6-6.7
			C1336.5,387.8,1338.7,390.3,1338.7,394.5z M1333,398.8c1.7,0,2.5-1.3,2.5-4.2c0-2.9-0.8-4.2-2.5-4.2c-1.8,0-2.5,1.5-2.5,4.2
			C1330.5,397.5,1331.3,398.8,1333,398.8z"/>
		<path class="st1" d="M1350.8,389.7c1.4-1.4,2.7-1.9,4.4-1.9c2,0,3.2,1.5,3.2,3.8v9.4h-3.1v-9.1c0-1-0.6-1.6-1.6-1.6
			c-0.7,0-1.7,0.6-2.6,1.4v9.3h-3.1v-9.1c0-1.1-0.6-1.6-1.6-1.6c-0.7,0-1.7,0.6-2.6,1.4v9.3h-3.1v-13h2.8v1.4
			c1.3-1.2,2.3-1.6,3.9-1.6C1349,387.8,1350.2,388.5,1350.8,389.7z"/>
	</g>
	<g class="st0">
		<path class="st1" d="M726.3,412.7c-2.4,3.1-3.6,6.4-3.6,10.2c0,3.8,1.2,7.1,3.6,10.2h-3c-2.7-4.1-3.4-6.8-3.4-10.2
			c0-3.4,0.7-6,3.4-10.2H726.3z"/>
		<path class="st1" d="M732.5,413v11.5c0,2.6,0.9,3.9,3.5,3.9c2.6,0,3.5-1.3,3.5-3.9V413h3.4v11.4c0,4.4-2.5,6.9-6.9,6.9
			c-4.5,0-6.9-2.6-6.9-6.9V413H732.5z"/>
		<path class="st1" d="M750.4,413v8l6-8h4l-5.1,6.8l5.9,11.3h-3.8l-4.5-8.6l-2.5,3.1v5.4H747v-18H750.4z"/>
		<path class="st1" d="M765.4,412.7c2.7,4.2,3.4,6.7,3.4,10.2c0,3.4-0.7,6.1-3.4,10.2h-3c2.4-3.1,3.6-6.4,3.6-10.2
			c0-3.8-1.2-7.1-3.6-10.2H765.4z"/>
		<path class="st1" d="M775.6,427.5v3.5l-1.6,3.7h-1.6l1.3-3.7h-1.5v-3.5H775.6z"/>
		<path class="st1" d="M798.7,412.9v2.9H794V431h-3.4v-15.2h-4.7v-2.9H798.7z"/>
		<path class="st1" d="M802,418v8.5c0,1.4,0.4,2.2,1.6,2.2c1,0,2.1-0.5,2.9-1.4V418h3.1v13h-2.8v-1.4c-1.6,1.1-2.8,1.6-4,1.6
			c-2.5,0-3.8-1.7-3.8-4.2v-9H802z"/>
		<path class="st1" d="M819.2,421c-0.1,0-0.2,0-0.6,0c-1.4,0-2.9,1.7-2.9,2.2v7.8h-3.1v-13h2.8v2.2h0c0.8-1.6,1.8-2.4,3.6-2.5V421z"
			/>
		<path class="st1" d="M824.3,413V423h0.1l3.8-5h3.5l-3.8,4.8l4.1,8.1h-3.3l-2.9-5.8l-1.6,1.8v4h-3.1v-18H824.3z"/>
		<path class="st1" d="M843.6,423.7v1.4h-7.8c0,2.4,1,3.7,2.7,3.7c1.1,0,1.9-0.3,2.9-1.5l2.2,1.4c-1.2,1.8-2.9,2.6-5.4,2.6
			c-3.4,0-5.5-2.6-5.5-6.7s2.1-6.7,5.7-6.7C842,417.8,843.6,421,843.6,423.7z M840.8,422.9c0-1.8-1-2.8-2.5-2.8
			c-1.5,0-2.4,1-2.5,2.8H840.8z"/>
		<path class="st1" d="M847.9,418l2.1,8h0l2.2-8h3.1l-4.1,13c-0.2,0.8-0.6,1.7-1.1,2.6c-1,1.7-2.1,2.1-3.9,2.1c-0.5,0-0.8,0-1.5-0.1
			v-2.5c0.4,0.1,1.1,0.1,1.4,0.1c0.5,0,1.2-0.1,1.6-0.5c0.3-0.3,0.8-1.4,0.8-1.9c0-0.2,0-0.5-0.1-0.6l-3.8-12.1H847.9z"/>
		<path class="st1" d="M859.3,427.5v3.5l-1.6,3.7h-1.6l1.3-3.7h-1.5v-3.5H859.3z"/>
		<path class="st1" d="M878.3,413c3.5,0,5.7,1.9,5.7,5.4c0,2.3-1.2,3.9-3.3,4.5l4,8h-3.8l-3.4-7.3h-3v7.3H871v-18H878.3z
			 M877.1,420.9c2.2,0,3.4-0.6,3.4-2.5c0-1.8-1.1-2.5-2.9-2.5h-3.2v5.1H877.1z"/>
		<path class="st1" d="M890.4,418v8.5c0,1.4,0.4,2.2,1.6,2.2c1,0,2.1-0.5,2.9-1.4V418h3.1v13h-2.8v-1.4c-1.6,1.1-2.8,1.6-4,1.6
			c-2.5,0-3.8-1.7-3.8-4.2v-9H890.4z"/>
		<path class="st1" d="M909.5,419.7l-2,1.7c-0.8-0.9-1.6-1.4-2.4-1.4c-1.2,0-1.8,0.5-1.8,1.3c0,0.7,0.7,1.2,2.3,1.7
			c3.2,1,4.2,2.3,4.2,4.3c0,2.5-1.8,3.9-4.8,3.9c-2.1,0-3.7-0.9-4.9-2.6l2.1-1.5c0.9,1.3,1.9,1.9,3,1.9s1.8-0.6,1.8-1.5
			c0-0.8-0.8-1.2-2.4-1.8c-3.1-1-4.1-2.3-4.1-4.1c0-2.3,1.9-3.8,4.3-3.8C906.7,417.8,908.4,418.4,909.5,419.7z"/>
		<path class="st1" d="M920.6,419.7l-2,1.7c-0.8-0.9-1.6-1.4-2.4-1.4c-1.2,0-1.8,0.5-1.8,1.3c0,0.7,0.7,1.2,2.3,1.7
			c3.2,1,4.2,2.3,4.2,4.3c0,2.5-1.8,3.9-4.8,3.9c-2.1,0-3.7-0.9-4.9-2.6l2.1-1.5c0.9,1.3,1.9,1.9,3,1.9s1.8-0.6,1.8-1.5
			c0-0.8-0.8-1.2-2.4-1.8c-3.1-1-4.1-2.3-4.1-4.1c0-2.3,1.9-3.8,4.3-3.8C917.8,417.8,919.5,418.4,920.6,419.7z"/>
		<path class="st1" d="M926.9,412.7v2.9h-3.1v-2.9H926.9z M926.9,418v13h-3.1v-13H926.9z"/>
		<path class="st1" d="M939.8,422.9v6.3c0,0.4,0,1.2,0.2,1.8h-3l-0.2-1.1c-1.3,0.9-2.6,1.4-4,1.4c-2.2,0-3.5-1.5-3.5-3.4
			c0-2.9,2.4-4.5,7.4-5.1v-1.1c0-1-0.8-1.5-1.9-1.5c-1.1,0-2,0.5-2.8,1.6l-2-1.5c0.8-1.3,2.8-2.4,4.7-2.4
			C938.4,417.8,939.8,419.3,939.8,422.9z M933.8,429c0.8,0,1.9-0.6,2.8-1.4v-2.8c-3.6,0.6-4.3,1.5-4.3,2.6
			C932.3,428.4,933,429,933.8,429z"/>
		<path class="st1" d="M946.8,427.5v3.5l-1.6,3.7h-1.6l1.3-3.7h-1.5v-3.5H946.8z"/>
		<path class="st1" d="M970.2,416.8l-3.1,1c-0.6-1.5-1.7-2.3-3.2-2.3c-1.6,0-2.6,0.7-2.6,2s1.8,2,3.8,2.8c4.4,1.6,5.5,3.4,5.5,5.5
			c0,3.6-2.3,5.5-6.3,5.5c-3,0-5.8-1.7-6.8-4.3l2.8-1.2c0.9,2,2.1,2.8,3.9,2.8c2,0,3-0.8,3-2.4c0-1.5-1.6-2.3-4.4-3.4
			c-2.8-1.1-4.8-2.4-4.8-5c0-3,2.5-5,5.8-5C966.7,412.7,969.1,414.2,970.2,416.8z"/>
		<path class="st1" d="M983.7,424.5c0,4.1-2.1,6.7-5.6,6.7c-3.5,0-5.6-2.6-5.6-6.7c0-4.2,2.2-6.7,5.6-6.7
			C981.5,417.8,983.7,420.3,983.7,424.5z M978.1,428.8c1.7,0,2.5-1.3,2.5-4.2c0-2.9-0.8-4.2-2.5-4.2c-1.8,0-2.5,1.5-2.5,4.2
			C975.5,427.5,976.4,428.8,978.1,428.8z"/>
		<path class="st1" d="M989,418v8.5c0,1.4,0.4,2.2,1.6,2.2c1,0,2.1-0.5,2.9-1.4V418h3.1v13h-2.8v-1.4c-1.6,1.1-2.8,1.6-4,1.6
			c-2.5,0-3.8-1.7-3.8-4.2v-9H989z"/>
		<path class="st1" d="M1003.4,413.7v4.3h2.5v2.5h-2.5v7.4c0,0.6,0.3,0.9,1.1,0.9c0.5,0,1-0.2,1.4-0.2v2.5c-0.8,0.1-1.6,0.2-2.4,0.2
			c-2.2,0-3.2-1.1-3.2-3v-7.8h-1.8V418h1.8v-4.3H1003.4z"/>
		<path class="st1" d="M1011.2,413v6.4c1.3-1.1,2.5-1.6,3.7-1.6c2.5,0,3.8,1.7,3.8,4.2v9h-3.1v-8.5c0-1.4-0.4-2.2-1.6-2.2
			c-1.1,0-2.1,0.5-2.9,1.4v9.4h-3.1v-18H1011.2z"/>
		<path class="st1" d="M1037.9,412.9l5.1,18.1h-3.4l-1-3.9h-5.7l-1.1,3.9h-3.4l5.2-18.1H1037.9z M1035.8,416.4l-2.1,7.8h4.2
			L1035.8,416.4L1035.8,416.4z"/>
		<path class="st1" d="M1051.1,412.7v2.5h-0.8c-1.7,0-1.8,0.6-1.8,1.5v1.2h2.6v2.5h-2.6V431h-3.1v-10.5h-1.8V418h1.8v-1.7
			c0-2.6,1-3.6,3.6-3.6H1051.1z"/>
		<path class="st1" d="M1059.6,421c-0.1,0-0.2,0-0.6,0c-1.4,0-2.9,1.7-2.9,2.2v7.8h-3.1v-13h2.8v2.2h0c0.8-1.6,1.8-2.4,3.6-2.5V421z
			"/>
		<path class="st1" d="M1065,412.7v2.9h-3.1v-2.9H1065z M1065,418v13h-3.1v-13H1065z"/>
		<path class="st1" d="M1078.3,421.2l-2.6,1c-0.6-1.5-1.3-2-2.5-2c-1.7,0-2.5,1.3-2.5,4.2c0,2.9,0.8,4.2,2.6,4.2
			c1.1,0,1.9-0.6,2.7-2.1l2.3,1.3c-1.2,2.2-2.7,3.2-5.1,3.2c-3.6,0-5.7-2.6-5.7-6.7c0-4.1,2.2-6.7,5.6-6.7
			C1075.6,417.8,1077.6,419,1078.3,421.2z"/>
		<path class="st1" d="M1090.4,422.9v6.3c0,0.4,0,1.2,0.2,1.8h-3l-0.2-1.1c-1.3,0.9-2.6,1.4-4,1.4c-2.2,0-3.5-1.5-3.5-3.4
			c0-2.9,2.4-4.5,7.4-5.1v-1.1c0-1-0.8-1.5-1.9-1.5c-1.1,0-2,0.5-2.8,1.6l-2-1.5c0.8-1.3,2.8-2.4,4.7-2.4
			C1089,417.8,1090.4,419.3,1090.4,422.9z M1084.5,429c0.8,0,1.9-0.6,2.8-1.4v-2.8c-3.6,0.6-4.3,1.5-4.3,2.6
			C1083,428.4,1083.6,429,1084.5,429z"/>
		<path class="st1" d="M1097.5,427.5v3.5l-1.6,3.7h-1.6l1.3-3.7h-1.5v-3.5H1097.5z"/>
		<path class="st1" d="M1121.2,413v2.9h-8.5v4.3h6.2v2.9h-6.2v5h8.8v2.9h-12.2v-18H1121.2z"/>
		<path class="st1" d="M1134.7,417.8v2.1c-0.8,0-1.5,0-2,0.3c0.4,0.6,0.7,1.3,0.7,2.3c0,2.7-1.9,4.2-5,4.2c-2.2,0-2.3,0.4-2.3,0.8
			c0,0.6,0.6,0.9,2.8,1c2.2,0.1,3.6,0.4,4.5,1s1.2,1.4,1.2,2.5c0,2.2-2.3,3.8-6,3.8c-3.7,0-5.8-1.2-5.8-3.1c0-1.4,1-2.4,2.3-2.4v0
			c-1.5-0.6-1.9-1.2-1.9-2.1c0-1,1-2,2-2.4c-1.4-1.1-1.9-2.1-1.9-3.5c0-2.5,2-4.5,5.1-4.5c1.1,0,2.4,0.5,3.2,1.1
			c0.6-0.7,1.4-1.1,2.8-1.1H1134.7z M1129,433.7c1.8,0,2.7-0.8,2.7-1.5c0-0.8-1.3-1.5-3.9-1.5c-1.4,0-2.2,0.7-2.2,1.5
			C1125.6,433.3,1126.6,433.7,1129,433.7z M1128.4,424.4c1.2,0,2.1-1,2.1-2.1c0-1.2-0.9-2.1-2.1-2.1c-1.2,0-2.2,0.9-2.2,2.1
			C1126.1,423.4,1127.1,424.4,1128.4,424.4z"/>
		<path class="st1" d="M1138.3,418l2.1,8h0l2.2-8h3.1l-4.1,13c-0.2,0.8-0.6,1.7-1.1,2.6c-1,1.7-2.1,2.1-3.9,2.1
			c-0.5,0-0.8,0-1.5-0.1v-2.5c0.4,0.1,1.1,0.1,1.4,0.1c0.5,0,1.2-0.1,1.6-0.5c0.3-0.3,0.8-1.4,0.8-1.9c0-0.2,0-0.5-0.1-0.6
			l-3.8-12.1H1138.3z"/>
		<path class="st1" d="M1159.2,424.8c0,3.5-2,6.4-5.2,6.4c-1.1,0-2.5-0.7-3.1-1.4h0v5.9h-3.1V418h3v1.2c0.9-0.9,1.9-1.5,3.3-1.5
			C1157.2,417.8,1159.2,420.6,1159.2,424.8z M1150.8,427.7c0.7,0.7,1.6,1.1,2.4,1.1c1.8,0,2.9-1.5,2.9-4.2c0-2.8-1-4.2-2.9-4.2
			c-1.1,0-2.1,0.9-2.4,1.1V427.7z"/>
		<path class="st1" d="M1165.2,413.7v4.3h2.5v2.5h-2.5v7.4c0,0.6,0.3,0.9,1.1,0.9c0.5,0,1-0.2,1.4-0.2v2.5c-0.8,0.1-1.6,0.2-2.4,0.2
			c-2.2,0-3.2-1.1-3.2-3v-7.8h-1.8V418h1.8v-4.3H1165.2z"/>
		<path class="st1" d="M1173.8,427.5v3.5l-1.6,3.7h-1.6l1.3-3.7h-1.5v-3.5H1173.8z"/>
		<path class="st1" d="M1189.1,413v11.5c0,2.6,0.9,3.9,3.5,3.9c2.6,0,3.5-1.3,3.5-3.9V413h3.4v11.4c0,4.4-2.5,6.9-6.9,6.9
			c-4.5,0-6.9-2.6-6.9-6.9V413H1189.1z"/>
		<path class="st1" d="M1211.4,412.9l5.1,18.1h-3.4l-1-3.9h-5.7l-1.1,3.9h-3.4l5.2-18.1H1211.4z M1209.3,416.4l-2.1,7.8h4.2
			L1209.3,416.4L1209.3,416.4z"/>
		<path class="st1" d="M1230.9,413v2.9h-8.5v4.3h6.2v2.9h-6.2v5h8.8v2.9H1219v-18H1230.9z"/>
		<path class="st1" d="M1250.8,422.9v6.3c0,0.4,0,1.2,0.2,1.8h-3l-0.2-1.1c-1.3,0.9-2.6,1.4-4,1.4c-2.2,0-3.5-1.5-3.5-3.4
			c0-2.9,2.4-4.5,7.4-5.1v-1.1c0-1-0.8-1.5-1.9-1.5c-1.1,0-2,0.5-2.8,1.6l-2-1.5c0.9-1.3,2.8-2.4,4.7-2.4
			C1249.3,417.8,1250.8,419.3,1250.8,422.9z M1244.8,429c0.8,0,1.9-0.6,2.8-1.4v-2.8c-3.6,0.6-4.3,1.5-4.3,2.6
			C1243.3,428.4,1243.9,429,1244.8,429z"/>
		<path class="st1" d="M1264.6,422v9h-3.1v-8.5c0-1.4-0.4-2.2-1.6-2.2c-1.1,0-2.1,0.5-2.9,1.4v9.4h-3.1v-13h2.8v1.4
			c1.6-1.1,2.8-1.6,4-1.6C1263.2,417.8,1264.6,419.4,1264.6,422z"/>
		<path class="st1" d="M1278.5,413v18h-2.6l-0.2-1.4c-1.1,1.1-2.1,1.6-3.5,1.6c-3.3,0-5.2-2.9-5.2-7.1c0-3.4,2-6.4,5.2-6.4
			c1.1,0,2.5,0.6,3.1,1.5h0.1V413H1278.5z M1273,428.8c1.2,0,1.9-0.6,2.4-1.2v-6.2c-0.7-0.6-1.4-1.1-2.4-1.1c-1.8,0-2.9,1.4-2.9,4.2
			C1270.1,427.3,1271.1,428.8,1273,428.8z"/>
		<path class="st1" d="M1293.1,413v8l6-8h4l-5.1,6.8l5.9,11.3h-3.8l-4.5-8.6l-2.5,3.1v5.4h-3.4v-18H1293.1z"/>
		<path class="st1" d="M1309.1,418v8.5c0,1.4,0.4,2.2,1.6,2.2c1,0,2.1-0.5,2.9-1.4V418h3.1v13h-2.8v-1.4c-1.6,1.1-2.8,1.6-4,1.6
			c-2.5,0-3.8-1.7-3.8-4.2v-9H1309.1z"/>
		<path class="st1" d="M1321.5,418l1.8,8.1h0l1.9-8.1h2.9l1.8,8.1h0l1.8-8.1h2.9l-3.3,13h-2.8l-1.9-8.1h0l-1.9,8.1h-2.8l-3.3-13
			H1321.5z"/>
		<path class="st1" d="M1345.9,422.9v6.3c0,0.4,0,1.2,0.2,1.8h-3l-0.2-1.1c-1.3,0.9-2.6,1.4-4,1.4c-2.2,0-3.5-1.5-3.5-3.4
			c0-2.9,2.4-4.5,7.4-5.1v-1.1c0-1-0.8-1.5-1.9-1.5c-1.1,0-2,0.5-2.8,1.6l-2-1.5c0.9-1.3,2.8-2.4,4.7-2.4
			C1344.5,417.8,1345.9,419.3,1345.9,422.9z M1340,429c0.8,0,1.9-0.6,2.8-1.4v-2.8c-3.6,0.6-4.3,1.5-4.3,2.6
			C1338.5,428.4,1339.1,429,1340,429z"/>
		<path class="st1" d="M1352.5,412.7v2.9h-3.1v-2.9H1352.5z M1352.5,418v13h-3.1v-13H1352.5z"/>
		<path class="st1" d="M1359.6,413.7v4.3h2.5v2.5h-2.5v7.4c0,0.6,0.3,0.9,1.1,0.9c0.5,0,1-0.2,1.4-0.2v2.5c-0.8,0.1-1.6,0.2-2.4,0.2
			c-2.2,0-3.2-1.1-3.2-3v-7.8h-1.8V418h1.8v-4.3H1359.6z"/>
		<path class="st1" d="M1368.2,427.5v3.5h-3.4v-3.5H1368.2z"/>
	</g>
</g>
</svg>
