<?xml version="1.0" encoding="utf-8"?>
<!-- Generator: Adobe Illustrator 26.3.1, SVG Export Plug-In . SVG Version: 6.00 Build 0)  -->
<svg version="1.1" id="Layer_1" xmlns="http://www.w3.org/2000/svg" xmlns:xlink="http://www.w3.org/1999/xlink" x="0px" y="0px"
	 viewBox="0 0 624 52" style="enable-background:new 0 0 624 52;" xml:space="preserve">
<style type="text/css">
	.st0{enable-background:new    ;}
	.st1{fill:#FFFFFF;}
</style>
<g class="st0">
	<path class="st1" d="M18,8.5c0,5.7-4.1,8.7-8.8,8.7c-5,0-8.8-3.7-8.8-8.3c0-6.4,5-8.8,8.8-8.8C14.3,0.2,18,3.9,18,8.5z M9.2,15.6
		c3.7,0,6.5-2.9,6.5-6.9c0-3.9-2.9-6.9-6.6-6.9c-3.6,0-6.5,2.9-6.5,6.9C2.7,12.7,5.5,15.6,9.2,15.6z M13.6,7.2h-2
		c-0.2-1-1-1.5-2.1-1.5C8,5.7,7.2,6.8,7.2,8.6c0,1.7,1,3,2.4,3c1.1,0,1.9-0.5,2-1.6h2.1c-0.3,2.2-2,3.6-4.1,3.6
		c-2.9,0-4.8-2.1-4.8-5c0-2.9,1.9-5,4.8-5C11.6,3.7,13.2,5,13.6,7.2z"/>
	<path class="st1" d="M40,8.7c0,5.4-2.5,8.5-7,8.5s-7-3.1-7-8.5c0-5.5,2.5-8.5,7-8.5S40,3.2,40,8.7z M33.1,14.6
		c2.6,0,3.8-1.9,3.8-5.9c0-3.9-1.2-5.9-3.8-5.9c-2.5,0-3.8,1.8-3.8,6C29.3,12.7,30.5,14.6,33.1,14.6z"/>
	<path class="st1" d="M51.2,8l-2.4,0.9c-0.6-1.4-1.2-1.8-2.3-1.8c-1.6,0-2.3,1.2-2.3,3.9c0,2.7,0.8,3.9,2.4,3.9c1,0,1.8-0.5,2.5-1.9
		l2.2,1.2c-1.1,2-2.5,3-4.7,3c-3.3,0-5.2-2.4-5.2-6.2c0-3.8,2-6.2,5.2-6.2C48.7,4.8,50.5,6,51.2,8z"/>
	<path class="st1" d="M57,1.1v4h2.3v2.3H57v6.8c0,0.5,0.3,0.8,1,0.8c0.4,0,0.9-0.1,1.3-0.2V17c-0.8,0.1-1.4,0.2-2.3,0.2
		c-2,0-2.9-1-2.9-2.7V7.3h-1.7V5h1.7v-4H57z"/>
	<path class="st1" d="M70.9,11c0,3.8-2,6.2-5.2,6.2c-3.2,0-5.2-2.4-5.2-6.2c0-3.9,2-6.2,5.2-6.2S70.9,7.2,70.9,11z M65.7,14.9
		c1.6,0,2.3-1.2,2.3-3.9c0-2.6-0.8-3.9-2.3-3.9c-1.7,0-2.3,1.4-2.3,3.9C63.3,13.8,64.1,14.9,65.7,14.9z"/>
	<path class="st1" d="M75.7,0.4v5.7h0c0.6-0.7,1.8-1.3,2.9-1.3c2.9,0,4.8,2.7,4.8,5.9c0,3.9-1.8,6.5-4.8,6.5c-1.3,0-2.2-0.5-3.2-1.5
		L75.1,17h-2.2V0.4H75.7z M75.7,13.9c0.4,0.3,0.9,1.1,2.2,1.1c1.7,0,2.7-1.4,2.7-3.9s-1-3.9-2.7-3.9c-0.8,0-1.5,0.4-2.2,1V13.9z"/>
	<path class="st1" d="M94.8,10.2v1.2h-7.2c0,2.2,0.9,3.4,2.5,3.4c1,0,1.7-0.3,2.7-1.4l2.1,1.3c-1.1,1.7-2.7,2.4-5,2.4
		c-3.1,0-5.1-2.4-5.1-6.2s2-6.2,5.2-6.2C93.3,4.8,94.8,7.8,94.8,10.2z M92.2,9.5c0-1.6-0.9-2.6-2.3-2.6c-1.4,0-2.2,0.9-2.3,2.6H92.2
		z"/>
	<path class="st1" d="M103,7.8c-0.1,0-0.2,0-0.5,0c-1.3,0-2.6,1.5-2.6,2V17H97V5h2.6v2h0c0.7-1.4,1.7-2.2,3.4-2.3V7.8z"/>
	<path class="st1" d="M122.8,5c0,1.8-0.8,3.2-2.1,4.5c-1.1,1.1-4.6,3.8-5.8,4.9h7.9V17h-11.2v-2.7c0.2-0.8,1.2-2,3.5-3.8
		c4-3.2,4.7-4.4,4.7-5.5c0-1.4-0.9-2.3-2.5-2.3c-1.5,0-2.6,0.9-3,2.6l-2.7-0.6c0.4-2.7,2.9-4.5,5.7-4.5C120.5,0.2,122.8,2,122.8,5z"
		/>
	<path class="st1" d="M137.5,8.7c0,5.5-2.2,8.5-6,8.5c-3.9,0-6-3-6-8.5c0-5.5,2.1-8.5,6-8.5C135.4,0.2,137.5,3.2,137.5,8.7z
		 M131.4,14.7c2,0,3.1-2,3.1-6c0-4-1-6-3.1-6c-2,0-3,2-3,6C128.4,12.7,129.4,14.7,131.4,14.7z"/>
	<path class="st1" d="M150.9,5c0,1.8-0.8,3.2-2.1,4.5c-1.1,1.1-4.6,3.8-5.8,4.9h7.9V17h-11.2v-2.7c0.2-0.8,1.2-2,3.5-3.8
		c4-3.2,4.7-4.4,4.7-5.5c0-1.4-0.9-2.3-2.5-2.3c-1.5,0-2.6,0.9-3,2.6l-2.7-0.6c0.4-2.7,2.9-4.5,5.7-4.5C148.6,0.2,150.9,2,150.9,5z"
		/>
	<path class="st1" d="M165,5c0,1.8-0.8,3.2-2.1,4.5c-1.1,1.1-4.6,3.8-5.8,4.9h7.9V17h-11.2v-2.7c0.2-0.8,1.2-2,3.5-3.8
		c4-3.2,4.7-4.4,4.7-5.5c0-1.4-0.9-2.3-2.5-2.3c-1.5,0-2.6,0.9-3,2.6l-2.7-0.6c0.4-2.7,2.9-4.5,5.7-4.5C162.7,0.2,165,2,165,5z"/>
	<path class="st1" d="M182.6,0.4l4.7,16.6h-3.2l-0.9-3.6H178l-1,3.6h-3.2l4.8-16.6H182.6z M180.7,3.6l-2,7.2h3.9L180.7,3.6
		L180.7,3.6z"/>
	<path class="st1" d="M196.7,6.6l-1.8,1.6c-0.8-0.9-1.5-1.3-2.2-1.3c-1.1,0-1.6,0.4-1.6,1.2c0,0.7,0.6,1.1,2.1,1.6
		c2.9,1,3.8,2.1,3.8,4c0,2.3-1.6,3.6-4.4,3.6c-1.9,0-3.4-0.8-4.5-2.4l1.9-1.4c0.9,1.2,1.8,1.7,2.8,1.7s1.7-0.6,1.7-1.4
		c0-0.7-0.7-1.1-2.2-1.7c-2.9-1-3.8-2.1-3.8-3.8c0-2.1,1.8-3.5,4-3.5C194.2,4.8,195.7,5.4,196.7,6.6z"/>
	<path class="st1" d="M202.6,1.1v4h2.3v2.3h-2.3v6.8c0,0.5,0.3,0.8,1,0.8c0.4,0,0.9-0.1,1.3-0.2V17c-0.8,0.1-1.4,0.2-2.3,0.2
		c-2,0-2.9-1-2.9-2.7V7.3h-1.7V5h1.7v-4H202.6z"/>
	<path class="st1" d="M216.1,10.2v1.2h-7.2c0,2.2,0.9,3.4,2.5,3.4c1,0,1.7-0.3,2.7-1.4l2.1,1.3c-1.1,1.7-2.7,2.4-5,2.4
		c-3.1,0-5.1-2.4-5.1-6.2s2-6.2,5.2-6.2C214.6,4.8,216.1,7.8,216.1,10.2z M213.5,9.5c0-1.6-0.9-2.6-2.3-2.6c-1.4,0-2.2,0.9-2.3,2.6
		H213.5z"/>
	<path class="st1" d="M221.6,0.4V17h-2.9V0.4H221.6z"/>
	<path class="st1" d="M228,0.4V17h-2.9V0.4H228z"/>
	<path class="st1" d="M239.9,9.5v5.8c0,0.4,0,1.1,0.2,1.6h-2.8l-0.2-1c-1.2,0.9-2.4,1.3-3.7,1.3c-2,0-3.3-1.4-3.3-3.2
		c0-2.7,2.3-4.2,6.9-4.7v-1c0-0.9-0.7-1.4-1.8-1.4c-1,0-1.9,0.4-2.6,1.5L230.9,7c0.8-1.2,2.5-2.2,4.3-2.2
		C238.6,4.8,239.9,6.2,239.9,9.5z M234.5,15.1c0.7,0,1.8-0.6,2.6-1.3v-2.6c-3.3,0.5-4,1.4-4,2.4C233.1,14.6,233.7,15.1,234.5,15.1z"
		/>
	<path class="st1" d="M250.4,6.6l-1.8,1.6c-0.8-0.9-1.5-1.3-2.2-1.3c-1.1,0-1.6,0.4-1.6,1.2c0,0.7,0.6,1.1,2.1,1.6
		c2.9,1,3.8,2.1,3.8,4c0,2.3-1.6,3.6-4.4,3.6c-1.9,0-3.4-0.8-4.5-2.4l1.9-1.4c0.9,1.2,1.8,1.7,2.8,1.7s1.7-0.6,1.7-1.4
		c0-0.7-0.7-1.1-2.2-1.7c-2.9-1-3.8-2.1-3.8-3.8c0-2.1,1.8-3.5,4-3.5C247.8,4.8,249.4,5.4,250.4,6.6z"/>
	<path class="st1" d="M266.2,0.4c3.7,0,5.8,1.7,5.8,4.9s-2.1,4.9-5.8,4.9h-3V17h-3.2V0.4H266.2z M265.9,7.7c1.9,0,3-0.6,3-2.4
		c0-1.7-1.1-2.4-3-2.4h-2.6v4.7H265.9z"/>
	<path class="st1" d="M276.9,0.4v5.9c1.2-1,2.3-1.5,3.4-1.5c2.3,0,3.5,1.5,3.5,3.9V17h-2.9V9.1c0-1.3-0.4-2-1.5-2
		c-1,0-2,0.5-2.7,1.3V17h-2.9V0.4H276.9z"/>
	<path class="st1" d="M295.5,9.5v5.8c0,0.4,0,1.1,0.2,1.6h-2.8l-0.2-1c-1.2,0.9-2.4,1.3-3.7,1.3c-2,0-3.3-1.4-3.3-3.2
		c0-2.7,2.3-4.2,6.9-4.7v-1c0-0.9-0.7-1.4-1.8-1.4c-1,0-1.9,0.4-2.6,1.5L286.4,7c0.8-1.2,2.5-2.2,4.3-2.2
		C294.2,4.8,295.5,6.2,295.5,9.5z M290,15.1c0.7,0,1.8-0.6,2.6-1.3v-2.6c-3.3,0.5-4,1.4-4,2.4C288.6,14.6,289.2,15.1,290,15.1z"/>
	<path class="st1" d="M304.2,7.8c-0.1,0-0.2,0-0.5,0c-1.3,0-2.6,1.5-2.6,2V17h-2.9V5h2.6v2h0c0.7-1.4,1.7-2.2,3.4-2.3V7.8z"/>
	<path class="st1" d="M315.1,6.6c1.3-1.3,2.5-1.7,4.1-1.7c1.9,0,3,1.4,3,3.5V17h-2.9V8.6c0-1-0.5-1.5-1.4-1.5
		c-0.6,0-1.5,0.5-2.4,1.3V17h-2.9V8.6c0-1-0.6-1.5-1.4-1.5c-0.6,0-1.5,0.5-2.4,1.3V17H306V5h2.6v1.3c1.2-1.1,2.1-1.5,3.6-1.5
		C313.5,4.8,314.6,5.5,315.1,6.6z"/>
	<path class="st1" d="M333.8,9.5v5.8c0,0.4,0,1.1,0.2,1.6h-2.8l-0.2-1c-1.2,0.9-2.4,1.3-3.7,1.3c-2,0-3.3-1.4-3.3-3.2
		c0-2.7,2.3-4.2,6.9-4.7v-1c0-0.9-0.7-1.4-1.8-1.4c-1,0-1.9,0.4-2.6,1.5L324.8,7c0.8-1.2,2.5-2.2,4.3-2.2
		C332.5,4.8,333.8,6.2,333.8,9.5z M328.3,15.1c0.7,0,1.8-0.6,2.6-1.3v-2.6c-3.3,0.5-4,1.4-4,2.4C327,14.6,327.5,15.1,328.3,15.1z"/>
	<path class="st1" d="M347.6,0.4V17h-3.2V0.4H347.6z"/>
	<path class="st1" d="M361.2,8.7V17h-2.9V9.1c0-1.3-0.4-2-1.5-2c-1,0-2,0.5-2.7,1.3V17h-2.9V5h2.6v1.3c1.4-1,2.6-1.5,3.7-1.5
		C360,4.8,361.2,6.4,361.2,8.7z"/>
	<path class="st1" d="M373.1,8l-2.4,0.9c-0.6-1.4-1.2-1.8-2.3-1.8c-1.6,0-2.3,1.2-2.3,3.9c0,2.7,0.8,3.9,2.4,3.9
		c1,0,1.8-0.5,2.5-1.9l2.2,1.2c-1.1,2-2.5,3-4.7,3c-3.3,0-5.2-2.4-5.2-6.2c0-3.8,2-6.2,5.2-6.2C370.6,4.8,372.4,6,373.1,8z"/>
	<path class="st1" d="M379.2,13.7V17h-3.2v-3.3H379.2z"/>
	<path class="st1" d="M399.1,11c0,3.8-2,6.2-5.2,6.2c-3.2,0-5.2-2.4-5.2-6.2c0-3.9,2-6.2,5.2-6.2S399.1,7.2,399.1,11z M393.9,14.9
		c1.6,0,2.3-1.2,2.3-3.9c0-2.6-0.8-3.9-2.3-3.9c-1.7,0-2.3,1.4-2.3,3.9C391.6,13.8,392.4,14.9,393.9,14.9z"/>
	<path class="st1" d="M407,7.8c-0.1,0-0.2,0-0.5,0c-1.3,0-2.6,1.5-2.6,2V17H401V5h2.6v2h0c0.7-1.4,1.7-2.2,3.4-2.3V7.8z"/>
	<path class="st1" d="M419,0.2v2.7h-2.9V0.2H419z M419,5v12h-2.9V5H419z"/>
	<path class="st1" d="M425.5,1.1v4h2.3v2.3h-2.3v6.8c0,0.5,0.3,0.8,1,0.8c0.4,0,0.9-0.1,1.3-0.2V17c-0.8,0.1-1.4,0.2-2.3,0.2
		c-2,0-2.9-1-2.9-2.7V7.3H421V5h1.7v-4H425.5z"/>
	<path class="st1" d="M437.5,6.6l-1.8,1.6c-0.8-0.9-1.5-1.3-2.2-1.3c-1.1,0-1.6,0.4-1.6,1.2c0,0.7,0.6,1.1,2.1,1.6
		c2.9,1,3.8,2.1,3.8,4c0,2.3-1.6,3.6-4.4,3.6c-1.9,0-3.4-0.8-4.5-2.4l1.9-1.4c0.9,1.2,1.8,1.7,2.8,1.7s1.7-0.6,1.7-1.4
		c0-0.7-0.7-1.1-2.2-1.7c-2.9-1-3.8-2.1-3.8-3.8c0-2.1,1.8-3.5,4-3.5C434.9,4.8,436.5,5.4,437.5,6.6z"/>
	<path class="st1" d="M455.8,9.5v5.8c0,0.4,0,1.1,0.2,1.6h-2.8l-0.2-1c-1.2,0.9-2.4,1.3-3.7,1.3c-2,0-3.3-1.4-3.3-3.2
		c0-2.7,2.3-4.2,6.9-4.7v-1c0-0.9-0.7-1.4-1.8-1.4c-1,0-1.9,0.4-2.6,1.5L446.7,7c0.8-1.2,2.5-2.2,4.3-2.2
		C454.4,4.8,455.8,6.2,455.8,9.5z M450.3,15.1c0.7,0,1.8-0.6,2.6-1.3v-2.6c-3.3,0.5-4,1.4-4,2.4C448.9,14.6,449.5,15.1,450.3,15.1z"
		/>
	<path class="st1" d="M464.3,0.2v2.3h-0.7c-1.6,0-1.7,0.6-1.7,1.4V5h2.4v2.3h-2.4V17h-2.9V7.3h-1.7V5h1.6V3.5c0-2.4,1-3.3,3.3-3.3
		H464.3z"/>
	<path class="st1" d="M472,0.2v2.3h-0.7c-1.6,0-1.7,0.6-1.7,1.4V5h2.4v2.3h-2.4V17h-2.9V7.3h-1.7V5h1.6V3.5c0-2.4,1-3.3,3.3-3.3H472
		z M476.1,0.2v2.7h-2.9V0.2H476.1z M476.1,5v12h-2.9V5H476.1z"/>
	<path class="st1" d="M482.2,0.4V17h-2.9V0.4H482.2z"/>
	<path class="st1" d="M488.6,0.2v2.7h-2.9V0.2H488.6z M488.6,5v12h-2.9V5H488.6z"/>
	<path class="st1" d="M500.5,9.5v5.8c0,0.4,0,1.1,0.2,1.6h-2.8l-0.2-1c-1.2,0.9-2.4,1.3-3.7,1.3c-2,0-3.3-1.4-3.3-3.2
		c0-2.7,2.3-4.2,6.9-4.7v-1c0-0.9-0.7-1.4-1.8-1.4c-1,0-1.9,0.4-2.6,1.5L491.4,7c0.8-1.2,2.5-2.2,4.3-2.2
		C499.2,4.8,500.5,6.2,500.5,9.5z M495,15.1c0.7,0,1.8-0.6,2.6-1.3v-2.6c-3.3,0.5-4,1.4-4,2.4C493.6,14.6,494.2,15.1,495,15.1z"/>
	<path class="st1" d="M506.7,1.1v4h2.3v2.3h-2.3v6.8c0,0.5,0.3,0.8,1,0.8c0.4,0,0.9-0.1,1.3-0.2V17c-0.8,0.1-1.4,0.2-2.3,0.2
		c-2,0-2.9-1-2.9-2.7V7.3h-1.7V5h1.7v-4H506.7z"/>
	<path class="st1" d="M520.2,10.2v1.2h-7.2c0,2.2,0.9,3.4,2.5,3.4c1,0,1.7-0.3,2.7-1.4l2.1,1.3c-1.1,1.7-2.7,2.4-5,2.4
		c-3.1,0-5.1-2.4-5.1-6.2s2-6.2,5.2-6.2C518.6,4.8,520.2,7.8,520.2,10.2z M517.5,9.5c0-1.6-0.9-2.6-2.3-2.6c-1.4,0-2.2,0.9-2.3,2.6
		H517.5z"/>
	<path class="st1" d="M530.1,6.6l-1.8,1.6c-0.8-0.9-1.5-1.3-2.2-1.3c-1.1,0-1.6,0.4-1.6,1.2c0,0.7,0.6,1.1,2.1,1.6
		c2.9,1,3.8,2.1,3.8,4c0,2.3-1.6,3.6-4.4,3.6c-1.9,0-3.4-0.8-4.5-2.4l1.9-1.4c0.9,1.2,1.8,1.7,2.8,1.7s1.7-0.6,1.7-1.4
		c0-0.7-0.7-1.1-2.2-1.7c-2.9-1-3.8-2.1-3.8-3.8c0-2.1,1.8-3.5,4-3.5C527.5,4.8,529.1,5.4,530.1,6.6z"/>
	<path class="st1" d="M536.3,13.7V17h-3.2v-3.3H536.3z"/>
</g>
<g class="st0">
	<path class="st1" d="M9,29.4L13.8,46h-3.2l-0.9-3.6H4.4l-1,3.6H0.3l4.8-16.6H9z M7.1,32.6l-2,7.2H9L7.1,32.6L7.1,32.6z"/>
	<path class="st1" d="M18.7,29.4V46h-2.9V29.4H18.7z"/>
	<path class="st1" d="M25.1,29.4V46h-2.9V29.4H25.1z"/>
	<path class="st1" d="M38.6,30.1v4H41v2.3h-2.3v6.8c0,0.5,0.3,0.8,1,0.8c0.4,0,0.9-0.1,1.3-0.2V46c-0.8,0.1-1.4,0.2-2.3,0.2
		c-2,0-2.9-1-2.9-2.7v-7.2h-1.7V34h1.7v-4H38.6z"/>
	<path class="st1" d="M48.8,36.8c-0.1,0-0.2,0-0.5,0c-1.3,0-2.6,1.5-2.6,2V46h-2.9V34h2.6v2h0c0.7-1.4,1.7-2.2,3.4-2.3V36.8z"/>
	<path class="st1" d="M59.3,38.5v5.8c0,0.4,0,1.1,0.2,1.6h-2.8l-0.2-1c-1.2,0.9-2.4,1.3-3.7,1.3c-2,0-3.3-1.4-3.3-3.2
		c0-2.7,2.3-4.2,6.9-4.7v-1c0-0.9-0.7-1.4-1.8-1.4c-1,0-1.9,0.4-2.6,1.5L50.2,36c0.8-1.2,2.5-2.2,4.3-2.2
		C58,33.8,59.3,35.2,59.3,38.5z M53.8,44.1c0.7,0,1.8-0.6,2.6-1.3v-2.6c-3.3,0.5-4,1.4-4,2.4C52.4,43.6,53,44.1,53.8,44.1z"/>
	<path class="st1" d="M72,29.4V46h-2.4l-0.1-1.3c-1,1-2,1.5-3.2,1.5c-3.1,0-4.8-2.6-4.8-6.5c0-3.1,1.8-5.9,4.8-5.9
		c1,0,2.3,0.6,2.9,1.3h0v-5.7H72z M66.9,43.9c1.1,0,1.8-0.6,2.2-1.1v-5.7c-0.6-0.6-1.3-1-2.2-1c-1.7,0-2.6,1.3-2.6,3.9
		S65.2,43.9,66.9,43.9z"/>
	<path class="st1" d="M84.1,39.2v1.2h-7.2c0,2.2,0.9,3.4,2.5,3.4c1,0,1.7-0.3,2.7-1.4l2.1,1.3c-1.1,1.7-2.7,2.4-5,2.4
		C76,46.2,74,43.8,74,40s2-6.2,5.2-6.2C82.6,33.8,84.1,36.8,84.1,39.2z M81.5,38.5c0-1.6-0.9-2.6-2.3-2.6c-1.4,0-2.2,0.9-2.3,2.6
		H81.5z"/>
	<path class="st1" d="M95.6,35.6c1.3-1.3,2.5-1.7,4.1-1.7c1.9,0,3,1.4,3,3.5V46h-2.9v-8.4c0-1-0.5-1.5-1.4-1.5
		c-0.6,0-1.5,0.5-2.4,1.3V46h-2.9v-8.4c0-1-0.6-1.5-1.4-1.5c-0.6,0-1.5,0.5-2.4,1.3V46h-2.9V34H89v1.3c1.2-1.1,2.1-1.5,3.6-1.5
		C93.9,33.8,95,34.5,95.6,35.6z"/>
	<path class="st1" d="M114.2,38.5v5.8c0,0.4,0,1.1,0.2,1.6h-2.8l-0.2-1c-1.2,0.9-2.4,1.3-3.7,1.3c-2,0-3.3-1.4-3.3-3.2
		c0-2.7,2.3-4.2,6.9-4.7v-1c0-0.9-0.7-1.4-1.8-1.4c-1,0-1.9,0.4-2.6,1.5l-1.8-1.4c0.8-1.2,2.5-2.2,4.3-2.2
		C112.9,33.8,114.2,35.2,114.2,38.5z M108.8,44.1c0.7,0,1.8-0.6,2.6-1.3v-2.6c-3.3,0.5-4,1.4-4,2.4C107.4,43.6,108,44.1,108.8,44.1z
		"/>
	<path class="st1" d="M122.9,36.8c-0.1,0-0.2,0-0.5,0c-1.3,0-2.6,1.5-2.6,2V46h-2.9V34h2.6v2h0c0.7-1.4,1.7-2.2,3.4-2.3V36.8z"/>
	<path class="st1" d="M127.6,29.4v9.3h0.1l3.5-4.6h3.3l-3.5,4.5l3.8,7.5h-3l-2.6-5.4l-1.4,1.7V46h-2.9V29.4H127.6z"/>
	<path class="st1" d="M143.9,35.6l-1.8,1.6c-0.8-0.9-1.5-1.3-2.2-1.3c-1.1,0-1.6,0.4-1.6,1.2c0,0.7,0.6,1.1,2.1,1.6
		c2.9,1,3.8,2.1,3.8,4c0,2.3-1.6,3.6-4.4,3.6c-1.9,0-3.4-0.8-4.5-2.4l1.9-1.4c0.9,1.2,1.8,1.7,2.8,1.7s1.7-0.6,1.7-1.4
		c0-0.7-0.7-1.1-2.2-1.7c-2.9-1-3.8-2.1-3.8-3.8c0-2.1,1.8-3.5,4-3.5C141.3,33.8,142.8,34.4,143.9,35.6z"/>
	<path class="st1" d="M162.1,38.5v5.8c0,0.4,0,1.1,0.2,1.6h-2.8l-0.2-1c-1.2,0.9-2.4,1.3-3.7,1.3c-2,0-3.3-1.4-3.3-3.2
		c0-2.7,2.3-4.2,6.9-4.7v-1c0-0.9-0.7-1.4-1.8-1.4c-1,0-1.9,0.4-2.6,1.5l-1.8-1.4c0.8-1.2,2.5-2.2,4.3-2.2
		C160.8,33.8,162.1,35.2,162.1,38.5z M156.7,44.1c0.7,0,1.8-0.6,2.6-1.3v-2.6c-3.3,0.5-4,1.4-4,2.4
		C155.3,43.6,155.8,44.1,156.7,44.1z"/>
	<path class="st1" d="M170.8,36.8c-0.1,0-0.2,0-0.5,0c-1.3,0-2.6,1.5-2.6,2V46h-2.9V34h2.6v2h0c0.7-1.4,1.7-2.2,3.4-2.3V36.8z"/>
	<path class="st1" d="M181.8,39.2v1.2h-7.2c0,2.2,0.9,3.4,2.5,3.4c1,0,1.7-0.3,2.7-1.4l2.1,1.3c-1.1,1.7-2.7,2.4-5,2.4
		c-3.1,0-5.1-2.4-5.1-6.2s2-6.2,5.2-6.2C180.3,33.8,181.8,36.8,181.8,39.2z M179.2,38.5c0-1.6-0.9-2.6-2.3-2.6
		c-1.4,0-2.2,0.9-2.3,2.6H179.2z"/>
	<path class="st1" d="M194.5,30.1v4h2.3v2.3h-2.3v6.8c0,0.5,0.3,0.8,1,0.8c0.4,0,0.9-0.1,1.3-0.2V46c-0.8,0.1-1.4,0.2-2.3,0.2
		c-2,0-2.9-1-2.9-2.7v-7.2H190V34h1.7v-4H194.5z"/>
	<path class="st1" d="M201.7,29.4v5.9c1.2-1,2.3-1.5,3.4-1.5c2.3,0,3.5,1.5,3.5,3.9V46h-2.9v-7.9c0-1.3-0.4-2-1.5-2
		c-1,0-2,0.5-2.7,1.3V46h-2.9V29.4H201.7z"/>
	<path class="st1" d="M220.8,39.2v1.2h-7.2c0,2.2,0.9,3.4,2.5,3.4c1,0,1.7-0.3,2.7-1.4l2.1,1.3c-1.1,1.7-2.7,2.4-5,2.4
		c-3.1,0-5.1-2.4-5.1-6.2s2-6.2,5.2-6.2C219.2,33.8,220.8,36.8,220.8,39.2z M218.1,38.5c0-1.6-0.9-2.6-2.3-2.6
		c-1.4,0-2.2,0.9-2.3,2.6H218.1z"/>
	<path class="st1" d="M240.7,40.3c0,3.2-1.9,5.9-4.8,5.9c-1,0-2.3-0.6-2.9-1.3h0v5.5h-2.9V34h2.7v1.1c0.8-0.8,1.8-1.3,3.1-1.3
		C238.9,33.8,240.7,36.4,240.7,40.3z M233,42.9c0.7,0.6,1.4,1,2.2,1c1.7,0,2.7-1.4,2.7-3.9c0-2.5-0.9-3.9-2.7-3.9
		c-1.1,0-1.9,0.8-2.2,1.1V42.9z"/>
	<path class="st1" d="M248.7,36.8c-0.1,0-0.2,0-0.5,0c-1.3,0-2.6,1.5-2.6,2V46h-2.9V34h2.6v2h0c0.7-1.4,1.7-2.2,3.4-2.3V36.8z"/>
	<path class="st1" d="M260,40c0,3.8-2,6.2-5.2,6.2c-3.2,0-5.2-2.4-5.2-6.2c0-3.9,2-6.2,5.2-6.2S260,36.2,260,40z M254.8,43.9
		c1.6,0,2.3-1.2,2.3-3.9c0-2.6-0.8-3.9-2.3-3.9c-1.7,0-2.3,1.4-2.3,3.9C252.5,42.8,253.3,43.9,254.8,43.9z"/>
	<path class="st1" d="M272.6,40.3c0,3.2-1.9,5.9-4.8,5.9c-1,0-2.3-0.6-2.9-1.3h0v5.5h-2.9V34h2.7v1.1c0.8-0.8,1.8-1.3,3.1-1.3
		C270.9,33.8,272.6,36.4,272.6,40.3z M264.9,42.9c0.7,0.6,1.4,1,2.2,1c1.7,0,2.7-1.4,2.7-3.9c0-2.5-0.9-3.9-2.7-3.9
		c-1.1,0-1.9,0.8-2.2,1.1V42.9z"/>
	<path class="st1" d="M284,39.2v1.2h-7.2c0,2.2,0.9,3.4,2.5,3.4c1,0,1.7-0.3,2.7-1.4l2.1,1.3c-1.1,1.7-2.7,2.4-5,2.4
		c-3.1,0-5.1-2.4-5.1-6.2s2-6.2,5.2-6.2C282.5,33.8,284,36.8,284,39.2z M281.4,38.5c0-1.6-0.9-2.6-2.3-2.6c-1.4,0-2.2,0.9-2.3,2.6
		H281.4z"/>
	<path class="st1" d="M292.2,36.8c-0.1,0-0.2,0-0.5,0c-1.3,0-2.6,1.5-2.6,2V46h-2.9V34h2.6v2h0c0.7-1.4,1.7-2.2,3.4-2.3V36.8z"/>
	<path class="st1" d="M297.3,30.1v4h2.3v2.3h-2.3v6.8c0,0.5,0.3,0.8,1,0.8c0.4,0,0.9-0.1,1.3-0.2V46c-0.8,0.1-1.4,0.2-2.3,0.2
		c-2,0-2.9-1-2.9-2.7v-7.2h-1.7V34h1.7v-4H297.3z"/>
	<path class="st1" d="M303.3,34l2,7.4h0l2-7.4h2.9l-3.8,12c-0.2,0.7-0.6,1.5-1.1,2.4c-0.9,1.5-2,2-3.6,2c-0.5,0-0.7,0-1.4-0.1v-2.3
		c0.4,0.1,1,0.1,1.3,0.1c0.5,0,1.1-0.1,1.4-0.5c0.3-0.3,0.8-1.3,0.8-1.7c0-0.2,0-0.4-0.1-0.6L300.4,34H303.3z"/>
	<path class="st1" d="M328.4,40c0,3.8-2,6.2-5.2,6.2c-3.2,0-5.2-2.4-5.2-6.2c0-3.9,2-6.2,5.2-6.2S328.4,36.2,328.4,40z M323.2,43.9
		c1.6,0,2.3-1.2,2.3-3.9c0-2.6-0.8-3.9-2.3-3.9c-1.7,0-2.3,1.4-2.3,3.9C320.8,42.8,321.6,43.9,323.2,43.9z"/>
	<path class="st1" d="M336.1,29.2v2.3h-0.7c-1.6,0-1.7,0.6-1.7,1.4V34h2.4v2.3h-2.4V46h-2.9v-9.7h-1.7V34h1.6v-1.6
		c0-2.4,1-3.3,3.3-3.3H336.1z"/>
	<path class="st1" d="M348.4,30.1v4h2.3v2.3h-2.3v6.8c0,0.5,0.3,0.8,1,0.8c0.4,0,0.9-0.1,1.3-0.2V46c-0.8,0.1-1.4,0.2-2.3,0.2
		c-2,0-2.9-1-2.9-2.7v-7.2h-1.7V34h1.7v-4H348.4z"/>
	<path class="st1" d="M355.6,29.4v5.9c1.2-1,2.3-1.5,3.4-1.5c2.3,0,3.5,1.5,3.5,3.9V46h-2.9v-7.9c0-1.3-0.4-2-1.5-2
		c-1,0-2,0.5-2.7,1.3V46h-2.9V29.4H355.6z"/>
	<path class="st1" d="M374.7,39.2v1.2h-7.2c0,2.2,0.9,3.4,2.5,3.4c1,0,1.7-0.3,2.7-1.4l2.1,1.3c-1.1,1.7-2.7,2.4-5,2.4
		c-3.1,0-5.1-2.4-5.1-6.2s2-6.2,5.2-6.2C373.1,33.8,374.7,36.8,374.7,39.2z M372,38.5c0-1.6-0.9-2.6-2.3-2.6c-1.4,0-2.2,0.9-2.3,2.6
		H372z"/>
	<path class="st1" d="M380.2,29.2v2.7h-2.9v-2.7H380.2z M380.2,34v12h-2.9V34H380.2z"/>
	<path class="st1" d="M389.2,36.8c-0.1,0-0.2,0-0.5,0c-1.3,0-2.6,1.5-2.6,2V46h-2.9V34h2.6v2h0c0.7-1.4,1.7-2.2,3.4-2.3V36.8z"/>
	<path class="st1" d="M403.9,36.8c-0.1,0-0.2,0-0.5,0c-1.3,0-2.6,1.5-2.6,2V46h-2.9V34h2.6v2h0c0.7-1.4,1.7-2.2,3.4-2.3V36.8z"/>
	<path class="st1" d="M414.9,39.2v1.2h-7.2c0,2.2,0.9,3.4,2.5,3.4c1,0,1.7-0.3,2.7-1.4l2.1,1.3c-1.1,1.7-2.7,2.4-5,2.4
		c-3.1,0-5.1-2.4-5.1-6.2s2-6.2,5.2-6.2C413.4,33.8,414.9,36.8,414.9,39.2z M412.3,38.5c0-1.6-0.9-2.6-2.3-2.6
		c-1.4,0-2.2,0.9-2.3,2.6H412.3z"/>
	<path class="st1" d="M424.8,35.6l-1.8,1.6c-0.8-0.9-1.5-1.3-2.2-1.3c-1.1,0-1.6,0.4-1.6,1.2c0,0.7,0.6,1.1,2.1,1.6
		c2.9,1,3.8,2.1,3.8,4c0,2.3-1.6,3.6-4.4,3.6c-1.9,0-3.4-0.8-4.5-2.4l1.9-1.4c0.9,1.2,1.8,1.7,2.8,1.7s1.7-0.6,1.7-1.4
		c0-0.7-0.7-1.1-2.2-1.7c-2.9-1-3.8-2.1-3.8-3.8c0-2.1,1.8-3.5,4-3.5C422.3,33.8,423.8,34.4,424.8,35.6z"/>
	<path class="st1" d="M438,40.3c0,3.2-1.9,5.9-4.8,5.9c-1,0-2.3-0.6-2.9-1.3h0v5.5h-2.9V34h2.7v1.1c0.8-0.8,1.8-1.3,3.1-1.3
		C436.3,33.8,438,36.4,438,40.3z M430.3,42.9c0.7,0.6,1.4,1,2.2,1c1.7,0,2.7-1.4,2.7-3.9c0-2.5-0.9-3.9-2.7-3.9
		c-1.1,0-1.9,0.8-2.2,1.1V42.9z"/>
	<path class="st1" d="M449.4,39.2v1.2h-7.2c0,2.2,0.9,3.4,2.5,3.4c1,0,1.7-0.3,2.7-1.4l2.1,1.3c-1.1,1.7-2.7,2.4-5,2.4
		c-3.1,0-5.1-2.4-5.1-6.2s2-6.2,5.2-6.2C447.9,33.8,449.4,36.8,449.4,39.2z M446.8,38.5c0-1.6-0.9-2.6-2.3-2.6
		c-1.4,0-2.2,0.9-2.3,2.6H446.8z"/>
	<path class="st1" d="M460.7,37l-2.4,0.9c-0.6-1.4-1.2-1.8-2.3-1.8c-1.6,0-2.3,1.2-2.3,3.9c0,2.7,0.8,3.9,2.4,3.9
		c1,0,1.8-0.5,2.5-1.9l2.2,1.2c-1.1,2-2.5,3-4.7,3c-3.3,0-5.2-2.4-5.2-6.2c0-3.8,2-6.2,5.2-6.2C458.2,33.8,460,35,460.7,37z"/>
	<path class="st1" d="M466.5,30.1v4h2.3v2.3h-2.3v6.8c0,0.5,0.3,0.8,1,0.8c0.4,0,0.9-0.1,1.3-0.2V46c-0.8,0.1-1.4,0.2-2.3,0.2
		c-2,0-2.9-1-2.9-2.7v-7.2H462V34h1.7v-4H466.5z"/>
	<path class="st1" d="M474,29.2v2.7h-2.9v-2.7H474z M474,34v12h-2.9V34H474z"/>
	<path class="st1" d="M478.9,34l2,8.1h0l2-8.1h2.9l-3.4,12h-3L476,34H478.9z"/>
	<path class="st1" d="M496.7,39.2v1.2h-7.2c0,2.2,0.9,3.4,2.5,3.4c1,0,1.7-0.3,2.7-1.4l2.1,1.3c-1.1,1.7-2.7,2.4-5,2.4
		c-3.1,0-5.1-2.4-5.1-6.2s2-6.2,5.2-6.2C495.1,33.8,496.7,36.8,496.7,39.2z M494,38.5c0-1.6-0.9-2.6-2.3-2.6c-1.4,0-2.2,0.9-2.3,2.6
		H494z"/>
	<path class="st1" d="M515.5,40c0,3.8-2,6.2-5.2,6.2c-3.2,0-5.2-2.4-5.2-6.2c0-3.9,2-6.2,5.2-6.2S515.5,36.2,515.5,40z M510.3,43.9
		c1.6,0,2.3-1.2,2.3-3.9c0-2.6-0.8-3.9-2.3-3.9c-1.7,0-2.3,1.4-2.3,3.9C507.9,42.8,508.7,43.9,510.3,43.9z"/>
	<path class="st1" d="M519,34l1.6,7.5h0l1.7-7.5h2.6l1.7,7.5h0l1.7-7.5h2.7l-3.1,12h-2.6l-1.8-7.5h0l-1.7,7.5h-2.6l-3.1-12H519z"/>
	<path class="st1" d="M542.7,37.7V46h-2.9v-7.9c0-1.3-0.4-2-1.5-2c-1,0-2,0.5-2.7,1.3V46h-2.9V34h2.6v1.3c1.4-1,2.6-1.5,3.7-1.5
		C541.5,33.8,542.7,35.4,542.7,37.7z"/>
	<path class="st1" d="M554.8,39.2v1.2h-7.2c0,2.2,0.9,3.4,2.5,3.4c1,0,1.7-0.3,2.7-1.4l2.1,1.3c-1.1,1.7-2.7,2.4-5,2.4
		c-3.1,0-5.1-2.4-5.1-6.2s2-6.2,5.2-6.2C553.3,33.8,554.8,36.8,554.8,39.2z M552.2,38.5c0-1.6-0.9-2.6-2.3-2.6
		c-1.4,0-2.2,0.9-2.3,2.6H552.2z"/>
	<path class="st1" d="M563,36.8c-0.1,0-0.2,0-0.5,0c-1.3,0-2.6,1.5-2.6,2V46H557V34h2.6v2h0c0.7-1.4,1.7-2.2,3.4-2.3V36.8z"/>
	<path class="st1" d="M572.4,35.6l-1.8,1.6c-0.8-0.9-1.5-1.3-2.2-1.3c-1.1,0-1.6,0.4-1.6,1.2c0,0.7,0.6,1.1,2.1,1.6
		c2.9,1,3.8,2.1,3.8,4c0,2.3-1.6,3.6-4.4,3.6c-1.9,0-3.4-0.8-4.5-2.4l1.9-1.4c0.9,1.2,1.8,1.7,2.8,1.7s1.7-0.6,1.7-1.4
		c0-0.7-0.7-1.1-2.2-1.7c-2.9-1-3.8-2.1-3.8-3.8c0-2.1,1.8-3.5,4-3.5C569.8,33.8,571.4,34.4,572.4,35.6z"/>
	<path class="st1" d="M578.6,42.7V46h-3.2v-3.3H578.6z"/>
</g>
</svg>
