<?xml version="1.0" encoding="UTF-8"?><svg id="a" xmlns="http://www.w3.org/2000/svg" viewBox="0 0 270.15 317.86"><g transform="translate(-873 -502.068)"><g transform="translate(873 503.068)" isolation="isolate"><g isolation="isolate"><path d="M7.98,4.78V25.81H26.43v4.41H3.01V4.78H7.98Z" fill="#fff"/><path d="M49.35,22.03h-16.49c.42,3.5,3.01,5.32,6.27,5.32,2.24,0,4.34-1.02,5.11-2.77h4.76c-1.02,3.54-4.73,6.27-9.8,6.27-6.58,0-10.75-4.06-10.75-10.08s4.06-9.98,10.36-9.98,10.5,3.75,10.54,11.24Zm-4.62-3.36c-.63-2.91-2.52-4.38-5.95-4.38-3.19,0-5.11,1.58-5.78,4.38h11.73Z" fill="#fff"/><path d="M71.54,17.34v10.05c0,.88,.04,2.17,.35,2.83h-4.45c-.14-.63-.24-1.19-.24-1.89-3.08,1.82-5.6,2.52-8.19,2.52-3.54,0-7.32-1.64-7.32-5.67,0-2.59,1.51-4.41,4.59-5.71,2.52-1.05,6.09-1.65,10.92-1.89v-.8c0-1.65-1.61-2.49-4.87-2.49-2.84,0-4.62,.7-5.08,2.49h-4.52c.77-3.92,4.13-5.99,9.59-5.99,5.78,0,9.21,1.71,9.21,6.55Zm-11.94,10.15c2.49,0,4.76-.74,7.6-2.45v-4.31c-2.49,.11-5.88,.6-7.95,1.26-1.61,.52-2.8,1.33-2.8,2.97,0,1.51,1.02,2.52,3.15,2.52Z" fill="#fff"/><path d="M88.83,10.87v4.69c-1.23-.31-1.58-.35-2.59-.35-3.71,0-5.64,1.65-5.64,4.94v10.08h-4.34V11.43h4.34v2.8h.1c1.44-2.27,3.68-3.43,6.69-3.43,1.02,0,1.19,0,1.44,.07Z" fill="#fff"/><path d="M110.46,18.01v12.22h-4.34v-10.61c0-3.5-1.12-5.11-4.06-5.11-2.52,0-4.31,.7-5.92,2.77v12.95h-4.34V11.43h4.27v2.34c2.21-2.21,4.24-2.97,7.04-2.97,4.94,0,7.35,2.66,7.35,7.21Z" fill="#fff"/><path d="M132.12,4.78V13.77c1.93-2.1,4.17-2.97,6.97-2.97,4.94,0,7.35,2.66,7.35,7.21v12.22h-4.34v-10.61c0-3.5-1.15-5.11-4.06-5.11-2.52,0-4.31,.7-5.92,2.77v12.95h-4.34V4.78h4.34Z" fill="#fff"/><path d="M170.98,20.81c0,6.44-4.24,10.05-10.54,10.05s-10.54-3.61-10.54-10.05c0-5.85,3.85-10.01,10.54-10.01s10.54,4.06,10.54,10.01Zm-10.54,6.34c3.85,0,6.12-2.49,6.12-6.41s-2.48-6.23-6.16-6.23-6.09,2.14-6.09,6.23,2.27,6.41,6.12,6.41Z" fill="#fff"/><path d="M176.85,11.43l4.94,13.2,4.9-13.2h3.85l4.97,13.2,5.01-13.2h4.41l-7.35,18.8h-4.17l-4.8-13.13-4.8,13.13h-4.09l-7.42-18.8h4.55Z" fill="#fff"/></g><g isolation="isolate"><path d="M25.83,45.78v4.27H7.98v5.92h15.37v4.27H7.98v6.72H26.25v4.27H3.01v-25.45H25.83Z" fill="#fff"/><path d="M33.15,45.78l9.56,20.3,9.73-20.3h5.32l-12.46,25.45h-5.18l-12.29-25.45h5.32Z" fill="#fff"/><path d="M76.9,45.78c7.21,0,10.12,2.38,10.12,7.6,0,4.27-2.87,7.21-7.11,7.49l7.81,10.36h-6.13l-7.39-10.01h-7.88v10.01h-4.97v-25.45h15.54Zm-.73,11.31c4.55,0,5.88-1.01,5.88-3.61s-1.44-3.57-5.88-3.57h-9.84v7.18h9.84Z" fill="#fff"/><path d="M115.29,45.78v4.27h-17.85v5.92h15.37v4.27h-15.37v6.72h18.27v4.27h-23.24v-25.45h22.82Z" fill="#fff"/><path d="M124.95,45.78l17.01,18.38v-18.38h4.76v25.45h-4.55l-17.71-19.04v19.04h-4.76v-25.45h5.25Z" fill="#fff"/><path d="M175.7,45.78v2.8l-17.29,18.38h17.71v4.27h-25.55v-2.45l17.78-18.73h-16.87v-4.27h24.22Z" fill="#fff"/><path d="M208.64,58.69c0,7.42-5.14,13.16-15.16,13.16s-15.16-5.74-15.16-13.16c0-8.33,5.36-13.55,15.16-13.55s15.16,5.25,15.16,13.55Zm-15.19-9.28c-6.2,0-10.15,3.29-10.15,9s3.85,9.17,10.19,9.17,10.19-3.15,10.19-9.17c0-5.67-3.89-9-10.22-9Z" fill="#fff"/></g><g isolation="isolate"><path d="M226.84,44.71v2.49h-6.64v12.35h-2.9v-12.35h-6.64v-2.49h16.17Z" fill="#fff"/><path d="M232.82,44.71l4.63,11,4.72-11h3.82v14.84h-2.57v-11.25h-.04l-4.76,11.25h-2.31l-4.78-11.25h-.04v11.25h-2.57v-14.84h3.9Z" fill="#fff"/></g><g/><g isolation="isolate"><path d="M4.76,93.43l4.94,13.2,4.9-13.2h3.85l4.97,13.2,5.01-13.2h4.41l-7.35,18.8h-4.17l-4.8-13.13-4.8,13.13H7.63L.21,93.43H4.76Z" fill="#fff"/><path d="M55.23,102.81c0,6.44-4.24,10.05-10.54,10.05s-10.54-3.61-10.54-10.05c0-5.85,3.85-10.01,10.54-10.01s10.54,4.06,10.54,10.01Zm-10.54,6.34c3.85,0,6.13-2.49,6.13-6.41s-2.49-6.23-6.16-6.23-6.09,2.14-6.09,6.23,2.27,6.41,6.13,6.41Z" fill="#fff"/><path d="M71.26,92.87v4.69c-1.23-.31-1.58-.35-2.59-.35-3.71,0-5.64,1.65-5.64,4.94v10.08h-4.34v-18.8h4.34v2.8h.1c1.44-2.27,3.68-3.43,6.69-3.43,1.02,0,1.19,0,1.44,.07Z" fill="#fff"/><path d="M78.57,86.78v14.39l9.52-7.74h6.23l-8.02,6.37,8.51,12.43h-5.22l-6.58-9.77-4.45,3.57v6.2h-4.34v-25.45h4.34Z" fill="#fff"/><path d="M115.36,97.21l-3.61,2c-1.65-2.28-3.78-2.94-6.13-2.94-2.73,0-4.2,.95-4.2,2.28,0,1.16,1.05,1.61,3.68,1.96,6.13,.81,10.57,1.54,10.57,6.2,0,3.99-3.29,6.16-9.31,6.16-3.82,0-7.32-.7-10.19-4.58l3.68-2.14c1.29,2.14,3.64,3.22,6.86,3.22,2.62,0,4.41-.91,4.41-2.35,0-1.64-1.93-1.64-5.18-2.13-4.03-.6-9.07-1.29-9.07-6.09,0-2.77,2.42-6.02,8.82-6.02,4.03,0,7.53,1.5,9.66,4.45Z" fill="#fff"/></g></g><g transform="translate(873 503.068)" isolation="isolate"><g isolation="isolate"><path d="M3.12,140.55l5.16,17.7h.06l5.37-17.7h2.52l5.4,17.58h.06l5.22-17.58h2.76l-6.78,21.81h-2.52l-5.31-17.79h-.06l-5.34,17.79h-2.52L.33,140.55H3.12Z" fill="#fff"/><path d="M46.59,151.14v8.91c0,.42,.03,.78,.27,2.31h-2.43c-.21-.93-.3-1.29-.3-1.89-2.31,1.47-4.83,2.37-7.8,2.37-4.11,0-6.42-1.68-6.42-4.77,0-3.3,2.82-5.07,9.72-5.85l4.53-.51v-.63c0-1.65-1.68-2.91-5.07-2.91-2.61,0-4.65,.6-6.39,2.64l-1.83-1.26c1.83-2.46,4.5-3.36,8.07-3.36,5.01,0,7.65,1.98,7.65,4.95Zm-10.38,9.72c2.34,0,4.77-.72,7.95-2.46v-4.71l-3.78,.42c-3.81,.42-8.16,1.17-8.16,3.96,0,1.83,1.62,2.79,3.99,2.79Z" fill="#fff"/><path d="M55.08,141.45v5.22h6.24v2.07h-6.24v9.57c0,1.68,.84,2.46,3.21,2.46,1.14,0,1.92-.18,3.45-.48v2.1c-2.22,.3-2.91,.45-3.99,.45-3.18,0-5.1-1.14-5.1-4.23v-9.87h-3.33v-2.07h3.33v-5.22h2.43Z" fill="#fff"/><path d="M80.43,150.48l-2.1,1.2c-1.44-2.43-3.42-3.42-6.06-3.42-3.81,0-6.6,2.31-6.6,6.45,0,3.42,2.94,6.06,6.78,6.06,3.09,0,5.04-1.2,6.39-3.6l2.1,1.17c-1.8,3.12-4.53,4.5-8.55,4.5-5.52,0-9.15-3.57-9.15-8.37,0-5.04,3.75-8.28,9.03-8.28,3.66,0,6.39,1.32,8.16,4.29Z" fill="#fff"/><path d="M86.97,140.55v8.4c2.13-1.86,4.26-2.76,6.6-2.76,4.17,0,6.48,2.1,6.48,5.7v10.47h-2.43v-10.14c0-2.4-1.35-3.96-4.35-3.96-2.16,0-4.35,1.11-6.3,3.15v10.95h-2.43v-21.81h2.43Z" fill="#fff"/><path d="M130.77,151.14v8.91c0,.42,.03,.78,.27,2.31h-2.43c-.21-.93-.3-1.29-.3-1.89-2.31,1.47-4.83,2.37-7.8,2.37-4.11,0-6.42-1.68-6.42-4.77,0-3.3,2.82-5.07,9.72-5.85l4.53-.51v-.63c0-1.65-1.68-2.91-5.07-2.91-2.61,0-4.65,.6-6.39,2.64l-1.83-1.26c1.83-2.46,4.5-3.36,8.07-3.36,5.01,0,7.65,1.98,7.65,4.95Zm-10.38,9.72c2.34,0,4.77-.72,7.95-2.46v-4.71l-3.78,.42c-3.81,.42-8.16,1.17-8.16,3.96,0,1.83,1.62,2.79,3.99,2.79Z" fill="#fff"/><path d="M160.53,149.58l-1.65,1.5c-1.53-1.92-3.69-2.82-6.39-2.82-2.91,0-4.5,.9-4.5,2.55,0,1.44,1.74,1.95,3.84,2.22,4.38,.57,9.21,.75,9.21,4.89,0,3.12-2.79,4.92-7.56,4.92-3.84,0-6.57-1.2-8.7-3.72l1.8-1.65c1.77,2.19,4.14,3.3,7.11,3.3s4.92-1.02,4.92-2.67c0-1.83-2.34-2.34-5.52-2.67-3.87-.42-7.53-1.02-7.53-4.47,0-3.03,2.76-4.77,6.99-4.77,3.51,0,6.21,.96,7.98,3.39Z" fill="#fff"/><path d="M166.98,140.55v8.4c2.13-1.86,4.26-2.76,6.6-2.76,4.17,0,6.48,2.1,6.48,5.7v10.47h-2.43v-10.14c0-2.4-1.35-3.96-4.35-3.96-2.16,0-4.35,1.11-6.3,3.15v10.95h-2.43v-21.81h2.43Z" fill="#fff"/><path d="M201.36,154.23c0,5.25-3.39,8.61-9.03,8.61s-9.06-3.27-9.06-8.61c0-4.56,3.6-8.04,9.06-8.04s9.03,3.36,9.03,8.04Zm-9.03,6.54c4.08,0,6.6-2.49,6.6-6.24,0-3.51-2.4-6.27-6.63-6.27s-6.6,2.82-6.6,6.27c0,3.78,2.58,6.24,6.63,6.24Z" fill="#fff"/><path d="M214.98,146.31v2.43c-.75-.15-1.35-.21-1.92-.21-2.85,0-5.31,2.76-6.06,4.44v9.39h-2.43v-15.69h2.43v3.27c2.58-2.97,4.5-3.75,6.57-3.75,.51,0,.96,.03,1.41,.12Z" fill="#fff"/><path d="M221.76,141.45v5.22h6.24v2.07h-6.24v9.57c0,1.68,.84,2.46,3.21,2.46,1.14,0,1.92-.18,3.45-.48v2.1c-2.22,.3-2.91,.45-3.99,.45-3.18,0-5.1-1.14-5.1-4.23v-9.87h-3.33v-2.07h3.33v-5.22h2.43Z" fill="#fff"/></g><g isolation="isolate"><path d="M3.39,183.67l6.6,13.05,6.66-13.05h2.61l-8.04,15.69h-2.43L.75,183.67H3.39Z" fill="#fff"/><path d="M24.75,177.55v2.79h-2.79v-2.79h2.79Zm-.15,6.12v15.69h-2.43v-15.69h2.43Z" fill="#fff"/><path d="M46.11,177.55v18.93s.09,1.98,.18,2.88h-2.19l-.3-2.46c-2.88,2.4-4.62,2.94-7.56,2.94-5.49,0-8.58-3.99-8.58-8.19,0-4.5,3.03-8.46,9-8.46,2.04,0,4.02,.3,7.02,2.64v-8.28h2.43Zm-9.27,20.22c2.37,0,5.1-1.44,6.84-3.33v-6.09c-2.1-2.22-4.26-3.09-6.9-3.09-3.9,0-6.69,2.28-6.69,6.45,0,3.48,2.82,6.06,6.75,6.06Z" fill="#fff"/><path d="M67.17,191.77v.24h-15.42c.3,3.33,3,5.76,6.69,5.76,2.7,0,4.59-.66,6.39-3.06l1.89,1.38c-2.67,3.24-5.4,3.75-8.49,3.75-5.31,0-8.91-3.63-8.91-8.4s3.66-8.25,8.58-8.25c5.61,0,9.27,3.12,9.27,8.58Zm-2.64-1.83c-.54-2.85-3.03-4.68-6.45-4.68-3.24,0-5.46,1.53-6.24,4.68h12.69Z" fill="#fff"/><path d="M87.42,191.23c0,5.25-3.39,8.61-9.03,8.61s-9.06-3.27-9.06-8.61c0-4.56,3.6-8.04,9.06-8.04s9.03,3.36,9.03,8.04Zm-9.03,6.54c4.08,0,6.6-2.49,6.6-6.24,0-3.51-2.4-6.27-6.63-6.27s-6.6,2.82-6.6,6.27c0,3.78,2.58,6.24,6.63,6.24Z" fill="#fff"/><path d="M118.02,191.77v.24h-15.42c.3,3.33,3,5.76,6.69,5.76,2.7,0,4.59-.66,6.39-3.06l1.89,1.38c-2.67,3.24-5.4,3.75-8.49,3.75-5.31,0-8.91-3.63-8.91-8.4s3.66-8.25,8.58-8.25c5.61,0,9.27,3.12,9.27,8.58Zm-2.64-1.83c-.54-2.85-3.03-4.68-6.45-4.68-3.24,0-5.46,1.53-6.24,4.68h12.69Z" fill="#fff"/><path d="M122.94,183.67l5.49,5.82,5.31-5.82h3.12l-6.96,7.44,7.68,8.25h-3.18l-5.97-6.66-6.06,6.66h-3.18l7.59-8.25-6.96-7.44h3.12Z" fill="#fff"/><path d="M158.25,191.38c0,4.38-2.94,8.46-9,8.46-2.49,0-4.32-.54-7.02-2.64v7.68h-2.43v-21.21h2.43v2.37c2.79-2.31,4.56-2.85,7.41-2.85,5.82,0,8.61,4.29,8.61,8.19Zm-16.02,3.3c2.07,2.16,4.23,3.09,6.84,3.09,4.08,0,6.75-2.4,6.75-6.45,0-3.42-2.73-6.06-6.81-6.06-2.22,0-4.95,1.38-6.78,3.33v6.09Z" fill="#fff"/><path d="M163.77,177.55v21.81h-2.43v-21.81h2.43Z" fill="#fff"/><path d="M183.54,188.14v8.91c0,.42,.03,.78,.27,2.31h-2.43c-.21-.93-.3-1.29-.3-1.89-2.31,1.47-4.83,2.37-7.8,2.37-4.11,0-6.42-1.68-6.42-4.77,0-3.3,2.82-5.07,9.72-5.85l4.53-.51v-.63c0-1.65-1.68-2.91-5.07-2.91-2.61,0-4.65,.6-6.39,2.64l-1.83-1.26c1.83-2.46,4.5-3.36,8.07-3.36,5.01,0,7.65,1.98,7.65,4.95Zm-10.38,9.72c2.34,0,4.77-.72,7.95-2.46v-4.71l-3.78,.42c-3.81,.42-8.16,1.17-8.16,3.96,0,1.83,1.62,2.79,3.99,2.79Z" fill="#fff"/><path d="M190.65,177.55v2.79h-2.79v-2.79h2.79Zm-.15,6.12v15.69h-2.43v-15.69h2.43Z" fill="#fff"/><path d="M210.36,188.89v10.47h-2.43v-10.14c0-2.4-1.35-3.96-4.35-3.96-2.16,0-4.35,1.11-6.3,3.15v10.95h-2.43v-15.69h2.43v2.28c2.13-1.86,4.26-2.76,6.6-2.76,4.17,0,6.48,2.1,6.48,5.7Z" fill="#fff"/><path d="M217.35,177.55v2.79h-2.79v-2.79h2.79Zm-.15,6.12v15.69h-2.43v-15.69h2.43Z" fill="#fff"/><path d="M237.06,188.89v10.47h-2.43v-10.14c0-2.4-1.35-3.96-4.35-3.96-2.16,0-4.35,1.11-6.3,3.15v10.95h-2.43v-15.69h2.43v2.28c2.13-1.86,4.26-2.76,6.6-2.76,4.17,0,6.48,2.1,6.48,5.7Z" fill="#fff"/><path d="M258.33,185.29c-1.2,0-2.07,.12-2.94,.66,.66,.9,.87,1.83,.87,3,0,2.43-2.22,5.4-7.38,5.4-1.77,0-2.76-.12-4.47-.75-.75,.24-1.11,.69-1.11,1.29,0,1.02,.66,1.23,5.46,1.29,2.76,.03,4.74,.15,5.91,.33,2.4,.36,3.75,1.38,3.75,3.54,0,3.15-3.36,4.83-10.11,4.83-5.37,0-8.4-1.56-8.4-4.38,0-1.47,1.02-2.37,2.67-2.91-1.38-.72-1.71-1.26-1.71-2.19,0-1.05,.69-1.92,2.16-2.73-1.65-1.5-2.13-2.52-2.13-3.96,0-3.45,2.85-5.52,7.53-5.52,2.97,0,4.26,.48,5.85,1.47,1.44-1.23,2.13-1.59,4.05-1.59v2.22Zm-10.02,17.61c5.04,0,7.77-.93,7.77-2.61,0-1.38-1.44-1.65-3.78-1.74l-7.47-.3c-1.53,.57-2.58,1.14-2.58,2.25,0,1.53,2.34,2.4,6.06,2.4Zm.33-10.53c3.18,0,5.28-1.32,5.28-3.63s-1.83-3.57-5.4-3.57c-3.09,0-5.28,1.2-5.28,3.57s2.22,3.63,5.4,3.63Z" fill="#fff"/></g><g isolation="isolate"><path d="M22.29,214.55v2.34H5.49v6.96h14.04v2.34H5.49v7.83H22.65v2.34H2.85v-21.81H22.29Z" fill="#fff"/><path d="M26.19,214.55l9.63,18.93,9.66-18.93h2.91l-11.28,21.81h-2.58l-11.28-21.81h2.94Z" fill="#fff"/><path d="M63.93,214.55c5.34,0,8.4,2.01,8.4,6.09,0,3.57-2.7,5.7-6.87,6l7.2,9.72h-3.27l-7.02-9.66h-8.58v9.66h-2.64v-21.81h12.78Zm-.27,9.81c4.35,0,6.15-1.17,6.15-3.75s-1.53-3.72-6.45-3.72h-9.57v7.47h9.87Z" fill="#fff"/><path d="M97.26,214.55v2.34h-16.8v6.96h14.04v2.34h-14.04v7.83h17.16v2.34h-19.8v-21.81h19.44Z" fill="#fff"/><path d="M104.91,214.55l16.23,17.94v-17.94h2.64v21.81h-2.64l-17.46-19.47v19.47h-2.52v-21.81h3.75Z" fill="#fff"/><path d="M149.07,214.55v1.65l-17.52,17.82h17.88v2.34h-22.26v-1.56l17.64-17.91h-16.74v-2.34h21Z" fill="#fff"/><path d="M176.91,225.59c0,7.17-5.76,11.31-12.78,11.31s-12.78-4.11-12.78-11.31,5.16-11.58,12.78-11.58,12.78,4.59,12.78,11.58Zm-12.78,8.97c6.03,0,10.08-3.48,10.08-9.45,0-4.98-3.87-8.88-10.11-8.88s-10.05,3.75-10.05,8.88c0,5.97,3.93,9.45,10.08,9.45Z" fill="#fff"/><path d="M184.14,214.55v3.27l-1.89,4.41h-1.47l1.65-4.56h-1.38v-3.12h3.09Z" fill="#fff"/><path d="M202.08,223.58l-1.65,1.5c-1.53-1.92-3.69-2.82-6.39-2.82-2.91,0-4.5,.9-4.5,2.55,0,1.44,1.74,1.95,3.84,2.22,4.38,.57,9.21,.75,9.21,4.89,0,3.12-2.79,4.92-7.56,4.92-3.84,0-6.57-1.2-8.7-3.72l1.8-1.65c1.77,2.19,4.14,3.3,7.11,3.3s4.92-1.02,4.92-2.67c0-1.83-2.34-2.34-5.52-2.67-3.87-.42-7.53-1.02-7.53-4.47,0-3.03,2.76-4.77,6.99-4.77,3.51,0,6.21,.96,7.98,3.39Z" fill="#fff"/></g><g isolation="isolate"><path d="M15.69,259.98c2.46-2.04,4.05-2.79,6.36-2.79,3.69,0,5.79,1.77,5.79,4.74v11.43h-2.43v-10.56c0-2.43-1.2-3.54-3.45-3.54-1.98,0-3.96,.99-5.76,2.76v11.34h-2.43v-10.56c0-2.4-1.17-3.54-3.39-3.54-1.98,0-4.02,.96-5.82,2.76v11.34H2.13v-15.69h2.34v2.19c2.28-1.95,4.14-2.67,6.24-2.67,2.22,0,3.81,.57,4.98,2.79Z" fill="#fff"/><path d="M48.78,265.77v.24h-15.42c.3,3.33,3,5.76,6.69,5.76,2.7,0,4.59-.66,6.39-3.06l1.89,1.38c-2.67,3.24-5.4,3.75-8.49,3.75-5.31,0-8.91-3.63-8.91-8.4s3.66-8.25,8.58-8.25c5.61,0,9.27,3.12,9.27,8.58Zm-2.64-1.83c-.54-2.85-3.03-4.68-6.45-4.68-3.24,0-5.46,1.53-6.24,4.68h12.69Z" fill="#fff"/><path d="M68.13,261.48l-2.1,1.2c-1.44-2.43-3.42-3.42-6.06-3.42-3.81,0-6.6,2.31-6.6,6.45,0,3.42,2.94,6.06,6.78,6.06,3.09,0,5.04-1.2,6.39-3.6l2.1,1.17c-1.8,3.12-4.53,4.5-8.55,4.5-5.52,0-9.15-3.57-9.15-8.37,0-5.04,3.75-8.28,9.03-8.28,3.66,0,6.39,1.32,8.16,4.29Z" fill="#fff"/><path d="M74.67,251.55v8.4c2.13-1.86,4.26-2.76,6.6-2.76,4.17,0,6.48,2.1,6.48,5.7v10.47h-2.43v-10.14c0-2.4-1.35-3.96-4.35-3.96-2.16,0-4.35,1.11-6.3,3.15v10.95h-2.43v-21.81h2.43Z" fill="#fff"/><path d="M107.64,262.14v8.91c0,.42,.03,.78,.27,2.31h-2.43c-.21-.93-.3-1.29-.3-1.89-2.31,1.47-4.83,2.37-7.8,2.37-4.11,0-6.42-1.68-6.42-4.77,0-3.3,2.82-5.07,9.72-5.85l4.53-.51v-.63c0-1.65-1.68-2.91-5.07-2.91-2.61,0-4.65,.6-6.39,2.64l-1.83-1.26c1.83-2.46,4.5-3.36,8.07-3.36,5.01,0,7.65,1.98,7.65,4.95Zm-10.38,9.72c2.34,0,4.77-.72,7.95-2.46v-4.71l-3.78,.42c-3.81,.42-8.16,1.17-8.16,3.96,0,1.83,1.62,2.79,3.99,2.79Z" fill="#fff"/><path d="M127.77,262.89v10.47h-2.43v-10.14c0-2.4-1.35-3.96-4.35-3.96-2.16,0-4.35,1.11-6.3,3.15v10.95h-2.43v-15.69h2.43v2.28c2.13-1.86,4.26-2.76,6.6-2.76,4.17,0,6.48,2.1,6.48,5.7Z" fill="#fff"/><path d="M134.76,251.55v2.79h-2.79v-2.79h2.79Zm-.15,6.12v15.69h-2.43v-15.69h2.43Z" fill="#fff"/><path d="M153.27,260.58l-1.65,1.5c-1.53-1.92-3.69-2.82-6.39-2.82-2.91,0-4.5,.9-4.5,2.55,0,1.44,1.74,1.95,3.84,2.22,4.38,.57,9.21,.75,9.21,4.89,0,3.12-2.79,4.92-7.56,4.92-3.84,0-6.57-1.2-8.7-3.72l1.8-1.65c1.77,2.19,4.14,3.3,7.11,3.3s4.92-1.02,4.92-2.67c0-1.83-2.34-2.34-5.52-2.67-3.87-.42-7.53-1.02-7.53-4.47,0-3.03,2.76-4.77,6.99-4.77,3.51,0,6.21,.96,7.98,3.39Z" fill="#fff"/><path d="M170.73,259.98c2.46-2.04,4.05-2.79,6.36-2.79,3.69,0,5.79,1.77,5.79,4.74v11.43h-2.43v-10.56c0-2.43-1.2-3.54-3.45-3.54-1.98,0-3.96,.99-5.76,2.76v11.34h-2.43v-10.56c0-2.4-1.17-3.54-3.39-3.54-1.98,0-4.02,.96-5.82,2.76v11.34h-2.43v-15.69h2.34v2.19c2.28-1.95,4.14-2.67,6.24-2.67,2.22,0,3.81,.57,4.98,2.79Z" fill="#fff"/></g><g isolation="isolate"><path d="M19.05,302.23c0,5.25-3.39,8.61-9.03,8.61s-9.06-3.27-9.06-8.61c0-4.56,3.6-8.04,9.06-8.04s9.03,3.36,9.03,8.04Zm-9.03,6.54c4.08,0,6.6-2.49,6.6-6.24,0-3.51-2.4-6.27-6.63-6.27s-6.6,2.82-6.6,6.27c0,3.78,2.58,6.24,6.63,6.24Z" fill="#fff"/><path d="M34.32,288.43v2.16c-1.17-.3-2.13-.51-3.36-.51-3.09,0-3.87,1.23-3.87,3.9v1.02h6.45v2.07h-6.45v13.29h-2.43v-13.29h-3.96v-2.07h3.96v-1.11c0-4.32,2.13-5.85,5.64-5.88,1.62,0,2.79,.12,4.02,.42Z" fill="#fff"/><path d="M63.48,299.14v8.91c0,.42,.03,.78,.27,2.31h-2.43c-.21-.93-.3-1.29-.3-1.89-2.31,1.47-4.83,2.37-7.8,2.37-4.11,0-6.42-1.68-6.42-4.77,0-3.3,2.82-5.07,9.72-5.85l4.53-.51v-.63c0-1.65-1.68-2.91-5.07-2.91-2.61,0-4.65,.6-6.39,2.64l-1.83-1.26c1.83-2.46,4.5-3.36,8.07-3.36,5.01,0,7.65,1.98,7.65,4.95Zm-10.38,9.72c2.34,0,4.77-.72,7.95-2.46v-4.71l-3.78,.42c-3.81,.42-8.16,1.17-8.16,3.96,0,1.83,1.62,2.79,3.99,2.79Z" fill="#fff"/><path d="M84,298.48l-2.1,1.2c-1.44-2.43-3.42-3.42-6.06-3.42-3.81,0-6.6,2.31-6.6,6.45,0,3.42,2.94,6.06,6.78,6.06,3.09,0,5.04-1.2,6.39-3.6l2.1,1.17c-1.8,3.12-4.53,4.5-8.55,4.5-5.52,0-9.15-3.57-9.15-8.37,0-5.04,3.75-8.28,9.03-8.28,3.66,0,6.39,1.32,8.16,4.29Z" fill="#fff"/><path d="M91.98,289.45v5.22h6.24v2.07h-6.24v9.57c0,1.68,.84,2.46,3.21,2.46,1.14,0,1.92-.18,3.45-.48v2.1c-2.22,.3-2.91,.45-3.99,.45-3.18,0-5.1-1.14-5.1-4.23v-9.87h-3.33v-2.07h3.33v-5.22h2.43Z" fill="#fff"/><path d="M103.92,288.55v2.79h-2.79v-2.79h2.79Zm-.15,6.12v15.69h-2.43v-15.69h2.43Z" fill="#fff"/><path d="M124.92,302.23c0,5.25-3.39,8.61-9.03,8.61s-9.06-3.27-9.06-8.61c0-4.56,3.6-8.04,9.06-8.04s9.03,3.36,9.03,8.04Zm-9.03,6.54c4.08,0,6.6-2.49,6.6-6.24,0-3.51-2.4-6.27-6.63-6.27s-6.6,2.82-6.6,6.27c0,3.78,2.58,6.24,6.63,6.24Z" fill="#fff"/><path d="M143.64,299.89v10.47h-2.43v-10.14c0-2.4-1.35-3.96-4.35-3.96-2.16,0-4.35,1.11-6.3,3.15v10.95h-2.43v-15.69h2.43v2.28c2.13-1.86,4.26-2.76,6.6-2.76,4.17,0,6.48,2.1,6.48,5.7Z" fill="#fff"/></g></g></g></svg>